%TF.GenerationSoftware,Altium Limited,Altium Designer,24.7.2 (38)*%
G04 Layer_Color=16711935*
%FSLAX45Y45*%
%MOMM*%
%TF.SameCoordinates,33B871D1-E8D8-480E-9A2D-2420748CAAD8*%
%TF.FilePolarity,Negative*%
%TF.FileFunction,Soldermask,Bot*%
%TF.Part,Single*%
G01*
G75*
%TA.AperFunction,ComponentPad*%
%ADD79C,0.10000*%
%ADD80C,1.57000*%
%ADD81R,1.57000X1.57000*%
%ADD84C,1.69000*%
%ADD85R,1.69000X1.69000*%
%ADD86C,3.40000*%
%ADD154R,1.60000X1.60000*%
%ADD155C,1.60000*%
%ADD156O,0.90000X1.50000*%
%ADD157C,2.50000*%
%ADD158C,5.80000*%
%ADD159C,3.40000*%
%ADD160C,1.11600*%
G04:AMPARAMS|DCode=161|XSize=1.116mm|YSize=1.116mm|CornerRadius=0.304mm|HoleSize=0mm|Usage=FLASHONLY|Rotation=0.000|XOffset=0mm|YOffset=0mm|HoleType=Round|Shape=RoundedRectangle|*
%AMROUNDEDRECTD161*
21,1,1.11600,0.50800,0,0,0.0*
21,1,0.50800,1.11600,0,0,0.0*
1,1,0.60800,0.25400,-0.25400*
1,1,0.60800,-0.25400,-0.25400*
1,1,0.60800,-0.25400,0.25400*
1,1,0.60800,0.25400,0.25400*
%
%ADD161ROUNDEDRECTD161*%
G04:AMPARAMS|DCode=162|XSize=2.05mm|YSize=2.05mm|CornerRadius=0.5375mm|HoleSize=0mm|Usage=FLASHONLY|Rotation=0.000|XOffset=0mm|YOffset=0mm|HoleType=Round|Shape=RoundedRectangle|*
%AMROUNDEDRECTD162*
21,1,2.05000,0.97500,0,0,0.0*
21,1,0.97500,2.05000,0,0,0.0*
1,1,1.07500,0.48750,-0.48750*
1,1,1.07500,-0.48750,-0.48750*
1,1,1.07500,-0.48750,0.48750*
1,1,1.07500,0.48750,0.48750*
%
%ADD162ROUNDEDRECTD162*%
%ADD163C,2.05000*%
D79*
X8046000Y730000D02*
D03*
X7326000D02*
D03*
D80*
X4190000Y4327000D02*
D03*
D81*
Y4073000D02*
D03*
D84*
X5269000Y1595000D02*
D03*
X4343000Y1598500D02*
D03*
D85*
X5523000Y1595000D02*
D03*
X4597000Y1598500D02*
D03*
D86*
X5142000Y731000D02*
D03*
X5650000D02*
D03*
X4216000Y734500D02*
D03*
X4724000D02*
D03*
D154*
X8900000Y6436000D02*
D03*
Y4150000D02*
D03*
X9505000Y925000D02*
D03*
D155*
X8646000Y6436000D02*
D03*
X8392000D02*
D03*
X8138000D02*
D03*
X7884000D02*
D03*
X7630000D02*
D03*
X7376000D02*
D03*
X7122000D02*
D03*
X8646000Y4150000D02*
D03*
X8392000D02*
D03*
X8138000D02*
D03*
X7884000D02*
D03*
X7630000D02*
D03*
X7376000D02*
D03*
X7122000D02*
D03*
X9630000Y675000D02*
D03*
X10080000D02*
D03*
X10205000Y925000D02*
D03*
D156*
X8135000Y260000D02*
D03*
X7237000D02*
D03*
X8099000Y605000D02*
D03*
X7273000D02*
D03*
D157*
X2380000Y6135000D02*
D03*
Y575000D02*
D03*
D158*
Y4945000D02*
D03*
Y1765000D02*
D03*
D159*
X10700000Y6350000D02*
D03*
Y350000D02*
D03*
X350000D02*
D03*
Y6350000D02*
D03*
D160*
X7904000Y3562000D02*
D03*
Y3435000D02*
D03*
X7777000Y3562000D02*
D03*
Y3435000D02*
D03*
X7650000Y3562000D02*
D03*
Y3435000D02*
D03*
X7523000Y3562000D02*
D03*
Y3435000D02*
D03*
X7396000Y3562000D02*
D03*
D161*
Y3435000D02*
D03*
D162*
X8855000Y615000D02*
D03*
D163*
X9205000D02*
D03*
%TF.MD5,24790046a95c1851fb3b3e26248fd4b2*%
M02*
