%TF.GenerationSoftware,Altium Limited,Altium Designer,24.7.2 (38)*%
G04 Layer_Physical_Order=1*
G04 Layer_Color=255*
%FSLAX45Y45*%
%MOMM*%
%TF.SameCoordinates,33B871D1-E8D8-480E-9A2D-2420748CAAD8*%
%TF.FilePolarity,Positive*%
%TF.FileFunction,Copper,L1,Top,Signal*%
%TF.Part,Single*%
G01*
G75*
%TA.AperFunction,Conductor*%
%ADD10C,0.30000*%
%TA.AperFunction,SMDPad,CuDef*%
%ADD11R,2.10000X1.30000*%
%ADD12R,0.57500X0.62000*%
%ADD13R,0.60000X0.75000*%
%ADD14R,0.60000X0.45000*%
%ADD15R,0.62000X0.60000*%
%ADD16R,0.62000X0.57500*%
%ADD17R,0.75000X0.60000*%
%TA.AperFunction,FiducialPad,Global*%
%ADD18C,1.20000*%
%TA.AperFunction,SMDPad,CuDef*%
%ADD19R,0.55000X0.80000*%
%ADD20R,0.45000X0.60000*%
%ADD21R,0.70000X0.65000*%
%ADD22R,1.20000X0.60000*%
%ADD23R,1.00000X0.85000*%
%ADD24R,0.94000X0.75000*%
%ADD25R,0.60000X0.62000*%
%ADD26R,0.85000X1.20000*%
%ADD27R,0.65000X0.90000*%
%ADD28R,0.30000X0.80000*%
%ADD29R,0.75000X0.20000*%
%ADD30R,1.00000X1.60000*%
%ADD31R,0.70000X1.00000*%
%ADD32R,0.80000X0.30000*%
%ADD33R,0.80000X0.40000*%
%ADD34R,0.60000X1.80000*%
%ADD35R,0.60000X1.20000*%
%ADD36R,1.15000X0.80000*%
%ADD37R,0.75000X0.94000*%
%ADD38R,1.47000X0.97000*%
%ADD39R,0.85000X1.00000*%
%ADD40R,0.95000X0.95000*%
%ADD41R,0.30000X1.47500*%
%ADD42R,1.47500X0.30000*%
%ADD43R,0.42500X0.50000*%
%ADD44R,0.25000X0.50000*%
%TA.AperFunction,ConnectorPad*%
%ADD45R,0.30000X0.70000*%
%TA.AperFunction,SMDPad,CuDef*%
%ADD46R,0.75000X0.45000*%
%ADD47R,1.35000X1.74000*%
%ADD48R,0.70000X0.35000*%
%ADD49R,0.50000X1.10000*%
%ADD50R,2.50000X1.20000*%
%ADD51R,1.20000X1.15000*%
%ADD52R,1.10000X0.55000*%
%ADD53R,1.47500X0.45000*%
%ADD54R,1.80000X1.80000*%
%ADD55R,0.90000X0.30000*%
%ADD56R,0.30000X0.30000*%
%ADD57R,0.30000X0.90000*%
%ADD58R,1.90000X1.10000*%
%ADD59R,0.20000X0.60000*%
%ADD60R,0.60000X0.35000*%
%ADD61R,0.35000X0.60000*%
%ADD62R,1.50000X0.80000*%
%ADD63R,0.80000X1.50000*%
%ADD64R,4.80000X4.80000*%
%ADD65R,0.65000X0.70000*%
%ADD66R,1.50000X3.40000*%
%ADD67R,1.00000X3.50000*%
%ADD68R,0.98000X3.40000*%
%ADD69R,1.50000X1.50000*%
%TA.AperFunction,Conductor*%
%ADD70C,0.20000*%
%ADD71C,0.40000*%
%ADD72C,0.25000*%
%TA.AperFunction,NonConductor*%
%ADD73C,0.20000*%
%TA.AperFunction,ComponentPad*%
%ADD74R,1.50000X1.50000*%
%ADD75C,1.50000*%
%ADD76O,0.80000X1.40000*%
%ADD77C,2.40000*%
%ADD78C,5.70000*%
%ADD79C,0.10000*%
%ADD80C,1.57000*%
%ADD81R,1.57000X1.57000*%
%ADD82C,1.01600*%
G04:AMPARAMS|DCode=83|XSize=1.016mm|YSize=1.016mm|CornerRadius=0.254mm|HoleSize=0mm|Usage=FLASHONLY|Rotation=0.000|XOffset=0mm|YOffset=0mm|HoleType=Round|Shape=RoundedRectangle|*
%AMROUNDEDRECTD83*
21,1,1.01600,0.50800,0,0,0.0*
21,1,0.50800,1.01600,0,0,0.0*
1,1,0.50800,0.25400,-0.25400*
1,1,0.50800,-0.25400,-0.25400*
1,1,0.50800,-0.25400,0.25400*
1,1,0.50800,0.25400,0.25400*
%
%ADD83ROUNDEDRECTD83*%
%ADD84C,1.69000*%
%ADD85R,1.69000X1.69000*%
%ADD86C,3.40000*%
G04:AMPARAMS|DCode=87|XSize=1.95mm|YSize=1.95mm|CornerRadius=0.4875mm|HoleSize=0mm|Usage=FLASHONLY|Rotation=0.000|XOffset=0mm|YOffset=0mm|HoleType=Round|Shape=RoundedRectangle|*
%AMROUNDEDRECTD87*
21,1,1.95000,0.97500,0,0,0.0*
21,1,0.97500,1.95000,0,0,0.0*
1,1,0.97500,0.48750,-0.48750*
1,1,0.97500,-0.48750,-0.48750*
1,1,0.97500,-0.48750,0.48750*
1,1,0.97500,0.48750,0.48750*
%
%ADD87ROUNDEDRECTD87*%
%ADD88C,1.95000*%
%TA.AperFunction,ViaPad*%
%ADD89C,0.50000*%
%ADD90C,0.60000*%
G36*
X9070000Y3890000D02*
X10949138D01*
Y127000D01*
Y124426D01*
X10948134Y119376D01*
X10946163Y114619D01*
X10943303Y110338D01*
X10939662Y106697D01*
X10935381Y103836D01*
X10930624Y101866D01*
X10925574Y100862D01*
X6774586D01*
X6770620Y108902D01*
X6758406Y127181D01*
X6751886Y134616D01*
X6745863Y142465D01*
X6730318Y158010D01*
X6722472Y164031D01*
X6715035Y170553D01*
X6696755Y182767D01*
X6687883Y187143D01*
X6679316Y192089D01*
X6659005Y200502D01*
X6649451Y203062D01*
X6640083Y206242D01*
X6618521Y210530D01*
X6611106Y211016D01*
X6603796Y212347D01*
X6592804Y212887D01*
X6590322Y212683D01*
X6587853Y213008D01*
X6012147D01*
X6009677Y212683D01*
X6007195Y212887D01*
X5996203Y212347D01*
X5988894Y211016D01*
X5981478Y210530D01*
X5959916Y206242D01*
X5950548Y203062D01*
X5940994Y200502D01*
X5920683Y192089D01*
X5912117Y187143D01*
X5903244Y182767D01*
X5884965Y170553D01*
X5877531Y164033D01*
X5869681Y158010D01*
X5854136Y142465D01*
X5848116Y134619D01*
X5841593Y127182D01*
X5829379Y108902D01*
X5825414Y100862D01*
X124426D01*
X119375Y101866D01*
X114619Y103836D01*
X110338Y106697D01*
X106697Y110338D01*
X103836Y114619D01*
X101866Y119375D01*
X100862Y124426D01*
Y127000D01*
Y6573000D01*
Y6575574D01*
X101866Y6580625D01*
X103836Y6585381D01*
X106697Y6589662D01*
X110338Y6593303D01*
X114619Y6596163D01*
X119376Y6598134D01*
X124426Y6599138D01*
X3975574D01*
X3980623Y6598134D01*
X3985381Y6596163D01*
X3989662Y6593303D01*
X3993303Y6589662D01*
X3996163Y6585381D01*
X3998134Y6580624D01*
X3999138Y6575574D01*
Y5252000D01*
X3999463Y5249533D01*
X3999260Y5247052D01*
X3999871Y5234604D01*
X4001202Y5227292D01*
X4001688Y5219875D01*
X4006545Y5195457D01*
X4009724Y5186090D01*
X4012284Y5176536D01*
X4021812Y5153535D01*
X4026758Y5144968D01*
X4031133Y5136096D01*
X4044964Y5115396D01*
X4051485Y5107961D01*
X4057508Y5100112D01*
X4075112Y5082508D01*
X4082960Y5076486D01*
X4090396Y5069964D01*
X4111096Y5056133D01*
X4119968Y5051758D01*
X4128535Y5046812D01*
X4151536Y5037285D01*
X4161091Y5034724D01*
X4170457Y5031545D01*
X4194875Y5026688D01*
X4202292Y5026202D01*
X4209604Y5024871D01*
X4222052Y5024260D01*
X4224533Y5024463D01*
X4227000Y5024139D01*
X4773000D01*
X4775467Y5024463D01*
X4777948Y5024260D01*
X4790396Y5024871D01*
X4795841Y5025862D01*
X6224158D01*
X6229604Y5024871D01*
X6242052Y5024260D01*
X6244533Y5024463D01*
X6247000Y5024139D01*
X6743000D01*
X6745467Y5024463D01*
X6747948Y5024260D01*
X6760396Y5024871D01*
X6767708Y5026202D01*
X6775125Y5026688D01*
X6799543Y5031545D01*
X6808910Y5034724D01*
X6818464Y5037285D01*
X6841465Y5046812D01*
X6850032Y5051758D01*
X6858903Y5056133D01*
X6879604Y5069964D01*
X6887039Y5076485D01*
X6894888Y5082508D01*
X6912492Y5100112D01*
X6918514Y5107960D01*
X6925035Y5115396D01*
X6938867Y5136096D01*
X6943242Y5144968D01*
X6948188Y5153535D01*
X6957715Y5176536D01*
X6960276Y5186091D01*
X6963455Y5195457D01*
X6968312Y5219875D01*
X6968798Y5227290D01*
X6970129Y5234602D01*
X6970740Y5247050D01*
X6970537Y5249532D01*
X6970862Y5252000D01*
Y6575574D01*
X6971866Y6580625D01*
X6973836Y6585381D01*
X6976697Y6589662D01*
X6980338Y6593303D01*
X6984618Y6596163D01*
X6989376Y6598134D01*
X6994426Y6599138D01*
X6997000D01*
X9069999Y6599139D01*
X9070000Y3890000D01*
D02*
G37*
%LPC*%
G36*
X7425000Y6542892D02*
X7315001Y6542891D01*
X7315000Y6542892D01*
X7307196Y6541339D01*
X7300581Y6536919D01*
X7300580Y6536918D01*
X7265582Y6501920D01*
X7265581Y6501920D01*
X7261160Y6495304D01*
X7259608Y6487501D01*
Y6379999D01*
X7261160Y6372196D01*
X7265581Y6365580D01*
X7265582Y6365580D01*
X7289608Y6341553D01*
Y5790292D01*
X7271000Y5766000D01*
X7169000D01*
Y5666000D01*
Y5574000D01*
X7269608D01*
Y5264168D01*
X7271160Y5256364D01*
X7275581Y5249748D01*
X7275581Y5249748D01*
X7290070Y5235259D01*
X7296686Y5230838D01*
X7304490Y5229286D01*
X7394488Y5229286D01*
X7394490Y5229286D01*
X7402293Y5230838D01*
X7408909Y5235259D01*
X7408909Y5235259D01*
X7424419Y5250769D01*
X7428840Y5257384D01*
X7430392Y5265188D01*
Y5286015D01*
X7442500Y5313000D01*
X7490002D01*
Y5380001D01*
X7500002D01*
Y5390001D01*
X7557500D01*
Y5430472D01*
X7565490Y5433781D01*
X7578149Y5446440D01*
X7583537Y5459448D01*
X7585000Y5462979D01*
X7585101Y5490801D01*
X7585100D01*
Y5650800D01*
X7490445D01*
X7487293Y5682800D01*
X7488454Y5683031D01*
X7500031Y5690766D01*
X7545334Y5736069D01*
X7548495Y5740800D01*
X7585100D01*
Y5900800D01*
X7585101D01*
X7567725Y5932800D01*
X7571624Y5940000D01*
X7577500D01*
Y6080000D01*
X7523241D01*
X7516000Y6109000D01*
X7516000D01*
Y6150000D01*
X7466000D01*
Y6160000D01*
X7456000D01*
Y6211000D01*
X7434488D01*
Y6325650D01*
X7484419Y6375580D01*
X7484419Y6375580D01*
X7488840Y6382196D01*
X7490392Y6389999D01*
Y6477498D01*
X7490392Y6477499D01*
X7488840Y6485303D01*
X7484419Y6491919D01*
X7484419Y6491919D01*
X7439420Y6536919D01*
X7439419Y6536919D01*
X7432804Y6541340D01*
X7425000Y6542892D01*
D02*
G37*
G36*
X7134507Y6531000D02*
X7132001D01*
Y6446001D01*
X7217000D01*
Y6448507D01*
X7210526Y6472669D01*
X7198019Y6494331D01*
X7180331Y6512019D01*
X7158668Y6524526D01*
X7134507Y6531000D01*
D02*
G37*
G36*
X7112001D02*
X7109493D01*
X7085332Y6524526D01*
X7063669Y6512019D01*
X7045981Y6494331D01*
X7033474Y6472669D01*
X7027000Y6448507D01*
Y6446001D01*
X7112001D01*
Y6531000D01*
D02*
G37*
G36*
X8995000D02*
X8805000D01*
Y6384258D01*
X8711330Y6290588D01*
X8585655D01*
X8573410Y6320152D01*
X8603880Y6350622D01*
X8609332Y6347474D01*
X8633493Y6341000D01*
X8658507D01*
X8682668Y6347474D01*
X8704331Y6359981D01*
X8722019Y6377669D01*
X8734526Y6399332D01*
X8741000Y6423493D01*
Y6448507D01*
X8734526Y6472669D01*
X8722019Y6494331D01*
X8704331Y6512019D01*
X8682668Y6524526D01*
X8658507Y6531000D01*
X8633493D01*
X8609332Y6524526D01*
X8587669Y6512019D01*
X8569981Y6494331D01*
X8557474Y6472669D01*
X8551000Y6448507D01*
Y6423493D01*
X8557474Y6399332D01*
X8560622Y6393880D01*
X8497330Y6330588D01*
X8463420D01*
X8454252Y6351177D01*
X8452937Y6362588D01*
X8468019Y6377669D01*
X8480526Y6399332D01*
X8487000Y6423493D01*
Y6448507D01*
X8480526Y6472669D01*
X8468019Y6494331D01*
X8450331Y6512019D01*
X8428668Y6524526D01*
X8404507Y6531000D01*
X8379493D01*
X8355332Y6524526D01*
X8333669Y6512019D01*
X8315981Y6494331D01*
X8303474Y6472669D01*
X8297000Y6448507D01*
Y6423493D01*
X8303474Y6399332D01*
X8306622Y6393880D01*
X8253058Y6340316D01*
X8223508Y6350341D01*
X8220065Y6361909D01*
X8218259Y6370990D01*
X8216643Y6373408D01*
X8214914Y6379220D01*
X8226526Y6399332D01*
X8233000Y6423493D01*
Y6448507D01*
X8226526Y6472669D01*
X8214019Y6494331D01*
X8196331Y6512019D01*
X8174668Y6524526D01*
X8150507Y6531000D01*
X8125493D01*
X8101332Y6524526D01*
X8079669Y6512019D01*
X8061981Y6494331D01*
X8049474Y6472669D01*
X8043000Y6448507D01*
Y6423493D01*
X8049474Y6399332D01*
X8061981Y6377669D01*
X8079669Y6359981D01*
X8101332Y6347474D01*
X8125493Y6341000D01*
X8150507D01*
X8159412Y6334167D01*
Y6244646D01*
X8144448Y6236020D01*
X8127412Y6232846D01*
X7968280Y6391978D01*
X7972526Y6399332D01*
X7979000Y6423493D01*
Y6448507D01*
X7972526Y6472669D01*
X7960019Y6494331D01*
X7942331Y6512019D01*
X7920668Y6524526D01*
X7896507Y6531000D01*
X7871493D01*
X7847332Y6524526D01*
X7825669Y6512019D01*
X7807981Y6494331D01*
X7795474Y6472669D01*
X7789000Y6448507D01*
Y6423493D01*
X7795474Y6399332D01*
X7807981Y6377669D01*
X7823062Y6362588D01*
X7821748Y6351176D01*
X7812580Y6330588D01*
X7775669D01*
X7714280Y6391978D01*
X7718526Y6399332D01*
X7725000Y6423493D01*
Y6448507D01*
X7718526Y6472669D01*
X7706019Y6494331D01*
X7688331Y6512019D01*
X7666668Y6524526D01*
X7642507Y6531000D01*
X7617493D01*
X7593332Y6524526D01*
X7571669Y6512019D01*
X7553981Y6494331D01*
X7541474Y6472669D01*
X7535000Y6448507D01*
Y6423493D01*
X7541474Y6399332D01*
X7553981Y6377669D01*
X7571669Y6359981D01*
X7593332Y6347474D01*
X7617493Y6341000D01*
X7642507D01*
X7666668Y6347474D01*
X7670218Y6349524D01*
X7741370Y6278372D01*
X7741371Y6278371D01*
X7751294Y6271741D01*
X7763000Y6269413D01*
X7947761D01*
X7996494Y6220680D01*
X7990000Y6205000D01*
X7990000D01*
Y6128716D01*
X7990000Y6120000D01*
X7984213Y6120000D01*
X7950000D01*
Y6020000D01*
X8009999D01*
Y6020000D01*
X8039412Y6013753D01*
Y5960000D01*
X7920050D01*
Y5870000D01*
X8369949D01*
Y5960000D01*
X8359287D01*
Y6003677D01*
X8356959Y6015382D01*
X8350328Y6025305D01*
X8350328Y6025306D01*
X8340587Y6035047D01*
Y6162330D01*
X8407670Y6229412D01*
X8723999D01*
X8724000Y6229412D01*
X8735705Y6231741D01*
X8745629Y6238371D01*
X8848258Y6341000D01*
X8995000D01*
Y6531000D01*
D02*
G37*
G36*
X7217000Y6426001D02*
X7132001D01*
Y6341000D01*
X7134507D01*
X7158668Y6347474D01*
X7180331Y6359981D01*
X7198019Y6377669D01*
X7210526Y6399332D01*
X7217000Y6423493D01*
Y6426001D01*
D02*
G37*
G36*
X7112001D02*
X7027000D01*
Y6423493D01*
X7033474Y6399332D01*
X7045981Y6377669D01*
X7063669Y6359981D01*
X7085332Y6347474D01*
X7109493Y6341000D01*
X7112001D01*
Y6426001D01*
D02*
G37*
G36*
X7516000Y6211000D02*
X7476000D01*
Y6170000D01*
X7516000D01*
Y6211000D01*
D02*
G37*
G36*
X367728Y6530000D02*
X332272D01*
X297496Y6523083D01*
X264738Y6509514D01*
X235257Y6489815D01*
X210185Y6464743D01*
X190486Y6435262D01*
X176917Y6402504D01*
X170000Y6367728D01*
Y6332272D01*
X176917Y6297496D01*
X190486Y6264738D01*
X210185Y6235257D01*
X235257Y6210185D01*
X264738Y6190486D01*
X297496Y6176917D01*
X332272Y6170000D01*
X367728D01*
X402504Y6176917D01*
X435262Y6190486D01*
X464743Y6210185D01*
X489815Y6235257D01*
X509514Y6264738D01*
X523083Y6297496D01*
X530000Y6332272D01*
Y6367728D01*
X523083Y6402504D01*
X509514Y6435262D01*
X489815Y6464743D01*
X464743Y6489815D01*
X435262Y6509514D01*
X402504Y6523083D01*
X367728Y6530000D01*
D02*
G37*
G36*
X2398431Y6275000D02*
X2390000D01*
Y6145001D01*
X2520000D01*
Y6153431D01*
X2510459Y6189038D01*
X2492028Y6220962D01*
X2465962Y6247028D01*
X2434038Y6265459D01*
X2398431Y6275000D01*
D02*
G37*
G36*
X2370000D02*
X2361569D01*
X2325962Y6265459D01*
X2294038Y6247028D01*
X2267972Y6220962D01*
X2249541Y6189038D01*
X2240000Y6153431D01*
Y6145001D01*
X2370000D01*
Y6275000D01*
D02*
G37*
G36*
X2520000Y6125001D02*
X2390000D01*
Y5995000D01*
X2398431D01*
X2434038Y6004541D01*
X2465962Y6022972D01*
X2492028Y6049038D01*
X2510459Y6080962D01*
X2520000Y6116569D01*
Y6125001D01*
D02*
G37*
G36*
X2370000D02*
X2240000D01*
Y6116569D01*
X2249541Y6080962D01*
X2267972Y6049038D01*
X2294038Y6022972D01*
X2325962Y6004541D01*
X2361569Y5995000D01*
X2370000D01*
Y6125001D01*
D02*
G37*
G36*
X445000Y6045000D02*
X360000D01*
Y5960000D01*
X445000D01*
Y6045000D01*
D02*
G37*
G36*
X340000D02*
X255000D01*
Y5960000D01*
X340000D01*
Y6045000D01*
D02*
G37*
G36*
X445000Y5940000D02*
X360000D01*
Y5855000D01*
X445000D01*
Y5940000D01*
D02*
G37*
G36*
X340000D02*
X255000D01*
Y5855000D01*
X340000D01*
Y5940000D01*
D02*
G37*
G36*
X8369949Y5810000D02*
X7920050D01*
Y5720000D01*
X7987296D01*
X7995952Y5706610D01*
X8003195Y5688000D01*
X7998214Y5675974D01*
Y5658073D01*
X8005065Y5641533D01*
X8017724Y5628874D01*
X8034263Y5622024D01*
X8051257Y5602694D01*
Y5584792D01*
X8058108Y5568253D01*
X8070766Y5555594D01*
X8087306Y5548743D01*
X8105208D01*
X8121747Y5555594D01*
X8134406Y5568253D01*
X8138261Y5577560D01*
X8167183Y5580608D01*
X8171252Y5579952D01*
X8174676Y5571684D01*
X8187335Y5559026D01*
X8203874Y5552175D01*
X8221776D01*
X8238316Y5559026D01*
X8250974Y5571684D01*
X8257825Y5588224D01*
X8264788Y5590766D01*
X8266991Y5590377D01*
X8295000Y5581049D01*
X8301851Y5564510D01*
X8314510Y5551851D01*
X8331049Y5545000D01*
X8348951D01*
X8365491Y5551851D01*
X8378149Y5564510D01*
X8385000Y5581049D01*
Y5598951D01*
X8378149Y5615490D01*
X8373088Y5620552D01*
Y5676178D01*
X8370759Y5687884D01*
X8370523Y5688237D01*
X8369950Y5720000D01*
X8369949D01*
Y5810000D01*
D02*
G37*
G36*
X7557500Y5370001D02*
X7510001D01*
Y5313000D01*
X7557500D01*
Y5370001D01*
D02*
G37*
G36*
X8216169Y5305000D02*
X8198268D01*
X8181728Y5298149D01*
X8174167Y5290588D01*
X7720001D01*
X7720000Y5290588D01*
X7708295Y5288259D01*
X7698371Y5281629D01*
X7477330Y5060588D01*
X7065001D01*
X7065000Y5060588D01*
X7053295Y5058259D01*
X7043371Y5051629D01*
X6749242Y4757500D01*
X6738549D01*
X6722010Y4750649D01*
X6709351Y4737991D01*
X6702500Y4721451D01*
Y4703549D01*
X6709351Y4687010D01*
X6722010Y4674351D01*
X6738549Y4667500D01*
X6756451D01*
X6775000Y4651049D01*
X6781851Y4634510D01*
X6794510Y4621851D01*
X6811049Y4615000D01*
X6828951D01*
X6845490Y4621851D01*
X6858149Y4634510D01*
X6865000Y4651049D01*
Y4661742D01*
X7152670Y4949412D01*
X7519999D01*
X7520000Y4949412D01*
X7531705Y4951741D01*
X7541629Y4958371D01*
X7742670Y5159412D01*
X8054412D01*
Y4955000D01*
X7935050D01*
Y4865000D01*
X8384950D01*
Y4951627D01*
X8385490Y4951851D01*
X8398149Y4964510D01*
X8405000Y4981049D01*
Y4998951D01*
X8398149Y5015490D01*
X8385490Y5028149D01*
X8368951Y5035000D01*
X8349829Y5039829D01*
X8345000Y5058951D01*
X8338149Y5075490D01*
X8325490Y5088149D01*
X8308951Y5095000D01*
X8291049D01*
X8274509Y5088149D01*
X8261851Y5075490D01*
X8255000Y5058951D01*
X8225000D01*
X8218149Y5075490D01*
X8206076Y5087564D01*
X8205469Y5088251D01*
X8197822Y5124564D01*
X8228847Y5155590D01*
X8235478Y5165513D01*
X8237806Y5177219D01*
X8237806Y5177220D01*
Y5226948D01*
X8245368Y5234509D01*
X8252218Y5251049D01*
Y5268951D01*
X8245368Y5285490D01*
X8232709Y5298149D01*
X8216169Y5305000D01*
D02*
G37*
G36*
X5567500Y4993088D02*
X5567499Y4993088D01*
X5125951D01*
X5125950Y4993088D01*
X5114244Y4990759D01*
X5109441Y4987550D01*
X5049000D01*
Y4890050D01*
X5151000D01*
Y4931912D01*
X5450000D01*
Y4905000D01*
X5500000D01*
Y4885000D01*
X5450000D01*
Y4837500D01*
Y4736000D01*
X5416000D01*
Y4685000D01*
X5396000D01*
Y4736000D01*
X5389422D01*
X5365000Y4756049D01*
Y4773951D01*
X5358149Y4790491D01*
X5345490Y4803149D01*
X5328951Y4810000D01*
X5311049D01*
X5294509Y4803149D01*
X5281851Y4790491D01*
X5275000Y4773951D01*
Y4757193D01*
X5248676Y4750618D01*
X5245436Y4749950D01*
X5144000D01*
Y4670000D01*
X5056000D01*
Y4749950D01*
X4954000D01*
Y4652450D01*
X4962500D01*
Y4570000D01*
Y4491000D01*
X4959000D01*
Y4451000D01*
X5061000D01*
Y4480000D01*
X5187500D01*
Y4519412D01*
X5253284D01*
X5264990Y4521741D01*
X5273814Y4527637D01*
X5282245Y4525994D01*
X5299639Y4518839D01*
X5304852Y4515400D01*
X5306500Y4512852D01*
Y4422549D01*
X5381499D01*
Y4516299D01*
X5401499D01*
Y4422549D01*
X5639254D01*
X5645000Y4413951D01*
Y4396049D01*
X5651851Y4379510D01*
X5664509Y4366851D01*
X5681049Y4360000D01*
X5698951D01*
X5715490Y4366851D01*
X5720417Y4371778D01*
X5740000Y4376594D01*
X5759583Y4371778D01*
X5764509Y4366851D01*
X5781049Y4360000D01*
X5798951D01*
X5815490Y4366851D01*
X5828149Y4379510D01*
X5835000Y4396049D01*
Y4413951D01*
X5840745Y4422549D01*
X6126500D01*
Y4559412D01*
X6577330D01*
X6749412Y4387330D01*
Y4115843D01*
X6717412Y4102588D01*
X6633371Y4186629D01*
X6623448Y4193260D01*
X6611742Y4195588D01*
X6611741Y4195588D01*
X6545314D01*
X6513759Y4196663D01*
Y4236663D01*
X6462758D01*
Y4256663D01*
X6513759D01*
Y4257525D01*
X6531049Y4285000D01*
X6548951D01*
X6565490Y4291851D01*
X6578149Y4304510D01*
X6585000Y4321049D01*
Y4338951D01*
X6578149Y4355490D01*
X6565490Y4368149D01*
X6548951Y4375000D01*
X6540100D01*
X6513759Y4388662D01*
Y4388663D01*
X6513758Y4388662D01*
X6411759D01*
Y4353185D01*
X6290300D01*
X6286852Y4352499D01*
X6196550D01*
Y4282499D01*
Y4277499D01*
X6290300D01*
Y4257499D01*
X6196550D01*
Y4182499D01*
Y4082499D01*
Y3982500D01*
Y3882499D01*
Y3771339D01*
X6179859Y3763741D01*
X6164550Y3761529D01*
X6155160Y3770919D01*
X6138621Y3777769D01*
X6120719D01*
X6104180Y3770919D01*
X6091521Y3758260D01*
X6084670Y3741720D01*
X6080505Y3722264D01*
X6061049Y3715000D01*
X6044510Y3708149D01*
X6031851Y3695490D01*
X6025000Y3678951D01*
Y3661049D01*
X6031851Y3644510D01*
X6044510Y3631851D01*
X6061049Y3625000D01*
X6065436D01*
X6081472Y3621041D01*
X6095000Y3599798D01*
X6101851Y3583259D01*
X6114509Y3570601D01*
X6131049Y3563750D01*
X6148951D01*
X6165490Y3570601D01*
X6196550Y3556405D01*
Y3532499D01*
X6384049D01*
Y3582499D01*
Y3688897D01*
X6416049Y3702152D01*
X6522530Y3595672D01*
Y3586361D01*
X6529381Y3569821D01*
X6542040Y3557163D01*
X6558579Y3550312D01*
X6576481D01*
X6593021Y3557163D01*
X6605679Y3569821D01*
X6612530Y3586361D01*
Y3604263D01*
X6605679Y3620802D01*
X6593041Y3633511D01*
X6604886Y3663182D01*
X6607002Y3668288D01*
Y3686190D01*
X6600151Y3702729D01*
X6587492Y3715388D01*
X6570953Y3722239D01*
X6560259D01*
X6491533Y3790965D01*
X6498794Y3828959D01*
X6511049Y3835000D01*
X6528951D01*
X6545490Y3841851D01*
X6558149Y3854509D01*
X6565000Y3871048D01*
X6579117Y3886933D01*
X6597019D01*
X6613558Y3893783D01*
X6626217Y3906442D01*
X6633068Y3922981D01*
Y3940883D01*
X6626217Y3957423D01*
X6613558Y3970081D01*
X6597019Y3976932D01*
X6594564D01*
X6577603Y3979294D01*
X6565000Y3998951D01*
X6558149Y4015490D01*
X6548780Y4035000D01*
X6558149Y4054510D01*
X6565000Y4071049D01*
Y4088951D01*
X6560933Y4098769D01*
X6576270Y4127376D01*
X6603701Y4129785D01*
X6679412Y4054073D01*
Y3780001D01*
X6679412Y3780000D01*
X6681741Y3768294D01*
X6688371Y3758371D01*
X6838370Y3608372D01*
X6838371Y3608371D01*
X6848294Y3601741D01*
X6860000Y3599412D01*
X6860001Y3599412D01*
X7302314D01*
X7325254Y3571523D01*
X7325200Y3571321D01*
Y3552679D01*
X7330025Y3534672D01*
X7339346Y3518528D01*
X7337868Y3493131D01*
X7327834Y3478114D01*
X7324310Y3460400D01*
Y3409600D01*
X7327834Y3391886D01*
X7337868Y3376868D01*
X7352886Y3366834D01*
X7370600Y3363311D01*
X7421400D01*
X7439114Y3366834D01*
X7454132Y3376868D01*
X7479528Y3378346D01*
X7495672Y3369025D01*
X7513000Y3364382D01*
Y3435000D01*
X7533000D01*
Y3364382D01*
X7550328Y3369025D01*
X7564623Y3377278D01*
X7586500Y3388131D01*
X7608377Y3377278D01*
X7622672Y3369025D01*
X7640000Y3364382D01*
Y3435000D01*
X7660000D01*
Y3364382D01*
X7677328Y3369025D01*
X7691623Y3377278D01*
X7713500Y3388131D01*
X7735377Y3377278D01*
X7749672Y3369025D01*
X7767679Y3364200D01*
X7786321D01*
X7804328Y3369025D01*
X7818623Y3377278D01*
X7840500Y3388131D01*
X7862377Y3377278D01*
X7876672Y3369025D01*
X7894000Y3364382D01*
Y3435000D01*
X7904000D01*
Y3445000D01*
X7974618D01*
X7969975Y3462328D01*
X7961722Y3476623D01*
X7950869Y3498500D01*
X7961722Y3520377D01*
X7969975Y3534672D01*
X7974800Y3552679D01*
Y3571321D01*
X7969975Y3589328D01*
X7960654Y3605472D01*
X7947472Y3618654D01*
X7931328Y3627975D01*
X7913321Y3632800D01*
X7894679D01*
X7876672Y3627975D01*
X7862377Y3619722D01*
X7840500Y3608869D01*
X7818623Y3619722D01*
X7804328Y3627975D01*
X7786321Y3632800D01*
X7767679D01*
X7749672Y3627975D01*
X7735377Y3619722D01*
X7713500Y3608869D01*
X7691623Y3619722D01*
X7677328Y3627975D01*
X7659321Y3632800D01*
X7640679D01*
X7622672Y3627975D01*
X7608377Y3619722D01*
X7586500Y3608869D01*
X7564623Y3619722D01*
X7550328Y3627975D01*
X7532321Y3632800D01*
X7513679D01*
X7499308Y3628949D01*
X7406629Y3721629D01*
X7396705Y3728259D01*
X7385000Y3730588D01*
X7384999Y3730588D01*
X6912670D01*
X6810588Y3832671D01*
Y4399999D01*
X6810588Y4400000D01*
X6808259Y4411705D01*
X6801629Y4421629D01*
X6801628Y4421629D01*
X6611629Y4611629D01*
X6601705Y4618259D01*
X6590000Y4620588D01*
X6589999Y4620588D01*
X6433155D01*
X6420909Y4650152D01*
X6498257Y4727500D01*
X6570000D01*
Y4732617D01*
X6581049Y4740000D01*
X6598951D01*
X6615490Y4746851D01*
X6628149Y4759510D01*
X6635000Y4776049D01*
Y4793951D01*
X6628149Y4810491D01*
X6615490Y4823149D01*
X6598951Y4830000D01*
X6581049D01*
X6570000Y4859564D01*
Y4885000D01*
X6520000D01*
Y4895000D01*
X6510000D01*
Y4952500D01*
X6470000D01*
Y4952500D01*
X6456245Y4943309D01*
X6453951Y4944260D01*
X6436049D01*
X6433754Y4943309D01*
X6420000Y4952500D01*
Y4952500D01*
X6380000D01*
Y4895000D01*
X6370000D01*
Y4885000D01*
X6320000D01*
Y4870511D01*
X6290087Y4842951D01*
X6281056Y4844403D01*
X6280000Y4849564D01*
Y4885000D01*
X6230000D01*
X6180000D01*
Y4857893D01*
X6151572Y4833841D01*
X6132563Y4838191D01*
X6130000Y4847205D01*
Y4885000D01*
X6080000D01*
Y4895000D01*
X6070000D01*
Y4952500D01*
X6030000D01*
Y4952500D01*
X5998000Y4941252D01*
X5988951Y4945000D01*
X5971049D01*
X5940000Y4952500D01*
Y4952500D01*
X5840001D01*
Y4952500D01*
X5809999D01*
Y4952500D01*
X5710001D01*
Y4952500D01*
X5679999D01*
Y4952500D01*
X5620758D01*
X5589129Y4984129D01*
X5579206Y4990759D01*
X5567500Y4993088D01*
D02*
G37*
G36*
X6570000Y4952500D02*
X6530000D01*
Y4905000D01*
X6570000D01*
Y4952500D01*
D02*
G37*
G36*
X6280000D02*
X6240000D01*
Y4905000D01*
X6280000D01*
Y4952500D01*
D02*
G37*
G36*
X6130000D02*
X6090000D01*
Y4905000D01*
X6130000D01*
Y4952500D01*
D02*
G37*
G36*
X6220000D02*
X6180000D01*
Y4905000D01*
X6220000D01*
Y4952500D01*
D02*
G37*
G36*
X6360000D02*
X6320000D01*
Y4905000D01*
X6360000D01*
Y4952500D01*
D02*
G37*
G36*
X4456000Y4958500D02*
X4264000D01*
Y4856501D01*
X4237637Y4842892D01*
X3955002D01*
X3955001Y4842892D01*
X3947197Y4841340D01*
X3940581Y4836919D01*
X3940581Y4836919D01*
X3920582Y4816920D01*
X3920581Y4816919D01*
X3916161Y4810304D01*
X3914608Y4802500D01*
Y4722500D01*
X3916161Y4714696D01*
X3920581Y4708081D01*
X3940580Y4688082D01*
X3940581Y4688081D01*
X3947196Y4683660D01*
X3955000Y4682108D01*
X4023000D01*
Y4652501D01*
X4090001D01*
Y4642501D01*
X4100001D01*
Y4577700D01*
X4106237Y4566011D01*
X4110819Y4553000D01*
X4105000Y4538951D01*
Y4521049D01*
X4111851Y4504510D01*
X4124510Y4491851D01*
X4141049Y4485000D01*
X4158951D01*
X4175491Y4491851D01*
X4188149Y4504510D01*
X4195000Y4521049D01*
Y4524243D01*
X4208258Y4537500D01*
X4325000D01*
Y4632500D01*
X4357000Y4634504D01*
X4357031Y4634346D01*
X4364767Y4622769D01*
X4395269Y4592267D01*
X4406846Y4584531D01*
X4415000Y4582909D01*
Y4537500D01*
X4575000D01*
Y4539213D01*
X4590000Y4565000D01*
X4730000D01*
Y4616501D01*
X4769999D01*
Y4666500D01*
X4779999D01*
Y4676500D01*
X4831000D01*
Y4679481D01*
X4853627Y4702108D01*
X4882500Y4702108D01*
X4890304Y4703660D01*
X4896919Y4708080D01*
X4914419Y4725580D01*
X4918840Y4732196D01*
X4920392Y4740000D01*
Y4799999D01*
X4919549Y4804232D01*
X4918840Y4807801D01*
X4918840Y4807801D01*
X4918840Y4807802D01*
X4916619Y4811126D01*
X4914420Y4814417D01*
X4894422Y4834418D01*
X4894421Y4834419D01*
X4890872Y4836790D01*
X4887807Y4838839D01*
X4887806Y4838839D01*
X4887806Y4838839D01*
X4880003Y4840391D01*
X4880003Y4840391D01*
X4880002Y4840391D01*
X4481328Y4840392D01*
X4456000Y4856501D01*
X4456000Y4867850D01*
Y4958500D01*
D02*
G37*
G36*
X2404004Y5250000D02*
X2355996D01*
X2308579Y5242490D01*
X2262921Y5227655D01*
X2220145Y5205859D01*
X2181306Y5177641D01*
X2147359Y5143694D01*
X2119141Y5104855D01*
X2097345Y5062079D01*
X2082510Y5016421D01*
X2075000Y4969004D01*
Y4920996D01*
X2082510Y4873579D01*
X2097345Y4827921D01*
X2119141Y4785145D01*
X2147359Y4746306D01*
X2181306Y4712359D01*
X2220145Y4684141D01*
X2262921Y4662346D01*
X2308579Y4647510D01*
X2355996Y4640000D01*
X2404004D01*
X2451421Y4647510D01*
X2497079Y4662346D01*
X2539855Y4684141D01*
X2578694Y4712359D01*
X2612641Y4746306D01*
X2640859Y4785145D01*
X2662654Y4827921D01*
X2677490Y4873579D01*
X2685000Y4920996D01*
Y4969004D01*
X2677490Y5016421D01*
X2662654Y5062079D01*
X2640859Y5104855D01*
X2612641Y5143694D01*
X2578694Y5177641D01*
X2539855Y5205859D01*
X2497079Y5227655D01*
X2451421Y5242490D01*
X2404004Y5250000D01*
D02*
G37*
G36*
X4831000Y4656500D02*
X4789999D01*
Y4616501D01*
X4831000D01*
Y4656500D01*
D02*
G37*
G36*
X4080001Y4632501D02*
X4023000D01*
Y4585000D01*
X4080001D01*
Y4632501D01*
D02*
G37*
G36*
X4202968Y4425500D02*
X4200000D01*
Y4337000D01*
X4288500D01*
Y4339968D01*
X4281787Y4365019D01*
X4268820Y4387480D01*
X4250480Y4405819D01*
X4228019Y4418787D01*
X4202968Y4425500D01*
D02*
G37*
G36*
X4180000D02*
X4177032D01*
X4151981Y4418787D01*
X4129520Y4405819D01*
X4111180Y4387480D01*
X4098213Y4365019D01*
X4091500Y4339968D01*
Y4337000D01*
X4180000D01*
Y4425500D01*
D02*
G37*
G36*
X4288500Y4317000D02*
X4200000D01*
Y4228500D01*
X4202968D01*
X4228019Y4235213D01*
X4250480Y4248180D01*
X4268820Y4266520D01*
X4281787Y4288980D01*
X4288500Y4314032D01*
Y4317000D01*
D02*
G37*
G36*
X4180000D02*
X4091500D01*
Y4314032D01*
X4098213Y4288980D01*
X4111180Y4266520D01*
X4129520Y4248180D01*
X4151981Y4235213D01*
X4177032Y4228500D01*
X4180000D01*
Y4317000D01*
D02*
G37*
G36*
X7134507Y4245000D02*
X7132001D01*
Y4160001D01*
X7217000D01*
Y4162507D01*
X7210526Y4186669D01*
X7198019Y4208331D01*
X7180331Y4226019D01*
X7158668Y4238526D01*
X7134507Y4245000D01*
D02*
G37*
G36*
X7112001D02*
X7109493D01*
X7085332Y4238526D01*
X7063669Y4226019D01*
X7045981Y4208331D01*
X7033474Y4186669D01*
X7027000Y4162507D01*
Y4160001D01*
X7112001D01*
Y4245000D01*
D02*
G37*
G36*
X8384950Y4805000D02*
X7935050D01*
Y4715000D01*
X8026200D01*
X8032483Y4700972D01*
X8011292Y4670000D01*
X7970000D01*
Y4570000D01*
X8004213D01*
X8010000Y4570000D01*
X8010000Y4561284D01*
Y4485000D01*
X7991682Y4460588D01*
X7910564D01*
X7898859Y4458259D01*
X7888935Y4451629D01*
X7888935Y4451628D01*
X7672478Y4235171D01*
X7666668Y4238526D01*
X7642507Y4245000D01*
X7617493D01*
X7593332Y4238526D01*
X7571669Y4226019D01*
X7553981Y4208331D01*
X7541474Y4186669D01*
X7535000Y4162507D01*
Y4137493D01*
X7541474Y4113332D01*
X7553981Y4091669D01*
X7571669Y4073981D01*
X7593332Y4061474D01*
X7617493Y4055000D01*
X7642507D01*
X7666668Y4061474D01*
X7688331Y4073981D01*
X7706019Y4091669D01*
X7718526Y4113332D01*
X7725000Y4137493D01*
Y4162507D01*
X7718526Y4186669D01*
X7715585Y4191763D01*
X7923234Y4399412D01*
X8037106D01*
X8037107Y4399412D01*
X8059412Y4373267D01*
Y4368670D01*
X7926120Y4235378D01*
X7920668Y4238526D01*
X7896507Y4245000D01*
X7871493D01*
X7847332Y4238526D01*
X7825669Y4226019D01*
X7807981Y4208331D01*
X7795474Y4186669D01*
X7789000Y4162507D01*
Y4137493D01*
X7795474Y4113332D01*
X7807981Y4091669D01*
X7825669Y4073981D01*
X7847332Y4061474D01*
X7871493Y4055000D01*
X7896507D01*
X7920668Y4061474D01*
X7942331Y4073981D01*
X7960019Y4091669D01*
X7972526Y4113332D01*
X7979000Y4137493D01*
Y4162507D01*
X7972526Y4186669D01*
X7969378Y4192120D01*
X8111629Y4334371D01*
X8118259Y4344295D01*
X8120588Y4356000D01*
Y4413655D01*
X8140107Y4433174D01*
X8149642Y4434680D01*
X8175886Y4431966D01*
X8178371Y4428246D01*
X8179412Y4427205D01*
Y4275433D01*
X8179412Y4275432D01*
X8180867Y4268120D01*
X8175119Y4260491D01*
X8152934Y4244350D01*
X8150507Y4245000D01*
X8125493D01*
X8101332Y4238526D01*
X8079669Y4226019D01*
X8061981Y4208331D01*
X8049474Y4186669D01*
X8043000Y4162507D01*
Y4137493D01*
X8049474Y4113332D01*
X8061981Y4091669D01*
X8079669Y4073981D01*
X8101332Y4061474D01*
X8125493Y4055000D01*
X8150507D01*
X8174668Y4061474D01*
X8196331Y4073981D01*
X8214019Y4091669D01*
X8226526Y4113332D01*
X8233000Y4137493D01*
Y4162507D01*
X8226526Y4186669D01*
X8224099Y4190871D01*
X8241562Y4221082D01*
X8264316Y4226765D01*
X8272518Y4226225D01*
X8306622Y4192120D01*
X8303474Y4186669D01*
X8297000Y4162507D01*
Y4137493D01*
X8303474Y4113332D01*
X8315981Y4091669D01*
X8333669Y4073981D01*
X8355332Y4061474D01*
X8379493Y4055000D01*
X8404507D01*
X8428668Y4061474D01*
X8450331Y4073981D01*
X8468019Y4091669D01*
X8480526Y4113332D01*
X8487000Y4137493D01*
Y4162507D01*
X8480526Y4186669D01*
X8468019Y4208331D01*
X8450331Y4226019D01*
X8428668Y4238526D01*
X8404507Y4245000D01*
X8379493D01*
X8355332Y4238526D01*
X8349880Y4235378D01*
X8280588Y4304670D01*
Y4385913D01*
X8310152Y4398159D01*
X8349940Y4358371D01*
X8359863Y4351741D01*
X8371568Y4349412D01*
X8371570Y4349412D01*
X8403330D01*
X8560622Y4192120D01*
X8557474Y4186669D01*
X8551000Y4162507D01*
Y4137493D01*
X8557474Y4113332D01*
X8569981Y4091669D01*
X8587669Y4073981D01*
X8609332Y4061474D01*
X8633493Y4055000D01*
X8658507D01*
X8682668Y4061474D01*
X8704331Y4073981D01*
X8722019Y4091669D01*
X8734526Y4113332D01*
X8741000Y4137493D01*
Y4162507D01*
X8734526Y4186669D01*
X8722019Y4208331D01*
X8704331Y4226019D01*
X8682668Y4238526D01*
X8658507Y4245000D01*
X8633493D01*
X8609332Y4238526D01*
X8603880Y4235378D01*
X8479410Y4359848D01*
X8491656Y4389412D01*
X8617330D01*
X8805000Y4201742D01*
Y4055000D01*
X8995000D01*
Y4245000D01*
X8848258D01*
X8651629Y4441629D01*
X8641705Y4448259D01*
X8630000Y4450588D01*
X8629999Y4450588D01*
X8400806D01*
X8360588Y4490807D01*
Y4637867D01*
X8362572Y4647842D01*
X8362572Y4647843D01*
Y4715000D01*
X8384950D01*
Y4805000D01*
D02*
G37*
G36*
X7388507Y4245000D02*
X7363493D01*
X7339332Y4238526D01*
X7317669Y4226019D01*
X7299981Y4208331D01*
X7287474Y4186669D01*
X7281000Y4162507D01*
Y4137493D01*
X7287474Y4113332D01*
X7299981Y4091669D01*
X7317669Y4073981D01*
X7339332Y4061474D01*
X7363493Y4055000D01*
X7388507D01*
X7412668Y4061474D01*
X7434331Y4073981D01*
X7452019Y4091669D01*
X7464526Y4113332D01*
X7471000Y4137493D01*
Y4162507D01*
X7464526Y4186669D01*
X7452019Y4208331D01*
X7434331Y4226019D01*
X7412668Y4238526D01*
X7388507Y4245000D01*
D02*
G37*
G36*
X7217000Y4140001D02*
X7132001D01*
Y4055000D01*
X7134507D01*
X7158668Y4061474D01*
X7180331Y4073981D01*
X7198019Y4091669D01*
X7210526Y4113332D01*
X7217000Y4137493D01*
Y4140001D01*
D02*
G37*
G36*
X7112001D02*
X7027000D01*
Y4137493D01*
X7033474Y4113332D01*
X7045981Y4091669D01*
X7063669Y4073981D01*
X7085332Y4061474D01*
X7109493Y4055000D01*
X7112001D01*
Y4140001D01*
D02*
G37*
G36*
X8138951Y3945000D02*
X8121049D01*
X8104510Y3938149D01*
X8096948Y3930588D01*
X6983052D01*
X6975490Y3938149D01*
X6958951Y3945000D01*
X6941049D01*
X6924510Y3938149D01*
X6911851Y3925490D01*
X6905000Y3908951D01*
Y3891049D01*
X6911851Y3874510D01*
X6924510Y3861851D01*
X6941049Y3855000D01*
X6958951D01*
X6975490Y3861851D01*
X6983052Y3869412D01*
X8096948D01*
X8104510Y3861851D01*
X8121049Y3855000D01*
X8138951D01*
X8155490Y3861851D01*
X8168149Y3874510D01*
X8175000Y3891049D01*
Y3908951D01*
X8168149Y3925490D01*
X8155490Y3938149D01*
X8138951Y3945000D01*
D02*
G37*
G36*
X4895000Y4480000D02*
X4412500D01*
Y3925000D01*
X4902496D01*
X4927500Y3950003D01*
Y4042500D01*
X4998013D01*
X5006718Y4030801D01*
X5013276Y4010500D01*
X5010690Y4006630D01*
X5008362Y3994924D01*
X5008362Y3994923D01*
Y3896620D01*
X4964829Y3853087D01*
X4617501D01*
X4617500Y3853088D01*
X4605794Y3850759D01*
X4595871Y3844128D01*
X4470564Y3718822D01*
X4450822Y3727000D01*
X4390000D01*
Y3737000D01*
X4380000D01*
Y3787000D01*
X4340000D01*
Y3812500D01*
X4240001D01*
X4220588Y3836459D01*
Y3974500D01*
X4288500D01*
Y4171500D01*
X4091500D01*
Y3974500D01*
X4159413D01*
Y3812500D01*
X4140000D01*
Y3697500D01*
Y3587500D01*
X4140000D01*
X4145000Y3557571D01*
Y3551049D01*
X4151851Y3534510D01*
X4164510Y3521851D01*
X4181049Y3515000D01*
X4198951D01*
X4215491Y3521851D01*
X4228149Y3534510D01*
X4235000Y3551049D01*
Y3557571D01*
X4237148Y3570429D01*
X4261953Y3587500D01*
X4340000D01*
Y3595000D01*
X4441000D01*
Y3614611D01*
X4451705Y3616741D01*
X4461629Y3623371D01*
X4601000Y3762742D01*
X4633000Y3749487D01*
Y3745000D01*
X4699999D01*
Y3725000D01*
X4633000D01*
Y3703417D01*
X4619757Y3676253D01*
X4602201Y3674600D01*
X4601049D01*
X4584509Y3667749D01*
X4571851Y3655090D01*
X4565000Y3638551D01*
Y3620649D01*
X4571851Y3604109D01*
X4584509Y3591451D01*
X4601049Y3584600D01*
X4613752D01*
X4613856Y3584531D01*
X4627512Y3581814D01*
X4633000D01*
Y3537500D01*
X4766999D01*
Y3569000D01*
X4860999D01*
X4865000Y3538657D01*
Y3522500D01*
X4959412D01*
Y3414322D01*
X4944510Y3408149D01*
X4931851Y3395491D01*
X4925000Y3378951D01*
Y3361049D01*
X4931851Y3344510D01*
X4936778Y3339583D01*
X4941594Y3320000D01*
X4936778Y3300417D01*
X4931851Y3295490D01*
X4925000Y3278951D01*
Y3261049D01*
X4931851Y3244510D01*
X4944510Y3231851D01*
X4961049Y3225000D01*
X4978951D01*
X4995490Y3231851D01*
X5008149Y3244510D01*
X5015000Y3261049D01*
Y3271742D01*
X5051699Y3308441D01*
X5058329Y3318364D01*
X5078086Y3332831D01*
X5091782Y3335000D01*
X5098951D01*
X5115490Y3341851D01*
X5128149Y3354510D01*
X5135000Y3371049D01*
Y3388951D01*
X5128149Y3405491D01*
X5115490Y3418149D01*
X5100588Y3424322D01*
Y3532499D01*
X5236450D01*
Y3632499D01*
Y3752549D01*
X5268449Y3765804D01*
X5299772Y3734481D01*
X5299773Y3734480D01*
X5309697Y3727850D01*
X5321402Y3725521D01*
X5321403Y3725522D01*
X5470839D01*
X5474509Y3721851D01*
X5491049Y3715000D01*
X5508951D01*
X5525490Y3721851D01*
X5538149Y3734510D01*
X5545000Y3751049D01*
Y3768951D01*
X5538149Y3785490D01*
X5528780Y3805000D01*
X5538149Y3824509D01*
X5545000Y3841049D01*
Y3858951D01*
X5538149Y3875490D01*
X5525490Y3888149D01*
X5508951Y3895000D01*
X5491049D01*
X5474509Y3888149D01*
X5466948Y3880588D01*
X5395826D01*
X5385000Y3896790D01*
Y3914691D01*
X5378149Y3931231D01*
X5365490Y3943889D01*
X5348951Y3950740D01*
X5331049D01*
X5319210Y3980304D01*
X5334389Y3986592D01*
X5347047Y3999250D01*
X5353898Y4015790D01*
Y4033691D01*
X5377881Y4059412D01*
X5416948D01*
X5424510Y4051851D01*
X5441049Y4045000D01*
X5458951D01*
X5475490Y4051851D01*
X5488149Y4064510D01*
X5495000Y4081049D01*
Y4098951D01*
X5488149Y4115490D01*
X5475490Y4128149D01*
X5458951Y4135000D01*
X5441049D01*
X5424510Y4128149D01*
X5416948Y4120588D01*
X5296378D01*
X5296376Y4120588D01*
X5284671Y4118259D01*
X5274747Y4111629D01*
X5274747Y4111628D01*
X5268449Y4105331D01*
X5236450Y4118586D01*
Y4232500D01*
Y4352499D01*
X5146147D01*
X5142700Y4353185D01*
X5098731D01*
X5088777Y4363139D01*
X5077200Y4370874D01*
X5063544Y4373591D01*
X5061000D01*
Y4431000D01*
X4959000D01*
Y4429564D01*
X4953319Y4412851D01*
X4921233Y4403146D01*
X4895000Y4420944D01*
Y4480000D01*
D02*
G37*
G36*
X10251000Y3821000D02*
X10210002D01*
Y3781000D01*
X10251000D01*
Y3821000D01*
D02*
G37*
G36*
X10190002D02*
X10149000D01*
Y3781000D01*
X10190002D01*
Y3821000D01*
D02*
G37*
G36*
X4441000Y3787000D02*
X4400000D01*
Y3747000D01*
X4441000D01*
Y3787000D01*
D02*
G37*
G36*
X9494950Y3690000D02*
X9307450D01*
Y3674338D01*
X9019302D01*
X9015490Y3678149D01*
X8998951Y3685000D01*
X8981049D01*
X8964510Y3678149D01*
X8951851Y3665491D01*
X8945000Y3648951D01*
Y3644272D01*
X8939936Y3628366D01*
X8916597Y3616000D01*
X8744000D01*
Y3514000D01*
X8715566Y3505392D01*
X8430001D01*
X8430000Y3505392D01*
X8422196Y3503839D01*
X8415580Y3499419D01*
X8415580Y3499418D01*
X8395581Y3479420D01*
X8395580Y3479419D01*
X8391160Y3472804D01*
X8389608Y3465000D01*
Y3385000D01*
X8391160Y3377196D01*
X8395580Y3370580D01*
X8415579Y3350581D01*
X8415580Y3350580D01*
X8422195Y3346160D01*
X8429999Y3344608D01*
X8473000D01*
Y3299999D01*
X8539998D01*
Y3289999D01*
X8549998D01*
Y3232500D01*
X8582461Y3232500D01*
X8583202D01*
X8583202D01*
X8588987Y3232499D01*
X8593078Y3222624D01*
X8602242Y3200500D01*
X8552330Y3150588D01*
X6755788D01*
X6755000Y3151376D01*
Y3153951D01*
X6748149Y3170490D01*
X6735490Y3183149D01*
X6718951Y3190000D01*
X6701049D01*
X6684510Y3183149D01*
X6665000Y3173781D01*
X6645490Y3183149D01*
X6628951Y3190000D01*
X6611049D01*
X6594510Y3183149D01*
X6581851Y3170490D01*
X6575000Y3153951D01*
Y3136049D01*
X6581851Y3119510D01*
X6594510Y3106851D01*
X6611049Y3100000D01*
X6613961D01*
X6655590Y3058371D01*
X6665513Y3051741D01*
X6677219Y3049412D01*
X6677220Y3049412D01*
X8247330D01*
X8359412Y2937331D01*
Y2750001D01*
X8359412Y2750000D01*
X8361741Y2738295D01*
X8368371Y2728371D01*
X8404412Y2692331D01*
Y2675001D01*
X8404412Y2675000D01*
X8405000Y2672044D01*
Y2575000D01*
X8540000D01*
Y2655001D01*
X8560000D01*
Y2575000D01*
X8613169D01*
X8614715Y2572685D01*
X8597611Y2540686D01*
X8500503D01*
X8486847Y2537969D01*
X8475269Y2530233D01*
X8444766Y2499731D01*
X8437031Y2488153D01*
X8436403Y2485000D01*
X8405000D01*
Y2325000D01*
X8406713D01*
X8432500Y2309999D01*
Y2170000D01*
X8494000D01*
Y2130000D01*
X8544000D01*
Y2120000D01*
X8554000D01*
Y2069000D01*
X8573856D01*
X8579607Y2039999D01*
X8581160Y2032196D01*
X8585580Y2025580D01*
X8650580Y1960581D01*
X8650581Y1960580D01*
X8657196Y1956160D01*
X8665000Y1954608D01*
X8688272D01*
X8716500Y1945500D01*
X8716500Y1922608D01*
Y1887000D01*
X8810000D01*
Y1877000D01*
X8820000D01*
Y1808500D01*
X8903500D01*
Y1827406D01*
X8914596Y1835861D01*
X8935500Y1842757D01*
X8935799Y1842557D01*
X8943602Y1841005D01*
X8996397D01*
X9004200Y1842557D01*
X9010816Y1846978D01*
X9030581Y1845581D01*
X9037196Y1841160D01*
X9045000Y1839608D01*
X9144998D01*
X9145000Y1839608D01*
X9152803Y1841160D01*
X9159419Y1845581D01*
X9159420Y1845581D01*
X9159500Y1845662D01*
X9191500Y1832406D01*
Y1798500D01*
X9361121D01*
X9378499Y1798500D01*
Y1798499D01*
X9392500Y1799999D01*
Y1800000D01*
X9434314D01*
Y1720000D01*
X9392500D01*
Y1600000D01*
X9547500D01*
Y1720000D01*
X9505686D01*
Y1800000D01*
X9547500D01*
Y1920000D01*
X9407037D01*
X9403170Y1927608D01*
X9422801Y1959608D01*
X9524998D01*
X9525000Y1959608D01*
X9532803Y1961160D01*
X9539419Y1965581D01*
X9539420Y1965581D01*
X9549419Y1975581D01*
X9553839Y1982196D01*
X9555392Y1990000D01*
Y2089999D01*
X9555392Y2090000D01*
X9553839Y2097804D01*
X9549419Y2104419D01*
X9549418Y2104420D01*
X9547500Y2106338D01*
Y2120000D01*
X9526971D01*
X9525000Y2120392D01*
X9185446D01*
X9175392Y2130447D01*
Y2289998D01*
X9175392Y2290000D01*
X9173839Y2297803D01*
X9169419Y2304419D01*
X9169418Y2304420D01*
X9159419Y2314419D01*
X9152803Y2318839D01*
X9145000Y2320392D01*
X9055000D01*
X9047196Y2318839D01*
X9040580Y2314419D01*
X9020580Y2294419D01*
X9016160Y2287803D01*
X9014608Y2280000D01*
Y2140640D01*
X9010913Y2134748D01*
X8989999Y2115392D01*
X8726446D01*
X8705392Y2136446D01*
Y2170000D01*
X8707500D01*
Y2310000D01*
X8705392D01*
Y2417637D01*
X8719000Y2444000D01*
X8821000D01*
Y2536000D01*
Y2636000D01*
X8720392D01*
Y2949998D01*
X8720392Y2950000D01*
X8718840Y2957804D01*
X8714419Y2964419D01*
X8714418Y2964420D01*
X8694420Y2984419D01*
X8694419Y2984419D01*
X8687804Y2988840D01*
X8680000Y2990392D01*
X8600000D01*
X8592196Y2988840D01*
X8585580Y2984419D01*
X8565581Y2964420D01*
X8565581Y2964420D01*
X8561160Y2957804D01*
X8559608Y2950001D01*
Y2907000D01*
X8530000D01*
Y2840000D01*
Y2773000D01*
X8542010D01*
X8546019Y2767000D01*
X8528915Y2735000D01*
X8448258D01*
X8420588Y2762670D01*
Y2950000D01*
X8418259Y2961706D01*
X8411629Y2971629D01*
X8411628Y2971630D01*
X8323410Y3059848D01*
X8335656Y3089412D01*
X8564999D01*
X8565000Y3089412D01*
X8576705Y3091741D01*
X8586629Y3098371D01*
X8683257Y3195000D01*
X8800000D01*
Y3290000D01*
Y3330000D01*
X8720000D01*
Y3350000D01*
X8800000D01*
Y3359181D01*
X8802314Y3361108D01*
X8834314Y3346113D01*
Y3300000D01*
X8837031Y3286344D01*
X8844766Y3274767D01*
X8884767Y3234766D01*
X8890000Y3231269D01*
Y3195000D01*
X9050000D01*
X9060000Y3217500D01*
X9200000D01*
Y3256728D01*
X9209000Y3285000D01*
X9250000D01*
Y3335000D01*
X9260000D01*
Y3345000D01*
X9311000D01*
Y3364608D01*
X9459998Y3364607D01*
X9459999Y3364607D01*
X9467803Y3366159D01*
X9474418Y3370580D01*
X9474419Y3370581D01*
X9489074Y3385235D01*
X9493494Y3391851D01*
X9495046Y3399655D01*
X9495046Y3460343D01*
X9495046Y3460344D01*
X9494950Y3460830D01*
Y3540001D01*
Y3605000D01*
Y3690000D01*
D02*
G37*
G36*
X10082550D02*
X9998798D01*
Y3657500D01*
X10082550D01*
Y3690000D01*
D02*
G37*
G36*
X9978798D02*
X9895050D01*
Y3657500D01*
X9978798D01*
Y3690000D01*
D02*
G37*
G36*
X10695000Y3827000D02*
X10405000D01*
Y3667001D01*
X10377556Y3656000D01*
X10297000D01*
Y3620534D01*
X10251000D01*
Y3721000D01*
Y3761000D01*
X10200002D01*
X10149000D01*
Y3721000D01*
Y3622534D01*
X10082550D01*
Y3637500D01*
X9988798D01*
X9895050D01*
Y3605000D01*
Y3540001D01*
Y3475000D01*
Y3410001D01*
X10082550D01*
Y3455247D01*
X10104625Y3466348D01*
X10114549Y3468599D01*
X10125443Y3461321D01*
X10141050Y3458217D01*
X10149000D01*
Y3341000D01*
Y3309000D01*
X10200002D01*
X10251000D01*
Y3341000D01*
Y3406069D01*
X10283000Y3419323D01*
X10321161Y3381162D01*
X10321161Y3381162D01*
X10334393Y3372321D01*
X10350000Y3369217D01*
X10405000D01*
Y3330000D01*
X10695000D01*
Y3490000D01*
X10590783D01*
Y3667000D01*
X10695000D01*
Y3827000D01*
D02*
G37*
G36*
X5571011Y3625000D02*
X5553109D01*
X5536570Y3618149D01*
X5523911Y3605490D01*
X5517060Y3588951D01*
Y3571049D01*
X5501049Y3555000D01*
X5484509Y3548149D01*
X5471851Y3535491D01*
X5465000Y3518951D01*
Y3501049D01*
X5467734Y3494449D01*
X5454877Y3468131D01*
X5448989Y3462449D01*
X5401500D01*
Y3368700D01*
X5381500D01*
Y3462449D01*
X5306500D01*
Y3319757D01*
X5287330Y3300588D01*
X5160001D01*
X5160000Y3300588D01*
X5148295Y3298259D01*
X5138371Y3291629D01*
X5138371Y3291628D01*
X5039155Y3192413D01*
X5032525Y3182489D01*
X5030196Y3170784D01*
X5020843Y3142500D01*
X5010000D01*
Y3027500D01*
Y2917500D01*
X5010000D01*
X5012025Y2888598D01*
X4989430Y2865000D01*
X4981049D01*
X4964510Y2858149D01*
X4951851Y2845490D01*
X4945000Y2828951D01*
Y2811049D01*
X4951851Y2794510D01*
X4964510Y2781851D01*
X4981049Y2775000D01*
X4998951D01*
X5015490Y2781851D01*
X5028149Y2794510D01*
X5035000Y2811049D01*
Y2821742D01*
X5081628Y2868371D01*
X5081629Y2868371D01*
X5088259Y2878295D01*
X5090588Y2890000D01*
X5092356Y2893657D01*
X5131188Y2905629D01*
X5144412Y2898402D01*
Y2767670D01*
X5131742Y2755000D01*
X5121049D01*
X5104509Y2748149D01*
X5091851Y2735490D01*
X5085000Y2718951D01*
Y2701049D01*
X5091851Y2684509D01*
X5104509Y2671851D01*
X5121049Y2665000D01*
X5138951D01*
X5155490Y2671851D01*
X5168149Y2684509D01*
X5175000Y2701049D01*
Y2711742D01*
X5196629Y2733371D01*
X5203259Y2743294D01*
X5205588Y2755000D01*
Y2917500D01*
X5220000D01*
Y3027500D01*
Y3142500D01*
X5220000D01*
X5215000Y3172429D01*
Y3188951D01*
X5208149Y3205490D01*
X5206227Y3207412D01*
X5219482Y3239412D01*
X5299999D01*
X5300000Y3239412D01*
X5323423Y3215001D01*
X5374000D01*
Y3195001D01*
X5324000D01*
Y3155000D01*
X5300000D01*
Y3110000D01*
X5352500D01*
Y3100000D01*
X5362500D01*
Y3045000D01*
X5385436D01*
X5408031Y3036555D01*
X5415000Y3017142D01*
Y3016049D01*
X5421851Y2999510D01*
X5434509Y2986851D01*
X5451049Y2980000D01*
X5468951D01*
X5485490Y2986851D01*
X5498149Y2999510D01*
X5505000Y3016049D01*
Y3033951D01*
X5512382Y3045000D01*
X5540000D01*
Y3155000D01*
X5516000D01*
Y3195707D01*
X5529832Y3204949D01*
X5547734D01*
X5564273Y3211800D01*
X5576932Y3224459D01*
X5583783Y3240998D01*
Y3258900D01*
X5594507Y3274950D01*
X5831499D01*
Y3368700D01*
X5851499D01*
Y3274555D01*
X5856741Y3270687D01*
X5874412Y3244221D01*
X5874412Y3244220D01*
Y3025001D01*
X5874412Y3025000D01*
X5876741Y3013295D01*
X5883371Y3003371D01*
X5915000Y2971742D01*
Y2961049D01*
X5921851Y2944509D01*
X5934510Y2931851D01*
X5951049Y2925000D01*
X5968951D01*
X5985490Y2931851D01*
X5998149Y2944509D01*
X6005000Y2961049D01*
Y2978951D01*
X5998149Y2995490D01*
X5996475Y2997164D01*
X5988978Y3017700D01*
X5996475Y3038235D01*
X5998149Y3039909D01*
X6005000Y3056449D01*
Y3074351D01*
X5998149Y3090890D01*
X5990587Y3098452D01*
Y3151160D01*
X6012933D01*
Y3202160D01*
X6032933D01*
Y3151160D01*
X6038053D01*
X6065000Y3133951D01*
Y3116049D01*
X6071851Y3099510D01*
X6084510Y3086851D01*
X6101049Y3080000D01*
X6118951D01*
X6135490Y3086851D01*
X6148149Y3099510D01*
X6155000Y3116049D01*
Y3123274D01*
X6164933Y3151160D01*
X6164933Y3151160D01*
X6164933Y3151161D01*
Y3253160D01*
X6127185D01*
Y3368699D01*
X6126500Y3372147D01*
Y3462449D01*
X6051500D01*
Y3368700D01*
X6031500D01*
Y3462449D01*
X5901500D01*
Y3368700D01*
X5881500D01*
Y3462449D01*
X5852006D01*
X5849282Y3463905D01*
X5827088Y3488719D01*
X5827087Y3488720D01*
Y3533448D01*
X5838149Y3544510D01*
X5845000Y3561049D01*
Y3578951D01*
X5838149Y3595490D01*
X5825491Y3608149D01*
X5808951Y3615000D01*
X5791049D01*
X5774510Y3608149D01*
X5761851Y3595490D01*
X5755348Y3579790D01*
X5752906Y3578858D01*
X5721619Y3577462D01*
X5718895Y3583951D01*
X5712044Y3600491D01*
X5699385Y3613149D01*
X5682846Y3620000D01*
X5664944D01*
X5648405Y3613149D01*
X5635746Y3600491D01*
X5601695Y3601904D01*
X5600209Y3605490D01*
X5587550Y3618149D01*
X5571011Y3625000D01*
D02*
G37*
G36*
X7974618Y3425000D02*
X7914000D01*
Y3364382D01*
X7931328Y3369025D01*
X7947472Y3378346D01*
X7960654Y3391528D01*
X7969975Y3407672D01*
X7974618Y3425000D01*
D02*
G37*
G36*
X9311000Y3325000D02*
X9270000D01*
Y3285000D01*
X9311000D01*
Y3325000D01*
D02*
G37*
G36*
X10251000Y3289000D02*
X10210002D01*
Y3249000D01*
X10251000D01*
Y3289000D01*
D02*
G37*
G36*
X10190002D02*
X10149000D01*
Y3249000D01*
X10190002D01*
Y3289000D01*
D02*
G37*
G36*
X8529998Y3279999D02*
X8473000D01*
Y3232500D01*
X8529998D01*
Y3279999D01*
D02*
G37*
G36*
X5342500Y3090000D02*
X5300000D01*
Y3045000D01*
X5342500D01*
Y3090000D01*
D02*
G37*
G36*
X10670000Y3040000D02*
X10619999D01*
Y3010001D01*
X10670000D01*
Y3040000D01*
D02*
G37*
G36*
X10599999D02*
X10550000D01*
Y3010001D01*
X10599999D01*
Y3040000D01*
D02*
G37*
G36*
X7958951Y3005000D02*
X7941049D01*
X7924510Y2998149D01*
X7910000Y2986923D01*
X7895490Y2998149D01*
X7878951Y3005000D01*
X7861049D01*
X7844510Y2998149D01*
X7831851Y2985490D01*
X7825000Y2968951D01*
Y2951049D01*
X7822629Y2947500D01*
X7820000D01*
Y2832500D01*
Y2754500D01*
X7820000Y2742278D01*
X7818680Y2739256D01*
X7795332Y2722502D01*
X7790488Y2722502D01*
X7745332Y2722501D01*
Y2782501D01*
X7720334D01*
Y2717501D01*
X7700334D01*
Y2782501D01*
X7525332D01*
Y2722501D01*
X7475333D01*
Y2672501D01*
X7415333D01*
Y2668089D01*
X7372500D01*
Y2715000D01*
X7147500D01*
Y2710712D01*
X7138951Y2705000D01*
X7121049D01*
X7104510Y2698149D01*
X7091851Y2685490D01*
X7085000Y2668951D01*
Y2651049D01*
X7091851Y2634510D01*
X7096778Y2629583D01*
X7101594Y2610000D01*
X7096778Y2590417D01*
X7091851Y2585490D01*
X7085000Y2568951D01*
Y2551049D01*
X7085642Y2549500D01*
X7067151Y2517674D01*
X7066896Y2517500D01*
X7012500D01*
Y2517500D01*
X7001821Y2513077D01*
X6977869Y2537028D01*
X6977734Y2537231D01*
X6957231Y2557734D01*
X6957028Y2557869D01*
X6931161Y2583736D01*
X6933214Y2615566D01*
X6949474D01*
X6966013Y2622417D01*
X6978672Y2635076D01*
X6985522Y2651615D01*
Y2669517D01*
X6978672Y2686056D01*
X6966013Y2698715D01*
X6949474Y2705566D01*
X6939171D01*
X6931833Y2710469D01*
X6930000Y2710834D01*
Y2757500D01*
X6830001D01*
Y2757500D01*
X6819999D01*
Y2757500D01*
X6720000D01*
Y2642500D01*
Y2532500D01*
X6749811D01*
X6752031Y2521344D01*
X6759766Y2509767D01*
X6802500Y2467033D01*
Y2382501D01*
X6802499D01*
Y2367499D01*
X6802500D01*
Y2232500D01*
X6887032D01*
X6927266Y2192266D01*
X6938843Y2184531D01*
X6952500Y2181814D01*
X7283068D01*
X7296725Y2184531D01*
X7308302Y2192266D01*
X7445234Y2329198D01*
X7452969Y2340775D01*
X7455686Y2354432D01*
Y2378639D01*
X7475333Y2402501D01*
X7525332D01*
Y2342501D01*
X7600333D01*
Y2407501D01*
X7620333D01*
Y2342501D01*
X7636559D01*
Y1455558D01*
X7604419Y1423419D01*
X7604242Y1423596D01*
X7585142Y1400323D01*
X7584740Y1399569D01*
X7576953Y1385000D01*
X7545000D01*
Y1245000D01*
X7624999D01*
X7630000Y1235000D01*
X7662323D01*
X7718661Y1178662D01*
X7718662Y1178662D01*
X7721149Y1177000D01*
X7711442Y1145000D01*
X7707142D01*
X7690000D01*
Y1065000D01*
X7670000D01*
Y1145000D01*
X7630000Y1145000D01*
X7602142Y1135000D01*
X7545000D01*
Y1000000D01*
X7530054D01*
X7511677Y992388D01*
X7497612Y978323D01*
X7490000Y959946D01*
Y940054D01*
X7497612Y921677D01*
X7504314Y914975D01*
Y866498D01*
X7474770Y851000D01*
X7421000D01*
Y796000D01*
X7401000D01*
Y851000D01*
X7390895D01*
X7376000Y851001D01*
X7360000Y876373D01*
X7360000Y925000D01*
X7360000Y957000D01*
Y967500D01*
X7310002D01*
Y977500D01*
X7300002D01*
Y1020000D01*
X7272008Y1020000D01*
X7260000Y1047500D01*
X7276898Y1072500D01*
X7289999D01*
Y1130000D01*
X7299999D01*
Y1140000D01*
X7350000D01*
Y1182500D01*
Y1297500D01*
X7309393D01*
X7308259Y1303201D01*
X7301629Y1313124D01*
X7301628Y1313124D01*
X7241743Y1373010D01*
X7245491Y1391851D01*
X7258149Y1404510D01*
X7265000Y1421049D01*
Y1438951D01*
X7258149Y1455490D01*
X7245490Y1468149D01*
X7228951Y1475000D01*
X7214094D01*
X7207555Y1482914D01*
X7198120Y1504281D01*
X7226919Y1533080D01*
X7231340Y1539696D01*
X7232892Y1547500D01*
Y2103340D01*
X7232892Y2107499D01*
X7232893Y2107500D01*
X7232892Y2107503D01*
X7231340Y2115304D01*
X7226919Y2121920D01*
X7226918Y2121920D01*
X7221560Y2127278D01*
X7220001Y2130001D01*
X7218838Y2130000D01*
X7214420Y2134419D01*
X7214419Y2134419D01*
X7207803Y2138840D01*
X7200000Y2140392D01*
X7122695D01*
X7119999Y2140392D01*
X7119999Y2140393D01*
X7119995Y2140391D01*
X7112196Y2138840D01*
X7105580Y2134419D01*
X7105580Y2134419D01*
X7105545Y2134384D01*
X7095000Y2130000D01*
X7095000Y2123550D01*
X7091160Y2117803D01*
X7089608Y2110000D01*
Y1794843D01*
X7070000Y1774583D01*
Y1545000D01*
X7050000Y1525000D01*
X7030000D01*
X7015000Y1510000D01*
Y1295000D01*
X7017500D01*
Y1285000D01*
X7072045D01*
X7075000Y1284412D01*
X7090000D01*
Y1182500D01*
Y1140001D01*
X7140000D01*
Y1120001D01*
X7090000D01*
Y1072500D01*
X7143102D01*
X7160000Y1047500D01*
X7160000Y1040500D01*
Y1000000D01*
X7210000D01*
Y980000D01*
X7160000D01*
Y932500D01*
Y822500D01*
X7169217D01*
Y708825D01*
X7169216Y708824D01*
X7172321Y693217D01*
X7181162Y679986D01*
X7214201Y646947D01*
X7211825Y635000D01*
Y582811D01*
X7179825Y576446D01*
X7179380Y577518D01*
X7178149Y580491D01*
X7165490Y593149D01*
X7148951Y600000D01*
X7145750D01*
X7117500Y622500D01*
X7117500Y654500D01*
Y772500D01*
X7032967D01*
X6960000Y845468D01*
Y889083D01*
X6981049Y915000D01*
X6998951D01*
X7015490Y921851D01*
X7028149Y934510D01*
X7035000Y951049D01*
Y968951D01*
X7028149Y985491D01*
X7015490Y998149D01*
X6998951Y1005000D01*
X6986822D01*
X6960000Y1017500D01*
X6959999Y1017500D01*
X6959999Y1017500D01*
X6885110D01*
X6863118Y1038951D01*
X6856267Y1055490D01*
X6843608Y1068149D01*
X6827069Y1075000D01*
X6812000D01*
X6809167Y1075000D01*
X6780000Y1097332D01*
Y1105001D01*
X6740000D01*
Y1057500D01*
X6746165D01*
X6758620Y1048928D01*
X6760000Y1017500D01*
X6760000D01*
Y902500D01*
Y792500D01*
X6774314D01*
Y745000D01*
X6777031Y731344D01*
X6782500Y723158D01*
Y654500D01*
X6782500Y637500D01*
X6782500Y605500D01*
Y487500D01*
X6917500D01*
Y519314D01*
X6982500D01*
Y487500D01*
X7117500D01*
Y500947D01*
X7131049Y510000D01*
X7148951D01*
X7165490Y516851D01*
X7178149Y529510D01*
X7185000Y546049D01*
X7216481Y551589D01*
X7229742Y531743D01*
X7249589Y518481D01*
X7273000Y513825D01*
X7296411Y518481D01*
X7316257Y531743D01*
X7327988Y549299D01*
X7351000Y571000D01*
X7375999D01*
Y626000D01*
X7395999D01*
Y571000D01*
X7620999D01*
Y581000D01*
X7672724D01*
X7695000Y553951D01*
Y536049D01*
X7701851Y519510D01*
X7714509Y506851D01*
X7731049Y500000D01*
X7748951D01*
X7765490Y506851D01*
X7778149Y519510D01*
X7785000Y536049D01*
Y553951D01*
X7812574Y571000D01*
X7925999D01*
Y626000D01*
X7935999D01*
Y636000D01*
X7971000D01*
Y651860D01*
X7971000Y671393D01*
X7972653Y672942D01*
X8000383Y687316D01*
X8004570Y684519D01*
X8010516Y680546D01*
X8017815Y679094D01*
X8033974Y665545D01*
X8039708Y644471D01*
X8037824Y635000D01*
Y575000D01*
X8042481Y551589D01*
X8055742Y531743D01*
X8075589Y518481D01*
X8099000Y513825D01*
X8122411Y518481D01*
X8142257Y531743D01*
X8155519Y551589D01*
X8160175Y575000D01*
Y635000D01*
X8155519Y658411D01*
X8142257Y678257D01*
X8122411Y691519D01*
X8113708Y725877D01*
X8114528Y730000D01*
X8110454Y750484D01*
X8098850Y767850D01*
X8081484Y779454D01*
X8061000Y783529D01*
X8031000D01*
X8028000Y782932D01*
X7996000Y805311D01*
Y851000D01*
X7971000D01*
Y796000D01*
X7951000D01*
Y851000D01*
X7851576D01*
X7848711Y883000D01*
X7852388Y886677D01*
X7860000Y905054D01*
Y907323D01*
X7908838Y956161D01*
X7917679Y969393D01*
X7918794Y975000D01*
X7933000D01*
X7935000Y975000D01*
X7965000D01*
X7967000Y975000D01*
X8002501D01*
Y1034999D01*
Y1095000D01*
X7967000D01*
X7965000Y1095000D01*
X7935000D01*
X7928284Y1125047D01*
Y1184068D01*
X7928283Y1184070D01*
Y1207500D01*
X7927494Y1211470D01*
Y1231109D01*
X7935000Y1260000D01*
X7959494Y1260000D01*
X7967501D01*
Y1310001D01*
X7977501D01*
Y1320001D01*
X8020000D01*
X8020000Y1360000D01*
X8048893Y1367500D01*
X8139999D01*
X8155000Y1355000D01*
Y1355000D01*
X8265000D01*
Y1495000D01*
X8155000D01*
X8140000Y1520787D01*
Y1525000D01*
X8090001D01*
Y1535000D01*
X8080001D01*
Y1592500D01*
X8050712D01*
X8045000Y1601049D01*
Y1618951D01*
X8038149Y1635491D01*
X8025490Y1648149D01*
X8008951Y1655000D01*
X7991049D01*
X7974510Y1648149D01*
X7962783Y1636423D01*
X7957740Y1636631D01*
X7930783Y1644107D01*
Y1730073D01*
X7932388Y1731677D01*
X7940000Y1750054D01*
Y1769946D01*
X7932388Y1788323D01*
X7918323Y1802388D01*
X7899946Y1810000D01*
X7880054D01*
X7861677Y1802388D01*
X7847612Y1788323D01*
X7840000Y1769946D01*
Y1750054D01*
X7847612Y1731677D01*
X7849216Y1730073D01*
Y1600000D01*
X7835000D01*
Y1497000D01*
X7835000Y1495000D01*
Y1465000D01*
X7835000Y1463000D01*
Y1408715D01*
X7816960Y1387324D01*
X7811705Y1387019D01*
X7785163Y1388730D01*
X7769808Y1417457D01*
X7746891Y1445382D01*
Y1445382D01*
X7735822Y1472797D01*
Y2125858D01*
X7763000Y2137500D01*
Y2137500D01*
X7820000D01*
Y2195000D01*
X7840000D01*
Y2137500D01*
X7897000D01*
Y2189000D01*
X7930001D01*
Y2239000D01*
X7940001D01*
Y2249000D01*
X7991000D01*
Y2278452D01*
X8038000D01*
X8041229Y2277851D01*
X8065372Y2258856D01*
X8069023Y2254528D01*
X8070000Y2252516D01*
Y2162500D01*
X8155976D01*
X8175227Y2153513D01*
X8185000Y2136713D01*
Y2131049D01*
X8191851Y2114510D01*
X8204510Y2101851D01*
X8221049Y2095000D01*
X8238951D01*
X8255490Y2101851D01*
X8268149Y2114510D01*
X8275000Y2131049D01*
Y2148951D01*
X8269622Y2161934D01*
X8270000Y2162500D01*
X8270000D01*
Y2272500D01*
Y2319999D01*
X8220000D01*
Y2339999D01*
X8270000D01*
Y2387500D01*
X8256593D01*
X8249594Y2394785D01*
X8239504Y2415813D01*
X8239298Y2419500D01*
X8240392Y2425000D01*
Y2490000D01*
X8238840Y2497804D01*
X8234419Y2504420D01*
X8234418Y2504420D01*
X8222322Y2516517D01*
X8222321Y2516517D01*
X8215705Y2520938D01*
X8207902Y2522490D01*
X8166212D01*
X8142500Y2542500D01*
Y2585001D01*
X8087498D01*
Y2595001D01*
X8077498D01*
Y2647500D01*
X8032500D01*
Y2613664D01*
X7994727D01*
Y2563664D01*
X7974727D01*
Y2613664D01*
X7940587D01*
Y2655111D01*
X7951628Y2666152D01*
X7951629Y2666152D01*
X7958259Y2676076D01*
X7960588Y2687781D01*
X7960588Y2687783D01*
Y2722500D01*
X8080000D01*
Y2832500D01*
Y2880000D01*
X8030000D01*
Y2890000D01*
X8020000D01*
Y2947500D01*
X7997371D01*
X7995000Y2951049D01*
Y2968951D01*
X7988149Y2985490D01*
X7975491Y2998149D01*
X7958951Y3005000D01*
D02*
G37*
G36*
X10670000Y2990001D02*
X10619999D01*
Y2960000D01*
X10670000D01*
Y2990001D01*
D02*
G37*
G36*
X10599999D02*
X10550000D01*
Y2960000D01*
X10599999D01*
Y2990001D01*
D02*
G37*
G36*
X4810000Y3177500D02*
X4710000D01*
Y3163287D01*
X4694999Y3137500D01*
X4545000D01*
Y3093258D01*
X4503371Y3051629D01*
X4496741Y3041705D01*
X4494412Y3030000D01*
X4494412Y3029999D01*
Y2964045D01*
X4467000Y2936633D01*
X4440660Y2943671D01*
X4435000Y2947500D01*
X4435000Y2979500D01*
Y2984999D01*
X4360001D01*
Y3004999D01*
X4435000D01*
X4435000Y3042500D01*
X4435000Y3074500D01*
Y3137500D01*
X4285001D01*
Y3137500D01*
X4272499Y3140001D01*
X4272499Y3140000D01*
X4254036Y3140000D01*
X4047500D01*
Y3040000D01*
Y2950000D01*
X4054000D01*
Y2859000D01*
X4062500D01*
Y2760001D01*
X4062500Y2760000D01*
X4055000Y2738951D01*
Y2721049D01*
X4061851Y2704510D01*
X4074361Y2691999D01*
X4074355Y2691121D01*
X4067786Y2660000D01*
X4057500D01*
Y2560000D01*
Y2470000D01*
X4064000D01*
Y2369000D01*
X4070000D01*
Y2273640D01*
X4069351Y2272991D01*
X4062500Y2256451D01*
Y2238549D01*
X4069351Y2222010D01*
X4082009Y2209351D01*
X4098549Y2202500D01*
X4116451D01*
X4132990Y2209351D01*
X4145649Y2222010D01*
X4152500Y2238549D01*
Y2256451D01*
X4161553Y2270000D01*
X4162500D01*
Y2320000D01*
X4172500D01*
Y2330000D01*
X4210000D01*
Y2369000D01*
X4256000D01*
Y2376293D01*
X4287500Y2377499D01*
X4288000Y2377499D01*
X4437500D01*
Y2394412D01*
X4474997D01*
X4474999Y2394411D01*
X4486704Y2396740D01*
X4496628Y2403370D01*
X4517936Y2424679D01*
X4547500Y2412433D01*
Y2377499D01*
X4697499D01*
X4715000Y2352748D01*
Y2314999D01*
X4765000D01*
X4815000D01*
Y2347011D01*
X4831049Y2375000D01*
X4848951D01*
X4865490Y2381851D01*
X4878149Y2394510D01*
X4885000Y2411049D01*
Y2428951D01*
X4878149Y2445490D01*
X4865490Y2458149D01*
X4859969Y2460436D01*
Y2494564D01*
X4865490Y2496851D01*
X4878149Y2509510D01*
X4885000Y2526049D01*
Y2543951D01*
X4878149Y2560490D01*
X4865490Y2573149D01*
X4848951Y2580000D01*
X4831049D01*
X4815000Y2607989D01*
Y2697500D01*
X4715000D01*
Y2687250D01*
X4697499Y2662499D01*
X4547500D01*
Y2613183D01*
X4515871Y2581554D01*
X4509240Y2571631D01*
X4506912Y2559926D01*
X4506912Y2559924D01*
Y2500170D01*
X4469500Y2462758D01*
X4438570Y2472173D01*
X4437500Y2472899D01*
X4437500Y2504499D01*
Y2509999D01*
X4362500D01*
Y2529999D01*
X4437500D01*
X4437500Y2567499D01*
X4437500Y2599499D01*
Y2662499D01*
X4287500D01*
Y2662499D01*
X4282499Y2660000D01*
X4132214D01*
X4125645Y2691121D01*
X4125639Y2691999D01*
X4138149Y2704510D01*
X4145000Y2721049D01*
Y2738951D01*
X4170917Y2760000D01*
X4202500D01*
Y2800001D01*
X4165000D01*
Y2820001D01*
X4202500D01*
Y2859000D01*
X4246000D01*
Y2900000D01*
X4196000D01*
Y2920000D01*
X4246000D01*
Y2920900D01*
X4249232Y2924172D01*
X4270368Y2923585D01*
X4285000Y2907011D01*
Y2852500D01*
X4435000D01*
Y2869412D01*
X4473623D01*
X4473624Y2869412D01*
X4485330Y2871741D01*
X4495253Y2878371D01*
X4515436Y2898554D01*
X4545000Y2886308D01*
Y2852500D01*
X4694999D01*
X4710000Y2826713D01*
Y2800000D01*
X4760000D01*
X4810000D01*
Y2829551D01*
X4835134Y2848571D01*
X4841049Y2850000D01*
X4858951D01*
X4875490Y2856851D01*
X4888149Y2869510D01*
X4895000Y2886049D01*
Y2903951D01*
X4888149Y2920490D01*
X4878780Y2940000D01*
X4888149Y2959510D01*
X4895000Y2976049D01*
Y2993951D01*
X4888149Y3010491D01*
X4875490Y3023149D01*
X4858951Y3030000D01*
X4841049D01*
X4810000Y3050450D01*
Y3062500D01*
Y3177500D01*
D02*
G37*
G36*
X8080000Y2947500D02*
X8040000D01*
Y2900000D01*
X8080000D01*
Y2947500D01*
D02*
G37*
G36*
X8510000Y2907000D02*
X8462499D01*
Y2850000D01*
X8510000D01*
Y2907000D01*
D02*
G37*
G36*
Y2830000D02*
X8462499D01*
Y2773000D01*
X8510000D01*
Y2830000D01*
D02*
G37*
G36*
X4810000Y2780001D02*
X4770000D01*
Y2732500D01*
X4810000D01*
Y2780001D01*
D02*
G37*
G36*
X4750000D02*
X4710000D01*
Y2732500D01*
X4750000D01*
Y2780001D01*
D02*
G37*
G36*
X9065000Y2660000D02*
X9017500D01*
Y2620000D01*
X9065000D01*
Y2660000D01*
D02*
G37*
G36*
X8142500Y2647500D02*
X8097498D01*
Y2605001D01*
X8142500D01*
Y2647500D01*
D02*
G37*
G36*
X10420000Y2935000D02*
X10300000D01*
Y2883136D01*
X9399999D01*
X9387319Y2880614D01*
X9376568Y2873431D01*
X9184335Y2681197D01*
X9177152Y2670447D01*
X9175074Y2660000D01*
X9085000D01*
Y2610000D01*
X9075000D01*
Y2600000D01*
X9017500D01*
Y2560000D01*
X8993784Y2540000D01*
X8945000D01*
Y2400000D01*
X9001825D01*
X9037756Y2364068D01*
X9048506Y2356886D01*
X9061187Y2354363D01*
X9294999D01*
X9305000Y2346156D01*
Y2247500D01*
X9444999D01*
Y2291284D01*
X9465000Y2315000D01*
X9570000D01*
Y2413000D01*
X9570000Y2444999D01*
X9570000D01*
Y2445000D01*
X9570000D01*
Y2575000D01*
X9465000D01*
X9444999Y2598715D01*
Y2672500D01*
X9387710D01*
X9375464Y2702064D01*
X9437763Y2764363D01*
X9962500D01*
Y2720000D01*
X10020001D01*
Y2700000D01*
X9962500D01*
Y2643000D01*
X9934585Y2633136D01*
X9930000D01*
X9917319Y2630614D01*
X9906569Y2623431D01*
X9879564Y2596426D01*
X9850000Y2608672D01*
Y2662500D01*
X9710000D01*
X9710000Y2662500D01*
X9678951Y2645000D01*
X9661049D01*
X9644510Y2638149D01*
X9631851Y2625490D01*
X9625000Y2608951D01*
Y2591049D01*
X9614276Y2575000D01*
X9610000D01*
Y2520001D01*
X9662500D01*
Y2500001D01*
X9610000D01*
Y2477000D01*
X9609999Y2445000D01*
X9609999D01*
Y2444999D01*
X9610000D01*
Y2390000D01*
X9662501D01*
Y2380000D01*
X9672501D01*
Y2315000D01*
X9710000D01*
Y2310000D01*
X9779998D01*
X9850000D01*
Y2362499D01*
X9850000D01*
Y2387500D01*
X9850000D01*
Y2473138D01*
X9943725Y2566863D01*
X10097969D01*
X10111851Y2535490D01*
X10105000Y2518951D01*
Y2501049D01*
X10076218Y2487000D01*
X10072499D01*
Y2487000D01*
X10025000D01*
Y2419999D01*
X10015000D01*
Y2409999D01*
X9957500D01*
Y2353000D01*
Y2299999D01*
X10015000D01*
Y2279999D01*
X9957500D01*
Y2223000D01*
Y2179999D01*
X10015000D01*
Y2159999D01*
X9957500D01*
Y2123136D01*
X9879644D01*
X9867076Y2120636D01*
X9847500D01*
X9844299Y2120000D01*
X9742500D01*
Y2000000D01*
X9897500D01*
Y2056863D01*
X9957500D01*
Y2020000D01*
X10015000D01*
Y2000000D01*
X9957500D01*
Y1943000D01*
Y1900000D01*
X10014999D01*
Y1880000D01*
X9957500D01*
Y1842637D01*
X9897500D01*
Y1920000D01*
X9742500D01*
Y1800000D01*
X9842283D01*
X9856213Y1786069D01*
X9866964Y1778886D01*
X9879644Y1776363D01*
X9957500D01*
Y1740000D01*
X10014999D01*
Y1720000D01*
X9957500D01*
Y1663000D01*
Y1620000D01*
X10015000D01*
Y1610000D01*
X10025000D01*
Y1543000D01*
X10072499D01*
Y1542999D01*
X10097500D01*
Y1543000D01*
X10212500D01*
Y1606414D01*
X10225656Y1609031D01*
X10237234Y1616766D01*
X10334781Y1714314D01*
X10370000D01*
X10373450Y1715000D01*
X10420000D01*
Y1765000D01*
Y1865000D01*
Y1965000D01*
Y2065000D01*
Y2090000D01*
X10360001D01*
Y2110000D01*
X10420000D01*
Y2184683D01*
X10422064Y2188284D01*
X10447219Y2209412D01*
X10496876D01*
X10505228Y2201059D01*
X10521768Y2194208D01*
X10539670D01*
X10556209Y2201059D01*
X10568868Y2213718D01*
X10575719Y2230257D01*
Y2248159D01*
X10568868Y2264699D01*
X10556209Y2277357D01*
X10552844Y2278751D01*
X10553678Y2313042D01*
X10558806Y2315166D01*
X10571464Y2327825D01*
X10578315Y2344364D01*
Y2362266D01*
X10571464Y2378806D01*
X10558806Y2391464D01*
X10549218Y2395436D01*
X10546313Y2423856D01*
X10547025Y2428344D01*
X10555490Y2431851D01*
X10568149Y2444509D01*
X10575000Y2461049D01*
Y2478951D01*
X10568149Y2495490D01*
X10555490Y2508149D01*
X10538951Y2515000D01*
X10520558Y2525232D01*
X10519674Y2543626D01*
X10512824Y2560165D01*
X10500165Y2572824D01*
X10483625Y2579675D01*
X10465724D01*
X10452000Y2573990D01*
X10437890Y2579043D01*
X10420000Y2588894D01*
Y2665000D01*
Y2765000D01*
Y2865000D01*
Y2935000D01*
D02*
G37*
G36*
X6580000Y2615000D02*
X6560109D01*
X6541731Y2607388D01*
X6527666Y2593323D01*
X6520054Y2574946D01*
Y2555054D01*
X6527666Y2536677D01*
X6541731Y2522612D01*
X6560109Y2515000D01*
X6580000D01*
X6598377Y2522612D01*
X6612442Y2536677D01*
X6620054Y2555054D01*
Y2574946D01*
X6612442Y2593323D01*
X6598377Y2607388D01*
X6580000Y2615000D01*
D02*
G37*
G36*
X5580000Y2905392D02*
X5460000D01*
X5452196Y2903840D01*
X5445580Y2899419D01*
X5445580Y2899419D01*
X5441161Y2895000D01*
X5440000D01*
Y2893839D01*
X5433081Y2886920D01*
X5428660Y2880304D01*
X5427108Y2872500D01*
Y2541660D01*
X5427108Y2537501D01*
X5427107Y2537500D01*
X5427108Y2537498D01*
X5428660Y2529696D01*
X5433081Y2523081D01*
X5433081Y2523080D01*
X5438440Y2517721D01*
X5440000Y2515000D01*
X5441162Y2515000D01*
X5445581Y2510581D01*
X5452196Y2506160D01*
X5460000Y2504608D01*
X5460923D01*
X5465793Y2497392D01*
X5448784Y2465392D01*
X5150000D01*
X5142196Y2463840D01*
X5136449Y2460000D01*
X5117000D01*
X5115000Y2460000D01*
X5085000D01*
X5083000Y2460000D01*
X5042500D01*
Y2405000D01*
X5032500D01*
Y2395000D01*
X4980000D01*
Y2350000D01*
X4982500D01*
Y2295001D01*
X5040000D01*
Y2275001D01*
X4982500D01*
Y2218000D01*
Y2175000D01*
X5040000D01*
Y2165000D01*
X5050000D01*
Y2098000D01*
X5078858D01*
X5097500Y2098000D01*
X5110858Y2071533D01*
Y2008751D01*
X5110858Y2008750D01*
X5112410Y2000946D01*
X5112617Y2000637D01*
X5108062Y1986825D01*
X5086297Y1978011D01*
X5022679Y2041629D01*
X5012755Y2048259D01*
X5001050Y2050588D01*
X5001049Y2050588D01*
X4660475D01*
Y2071000D01*
X4562975D01*
Y2055588D01*
X4441911D01*
Y2082500D01*
X4349856D01*
Y2082644D01*
X4249857D01*
Y1967644D01*
Y1925144D01*
X4299857D01*
Y1915144D01*
X4309857D01*
Y1857644D01*
X4317346D01*
X4346911Y1847040D01*
Y1829138D01*
X4353762Y1812599D01*
X4366420Y1799940D01*
X4382960Y1793089D01*
X4400862D01*
X4417401Y1799940D01*
X4430060Y1812599D01*
X4436357Y1827801D01*
X4436911Y1829138D01*
X4441911Y1857500D01*
X4441911Y1857501D01*
Y1994412D01*
X4562975D01*
Y1969000D01*
X4660475D01*
Y1989412D01*
X4765033D01*
X4772434Y1981439D01*
X4785858Y1957500D01*
Y1890000D01*
X4787411Y1882196D01*
X4791831Y1875580D01*
X4791832Y1875580D01*
X4799331Y1868081D01*
X4805946Y1863660D01*
X4813750Y1862108D01*
X4986249D01*
X4986250Y1862108D01*
X4994054Y1863660D01*
X5000669Y1868081D01*
X5008170Y1875581D01*
X5012590Y1882196D01*
X5014142Y1890000D01*
Y1918395D01*
X5046142Y1931650D01*
X5140050Y1837743D01*
Y1779000D01*
X5237550D01*
Y1831802D01*
X5267114Y1844047D01*
X5320581Y1790581D01*
X5327196Y1786161D01*
X5335000Y1784608D01*
X6498162D01*
X6511959Y1784608D01*
X6511960Y1784607D01*
X6530000Y1785000D01*
Y1794202D01*
X6534419Y1798620D01*
X6538839Y1805236D01*
X6540391Y1813039D01*
X6540392Y1915965D01*
X6540392Y1915966D01*
X6538840Y1923770D01*
X6534419Y1930385D01*
X6534418Y1930386D01*
X6530000Y1934804D01*
Y1945000D01*
X6512937D01*
X6510966Y1945392D01*
X5812500D01*
Y1984999D01*
X5755000D01*
Y1994999D01*
X5745000D01*
Y2045000D01*
X5664488D01*
Y2087200D01*
X5673901D01*
Y2147201D01*
X5693901D01*
Y2087200D01*
X5723901D01*
Y2147200D01*
X5733901D01*
Y2157200D01*
X5768901D01*
Y2181100D01*
X5742500Y2207500D01*
X5507500D01*
X5493117Y2193117D01*
X5498901Y2182556D01*
Y2145156D01*
X5498313Y2142200D01*
X5480552Y2115588D01*
X5412770D01*
X5407709Y2120649D01*
X5391170Y2127500D01*
X5373268D01*
X5356728Y2120649D01*
X5344070Y2107990D01*
X5337219Y2091451D01*
Y2073549D01*
X5344070Y2057010D01*
X5356728Y2044351D01*
X5373268Y2037500D01*
X5391170D01*
X5407709Y2044351D01*
X5417770Y2054412D01*
X5520662D01*
X5520663Y2054412D01*
X5520664Y2054412D01*
X5559399D01*
X5571773Y2050267D01*
X5587500Y2025639D01*
Y1945392D01*
X5383446D01*
X5270392Y2058447D01*
Y2291553D01*
X5293446Y2314608D01*
X5306451D01*
X5306843Y2315000D01*
X5497500D01*
X5519339Y2336839D01*
X5619108D01*
Y2494269D01*
X5615785Y2503482D01*
X5617113Y2505470D01*
X5618665Y2513274D01*
X5618665Y2866727D01*
X5617113Y2874530D01*
X5612693Y2881146D01*
X5612692Y2881146D01*
X5594420Y2899419D01*
X5594419Y2899419D01*
X5587804Y2903840D01*
X5580000Y2905392D01*
D02*
G37*
G36*
X10005000Y2487000D02*
X9957500D01*
Y2429999D01*
X10005000D01*
Y2487000D01*
D02*
G37*
G36*
X5022500Y2460000D02*
X4980000D01*
Y2415000D01*
X5022500D01*
Y2460000D01*
D02*
G37*
G36*
X9652501Y2370000D02*
X9610000D01*
Y2315000D01*
X9652501D01*
Y2370000D01*
D02*
G37*
G36*
X4210000Y2310000D02*
X4182500D01*
Y2270000D01*
X4210000D01*
Y2310000D01*
D02*
G37*
G36*
X4815000Y2294999D02*
X4775000D01*
Y2247500D01*
X4815000D01*
Y2294999D01*
D02*
G37*
G36*
X4755000D02*
X4715000D01*
Y2247500D01*
X4755000D01*
Y2294999D01*
D02*
G37*
G36*
X5688174Y2898262D02*
X5688165Y2898260D01*
X5680370Y2896709D01*
X5678445Y2895422D01*
X5676999Y2895001D01*
Y2894457D01*
X5673754Y2892288D01*
X5657306Y2875840D01*
X5652886Y2869225D01*
X5651334Y2861421D01*
Y2518788D01*
X5651333Y2518787D01*
X5652886Y2510984D01*
X5648506Y2496386D01*
X5648506Y2336839D01*
X6310661D01*
X6327500Y2320000D01*
Y2285000D01*
X6330000D01*
X6331026Y2283209D01*
X6331160Y2282535D01*
X6335581Y2275919D01*
X6360920Y2250581D01*
X6360920Y2250581D01*
X6367536Y2246160D01*
X6375340Y2244608D01*
X6524926D01*
X6524927Y2244608D01*
X6532731Y2246160D01*
X6539347Y2250581D01*
X6539348Y2250581D01*
X6564419Y2275652D01*
X6568840Y2282267D01*
X6570392Y2290071D01*
X6570391Y2425000D01*
X6568839Y2432804D01*
X6564419Y2439420D01*
X6541920Y2461918D01*
X6541920Y2461919D01*
X6535304Y2466339D01*
X6527500Y2467891D01*
X5816984Y2467891D01*
X5803729Y2499891D01*
X5819419Y2515581D01*
X5823840Y2522196D01*
X5825392Y2530000D01*
Y2867305D01*
X5825392Y2872499D01*
X5825393Y2872500D01*
X5825391Y2872503D01*
X5823840Y2880304D01*
X5819419Y2886920D01*
X5818143Y2888195D01*
X5815000Y2895001D01*
X5809808Y2895000D01*
X5807805Y2896339D01*
X5807804Y2896341D01*
X5806866Y2896527D01*
X5800000Y2897892D01*
X5707803D01*
X5690028Y2897892D01*
X5688174Y2898262D01*
D02*
G37*
G36*
X9850000Y2290000D02*
X9789998D01*
Y2237500D01*
X9850000D01*
Y2290000D01*
D02*
G37*
G36*
X9769998D02*
X9710000D01*
Y2237500D01*
X9769998D01*
Y2290000D01*
D02*
G37*
G36*
X7991000Y2229000D02*
X7950001D01*
Y2189000D01*
X7991000D01*
Y2229000D01*
D02*
G37*
G36*
X5030000Y2155000D02*
X4982500D01*
Y2098000D01*
X5030000D01*
Y2155000D01*
D02*
G37*
G36*
X5768901Y2137200D02*
X5743901D01*
Y2087200D01*
X5768901D01*
Y2137200D01*
D02*
G37*
G36*
X8534000Y2110000D02*
X8494000D01*
Y2069000D01*
X8534000D01*
Y2110000D01*
D02*
G37*
G36*
X5812500Y2045000D02*
X5765000D01*
Y2004999D01*
X5812500D01*
Y2045000D01*
D02*
G37*
G36*
X7525000Y2130000D02*
X7400000D01*
Y1970000D01*
X7525000D01*
Y1994952D01*
X7532555Y2000000D01*
X7552446D01*
X7570823Y2007612D01*
X7584888Y2021677D01*
X7592500Y2040054D01*
Y2059946D01*
X7584888Y2078323D01*
X7570823Y2092388D01*
X7552446Y2100000D01*
X7532555D01*
X7525000Y2105048D01*
Y2130000D01*
D02*
G37*
G36*
X4289857Y1905144D02*
X4249857D01*
Y1857644D01*
X4289857D01*
Y1905144D01*
D02*
G37*
G36*
X8800000Y1867000D02*
X8716500D01*
Y1808500D01*
X8800000D01*
Y1867000D01*
D02*
G37*
G36*
X7525000Y1930000D02*
X7400000D01*
Y1770000D01*
X7525000D01*
Y1776623D01*
X7530055Y1780000D01*
X7549946D01*
X7568323Y1787612D01*
X7582388Y1801677D01*
X7590000Y1820054D01*
Y1839946D01*
X7582388Y1858323D01*
X7568323Y1872388D01*
X7549946Y1880000D01*
X7530055D01*
X7525000Y1883377D01*
Y1930000D01*
D02*
G37*
G36*
X4670000Y1890392D02*
X4530000D01*
X4522196Y1888840D01*
X4515581Y1884419D01*
X4495581Y1864419D01*
X4491160Y1857804D01*
X4489608Y1850000D01*
Y1724485D01*
X4457608Y1711230D01*
X4454420Y1714418D01*
X4454419Y1714419D01*
X4447804Y1718839D01*
X4440000Y1720392D01*
X3039999D01*
X3032196Y1718839D01*
X3025580Y1714419D01*
X2225581Y914419D01*
X2221160Y907803D01*
X2219608Y899999D01*
Y449999D01*
X2221160Y442196D01*
X2225581Y435580D01*
X2225582Y435580D01*
X2245580Y415581D01*
X2252196Y411160D01*
X2260000Y409608D01*
X2499999D01*
X2500000Y409608D01*
X2507804Y411160D01*
X2514419Y415581D01*
X2514420Y415581D01*
X2534419Y435580D01*
X2538839Y442196D01*
X2540392Y450000D01*
X2540392Y839611D01*
X3170389Y1469608D01*
X4439998D01*
X4440000Y1469608D01*
X4447803Y1471160D01*
X4454419Y1475580D01*
X4464114Y1485275D01*
X4476116Y1488964D01*
X4505438Y1485597D01*
X4505664Y1485524D01*
X4512196Y1481160D01*
X4519999Y1479608D01*
X4520000Y1479608D01*
X4534633Y1479608D01*
X4679999D01*
X4680000Y1479608D01*
X4687804Y1481160D01*
X4694419Y1485581D01*
X4694420Y1485581D01*
X4704419Y1495581D01*
X4708840Y1502196D01*
X4710392Y1510000D01*
Y1850000D01*
X4708840Y1857804D01*
X4704419Y1864419D01*
X4684419Y1884419D01*
X4677804Y1888840D01*
X4670000Y1890392D01*
D02*
G37*
G36*
X9897500Y1720000D02*
X9830002D01*
Y1670000D01*
X9897500D01*
Y1720000D01*
D02*
G37*
G36*
X9810002D02*
X9742500D01*
Y1670000D01*
X9810002D01*
Y1720000D01*
D02*
G37*
G36*
X10670000Y1690000D02*
X10619999D01*
Y1660001D01*
X10670000D01*
Y1690000D01*
D02*
G37*
G36*
X10599999D02*
X10550000D01*
Y1660001D01*
X10599999D01*
Y1690000D01*
D02*
G37*
G36*
X6814999Y2055392D02*
X6705250Y2055391D01*
X6701389Y2054624D01*
X6697541Y2053878D01*
X6697498Y2053849D01*
X6697447Y2053839D01*
X6694164Y2051646D01*
X6690904Y2049491D01*
X6665652Y2024492D01*
X6665623Y2024449D01*
X6665579Y2024419D01*
X6663390Y2021143D01*
X6661198Y2017898D01*
X6661187Y2017847D01*
X6661158Y2017804D01*
X6660395Y2013965D01*
X6659606Y2010103D01*
X6659616Y2010051D01*
X6659606Y2010000D01*
X6659608Y1639486D01*
X6627608Y1626231D01*
X6544419Y1709419D01*
X6537804Y1713840D01*
X6530000Y1715392D01*
X5434797D01*
X5434796Y1715392D01*
X5426992Y1713840D01*
X5420377Y1709419D01*
X5420376Y1709419D01*
X5409305Y1698348D01*
X5408630Y1697834D01*
X5366166Y1697835D01*
X5365491Y1698348D01*
X5354419Y1709419D01*
X5347804Y1713840D01*
X5340000Y1715392D01*
X5200000Y1715392D01*
X5192196Y1713840D01*
X5185580Y1709419D01*
X5185580Y1709418D01*
X5155581Y1679420D01*
X5151160Y1672804D01*
X5149608Y1665000D01*
X5149608Y1245002D01*
X5149608Y1245001D01*
X5151160Y1237197D01*
X5155580Y1230581D01*
X5155581Y1230581D01*
X5265581Y1120580D01*
X5272196Y1116160D01*
X5280000Y1114608D01*
X6076553D01*
X6089608Y1101553D01*
Y905001D01*
X6089608Y905000D01*
X6091160Y897196D01*
X6095581Y890580D01*
X6095581Y890580D01*
X6105000Y881161D01*
Y875000D01*
X6111161D01*
X6115580Y870581D01*
X6122196Y866160D01*
X6130000Y864608D01*
X6219999D01*
X6227803Y866160D01*
X6234419Y870581D01*
X6238838Y875000D01*
X6245000D01*
Y881162D01*
X6254419Y890580D01*
X6254419Y890581D01*
X6258840Y897196D01*
X6260392Y905000D01*
X6260392Y1239376D01*
X6260392Y1239998D01*
X6260393Y1240000D01*
X6260392Y1240002D01*
X6258840Y1247803D01*
X6254419Y1254419D01*
X6254419Y1254420D01*
X6246862Y1261976D01*
X6245000Y1265001D01*
X6243838Y1265000D01*
X6229420Y1279419D01*
X6229419Y1279419D01*
X6222804Y1283840D01*
X6215000Y1285392D01*
X5413446D01*
X5390392Y1308446D01*
Y1445515D01*
X5414992Y1457792D01*
X5422392Y1459370D01*
X5427196Y1456160D01*
X5434999Y1454608D01*
X5639605Y1454608D01*
X5640674Y1454820D01*
X5641759Y1454722D01*
X5644546Y1455590D01*
X5647408Y1456160D01*
X5648315Y1456766D01*
X5649355Y1457090D01*
X5651596Y1458958D01*
X5654024Y1460580D01*
X5654630Y1461487D01*
X5655467Y1462185D01*
X5740234Y1567108D01*
X6489054D01*
X6544598Y1511564D01*
X6532352Y1482000D01*
X6472500D01*
Y1424999D01*
X6530000D01*
Y1414999D01*
X6540000D01*
Y1348000D01*
X6556189D01*
X6561915Y1339431D01*
Y1321529D01*
X6568766Y1304990D01*
X6581424Y1292331D01*
X6597964Y1285480D01*
X6615866D01*
X6632405Y1292331D01*
X6634226Y1294152D01*
X6652827D01*
X6680000Y1282500D01*
Y1167500D01*
Y1125001D01*
X6730000D01*
X6780000D01*
Y1167500D01*
Y1260249D01*
X6796685Y1283847D01*
X6810964Y1285000D01*
X6845000D01*
Y1315000D01*
X6865000D01*
Y1285000D01*
X6912500D01*
Y1295000D01*
X6915000D01*
Y1510000D01*
X6900000Y1525000D01*
X6880000D01*
X6860000Y1545000D01*
Y1850000D01*
X6860391Y1850391D01*
Y2009999D01*
X6860392Y2010000D01*
X6858839Y2017804D01*
X6854419Y2024419D01*
X6829419Y2049419D01*
X6829419Y2049419D01*
X6822803Y2053840D01*
X6814999Y2055392D01*
D02*
G37*
G36*
X10670000Y1640001D02*
X10619999D01*
Y1610000D01*
X10670000D01*
Y1640001D01*
D02*
G37*
G36*
X10599999D02*
X10550000D01*
Y1610000D01*
X10599999D01*
Y1640001D01*
D02*
G37*
G36*
X9897500Y1650000D02*
X9830002D01*
Y1600000D01*
X9897500D01*
Y1650000D01*
D02*
G37*
G36*
X9810002D02*
X9742500D01*
Y1600000D01*
X9810002D01*
Y1650000D01*
D02*
G37*
G36*
X8140000Y1592500D02*
X8100001D01*
Y1545000D01*
X8140000D01*
Y1592500D01*
D02*
G37*
G36*
X10005000Y1600000D02*
X9957500D01*
Y1543000D01*
X10005000D01*
Y1600000D01*
D02*
G37*
G36*
X2404004Y2070000D02*
X2355996D01*
X2308579Y2062490D01*
X2262921Y2047655D01*
X2220145Y2025859D01*
X2181306Y1997641D01*
X2147359Y1963694D01*
X2119141Y1924855D01*
X2097345Y1882079D01*
X2082510Y1836421D01*
X2075000Y1789004D01*
Y1740996D01*
X2082510Y1693579D01*
X2097345Y1647921D01*
X2119141Y1605145D01*
X2147359Y1566306D01*
X2181306Y1532359D01*
X2220145Y1504141D01*
X2262921Y1482346D01*
X2308579Y1467510D01*
X2355996Y1460000D01*
X2404004D01*
X2451421Y1467510D01*
X2497079Y1482346D01*
X2539855Y1504141D01*
X2578694Y1532359D01*
X2612641Y1566306D01*
X2640859Y1605145D01*
X2662654Y1647921D01*
X2677490Y1693579D01*
X2685000Y1740996D01*
Y1789004D01*
X2677490Y1836421D01*
X2662654Y1882079D01*
X2640859Y1924855D01*
X2612641Y1963694D01*
X2578694Y1997641D01*
X2539855Y2025859D01*
X2497079Y2047655D01*
X2451421Y2062490D01*
X2404004Y2070000D01*
D02*
G37*
G36*
X8390001Y1415000D02*
X8345000D01*
Y1355000D01*
X8390001D01*
Y1415000D01*
D02*
G37*
G36*
X6520000Y1404999D02*
X6472500D01*
Y1348000D01*
X6520000D01*
Y1404999D01*
D02*
G37*
G36*
X10150000Y1312500D02*
Y1312500D01*
X10082000D01*
X10050000Y1312500D01*
X10049999Y1312500D01*
X9950000D01*
Y1296000D01*
X9859000D01*
Y1296000D01*
X9829485Y1290000D01*
X9821049D01*
X9804509Y1283149D01*
X9791851Y1270491D01*
X9785000Y1253951D01*
Y1236049D01*
X9791851Y1219510D01*
X9804509Y1206851D01*
X9821049Y1200000D01*
X9838951D01*
X9859000Y1173668D01*
Y1163999D01*
X9910000D01*
Y1153999D01*
X9920000D01*
Y1104000D01*
X9950000D01*
Y1087500D01*
X10049412D01*
Y765155D01*
X10043331Y763526D01*
X10021669Y751019D01*
X10003981Y733331D01*
X9991474Y711669D01*
X9985000Y687507D01*
Y662493D01*
X9991474Y638332D01*
X10003981Y616669D01*
X10021669Y598982D01*
X10043331Y586475D01*
X10067493Y580000D01*
X10092507D01*
X10116668Y586475D01*
X10138331Y598982D01*
X10156019Y616669D01*
X10168526Y638332D01*
X10175000Y662493D01*
Y687507D01*
X10168526Y711669D01*
X10156019Y733331D01*
X10138331Y751019D01*
X10116668Y763526D01*
X10110588Y765155D01*
Y839808D01*
X10142588Y853063D01*
X10146669Y848982D01*
X10168331Y836475D01*
X10192493Y830000D01*
X10195000D01*
Y925000D01*
Y1020000D01*
X10192493D01*
X10168331Y1013526D01*
X10146669Y1001019D01*
X10142588Y996938D01*
X10110588Y1010193D01*
Y1087500D01*
X10150000D01*
Y1189082D01*
X10171049Y1215000D01*
X10188951D01*
X10205490Y1221851D01*
X10218149Y1234510D01*
X10225000Y1251049D01*
Y1268951D01*
X10218149Y1285490D01*
X10205490Y1298149D01*
X10188951Y1305000D01*
X10178893D01*
X10150002Y1312500D01*
X10150000Y1312500D01*
D02*
G37*
G36*
X8360000Y1735000D02*
X8250000D01*
Y1595000D01*
X8314030D01*
X8384466Y1524564D01*
X8372220Y1495000D01*
X8345000D01*
Y1435000D01*
X8400001D01*
Y1425000D01*
X8410001D01*
Y1355000D01*
X8455000D01*
X8464314Y1326858D01*
Y1305122D01*
X8450000Y1277500D01*
X8421743Y1277500D01*
X8418000Y1277500D01*
X8381744D01*
Y1220000D01*
X8361744D01*
Y1277500D01*
X8342000D01*
X8310000Y1277500D01*
X8289744Y1277500D01*
X8270000D01*
Y1220000D01*
X8250000D01*
Y1277500D01*
X8169999D01*
Y1219999D01*
X8159999D01*
Y1209999D01*
X8110000D01*
Y1162500D01*
Y1052501D01*
X8110000Y1052500D01*
X8115642Y1020500D01*
X8115000Y1018951D01*
Y1001049D01*
X8121851Y984510D01*
X8134510Y971851D01*
X8151049Y965000D01*
X8168951D01*
X8185490Y971851D01*
X8191882Y978242D01*
X8205916Y983519D01*
X8231047Y980313D01*
X8234509Y976851D01*
X8251049Y970000D01*
X8259278D01*
X8274877Y940885D01*
X8274969Y940436D01*
X8274766Y940234D01*
X8267031Y928657D01*
X8264314Y915000D01*
Y777500D01*
X8232500D01*
Y659500D01*
X8232500Y642500D01*
X8232500Y610500D01*
Y492500D01*
X8367500D01*
Y512628D01*
X8371049Y515000D01*
X8388951D01*
X8400500Y519784D01*
X8420090Y511989D01*
X8432500Y503606D01*
Y492500D01*
X8567500D01*
Y512628D01*
X8571050Y515000D01*
X8588951D01*
X8605491Y521851D01*
X8618149Y534509D01*
X8625000Y551049D01*
Y568951D01*
X8618149Y585490D01*
X8605491Y598149D01*
X8588952Y605000D01*
X8567500Y627500D01*
X8567500Y659500D01*
Y777500D01*
X8535685D01*
Y1052500D01*
X8550000D01*
Y1162500D01*
Y1277500D01*
X8535685D01*
Y1459498D01*
X8532969Y1473154D01*
X8525233Y1484731D01*
X8360000Y1649965D01*
Y1735000D01*
D02*
G37*
G36*
X8020000Y1300001D02*
X7987501D01*
Y1260000D01*
X8020000D01*
Y1300001D01*
D02*
G37*
G36*
X8149999Y1277500D02*
X8110000D01*
Y1229999D01*
X8149999D01*
Y1277500D01*
D02*
G37*
G36*
X9900000Y1143999D02*
X9859000D01*
Y1104000D01*
X9900000D01*
Y1143999D01*
D02*
G37*
G36*
X6445000Y1265000D02*
X6384999D01*
Y1080000D01*
X6445000D01*
Y1265000D01*
D02*
G37*
G36*
X6364999D02*
X6305000D01*
Y1080000D01*
X6364999D01*
Y1265000D01*
D02*
G37*
G36*
X7350000Y1120000D02*
X7309999D01*
Y1072500D01*
X7350000D01*
Y1120000D01*
D02*
G37*
G36*
X6720000Y1105001D02*
X6680000D01*
Y1057500D01*
X6720000D01*
Y1105001D01*
D02*
G37*
G36*
X8022501Y1095000D02*
Y1044999D01*
X8060000D01*
Y1095000D01*
X8022501D01*
D02*
G37*
G36*
X7320002Y1020000D02*
Y987500D01*
X7360000D01*
Y1020000D01*
X7320002D01*
D02*
G37*
G36*
X8060000Y1024999D02*
X8022501D01*
Y975000D01*
X8060000D01*
Y1024999D01*
D02*
G37*
G36*
X445000Y1403488D02*
X275000D01*
X263295Y1401160D01*
X253371Y1394529D01*
X246741Y1384606D01*
X244413Y1372900D01*
Y990000D01*
X246741Y978295D01*
X253371Y968371D01*
X263295Y961741D01*
X275000Y959412D01*
X445000D01*
X456706Y961741D01*
X466629Y968371D01*
X473260Y978295D01*
X475588Y990000D01*
Y1372900D01*
X473260Y1384606D01*
X466629Y1394529D01*
X456706Y1401160D01*
X445000Y1403488D01*
D02*
G37*
G36*
X10217507Y1020000D02*
X10215000D01*
Y935000D01*
X10300000D01*
Y937507D01*
X10293526Y961669D01*
X10281019Y983331D01*
X10263331Y1001019D01*
X10241668Y1013526D01*
X10217507Y1020000D01*
D02*
G37*
G36*
X9600000D02*
X9515000D01*
Y935000D01*
X9600000D01*
Y1020000D01*
D02*
G37*
G36*
X9495000D02*
X9410000D01*
Y935000D01*
X9495000D01*
Y1020000D01*
D02*
G37*
G36*
X6445000Y1060000D02*
X6384999D01*
Y875000D01*
X6445000D01*
Y1060000D01*
D02*
G37*
G36*
X6364999D02*
X6305000D01*
Y875000D01*
X6364999D01*
Y1060000D01*
D02*
G37*
G36*
X10300000Y915000D02*
X10215000D01*
Y830000D01*
X10217507D01*
X10241668Y836475D01*
X10263331Y848982D01*
X10281019Y866669D01*
X10293526Y888332D01*
X10300000Y912493D01*
Y915000D01*
D02*
G37*
G36*
X9600000D02*
X9515000D01*
Y830000D01*
X9600000D01*
Y915000D01*
D02*
G37*
G36*
X9495000D02*
X9410000D01*
Y830000D01*
X9495000D01*
Y915000D01*
D02*
G37*
G36*
X9642507Y770000D02*
X9640000D01*
Y685000D01*
X9725000D01*
Y687507D01*
X9718525Y711669D01*
X9706018Y733331D01*
X9688331Y751019D01*
X9666668Y763526D01*
X9642507Y770000D01*
D02*
G37*
G36*
X9620000D02*
X9617493D01*
X9593331Y763526D01*
X9571669Y751019D01*
X9553981Y733331D01*
X9541474Y711669D01*
X9535000Y687507D01*
Y685000D01*
X9620000D01*
Y770000D01*
D02*
G37*
G36*
X362340Y871756D02*
X338295D01*
X314713Y867065D01*
X292498Y857864D01*
X272505Y844505D01*
X255503Y827503D01*
X242145Y807510D01*
X232943Y785296D01*
X228252Y761713D01*
Y737668D01*
X232943Y714085D01*
X242145Y691871D01*
X255503Y671878D01*
X272505Y654876D01*
X292498Y641517D01*
X314713Y632316D01*
X338295Y627625D01*
X362340D01*
X385923Y632316D01*
X408137Y641517D01*
X428130Y654876D01*
X445132Y671878D01*
X458491Y691871D01*
X467692Y714085D01*
X472383Y737668D01*
Y761713D01*
X467692Y785296D01*
X458491Y807510D01*
X445132Y827503D01*
X428130Y844505D01*
X408137Y857864D01*
X385923Y867065D01*
X362340Y871756D01*
D02*
G37*
G36*
X9220469Y732500D02*
X9215000D01*
Y625000D01*
X9322500D01*
Y630469D01*
X9314492Y660354D01*
X9299023Y687147D01*
X9277147Y709024D01*
X9250353Y724493D01*
X9220469Y732500D01*
D02*
G37*
G36*
X9195000D02*
X9189531D01*
X9159647Y724493D01*
X9132853Y709024D01*
X9110976Y687147D01*
X9095507Y660354D01*
X9087500Y630469D01*
Y625000D01*
X9195000D01*
Y732500D01*
D02*
G37*
G36*
X9725000Y665000D02*
X9640000D01*
Y580000D01*
X9642507D01*
X9666668Y586475D01*
X9688331Y598982D01*
X9706018Y616669D01*
X9718525Y638332D01*
X9725000Y662493D01*
Y665000D01*
D02*
G37*
G36*
X9620000D02*
X9535000D01*
Y662493D01*
X9541474Y638332D01*
X9553981Y616669D01*
X9571669Y598982D01*
X9593331Y586475D01*
X9617493Y580000D01*
X9620000D01*
Y665000D01*
D02*
G37*
G36*
X7971000Y616000D02*
X7945999D01*
Y571000D01*
X7971000D01*
Y616000D01*
D02*
G37*
G36*
X4742713Y924500D02*
X4705286D01*
X4668579Y917198D01*
X4634001Y902876D01*
X4602882Y882082D01*
X4576418Y855618D01*
X4555624Y824498D01*
X4541302Y789921D01*
X4534000Y753213D01*
Y715786D01*
X4541302Y679079D01*
X4555624Y644501D01*
X4576418Y613382D01*
X4602882Y586918D01*
X4634001Y566124D01*
X4668579Y551802D01*
X4705286Y544500D01*
X4742713D01*
X4779421Y551802D01*
X4813998Y566124D01*
X4845118Y586918D01*
X4871582Y613382D01*
X4892376Y644501D01*
X4906698Y679079D01*
X4914000Y715786D01*
Y753213D01*
X4906698Y789921D01*
X4892376Y824498D01*
X4871582Y855618D01*
X4845118Y882082D01*
X4813998Y902876D01*
X4779421Y917198D01*
X4742713Y924500D01*
D02*
G37*
G36*
X4234713D02*
X4197286D01*
X4160579Y917198D01*
X4126001Y902876D01*
X4094882Y882082D01*
X4068418Y855618D01*
X4047624Y824498D01*
X4033302Y789921D01*
X4026000Y753213D01*
Y715786D01*
X4033302Y679079D01*
X4047624Y644501D01*
X4068418Y613382D01*
X4094882Y586918D01*
X4126001Y566124D01*
X4160579Y551802D01*
X4197286Y544500D01*
X4234713D01*
X4271421Y551802D01*
X4305998Y566124D01*
X4337118Y586918D01*
X4363582Y613382D01*
X4384376Y644501D01*
X4398698Y679079D01*
X4406000Y715786D01*
Y753213D01*
X4398698Y789921D01*
X4384376Y824498D01*
X4363582Y855618D01*
X4337118Y882082D01*
X4305998Y902876D01*
X4271421Y917198D01*
X4234713Y924500D01*
D02*
G37*
G36*
X5160713Y921000D02*
X5123286D01*
X5086579Y913698D01*
X5052001Y899375D01*
X5020882Y878582D01*
X4994417Y852118D01*
X4973624Y820998D01*
X4959302Y786421D01*
X4952000Y749713D01*
Y712286D01*
X4959302Y675579D01*
X4973624Y641001D01*
X4994417Y609882D01*
X5020882Y583417D01*
X5052001Y562624D01*
X5086579Y548302D01*
X5123286Y541000D01*
X5160713D01*
X5197421Y548302D01*
X5231998Y562624D01*
X5263118Y583417D01*
X5289582Y609882D01*
X5310375Y641001D01*
X5324698Y675579D01*
X5332000Y712286D01*
Y749713D01*
X5324698Y786421D01*
X5310375Y820998D01*
X5289582Y852118D01*
X5263118Y878582D01*
X5231998Y899375D01*
X5197421Y913698D01*
X5160713Y921000D01*
D02*
G37*
G36*
X9322500Y605000D02*
X9215000D01*
Y497500D01*
X9220469D01*
X9250353Y505508D01*
X9277147Y520977D01*
X9299023Y542854D01*
X9314492Y569647D01*
X9322500Y599531D01*
Y605000D01*
D02*
G37*
G36*
X9195000D02*
X9087500D01*
Y599531D01*
X9095507Y569647D01*
X9110976Y542854D01*
X9132853Y520977D01*
X9159647Y505508D01*
X9189531Y497500D01*
X9195000D01*
Y605000D01*
D02*
G37*
G36*
X8903750Y733094D02*
X8806250D01*
X8788303Y730731D01*
X8771579Y723803D01*
X8757217Y712783D01*
X8746197Y698422D01*
X8739270Y681698D01*
X8736907Y663750D01*
Y566250D01*
X8739270Y548303D01*
X8746197Y531579D01*
X8757217Y517217D01*
X8771579Y506197D01*
X8788303Y499270D01*
X8806250Y496907D01*
X8903750D01*
X8921697Y499270D01*
X8938422Y506197D01*
X8952783Y517217D01*
X8963803Y531579D01*
X8970731Y548303D01*
X8973093Y566250D01*
Y663750D01*
X8970731Y681698D01*
X8963803Y698422D01*
X8952783Y712783D01*
X8938422Y723803D01*
X8921697Y730731D01*
X8903750Y733094D01*
D02*
G37*
G36*
X6705000Y705000D02*
X6515000D01*
Y325000D01*
X6705000D01*
Y705000D01*
D02*
G37*
G36*
X5668713Y921000D02*
X5631286D01*
X5594579Y913698D01*
X5560001Y899375D01*
X5528882Y878582D01*
X5502417Y852118D01*
X5481624Y820998D01*
X5467302Y786421D01*
X5460000Y749713D01*
Y712286D01*
X5467302Y675579D01*
X5481624Y641001D01*
X5502417Y609882D01*
X5528882Y583417D01*
X5560001Y562624D01*
X5594579Y548302D01*
X5631286Y541000D01*
X5668713D01*
X5705421Y548302D01*
X5739998Y562624D01*
X5771118Y583417D01*
X5797582Y609882D01*
X5813000Y632956D01*
X5845000Y623311D01*
Y325000D01*
X6035000D01*
Y705000D01*
X5871177D01*
X5843936Y711366D01*
X5840000Y734929D01*
Y749713D01*
X5832698Y786421D01*
X5818375Y820998D01*
X5797582Y852118D01*
X5771118Y878582D01*
X5739998Y899375D01*
X5705421Y913698D01*
X5668713Y921000D01*
D02*
G37*
G36*
X10717728Y530000D02*
X10682271D01*
X10647496Y523083D01*
X10614738Y509514D01*
X10585257Y489815D01*
X10560185Y464743D01*
X10540486Y435262D01*
X10526917Y402504D01*
X10520000Y367728D01*
Y332272D01*
X10526917Y297496D01*
X10540486Y264738D01*
X10560185Y235257D01*
X10585257Y210185D01*
X10614738Y190486D01*
X10647496Y176917D01*
X10682271Y170000D01*
X10717728D01*
X10752504Y176917D01*
X10785262Y190486D01*
X10814743Y210185D01*
X10839815Y235257D01*
X10859514Y264738D01*
X10873083Y297496D01*
X10880000Y332272D01*
Y367728D01*
X10873083Y402504D01*
X10859514Y435262D01*
X10839815Y464743D01*
X10814743Y489815D01*
X10785262Y509514D01*
X10752504Y523083D01*
X10717728Y530000D01*
D02*
G37*
G36*
X367728D02*
X332272D01*
X297496Y523083D01*
X264738Y509514D01*
X235257Y489815D01*
X210185Y464743D01*
X190486Y435262D01*
X176917Y402504D01*
X170000Y367728D01*
Y332272D01*
X176917Y297496D01*
X190486Y264738D01*
X210185Y235257D01*
X235257Y210185D01*
X264738Y190486D01*
X297496Y176917D01*
X332272Y170000D01*
X367728D01*
X402504Y176917D01*
X435262Y190486D01*
X464743Y210185D01*
X489815Y235257D01*
X509514Y264738D01*
X523083Y297496D01*
X530000Y332272D01*
Y367728D01*
X523083Y402504D01*
X509514Y435262D01*
X489815Y464743D01*
X464743Y489815D01*
X435262Y509514D01*
X402504Y523083D01*
X367728Y530000D01*
D02*
G37*
G36*
X8135000Y351175D02*
X8111589Y346519D01*
X8091743Y333257D01*
X8078481Y313411D01*
X8073825Y290000D01*
Y230000D01*
X8078481Y206589D01*
X8091743Y186743D01*
X8111589Y173481D01*
X8135000Y168825D01*
X8158411Y173481D01*
X8178257Y186743D01*
X8191519Y206589D01*
X8196175Y230000D01*
Y290000D01*
X8191519Y313411D01*
X8178257Y333257D01*
X8158411Y346519D01*
X8135000Y351175D01*
D02*
G37*
G36*
X7237000D02*
X7213589Y346519D01*
X7193742Y333257D01*
X7180481Y313411D01*
X7175824Y290000D01*
Y230000D01*
X7180481Y206589D01*
X7193742Y186743D01*
X7213589Y173481D01*
X7237000Y168825D01*
X7260411Y173481D01*
X7280257Y186743D01*
X7293519Y206589D01*
X7298175Y230000D01*
Y290000D01*
X7293519Y313411D01*
X7280257Y333257D01*
X7260411Y346519D01*
X7237000Y351175D01*
D02*
G37*
%LPD*%
G36*
X7470000Y6477499D02*
Y6389999D01*
X7414096Y6334096D01*
X7414096Y5931597D01*
X7375050Y5892550D01*
Y5757500D01*
X7310000D01*
Y6350000D01*
X7280000Y6379999D01*
Y6487500D01*
X7315000Y6522500D01*
X7425000Y6522500D01*
X7470000Y6477499D01*
D02*
G37*
G36*
X7380000Y5630000D02*
Y5470000D01*
X7410000Y5440000D01*
Y5265188D01*
X7394490Y5249678D01*
X7304490Y5249678D01*
X7290000Y5264168D01*
Y5620000D01*
X7304000Y5634000D01*
X7376000D01*
X7380000Y5630000D01*
D02*
G37*
G36*
X4880002Y4820000D02*
X4900000Y4799999D01*
Y4740000D01*
X4882500Y4722500D01*
X4705000Y4722501D01*
X4585000D01*
X4565000Y4742501D01*
X4435000D01*
X4425000Y4752501D01*
Y4802501D01*
X4442499Y4820000D01*
X4880002Y4820000D01*
D02*
G37*
G36*
X4309001Y4808500D02*
Y4736500D01*
X4305001Y4732500D01*
X4145000D01*
X4115000Y4702500D01*
X3955000D01*
X3935000Y4722500D01*
Y4802500D01*
X3955000Y4822500D01*
X4295001D01*
X4309001Y4808500D01*
D02*
G37*
G36*
X9474654Y3460345D02*
X9474654Y3399655D01*
X9459999Y3384999D01*
X9190000Y3385000D01*
X9070000D01*
X9050000Y3405000D01*
X8919999D01*
X8910000Y3415000D01*
Y3465000D01*
X8920000Y3475000D01*
X9460001D01*
X9474654Y3460345D01*
D02*
G37*
G36*
X8784000Y3471000D02*
Y3399000D01*
X8780000Y3395000D01*
X8620000D01*
X8590000Y3365000D01*
X8429999D01*
X8409999Y3385000D01*
Y3465000D01*
X8430000Y3485000D01*
X8770000D01*
X8784000Y3471000D01*
D02*
G37*
G36*
X8700000Y2950000D02*
Y2610000D01*
X8686000Y2596000D01*
X8614000D01*
X8610000Y2600000D01*
Y2760000D01*
X8580000Y2790000D01*
Y2950000D01*
X8600000Y2970000D01*
X8680000D01*
X8700000Y2950000D01*
D02*
G37*
G36*
X8685000Y2127999D02*
X8718000Y2095000D01*
X8990000D01*
X9010000Y2075000D01*
Y1875000D01*
X8996397Y1861397D01*
X8943603D01*
X8929999Y1875001D01*
X8930000Y1965000D01*
X8920000Y1975000D01*
X8665000D01*
X8600000Y2039999D01*
X8600000Y2470000D01*
X8685000D01*
Y2127999D01*
D02*
G37*
G36*
X9155000Y2290000D02*
Y2122000D01*
X9177000Y2100000D01*
X9525000D01*
X9535000Y2090000D01*
Y1990000D01*
X9525000Y1980000D01*
X9179999Y1980000D01*
X9154999Y1955000D01*
X9155000Y1870000D01*
X9145000Y1860000D01*
X9045000D01*
X9034999Y1870000D01*
X9035000Y2280000D01*
X9055000Y2300000D01*
X9145000D01*
X9155000Y2290000D01*
D02*
G37*
G36*
X8207902Y2502098D02*
X8220000Y2490000D01*
Y2425000D01*
X8210000Y2415000D01*
X7880000D01*
X7822072Y2472928D01*
X7746601D01*
Y2502098D01*
X8207902Y2502098D01*
D02*
G37*
G36*
X7860000Y2395000D02*
X8045000D01*
X8060000Y2380000D01*
X8060000Y2310000D01*
X8048843Y2298844D01*
X7766156Y2298843D01*
X7740000Y2325000D01*
Y2452208D01*
X7802792D01*
X7860000Y2395000D01*
D02*
G37*
G36*
X7212500Y2107500D02*
Y1547500D01*
X7129999Y1464999D01*
X7037500Y1465000D01*
Y1492500D01*
X7045000Y1500000D01*
X7060000D01*
X7110000Y1550000D01*
Y2110000D01*
X7119999Y2120000D01*
X7200000D01*
X7212500Y2107500D01*
D02*
G37*
G36*
X5548587Y2437405D02*
X5548586Y2363905D01*
X5542134Y2357454D01*
X5503704Y2357454D01*
X5481250Y2335000D01*
X5284999Y2335000D01*
X5250000Y2299999D01*
Y2050001D01*
X5374999Y1925000D01*
X6510966D01*
X6520000Y1915966D01*
X6519999Y1813039D01*
X6511960Y1805000D01*
X5335000D01*
X5131250Y2008750D01*
Y2426250D01*
X5150000Y2445000D01*
X5540992D01*
X5548587Y2437405D01*
D02*
G37*
G36*
X5598273Y2866727D02*
X5598274Y2513274D01*
X5590000Y2505000D01*
X5589999Y2455000D01*
X5598274Y2446726D01*
Y2363274D01*
X5592224Y2357224D01*
X5573180D01*
X5569214Y2361190D01*
Y2446143D01*
X5490357Y2525000D01*
X5460000D01*
X5447500Y2537500D01*
Y2872500D01*
X5460000Y2885000D01*
X5580000D01*
X5598273Y2866727D01*
D02*
G37*
G36*
X4993750Y1957500D02*
Y1890000D01*
X4986250Y1882500D01*
X4813750D01*
X4806250Y1890000D01*
Y1957500D01*
X4813750Y1965000D01*
X4986250D01*
X4993750Y1957500D01*
D02*
G37*
G36*
X5688542Y2877500D02*
X5800000D01*
X5805000Y2872500D01*
Y2530000D01*
X5770000Y2495000D01*
X5746716D01*
X5698677Y2446961D01*
Y2360579D01*
X5695340Y2357243D01*
X5674221Y2357242D01*
X5669231Y2362232D01*
X5669230Y2451730D01*
X5682500Y2464998D01*
Y2508013D01*
X5671726Y2518787D01*
Y2861421D01*
X5688174Y2877869D01*
X5688542Y2877500D01*
D02*
G37*
G36*
X6549999Y2425000D02*
X6550000Y2290071D01*
X6524928Y2265000D01*
X6375340D01*
X6350000Y2290339D01*
Y2337500D01*
X6322500Y2365000D01*
X5790000D01*
X5782493Y2357494D01*
X5722363D01*
X5719231Y2360626D01*
Y2437428D01*
X5729301Y2447499D01*
X6527500Y2447500D01*
X6549999Y2425000D01*
D02*
G37*
G36*
X4690000Y1850000D02*
Y1510000D01*
X4680000Y1500000D01*
X4520000D01*
X4510000Y1510000D01*
Y1850000D01*
X4530000Y1870000D01*
X4670000D01*
X4690000Y1850000D01*
D02*
G37*
G36*
X4460000Y1680000D02*
Y1510000D01*
X4440000Y1490000D01*
X3161942D01*
X2520000Y848058D01*
X2520000Y450000D01*
X2500000Y430000D01*
X2260000D01*
X2240000Y449999D01*
Y899999D01*
X3039999Y1700000D01*
X4440000D01*
X4460000Y1680000D01*
D02*
G37*
G36*
X6840000Y2010000D02*
X6840000Y1527500D01*
X6867500Y1500000D01*
X6887500D01*
X6892634Y1494866D01*
Y1473117D01*
X6884560Y1465043D01*
X6789957D01*
X6680000Y1575000D01*
X6679998Y2010000D01*
X6705250Y2034999D01*
X6814999Y2035000D01*
X6840000Y2010000D01*
D02*
G37*
G36*
X6637500Y1587500D02*
X6780175Y1444823D01*
X6891875D01*
X6891875Y1426875D01*
X6890000Y1425000D01*
X6774998Y1425000D01*
X6717500Y1367499D01*
X6632500D01*
Y1452501D01*
X6497500Y1587500D01*
X5730494D01*
X5639605Y1475000D01*
X5435000Y1475000D01*
X5405000Y1505000D01*
Y1587500D01*
X5404796Y1587704D01*
Y1665000D01*
X5434796Y1695000D01*
X6530000D01*
X6637500Y1587500D01*
D02*
G37*
G36*
X5370000Y1665000D02*
X5370000Y1300000D01*
X5405000Y1265000D01*
X6215000D01*
X6240000Y1240000D01*
Y905000D01*
X6219999Y885000D01*
X6130000D01*
X6110000Y905000D01*
Y1109999D01*
X6085000Y1135000D01*
X5280000D01*
X5170000Y1245001D01*
X5170000Y1665000D01*
X5200000Y1695000D01*
X5340000Y1695000D01*
X5370000Y1665000D01*
D02*
G37*
D10*
X7622442Y1405394D02*
G03*
X7585000Y1315000I90395J-90395D01*
G01*
X7775000D02*
G03*
X7728584Y1427081I-158531J0D01*
G01*
X7661000Y796317D02*
G03*
X7661980Y798892I-2892J2575D01*
G01*
X7710019Y798574D02*
G03*
X7710999Y796000I3871J1D01*
G01*
X7726879Y914309D02*
G03*
X7774635Y1064979I-173733J137969D01*
G01*
X7619820Y944997D02*
G03*
X7625079Y937074I189377J120003D01*
G01*
X7589562Y1020000D02*
G03*
X7619820Y944997I219634J45000D01*
G01*
X5604700Y2275000D02*
X5607500Y2272200D01*
X5633901D02*
Y2397200D01*
Y2482070D01*
X5585000Y2275000D02*
X5604700D01*
X5607500Y2272200D02*
X5633901D01*
X7710333Y2717501D02*
Y2844667D01*
Y2678714D02*
Y2717501D01*
X7710000Y2845000D02*
X7710333Y2844667D01*
X8090625Y2651875D02*
X8093750Y2655000D01*
X8090625Y2598125D02*
Y2651875D01*
X7610333Y2537501D02*
X7635332Y2562501D01*
X7610333Y2407501D02*
Y2537501D01*
X7635332Y2562501D02*
X7710331Y2637500D01*
X8714999Y3325000D02*
X8779497D01*
X8710000Y3330000D02*
X8714999Y3325000D01*
X8520000Y2849999D02*
X8534070Y2835929D01*
X7455100Y5566001D02*
Y5635100D01*
X7450000Y5560901D02*
X7455100Y5566001D01*
X5925000Y6200000D02*
X5933000Y6192000D01*
X6268213Y5849213D02*
X6345787D01*
X6300000Y4905141D02*
X6301709Y4903432D01*
X6020093Y3205000D02*
X6035093Y3220000D01*
X5840000Y6200000D02*
X5925000D01*
X4932427Y6302573D02*
Y6457427D01*
X5003000Y5450000D02*
Y5542502D01*
Y5450000D02*
X5011621Y5441379D01*
X5076001Y4401500D02*
X5391500D01*
X4953230Y4426770D02*
X5024229D01*
X4883827Y4088673D02*
X4886500Y4086000D01*
X4741000Y4336000D02*
X4776173Y4371173D01*
X4740000Y4336000D02*
X4741000D01*
X4451250Y4088750D02*
Y4206250D01*
X5633901Y2482070D02*
X5635049Y2483219D01*
X7710331Y2678713D02*
X7710333Y2678714D01*
X7710331Y2637500D02*
Y2678713D01*
X6290300Y4267499D02*
X6440922D01*
X6172501D02*
X6290300D01*
X5142700Y3767499D02*
X5230947D01*
X5052501D02*
X5142700D01*
X5391500Y3368699D02*
Y3508500D01*
Y3238574D02*
Y3368699D01*
X5063544Y4337905D02*
X5083949Y4317499D01*
X5021095Y4337905D02*
X5063544D01*
X4994729Y4364271D02*
X5021095Y4337905D01*
X5390000Y4400000D02*
X5391225Y4398775D01*
X5025000Y4426000D02*
X5051500D01*
X5009250Y4441750D02*
X5010000Y4441000D01*
X5024229Y4426770D02*
X5025000Y4426000D01*
X5083949Y4317499D02*
X5142700D01*
X5051500Y4426000D02*
X5076001Y4401500D01*
X5478775Y4398775D02*
X5480000Y4397549D01*
X5390000Y3510000D02*
X5391500Y3508500D01*
X5841500Y3368699D02*
Y3491058D01*
X5865718Y3515276D01*
Y3518632D01*
X5865718Y3516840D02*
X5891500Y3491058D01*
X5865718Y3516840D02*
Y3518632D01*
X5891500Y3368699D02*
Y3491058D01*
X6170000Y4270000D02*
X6172501Y4267499D01*
X5266173Y3723827D02*
Y3732273D01*
X5230947Y3767499D02*
X5266173Y3732273D01*
Y3723827D02*
X5270000Y3720000D01*
X6462759Y4246662D02*
X6470769Y4254672D01*
X6529915D02*
X6534588Y4250000D01*
X6470769Y4254672D02*
X6529915D01*
X6534588Y4250000D02*
X6540000D01*
X6462759Y4338662D02*
X6476094Y4325327D01*
X6534588Y4330000D02*
X6540000D01*
X6476094Y4325327D02*
X6529915D01*
X6534588Y4330000D01*
X4630000Y4075000D02*
X4700999Y4146000D01*
X4756000D01*
X4756000Y4146000D01*
X5006000D01*
X4868426Y3631811D02*
X4899999Y3600237D01*
X4810000Y3619000D02*
X4822810Y3631811D01*
X4899999Y3592500D02*
X4917499Y3575000D01*
X4822810Y3631811D02*
X4868426D01*
X4899999Y3592500D02*
Y3600237D01*
X4917499Y3575000D02*
X4920000D01*
X4809000Y3619000D02*
X4810000D01*
X4610000Y3710000D02*
X4613827Y3713827D01*
X4678826D01*
X4699999Y3735000D01*
X4615412Y3629600D02*
X4627512Y3617500D01*
X4677499D01*
X4610000Y3629600D02*
X4615412D01*
X4677499Y3617500D02*
X4699999Y3595000D01*
X4190000Y3560000D02*
Y3645000D01*
X7975000Y1245000D02*
X7976250Y1246250D01*
Y1308750D02*
X7977500Y1310000D01*
X7976250Y1246250D02*
Y1308750D01*
X8200000Y1310000D02*
X8280000D01*
X6461759Y4246662D02*
X6462759D01*
X6440922Y4267499D02*
X6461759Y4246662D01*
X4772500Y4217499D02*
X5142700D01*
X4740000Y4242500D02*
X4747500D01*
X4772500Y4217499D01*
X6918177Y2677500D02*
X6935111Y2660566D01*
X6940523D01*
X6880000Y2692500D02*
X6895000Y2677500D01*
X6918177D01*
X6880000Y2692500D02*
Y2700000D01*
X4705000Y4250000D02*
X4734000D01*
X4630000Y4325000D02*
X4705000Y4250000D01*
X4734000D02*
X4740000Y4244000D01*
X8220000Y2330000D02*
X8220000Y2330000D01*
X8290000D01*
X8300000Y555000D02*
X8305000Y560000D01*
X5206173Y4633827D02*
Y4690027D01*
X5136173Y4626173D02*
X5206173D01*
X5130000Y4620000D02*
X5136173Y4626173D01*
X5206173Y4633827D02*
X5210000Y4630000D01*
X5206173Y4626173D02*
X5210000Y4630000D01*
X5195000Y4701200D02*
X5206173Y4690027D01*
X8470000Y2420000D02*
Y2467573D01*
X8455000Y2405000D02*
X8470000Y2420000D01*
X8500503Y2505000D02*
X8759000D01*
X8510178Y2560000D02*
X8534999Y2584822D01*
X8447574Y2534675D02*
X8472899Y2560000D01*
X8510178D01*
X8470000Y2467574D02*
Y2474497D01*
X8445325Y2534675D02*
X8447574D01*
X8535000Y2592426D02*
Y2640000D01*
X8534999Y2584822D02*
Y2592426D01*
X8470000Y2120000D02*
X8543999D01*
X8470000Y2467573D02*
X8470000Y2467574D01*
X8534999Y2592426D02*
X8535000Y2592426D01*
X8470000Y2474497D02*
X8500503Y2505000D01*
X7980000Y2630000D02*
X7982363Y2627637D01*
Y2573636D02*
Y2627637D01*
Y2573636D02*
X7987500Y2568500D01*
X8550000Y2655000D02*
Y2760000D01*
X8535000Y2640000D02*
X8550000Y2655000D01*
X5430000Y4883800D02*
X5433827Y4887627D01*
X5492627D01*
X5500000Y4895000D01*
X5890000D02*
X5892500Y4897500D01*
X5977500D02*
X5980000Y4900000D01*
X5892500Y4897500D02*
X5977500D01*
X4702500Y2302500D02*
X4762500D01*
X4700000Y2300000D02*
X4702500Y2302500D01*
X4762500D02*
X4765000Y2305000D01*
X4390000Y3737000D02*
Y3820000D01*
X8794000Y3555000D02*
X8804000Y3565000D01*
X5441500Y3219500D02*
X5466000Y3195000D01*
X6102316Y3189544D02*
X6114933Y3202160D01*
X6102316Y3138096D02*
Y3189544D01*
Y3138096D02*
X6110000Y3130412D01*
Y3125000D02*
Y3130412D01*
X6022933Y3202160D02*
X6034591Y3190501D01*
X6030000Y3130412D02*
X6034591Y3135004D01*
Y3190501D01*
X6030000Y3125000D02*
Y3130412D01*
X5320000Y4759588D02*
Y4765000D01*
Y4759588D02*
X5327432Y4752156D01*
Y4698432D02*
Y4752156D01*
X5314000Y4685000D02*
X5327432Y4698432D01*
X5392568Y4698432D02*
X5406000Y4685000D01*
X5392568Y4698432D02*
Y4752156D01*
X5400000Y4759588D01*
Y4765000D01*
X4340000Y4617912D02*
Y4639497D01*
X4311997Y4667500D02*
X4340000Y4639497D01*
X4307574Y4667500D02*
X4307574Y4667500D01*
X4260000Y4667500D02*
X4307574D01*
X4307574Y4667500D02*
X4311997D01*
X4144498Y4682500D02*
X4245000D01*
X4260000Y4667500D01*
X4340000Y4617912D02*
X4350000Y4607912D01*
Y4602500D02*
Y4607912D01*
X4390000Y4648002D02*
X4420502Y4617500D01*
X4390000Y4648002D02*
Y4816998D01*
X4776173Y4371173D02*
X4793673D01*
X4797500Y4375000D01*
X4855412Y4310000D02*
Y4439588D01*
Y4310000D02*
X4887913Y4277499D01*
X4961602D01*
X4420502Y4617500D02*
X4435000D01*
X4465000Y4587500D01*
X4495000D01*
X4949271Y4364271D02*
X4994729D01*
X4940000Y4355000D02*
X4949271Y4364271D01*
X4725000Y4440000D02*
X4855000D01*
X4585000D02*
X4725000D01*
X4455000D02*
X4585000D01*
X4883827Y4086000D02*
Y4088673D01*
Y3973827D02*
Y4086000D01*
X4937500Y4442500D02*
X4953230Y4426770D01*
X4450000Y4429588D02*
X4455000Y4434588D01*
X4450000Y4330000D02*
Y4429588D01*
X4455000Y4434588D02*
Y4440000D01*
X4744673Y4058673D02*
X4798673D01*
X4740000Y4054000D02*
X4744673Y4058673D01*
X4798673D02*
X4802500Y4062500D01*
X4886500Y4086000D02*
X4980000D01*
X4720000Y3970000D02*
X4880000D01*
X4580000D02*
X4720000D01*
X4396173Y4823171D02*
Y4897673D01*
X4406000Y4907500D01*
X4390000Y4816998D02*
X4396173Y4823171D01*
X4858250Y4668250D02*
X4860000Y4670000D01*
X4781750Y4668250D02*
X4858250D01*
X4780000Y4666500D02*
X4781750Y4668250D01*
X4450000Y3977912D02*
Y4088750D01*
Y3977912D02*
X4455000Y3972912D01*
Y3967500D02*
Y3972912D01*
X4457500Y3970000D02*
X4580000D01*
X4455000Y3967500D02*
X4457500Y3970000D01*
X5006000Y4146000D02*
X5027499Y4167499D01*
X4450000Y4330000D02*
X4450625Y4329375D01*
X4880000Y3970000D02*
X4883827Y3973827D01*
X5027499Y4167499D02*
X5142700D01*
X4450625Y4206875D02*
X4451250Y4206250D01*
X4450625Y4206875D02*
Y4329375D01*
X5391500Y4401500D02*
Y4516299D01*
X8759000Y2505000D02*
X8770000Y2494000D01*
X8779497Y3325000D02*
X8794497Y3310000D01*
X8794497D01*
X8815000Y3289497D01*
Y3267574D02*
Y3289497D01*
Y3267574D02*
X8840000Y3242574D01*
Y3240000D02*
Y3242574D01*
X7485800Y5665800D02*
X7504038D01*
X7455100Y5635100D02*
X7485800Y5665800D01*
X7534588Y5696350D02*
X7540000D01*
X7504038Y5665800D02*
X7534588Y5696350D01*
X7474798Y5716000D02*
X7520101Y5761303D01*
X7220000Y5716000D02*
X7474798D01*
X8543999Y2120000D02*
X8544000Y2120000D01*
X10100000Y1255000D02*
X10102500Y1257500D01*
X10177500D01*
X10180000Y1260000D01*
X6730000Y1115000D02*
X6732500Y1117500D01*
X6807500D01*
X7351834Y1034260D02*
X7364260D01*
X7317500Y977500D02*
X7325000Y985000D01*
X7364260Y1034260D02*
X7370000Y1040000D01*
X7325000Y985000D02*
Y1007426D01*
X7310000Y977500D02*
X7317500D01*
X7325000Y1007426D02*
X7351834Y1034260D01*
X7225000Y1005000D02*
Y1017426D01*
X7257574Y1050000D02*
X7260000D01*
X7210000Y990000D02*
X7225000Y1005000D01*
Y1017426D02*
X7257574Y1050000D01*
X10360000Y2100000D02*
X10460000D01*
X9690000Y2300000D02*
X9779999D01*
X9786173Y2293827D01*
X9662500Y2380000D02*
X9680000Y2362500D01*
Y2313065D02*
X9690000Y2303065D01*
X9680000Y2313065D02*
Y2362500D01*
X9690000Y2300000D02*
Y2303065D01*
X8090000Y1610000D02*
X8090000Y1610000D01*
X8090000Y1535000D02*
Y1610000D01*
X7300000Y1130000D02*
X7370000D01*
X7370000Y1130000D01*
X7220000Y1130000D02*
X7300000D01*
X7140000D02*
X7220000D01*
X7610333Y2280333D02*
Y2407501D01*
X7610000Y2280000D02*
X7610333Y2280333D01*
X8690000Y1880000D02*
X8807000D01*
X8810000Y1877000D01*
X9670000Y2600000D02*
X9780000D01*
X7960000Y1035000D02*
X8012500D01*
X8087500Y2595000D02*
X8090625Y2598125D01*
X5755000Y1995000D02*
X5757500Y1992500D01*
X5837500D01*
X5840000Y1990000D01*
X5053826Y6443827D02*
Y6546174D01*
X7940000Y2180000D02*
Y2239000D01*
Y2180000D02*
X7940000Y2180000D01*
X7830000Y2130000D02*
Y2195000D01*
X7830000Y2195000D02*
X7830000Y2195000D01*
X6810000Y745000D02*
X6850000Y705000D01*
X6810000Y745000D02*
Y850000D01*
X6927500Y827500D02*
X7017500Y737500D01*
Y737500D02*
Y737500D01*
X6925000Y827500D02*
X6927500D01*
X7045000Y710000D02*
X7050000D01*
X7017500Y737500D02*
X7045000Y710000D01*
X6910000Y842500D02*
X6925000Y827500D01*
X6910000Y842500D02*
Y850000D01*
X8175000Y1285000D02*
X8200000Y1310000D01*
X8175000Y1235000D02*
Y1285000D01*
X8160000Y1220000D02*
X8175000Y1235000D01*
X8275000D02*
Y1299588D01*
X8280000Y1304588D01*
Y1310000D01*
X8260000Y1220000D02*
X8275000Y1235000D01*
X8520000Y2849999D02*
Y2924291D01*
Y2840000D02*
Y2849999D01*
X7411000Y796000D02*
Y909000D01*
Y719541D02*
Y796000D01*
X4090000Y4642500D02*
X4112500Y4665000D01*
X4085000Y4637500D02*
X4090000Y4642500D01*
X7710333Y1445333D02*
Y2407501D01*
X7622442Y1405394D02*
X7662048Y1445000D01*
Y2405785D01*
X7710333Y1445333D02*
X7728584Y1427081D01*
X7561000Y796000D02*
Y843493D01*
Y748887D02*
Y796000D01*
X8260000Y1015000D02*
Y1110000D01*
X8500000Y560000D02*
X8580000D01*
X8160000Y1010000D02*
Y1110000D01*
X4600000Y4682500D02*
X4625000Y4657500D01*
X4495000Y4682500D02*
X4600000D01*
X4245000Y4777500D02*
X4275000D01*
X4314000Y4816500D01*
X4652500Y4627500D02*
X4660000D01*
X4625000Y4655000D02*
X4652500Y4627500D01*
X4625000Y4655000D02*
Y4657500D01*
X3980000Y4637500D02*
X4085000D01*
X4112500Y4665000D02*
X4126998D01*
X4144498Y4682500D01*
X8500000Y710000D02*
Y1102367D01*
X8507633Y1110000D02*
Y1125134D01*
X8500000Y1102367D02*
X8507633Y1110000D01*
X8371743Y1291743D02*
X8400000Y1320000D01*
Y1425000D01*
X8371743Y1220000D02*
Y1291743D01*
X8329498Y1630000D02*
X8500000Y1459498D01*
Y1220000D02*
Y1459498D01*
X8305000Y1650000D02*
X8325000Y1630000D01*
X8329498D01*
X6521250Y4886250D02*
X6528673Y4878827D01*
X6080000Y4895000D02*
X6086314Y4901314D01*
X6591173Y4878827D02*
X6595000Y4875000D01*
X6156173Y4901314D02*
X6160000Y4905141D01*
X6528673Y4878827D02*
X6591173D01*
X6086314Y4901314D02*
X6156173D01*
X7410000Y910000D02*
X7411000Y909000D01*
X6301709Y4903432D02*
X6361568D01*
X6370000Y4895000D01*
X9260000Y3270000D02*
Y3335000D01*
Y3270000D02*
X9260000Y3270000D01*
X8445549Y3292145D02*
X8537855D01*
X10014999Y2290000D02*
X10015000Y2290000D01*
X9916173Y2293827D02*
X9920000Y2290000D01*
X9786173Y2293827D02*
X9916173D01*
X9920000Y2290000D02*
X10014999D01*
X9662500Y2380000D02*
Y2510000D01*
X9662499Y2510000D02*
X9662500Y2510000D01*
X10199500Y3299500D02*
X10200000Y3299000D01*
X10120500Y3299500D02*
X10199500D01*
X10120000Y3300000D02*
X10120500Y3299500D01*
X8520000Y2924291D02*
X8520000Y2924291D01*
X8519999Y2840000D02*
X8520000Y2840000D01*
X8534070Y2775930D02*
X8550000Y2760000D01*
X8534070Y2775930D02*
Y2835929D01*
X10005000Y1900000D02*
X10015000Y1890000D01*
X9925000Y1900000D02*
X10005000D01*
Y1720000D02*
X10015000Y1730000D01*
X9925000Y1720000D02*
X10005000D01*
X9925000Y1610000D02*
X10015000D01*
X9930000Y2710000D02*
X10020000D01*
X9925000Y2170000D02*
X10015000D01*
X9925000Y2420000D02*
X10015000D01*
X9930000Y2010000D02*
X10015000D01*
X9077500Y2612500D02*
Y2677500D01*
X9075000Y2610000D02*
X9077500Y2612500D01*
Y2677500D02*
X9080000Y2680000D01*
X4960000Y2400000D02*
X4962500Y2402500D01*
X5030000D01*
X5032500Y2405000D01*
X4960000Y2280000D02*
X5035000D01*
X4960000Y2170000D02*
X5035000D01*
X5040000Y2165000D01*
X5042500Y3777500D02*
X5052501Y3767499D01*
X4862071Y3777500D02*
X5042500D01*
X4825999Y3741428D02*
X4862071Y3777500D01*
X4825999Y3726000D02*
Y3741428D01*
X4811000Y3711000D02*
X4825999Y3726000D01*
X4810000Y3711000D02*
X4811000D01*
X5391500Y4621499D02*
X5398180Y4628180D01*
Y4677181D01*
X5406000Y4685000D01*
X5391500Y4516299D02*
Y4621499D01*
X8589500Y3330000D02*
X8710000D01*
X8557000Y3297500D02*
X8589500Y3330000D01*
X4299857Y1915144D02*
X4302170Y1912830D01*
Y1837830D02*
Y1912830D01*
Y1837830D02*
X4304484Y1835516D01*
X4251945Y2318055D02*
X4253890Y2316109D01*
X4172500Y2320000D02*
X4174445Y2318055D01*
X4251945D01*
X5352500Y3097500D02*
Y3100000D01*
Y3097500D02*
X5378431Y3071568D01*
Y3026568D02*
Y3071568D01*
Y3026568D02*
X5380000Y3025000D01*
X5370000Y3133574D02*
X5374000Y3137574D01*
X5352500Y3100000D02*
X5370000Y3117500D01*
Y3133574D01*
X5374000Y3137574D02*
Y3205000D01*
X5389000Y3220000D02*
Y3236074D01*
X5374000Y3205000D02*
X5389000Y3220000D01*
Y3236074D02*
X5391500Y3238574D01*
X5011621Y5370374D02*
Y5441379D01*
Y5370374D02*
X5015448Y5366548D01*
X6230000Y4895000D02*
X6236173Y4901173D01*
X6296173D01*
X6300000Y4905000D01*
X8710000Y3330000D02*
X8720000Y3340000D01*
X4467500Y2992500D02*
X4470000Y2990000D01*
X4360000Y2995000D02*
X4362500Y2992500D01*
X4467500D01*
X4165695Y2810695D02*
X4224305D01*
X4165000Y2810000D02*
X4165695Y2810695D01*
X4224305D02*
X4225000Y2811391D01*
X10199500Y3770500D02*
X10200000Y3771000D01*
X10120000Y3770000D02*
X10120500Y3770500D01*
X10199500D01*
X9990049Y3648750D02*
X10108750D01*
X9988800Y3647500D02*
X9990049Y3648750D01*
X10108750D02*
X10110000Y3650000D01*
X4940000Y5645000D02*
Y5795000D01*
Y5610000D02*
Y5645000D01*
Y5795000D02*
X5190000Y6045000D01*
X4990000Y5555503D02*
X5003000Y5542502D01*
X4990000Y5555503D02*
Y5560000D01*
X4940000Y5610000D02*
X4990000Y5560000D01*
X4932427Y6457427D02*
X4940000Y6465000D01*
X4932427Y6302573D02*
X5070000Y6165000D01*
X6052000Y6192000D02*
X6055000Y6195000D01*
X5933000Y6192000D02*
X6052000D01*
X5035000Y2280000D02*
X5040000Y2285000D01*
X5070000Y6145000D02*
Y6165000D01*
X4940000Y6465000D02*
Y6550001D01*
X7668180Y1076820D02*
X7680000Y1065000D01*
X6450000Y1415000D02*
X6530000D01*
X6305000Y6115000D02*
X6390000D01*
X6390000Y6115000D01*
X6268213Y5849213D02*
X6270000Y5851000D01*
X6263100Y5844100D02*
X6268213Y5849213D01*
X6143700Y5844100D02*
X6263100D01*
X6073700D02*
X6143700D01*
X6345787Y5849213D02*
X6347574Y5847426D01*
X6063700Y5804100D02*
X6063850Y5803951D01*
X6063700Y5834100D02*
X6073700Y5844100D01*
X6063700Y5804100D02*
Y5834100D01*
X6055000Y6195000D02*
X6180000D01*
X6252500Y6122500D02*
X6297500D01*
X6180000Y6175500D02*
X6232500Y6123000D01*
X6297500Y6122500D02*
X6305000Y6115000D01*
X6252000Y6123000D02*
X6252500Y6122500D01*
X6232500Y6123000D02*
X6252000D01*
X6180000Y6175500D02*
Y6195000D01*
X6041500Y3238574D02*
Y3368699D01*
X6035093Y3220000D02*
Y3232167D01*
X6041500Y3238574D01*
X4757713Y3695000D02*
X4794000D01*
X4810000Y3711000D01*
X4709500Y3725000D02*
X4729588Y3712500D01*
X4757713Y3695000D01*
X4367500Y2525000D02*
X4477500D01*
X4362500Y2519999D02*
X4367500Y2525000D01*
X7961000Y796000D02*
Y919014D01*
X7960701Y919313D02*
X7961000Y919014D01*
Y731000D02*
Y796000D01*
X7936000Y626000D02*
Y706000D01*
X7961000Y731000D01*
X7385999Y626000D02*
Y694540D01*
X7411000Y719541D01*
X8910000Y3260000D02*
X8955000D01*
X8870000Y3300000D02*
X8910000Y3260000D01*
X8870000Y3300000D02*
Y3531426D01*
X8955000Y3260000D02*
X8970000Y3245000D01*
X7540000Y866497D02*
X7561000Y845498D01*
X7540000Y866497D02*
Y950000D01*
X7561000Y843493D02*
Y845498D01*
X7611000Y796000D02*
Y877163D01*
X7611591Y877754D01*
X7561000Y843493D02*
X7561000Y843493D01*
X7811000Y796000D02*
Y904000D01*
Y731000D02*
Y796000D01*
X7810000Y905000D02*
X7811000Y904000D01*
X7810000Y905000D02*
Y915000D01*
X10150000Y2510000D02*
X10152500Y2507500D01*
Y2422500D02*
X10155000Y2420000D01*
X10152500Y2422500D02*
Y2507500D01*
X10297574Y2150000D02*
X10370000D01*
X10280000Y2167574D02*
X10297574Y2150000D01*
X10280000Y2167574D02*
Y2200000D01*
X8684000Y2586000D02*
X8770000D01*
X8645000Y2625000D02*
X8684000Y2586000D01*
X8645000Y2625000D02*
Y2655000D01*
X10155000Y1619500D02*
X10177500Y1642000D01*
X10155000Y1610000D02*
Y1619500D01*
X10160000Y2710000D02*
X10170000Y2700000D01*
X10177500Y1642000D02*
X10212000D01*
X10177500Y2388430D02*
X10211570D01*
X10155000Y2410930D02*
Y2420000D01*
Y2410930D02*
X10177500Y2388430D01*
X8495000Y2240000D02*
Y2247500D01*
X8522500Y2275000D02*
X8530000D01*
X8550000Y2295000D02*
Y2405000D01*
X8495000Y2247500D02*
X8522500Y2275000D01*
X8530000D02*
X8550000Y2295000D01*
X9382500Y2610000D02*
X9410000Y2582500D01*
Y2575000D02*
Y2582500D01*
Y2337500D02*
Y2345000D01*
X9375000Y2310000D02*
X9382500D01*
X9410000Y2337500D01*
X9375000Y2610000D02*
X9382500D01*
X9410000Y2575000D02*
X9457573Y2527426D01*
X9502573D01*
X9517500Y2512500D01*
X9410000Y2345000D02*
X9444999Y2380000D01*
X9517500D01*
X9285000Y2033000D02*
X9311999Y2060000D01*
X9470000D01*
X9292000Y1860000D02*
X9470000D01*
Y1660000D02*
Y1860000D01*
X9285000Y1867000D02*
X9292000Y1860000D01*
X10280000Y2200000D02*
X10370000D01*
X10211570Y2388430D02*
X10280000Y2320000D01*
Y2200000D02*
Y2320000D01*
X10170000Y2700000D02*
X10370000D01*
X10319999Y1750000D02*
X10370000D01*
X10212000Y1642000D02*
X10319999Y1750000D01*
X8305000Y560000D02*
X8380000D01*
X4314000Y4816500D02*
Y4907500D01*
X5329000Y4629000D02*
X5341500Y4616500D01*
Y4516299D02*
Y4616500D01*
X5329000Y4629000D02*
Y4670000D01*
X5314000Y4685000D02*
X5329000Y4670000D01*
X6770000Y2590000D02*
X6785000Y2575000D01*
Y2535000D02*
Y2575000D01*
Y2535000D02*
X6870000Y2450000D01*
X7070643Y2459357D02*
X7080000Y2450000D01*
X7005074Y2459357D02*
X7070643D01*
X6952500Y2511930D02*
X7005074Y2459357D01*
X6931997Y2532500D02*
X6952500Y2511998D01*
Y2511930D02*
Y2511998D01*
X6880000Y2582500D02*
Y2590000D01*
X6895000Y2567500D02*
X6896930D01*
X6931930Y2532500D01*
X6931997D01*
X6880000Y2582500D02*
X6895000Y2567500D01*
X7661000Y776000D02*
X7686000Y646000D01*
Y626000D02*
Y646000D01*
X7661000Y776000D02*
Y796000D01*
X7620000Y705000D02*
X7636000Y646000D01*
X7710019Y798574D02*
X7710020Y895404D01*
X7661979Y897426D02*
X7661980Y798892D01*
X7660846Y796154D02*
X7661000Y796317D01*
X8305000Y1650000D02*
Y1665000D01*
X5466000Y3195000D02*
X5470000Y3191000D01*
X5466000Y3195000D02*
Y3205000D01*
Y3137574D02*
Y3195000D01*
X7220000Y5624000D02*
X7321901D01*
X7345100Y5600800D01*
Y5570800D02*
Y5600800D01*
X7520101Y5761303D02*
Y5805800D01*
X7535100Y5820800D01*
X7455100Y5885100D02*
X7502574Y5932574D01*
Y5997573D02*
X7515000Y6010000D01*
X7502574Y5932574D02*
Y5997573D01*
X7440100Y5820800D02*
X7455100Y5835800D01*
Y5885100D01*
X6461759Y4338662D02*
X6462759D01*
X5460000Y3025000D02*
X5461568Y3026568D01*
Y3071568D01*
X5441500Y3219500D02*
Y3368699D01*
X5478197Y3088197D02*
Y3099303D01*
X5461568Y3071568D02*
X5478197Y3088197D01*
X5470000Y3117500D02*
Y3133574D01*
X5466000Y3137574D02*
X5470000Y3133574D01*
Y3117500D02*
X5487500Y3100000D01*
X4793858Y3634142D02*
X4809000Y3619000D01*
X4748642Y3634142D02*
X4793858D01*
X4709500Y3595000D02*
X4748642Y3634142D01*
X5845500Y6283000D02*
X5917000D01*
X5842500Y6280000D02*
X5845500Y6283000D01*
X5917000D02*
X5920000Y6286000D01*
X7710020Y895404D02*
X7726880Y914309D01*
X7711000Y776000D02*
X7728737Y730553D01*
X7711000Y776000D02*
Y796000D01*
X5101399Y5374200D02*
X5105226Y5370374D01*
X5101399Y5374200D02*
Y5444600D01*
X5096000Y5450000D02*
X5101399Y5444600D01*
X5096000Y5450000D02*
Y5567426D01*
X5090000Y5573426D02*
X5096000Y5567426D01*
X5090000Y5573426D02*
Y5620000D01*
X5065000Y5645000D02*
X5090000Y5620000D01*
X6770000Y2700000D02*
X6880000D01*
X5047500Y6437500D02*
X5053826Y6443827D01*
X5050000Y6550001D02*
X5053826Y6546174D01*
X7050000Y555000D02*
X7050000Y555000D01*
X7140000D01*
X6850000Y555000D02*
X7050000D01*
X7786000Y706000D02*
X7811000Y731000D01*
X7786000Y626000D02*
Y706000D01*
X7636000Y626000D02*
Y646000D01*
X7625079Y937074D02*
X7654125Y908029D01*
X7661979Y897426D01*
X6156000Y5761600D02*
X6267400D01*
X7585000Y1065000D02*
X7589562Y1020000D01*
X6306213Y6196213D02*
X6391213D01*
X6392426Y6197426D01*
X6305000Y6195000D02*
X6306213Y6196213D01*
X6902500Y2267500D02*
X6952500Y2217500D01*
X7283068D01*
X6902500Y2267500D02*
Y2267500D01*
X6862514Y2307486D02*
X6902500Y2267500D01*
X6847514Y2307486D02*
X6862514D01*
X7294858Y2300000D02*
X7370000Y2375142D01*
X7080000Y2300000D02*
X7294858D01*
X7437574Y2487501D02*
X7480333D01*
X7420000Y2469927D02*
X7437574Y2487501D01*
X7283068Y2217500D02*
X7420000Y2354432D01*
Y2469927D01*
X7370000Y2375142D02*
Y2490638D01*
X6347000Y5762000D02*
X6350000Y5765000D01*
X6270000Y5759000D02*
X6273000Y5762000D01*
X6347000D01*
X5933000Y6278000D02*
X6052000D01*
X6055000Y6275000D01*
X6267400Y5761600D02*
X6270000Y5759000D01*
X6112092Y3205000D02*
Y3206000D01*
X6440596Y4317499D02*
X6461759Y4338662D01*
X6290300Y4317499D02*
X6440596D01*
X6091500Y3226593D02*
Y3368699D01*
Y3226593D02*
X6112092Y3206000D01*
X4920000Y3710000D02*
X4927499Y3717499D01*
X5142700D01*
X8870000Y3531426D02*
X8871000Y3532426D01*
X8750000Y3435000D02*
X8794000Y3479000D01*
Y3555000D01*
X8720000Y3435000D02*
X8750000D01*
X8871000Y3532426D02*
Y3550000D01*
X8886000Y3565000D01*
X7416863Y2537501D02*
X7480333D01*
X7370000Y2490638D02*
X7416863Y2537501D01*
X8300000Y915000D02*
X8371743Y986744D01*
Y1110000D01*
X8300000Y705000D02*
Y915000D01*
X7736000Y554412D02*
Y626000D01*
Y554412D02*
X7740000Y550412D01*
Y545000D02*
Y550412D01*
X7536000Y721503D02*
X7561000Y746503D01*
Y748887D02*
X7561000Y748887D01*
X7536000Y626000D02*
Y721503D01*
X7561000Y746503D02*
Y748887D01*
D11*
X5633901Y2272200D02*
D03*
D12*
X4611725Y2020000D02*
D03*
Y1830000D02*
D03*
X4849326Y1925000D02*
D03*
X5188800Y1830000D02*
D03*
Y2020000D02*
D03*
X4951200Y1925000D02*
D03*
D13*
X5170000Y3085000D02*
D03*
Y2975000D02*
D03*
X8000000Y1425000D02*
D03*
Y1535000D02*
D03*
X5500000Y4895000D02*
D03*
Y4785000D02*
D03*
X5630000D02*
D03*
Y4895000D02*
D03*
X5760000Y4785000D02*
D03*
Y4895000D02*
D03*
X5890000D02*
D03*
Y4785000D02*
D03*
X10100000Y1145000D02*
D03*
Y1255000D02*
D03*
X6770000Y2700000D02*
D03*
Y2590000D02*
D03*
X7210000Y880000D02*
D03*
Y990000D02*
D03*
X6520000Y4785000D02*
D03*
Y4895000D02*
D03*
X8220000Y2330000D02*
D03*
Y2220000D02*
D03*
X10000000Y1255000D02*
D03*
Y1145000D02*
D03*
X4299857Y1915144D02*
D03*
Y2025144D02*
D03*
X7950000Y2890000D02*
D03*
Y2780000D02*
D03*
X4760000Y2790000D02*
D03*
Y2900000D02*
D03*
X4765000Y2305000D02*
D03*
Y2415000D02*
D03*
X8090000Y1535000D02*
D03*
Y1425000D02*
D03*
X6370000Y4895000D02*
D03*
Y4785000D02*
D03*
X6230000Y4895000D02*
D03*
Y4785000D02*
D03*
X6080000Y4895000D02*
D03*
Y4785000D02*
D03*
X8030000Y2890000D02*
D03*
Y2780000D02*
D03*
X7870000Y2890000D02*
D03*
Y2780000D02*
D03*
X8160000Y1110000D02*
D03*
Y1220000D02*
D03*
X8260000Y1110000D02*
D03*
Y1220000D02*
D03*
X4190000Y3755000D02*
D03*
Y3645000D02*
D03*
X4290000Y3755000D02*
D03*
Y3645000D02*
D03*
X4391911Y2025000D02*
D03*
Y1915000D02*
D03*
X6730000Y1115000D02*
D03*
Y1225000D02*
D03*
X7300000Y1130000D02*
D03*
Y1240000D02*
D03*
X7220000D02*
D03*
Y1130000D02*
D03*
X4760000Y3010000D02*
D03*
Y3120000D02*
D03*
X4765000Y2530000D02*
D03*
Y2640000D02*
D03*
X7140000Y1130000D02*
D03*
Y1240000D02*
D03*
X6880000Y2590000D02*
D03*
Y2700000D02*
D03*
X6810000Y960000D02*
D03*
Y850000D02*
D03*
X6910000Y960000D02*
D03*
Y850000D02*
D03*
X5060000Y3085000D02*
D03*
Y2975000D02*
D03*
X8500000Y1220000D02*
D03*
Y1110000D02*
D03*
X8371743Y1220000D02*
D03*
Y1110000D02*
D03*
X8120000Y2330000D02*
D03*
Y2220000D02*
D03*
D14*
X4740000Y4147500D02*
D03*
Y4052500D02*
D03*
Y4242500D02*
D03*
Y4337500D02*
D03*
X7310000Y882500D02*
D03*
Y977500D02*
D03*
D15*
X7984727Y2471665D02*
D03*
Y2563664D02*
D03*
X4780000Y4666500D02*
D03*
Y4758500D02*
D03*
X8770000Y2494000D02*
D03*
Y2586000D02*
D03*
X9260000Y3427000D02*
D03*
Y3335000D02*
D03*
X9910000Y1246000D02*
D03*
Y1154000D02*
D03*
X5010000Y4349000D02*
D03*
Y4441000D02*
D03*
X7220000Y5624000D02*
D03*
Y5716000D02*
D03*
X6190000Y2309000D02*
D03*
Y2401000D02*
D03*
X6462759Y4246662D02*
D03*
Y4338662D02*
D03*
X7940000Y2239000D02*
D03*
Y2331000D02*
D03*
X4390000Y3737000D02*
D03*
Y3645000D02*
D03*
X6270000Y5851000D02*
D03*
Y5759000D02*
D03*
X10200000Y3489000D02*
D03*
Y3581000D02*
D03*
Y3299000D02*
D03*
Y3391000D02*
D03*
Y3679000D02*
D03*
Y3771000D02*
D03*
X5920000Y6194000D02*
D03*
Y6286000D02*
D03*
X4810000Y3711000D02*
D03*
Y3619000D02*
D03*
D16*
X5005000Y4701200D02*
D03*
X5195000D02*
D03*
X5100000Y4938800D02*
D03*
D17*
X5130000Y4620000D02*
D03*
X5020000D02*
D03*
X5755000Y1995000D02*
D03*
X5645000D02*
D03*
X9075000Y2610000D02*
D03*
X9185000D02*
D03*
X4215000Y3090000D02*
D03*
X4105000D02*
D03*
X4225000Y2610000D02*
D03*
X4115000D02*
D03*
X4215000Y3000000D02*
D03*
X4105000D02*
D03*
X4225000Y2520000D02*
D03*
X4115000D02*
D03*
X7315000Y2565000D02*
D03*
X7205000D02*
D03*
X7315000Y2665000D02*
D03*
X7205000D02*
D03*
X5130000Y4530000D02*
D03*
X5020000D02*
D03*
D18*
X10700000Y4200000D02*
D03*
X350000Y750000D02*
D03*
D19*
X8012500Y1035000D02*
D03*
X7887500D02*
D03*
D20*
X7977500Y1310000D02*
D03*
X7882500D02*
D03*
D21*
X7890000Y1547500D02*
D03*
Y1412500D02*
D03*
X4920000Y3710000D02*
D03*
Y3575000D02*
D03*
X5840000Y2412500D02*
D03*
Y2277500D02*
D03*
X5960000Y2412500D02*
D03*
Y2277500D02*
D03*
X5429618Y2396139D02*
D03*
Y2261139D02*
D03*
X8087500Y2460000D02*
D03*
Y2595000D02*
D03*
X6080000Y2412500D02*
D03*
Y2277500D02*
D03*
D22*
X4245000Y4777500D02*
D03*
Y4682500D02*
D03*
Y4587500D02*
D03*
X4495000D02*
D03*
Y4682500D02*
D03*
Y4777500D02*
D03*
X8720000Y3435000D02*
D03*
Y3340000D02*
D03*
Y3245000D02*
D03*
X8970000D02*
D03*
Y3340000D02*
D03*
Y3435000D02*
D03*
D23*
X4660000Y4627500D02*
D03*
Y4777500D02*
D03*
X9780000Y2450000D02*
D03*
Y2600000D02*
D03*
Y2300000D02*
D03*
X9375000Y2460000D02*
D03*
Y2610000D02*
D03*
Y2310000D02*
D03*
X9130000Y3430000D02*
D03*
Y3280000D02*
D03*
D24*
X4090000Y4642500D02*
D03*
Y4782500D02*
D03*
X8540000Y3430000D02*
D03*
Y3290000D02*
D03*
X7830000Y2335000D02*
D03*
Y2195000D02*
D03*
X4699999Y3735000D02*
D03*
Y3595000D02*
D03*
D25*
X5314000Y4685000D02*
D03*
X5406000D02*
D03*
X8635999Y2120000D02*
D03*
X8544000D02*
D03*
X4314000Y4907500D02*
D03*
X4406000D02*
D03*
X7374000Y6160000D02*
D03*
X7466000D02*
D03*
X5374000Y3205000D02*
D03*
X5466000D02*
D03*
X8886000Y3565000D02*
D03*
X8794000D02*
D03*
X5004000Y5450000D02*
D03*
X5096000D02*
D03*
X6022933Y3202160D02*
D03*
X6114933D02*
D03*
X4196000Y2910000D02*
D03*
X4104000D02*
D03*
X4206000Y2420000D02*
D03*
X4114000D02*
D03*
D26*
X7462500Y2050000D02*
D03*
X7157500D02*
D03*
X7462500Y1850000D02*
D03*
X7157500D02*
D03*
X6467500Y1865000D02*
D03*
X6772500D02*
D03*
D27*
X9662500Y2510000D02*
D03*
X9517500D02*
D03*
Y2380000D02*
D03*
X9662500D02*
D03*
D28*
X5683900Y2147200D02*
D03*
X5733901D02*
D03*
X5633901Y2397200D02*
D03*
X5533901Y2147200D02*
D03*
X5583901D02*
D03*
X5633901D02*
D03*
X5733901Y2397200D02*
D03*
X5683900D02*
D03*
X5583901D02*
D03*
X5533901D02*
D03*
D29*
X6855000Y1315000D02*
D03*
Y1475000D02*
D03*
Y1435000D02*
D03*
Y1395000D02*
D03*
Y1355000D02*
D03*
X7075000Y1315000D02*
D03*
Y1355000D02*
D03*
Y1395000D02*
D03*
Y1435000D02*
D03*
Y1475000D02*
D03*
D30*
X6965000Y1395000D02*
D03*
D31*
X8400000Y1425000D02*
D03*
X9095000Y2230000D02*
D03*
X9000000Y2470000D02*
D03*
X9190000D02*
D03*
X8210000Y1425000D02*
D03*
X8305000Y1665000D02*
D03*
D32*
X10360000Y1750000D02*
D03*
Y1800000D02*
D03*
Y1850000D02*
D03*
Y1900000D02*
D03*
Y1950000D02*
D03*
Y2000000D02*
D03*
Y2050000D02*
D03*
Y2100000D02*
D03*
Y2150000D02*
D03*
Y2200000D02*
D03*
Y2250000D02*
D03*
Y2300000D02*
D03*
Y2350000D02*
D03*
Y2400000D02*
D03*
Y2450000D02*
D03*
Y2500000D02*
D03*
Y2550000D02*
D03*
Y2600000D02*
D03*
Y2650000D02*
D03*
Y2700000D02*
D03*
Y2750000D02*
D03*
Y2800000D02*
D03*
Y2850000D02*
D03*
Y2900000D02*
D03*
D33*
X10610000Y1650000D02*
D03*
Y3000000D02*
D03*
D34*
X9095000Y1970000D02*
D03*
X8960000D02*
D03*
D35*
X8645000Y2655000D02*
D03*
X8550000D02*
D03*
X8455000D02*
D03*
Y2405000D02*
D03*
X8550000D02*
D03*
X8645000D02*
D03*
X7345100Y5820800D02*
D03*
X7440100D02*
D03*
X7535100D02*
D03*
Y5570800D02*
D03*
X7440100D02*
D03*
X7345100D02*
D03*
X7585000Y1065000D02*
D03*
X7680000D02*
D03*
X7775000D02*
D03*
Y1315000D02*
D03*
X7680000D02*
D03*
X7585000D02*
D03*
D36*
X9470000Y1660000D02*
D03*
X9820000D02*
D03*
X9470000Y2060000D02*
D03*
X9820000D02*
D03*
Y1860000D02*
D03*
X9470000D02*
D03*
D37*
X8519999Y2840000D02*
D03*
X8660000D02*
D03*
X10015000Y1890000D02*
D03*
X10155000D02*
D03*
X10015000Y2170000D02*
D03*
X10155000D02*
D03*
X10015000Y1730000D02*
D03*
X10155000D02*
D03*
X10015000Y1610000D02*
D03*
X10155000D02*
D03*
X10020000Y2710000D02*
D03*
X10160000D02*
D03*
X10015000Y2420000D02*
D03*
X10155000D02*
D03*
X10015000Y2290000D02*
D03*
X10155000D02*
D03*
X10015000Y2010000D02*
D03*
X10155000D02*
D03*
X7360000Y5380000D02*
D03*
X7500000D02*
D03*
X7150000Y1705000D02*
D03*
X7010000D02*
D03*
X6670000Y1415000D02*
D03*
X6530000D02*
D03*
X5180000Y2165000D02*
D03*
X5040000D02*
D03*
X6770000Y1705000D02*
D03*
X6910000D02*
D03*
X5180000Y2285000D02*
D03*
X5040000D02*
D03*
D38*
X8810000Y2043000D02*
D03*
Y1877000D02*
D03*
X9285000Y2033000D02*
D03*
Y1867000D02*
D03*
D39*
X8495000Y2240000D02*
D03*
X8645000D02*
D03*
X7365000Y6010000D02*
D03*
X7515000D02*
D03*
D40*
X8300000Y560000D02*
D03*
Y710000D02*
D03*
X8500000D02*
D03*
Y560000D02*
D03*
X6870000Y2300000D02*
D03*
Y2450000D02*
D03*
X7080000Y2300000D02*
D03*
Y2450000D02*
D03*
X7050000Y705000D02*
D03*
Y555000D02*
D03*
X6850000Y705000D02*
D03*
Y555000D02*
D03*
D41*
X5341500Y4516299D02*
D03*
X5391500D02*
D03*
X5441500D02*
D03*
X5491500D02*
D03*
X5541500D02*
D03*
X5591500D02*
D03*
X5641500D02*
D03*
X5691500D02*
D03*
X5741500D02*
D03*
X5791500D02*
D03*
X5841500D02*
D03*
X5891500D02*
D03*
X5941500D02*
D03*
X5991500D02*
D03*
X6041500D02*
D03*
X6091500D02*
D03*
Y3368699D02*
D03*
X6041500D02*
D03*
X5991500D02*
D03*
X5941500D02*
D03*
X5891500D02*
D03*
X5841500D02*
D03*
X5791500D02*
D03*
X5741500D02*
D03*
X5691500D02*
D03*
X5641500D02*
D03*
X5591500D02*
D03*
X5541500D02*
D03*
X5491500D02*
D03*
X5441500D02*
D03*
X5391500D02*
D03*
X5341500D02*
D03*
D42*
X6290300Y4317499D02*
D03*
Y4267499D02*
D03*
Y4217499D02*
D03*
Y4167499D02*
D03*
Y4117499D02*
D03*
Y4067499D02*
D03*
Y4017499D02*
D03*
Y3967499D02*
D03*
Y3917499D02*
D03*
Y3867499D02*
D03*
Y3817499D02*
D03*
Y3767499D02*
D03*
Y3717499D02*
D03*
Y3667499D02*
D03*
Y3617499D02*
D03*
Y3567499D02*
D03*
X5142700D02*
D03*
Y3617499D02*
D03*
Y3667499D02*
D03*
Y3717499D02*
D03*
Y3767499D02*
D03*
Y3817499D02*
D03*
Y3867499D02*
D03*
Y3917499D02*
D03*
Y3967499D02*
D03*
Y4017499D02*
D03*
Y4067499D02*
D03*
Y4117499D02*
D03*
Y4167499D02*
D03*
Y4217499D02*
D03*
Y4267499D02*
D03*
Y4317499D02*
D03*
D43*
X8343700Y4910000D02*
D03*
X7976300D02*
D03*
Y4760000D02*
D03*
X8343700D02*
D03*
X8328700Y5915000D02*
D03*
X7961300D02*
D03*
Y5765000D02*
D03*
X8328700D02*
D03*
D44*
X8285000Y4910000D02*
D03*
X8235000D02*
D03*
X8185000D02*
D03*
X8135000D02*
D03*
X8085000D02*
D03*
X8035000D02*
D03*
Y4760000D02*
D03*
X8085000D02*
D03*
X8135000D02*
D03*
X8185000D02*
D03*
X8235000D02*
D03*
X8285000D02*
D03*
X8270000Y5915000D02*
D03*
X8220000D02*
D03*
X8170000D02*
D03*
X8120000D02*
D03*
X8070000D02*
D03*
X8020000D02*
D03*
Y5765000D02*
D03*
X8070000D02*
D03*
X8120000D02*
D03*
X8170000D02*
D03*
X8220000D02*
D03*
X8270000D02*
D03*
D45*
X7711000Y796000D02*
D03*
X7761000D02*
D03*
X7811000D02*
D03*
X7861000D02*
D03*
X7911000D02*
D03*
X7961000D02*
D03*
X7936000Y626000D02*
D03*
X7385999D02*
D03*
X7436000D02*
D03*
X7486000D02*
D03*
X7536000D02*
D03*
X7586000D02*
D03*
X7636000D02*
D03*
X7686000D02*
D03*
X7736000D02*
D03*
X7786000D02*
D03*
X7836000D02*
D03*
X7886000D02*
D03*
X7411000Y796000D02*
D03*
X7461000D02*
D03*
X7511000D02*
D03*
X7561000D02*
D03*
X7611000D02*
D03*
X7661000D02*
D03*
D46*
X6055000Y6275000D02*
D03*
Y6195000D02*
D03*
Y6115000D02*
D03*
X6305000D02*
D03*
Y6195000D02*
D03*
Y6275000D02*
D03*
D47*
X6180000Y6195000D02*
D03*
D48*
X5983700Y5844100D02*
D03*
Y5764100D02*
D03*
X6143700D02*
D03*
Y5844100D02*
D03*
D49*
X6063700Y5804100D02*
D03*
D50*
X10550000Y3747000D02*
D03*
Y3410000D02*
D03*
D51*
X10377000Y3578500D02*
D03*
D52*
X4620000Y2900000D02*
D03*
Y2995000D02*
D03*
Y3090000D02*
D03*
X4360000D02*
D03*
Y2995000D02*
D03*
Y2900000D02*
D03*
X4622500Y2424999D02*
D03*
Y2519999D02*
D03*
Y2614999D02*
D03*
X4362500D02*
D03*
Y2519999D02*
D03*
Y2424999D02*
D03*
D53*
X9988800Y3452500D02*
D03*
Y3517500D02*
D03*
Y3582500D02*
D03*
Y3647500D02*
D03*
X9401200D02*
D03*
Y3582500D02*
D03*
Y3517500D02*
D03*
Y3452500D02*
D03*
D54*
X7635332Y2562501D02*
D03*
D55*
X7480333Y2487501D02*
D03*
Y2537501D02*
D03*
Y2587501D02*
D03*
Y2637501D02*
D03*
X7790332D02*
D03*
Y2587501D02*
D03*
Y2537501D02*
D03*
Y2487501D02*
D03*
D56*
X7510332Y2687501D02*
D03*
X7760332D02*
D03*
Y2437501D02*
D03*
X7510332D02*
D03*
D57*
X7560332Y2717501D02*
D03*
X7610333D02*
D03*
X7660332D02*
D03*
X7710333D02*
D03*
Y2407501D02*
D03*
X7660332D02*
D03*
X7610333D02*
D03*
X7560332D02*
D03*
D58*
X4590000Y4075000D02*
D03*
Y4325000D02*
D03*
D59*
X7980000Y6070000D02*
D03*
X8070000D02*
D03*
X8150000D02*
D03*
X8230000D02*
D03*
X8310000D02*
D03*
X8270000Y6155000D02*
D03*
X8190000D02*
D03*
X8110000D02*
D03*
X8020000D02*
D03*
X8330000Y4620000D02*
D03*
X8240000D02*
D03*
X8160000D02*
D03*
X8080000D02*
D03*
X8000000D02*
D03*
X8040000Y4535000D02*
D03*
X8120000D02*
D03*
X8200000D02*
D03*
X8290000D02*
D03*
D60*
X6280000Y2322500D02*
D03*
Y2387500D02*
D03*
D61*
X4165000Y2810000D02*
D03*
X4100000D02*
D03*
X4172500Y2320000D02*
D03*
X4107500D02*
D03*
D62*
X4790000Y6295000D02*
D03*
Y6170000D02*
D03*
Y6045000D02*
D03*
Y5920000D02*
D03*
Y5795000D02*
D03*
X5590000D02*
D03*
Y5920000D02*
D03*
Y6045000D02*
D03*
Y6170000D02*
D03*
Y6295000D02*
D03*
D63*
X4940000Y5645000D02*
D03*
X5065000D02*
D03*
X5190000D02*
D03*
X5315000D02*
D03*
X5440000D02*
D03*
Y6445000D02*
D03*
X5315000D02*
D03*
X5190000D02*
D03*
X5065000D02*
D03*
X4940000D02*
D03*
D64*
X5190000Y6045000D02*
D03*
D65*
X5487500Y3100000D02*
D03*
X5352500D02*
D03*
X7147500Y1585000D02*
D03*
X7012500D02*
D03*
X5167500Y2405000D02*
D03*
X5032500D02*
D03*
X6780000Y1585000D02*
D03*
X6915000D02*
D03*
D66*
X6610000Y515000D02*
D03*
X5940000D02*
D03*
D67*
X6375000Y1070000D02*
D03*
X6175000D02*
D03*
D68*
X5746000Y2705000D02*
D03*
X5509000D02*
D03*
D69*
X350000Y5950000D02*
D03*
D70*
X8030000Y2890000D02*
X8100000D01*
X8150000Y6067605D02*
Y6197390D01*
X6942349Y1342349D02*
X6967463D01*
X5384719Y2085000D02*
X5520663D01*
X5382219Y2082500D02*
X5384719Y2085000D01*
X5520663D02*
X5528901D01*
X5569127D01*
X5001050Y2020000D02*
X5188800Y1832250D01*
Y1830000D02*
Y1832250D01*
X4611725Y2020000D02*
X5001050D01*
X4391911Y2025000D02*
X4606725D01*
X4611725Y2020000D01*
X4299857Y2025144D02*
X4391767D01*
X4391911Y2025000D01*
X6915000Y1315000D02*
X6942349Y1342349D01*
X6855000Y1315000D02*
X6915000D01*
X5142700Y3817499D02*
X5260012D01*
X5321402Y3756109D01*
X5496109D01*
X5284080Y3850000D02*
X5500000D01*
X5266580Y3867499D02*
X5284080Y3850000D01*
X5790000Y5450000D02*
Y5764100D01*
X5625000Y5285000D02*
X5790000Y5450000D01*
X5485000Y5285000D02*
X5625000D01*
X5341500Y3309949D02*
Y3368699D01*
X5334949Y3304949D02*
X5336500D01*
X5160000Y3270000D02*
X5300000D01*
X5336500Y3304949D02*
X5341500Y3309949D01*
X5300000Y3270000D02*
X5334949Y3304949D01*
X5060784Y3170784D02*
X5160000Y3270000D01*
X4617500Y3822500D02*
X4977499D01*
X4440000Y3645000D02*
X4617500Y3822500D01*
X5253284Y4550166D02*
X5280000Y4576882D01*
Y4585000D01*
X5253284Y4550000D02*
Y4550166D01*
X6137788Y3732770D02*
X6153058Y3717499D01*
X6290300D01*
X6129670Y3732770D02*
X6137788D01*
X5796500Y3488718D02*
Y3566500D01*
X5800000Y3570000D01*
X8000000Y1535000D02*
Y1610000D01*
Y1425000D02*
X8090000D01*
X8090000Y1425000D01*
X8210000D01*
X5170000Y2975000D02*
X5175000Y2970000D01*
Y2755000D02*
Y2970000D01*
X5130000Y2710000D02*
X5175000Y2755000D01*
X5060000Y2890000D02*
Y2975000D01*
X4990000Y2820000D02*
X5060000Y2890000D01*
X5170000Y3085000D02*
Y3180000D01*
X5538783Y3249949D02*
X5539949D01*
X5533043Y3255689D02*
X5538783Y3249949D01*
X5523333Y3255689D02*
X5533043D01*
X5496500Y3282523D02*
X5523333Y3255689D01*
X5496500Y3282523D02*
Y3363699D01*
X5491500Y3368699D02*
X5496500Y3363699D01*
X5150000Y4550000D02*
X5253284D01*
X5130000Y4530000D02*
X5150000Y4550000D01*
X5020000Y4530000D02*
Y4620000D01*
X5005000Y4701200D02*
X5020000Y4686200D01*
Y4620000D02*
Y4686200D01*
X5060784Y3085784D02*
Y3170784D01*
X5060000Y3085000D02*
X5060784Y3085784D01*
X5030070Y3330070D02*
Y3390078D01*
X4970000Y3270000D02*
X5030070Y3330070D01*
X4970000Y3376716D02*
X4990000Y3396716D01*
X4970000Y3370000D02*
Y3376716D01*
X5030000Y3390147D02*
X5030070Y3390078D01*
X5030000Y3390147D02*
Y3585976D01*
X6510000Y4782500D02*
Y4790000D01*
X8230000Y2140000D02*
Y2210000D01*
X8220000Y2220000D02*
X8230000Y2210000D01*
X6810000Y960000D02*
X6818118Y968118D01*
Y1030000D01*
X7075000Y1435000D02*
X7215000D01*
X7220000Y1430000D01*
X7075000Y1355000D02*
X7159926D01*
X7075000Y1395000D02*
X7176495D01*
X7280000Y1291495D01*
X7219142Y1250858D02*
X7230000Y1240000D01*
X7159926Y1355000D02*
X7219142Y1295784D01*
X7298687Y1248813D02*
X7302527D01*
X5607500Y4922500D02*
X5610000D01*
X5567500Y4962500D02*
X5607500Y4922500D01*
X5125950Y4962500D02*
X5567500D01*
X5630000Y4895000D02*
Y4902500D01*
X5610000Y4922500D02*
X5630000Y4902500D01*
X5100000Y4938800D02*
X5102250D01*
X5125950Y4962500D01*
X5760000Y4895000D02*
Y4902500D01*
X5630000Y4895000D02*
X5760000D01*
X5630000Y4710000D02*
Y4785000D01*
X5730000Y4710000D02*
Y4718118D01*
X5740000Y4728118D01*
Y4765000D01*
X5760000Y4785000D01*
X5910000Y4812487D02*
X5979726D01*
X5890000Y4792487D02*
X5910000Y4812487D01*
X5490750Y4517049D02*
Y4629250D01*
X5490000Y4630000D02*
X5490750Y4629250D01*
Y4517049D02*
X5491500Y4516299D01*
X5546499Y4521299D02*
Y4653501D01*
X5500000Y4700001D02*
X5546499Y4653501D01*
X5500000Y4700001D02*
Y4785000D01*
X4190000Y4073000D02*
X4190000Y4073000D01*
Y3755000D02*
Y4073000D01*
X5541500Y4516299D02*
X5546499Y4521299D01*
X4157500Y4530000D02*
X4215000Y4587500D01*
X4150000Y4530000D02*
X4157500D01*
X4215000Y4587500D02*
X4245000D01*
X9830000Y1245000D02*
X9909001D01*
X9910000Y1246000D01*
X9991000D02*
X10000000Y1255000D01*
X9910000Y1246000D02*
X9991000D01*
X10000000Y1145000D02*
X10100000D01*
X10080000Y1117500D02*
X10100000Y1137500D01*
Y1145000D01*
X10080000Y675000D02*
Y1117500D01*
X6097641Y4775000D02*
Y4795141D01*
X6232500Y4775000D02*
X6295000D01*
X6097641Y4775000D02*
X6100000Y4772641D01*
X6230000Y4777500D02*
X6232500Y4775000D01*
X6100000Y4772641D02*
X6147359D01*
X5890000Y4777500D02*
Y4792487D01*
X5746500Y4634000D02*
X5890000Y4777500D01*
X5746500Y4521299D02*
Y4634000D01*
X6014956Y4677500D02*
X6317053D01*
X5896500Y4616500D02*
X5997500Y4717500D01*
X5946500Y4521299D02*
Y4609044D01*
X5896500Y4521299D02*
Y4616500D01*
X5946500Y4609044D02*
X6014956Y4677500D01*
X5841500Y4516299D02*
Y4618068D01*
X5980932Y4757500D01*
X5997500Y4717500D02*
X6170000D01*
X5980932Y4757500D02*
X6060000D01*
X8125000Y5015000D02*
X8135000Y5005000D01*
X8125000Y5095000D02*
X8207219Y5177219D01*
X8085000Y5185000D02*
X8090000Y5190000D01*
X8185000Y4910000D02*
Y5045000D01*
X8125000Y5015000D02*
Y5095000D01*
X8135000Y4910000D02*
Y5005000D01*
X8085000Y4910000D02*
X8085000Y4910000D01*
Y5185000D01*
X8180000Y5050000D02*
X8185000Y5045000D01*
X8237500Y4987680D02*
X8242637Y4992816D01*
X8235000Y4910000D02*
X8237500Y4912500D01*
Y4987680D01*
X7730000Y5190000D02*
X8090000D01*
X7520000Y4980000D02*
X7730000Y5190000D01*
X7720000Y5260000D02*
X8207219D01*
X8054694Y5686622D02*
Y5694694D01*
X8170000Y5764551D02*
X8170448Y5765000D01*
X8098214Y5595700D02*
Y5681646D01*
X8096257Y5593743D02*
X8098214Y5595700D01*
Y5681646D02*
X8120000Y5703432D01*
X8043214Y5675141D02*
X8054694Y5686622D01*
X8157161Y5662395D02*
Y5670513D01*
X8212825Y5597175D02*
X8217500Y5601849D01*
Y5762500D01*
X8120000Y5703432D02*
Y5765000D01*
X8054694Y5694694D02*
X8070000Y5710000D01*
X8157161Y5670513D02*
X8170000Y5683351D01*
X8217500Y5762500D02*
X8220000Y5765000D01*
X8043214Y5667023D02*
Y5675141D01*
X6585001Y3934999D02*
X6588068Y3931932D01*
X6497218Y3934999D02*
X6585001D01*
X8070000Y5710000D02*
Y5765000D01*
X8340000Y5590000D02*
X8342500Y5592500D01*
Y5676178D01*
X8170000Y5683351D02*
Y5764551D01*
X8328700Y5689979D02*
X8342500Y5676178D01*
X6747500Y4712500D02*
X7065000Y5030000D01*
X7490000D01*
X6820000Y4660000D02*
X7140000Y4980000D01*
X8354260Y4984260D02*
X8360000Y4990000D01*
X8343700Y4910000D02*
X8354260Y4920560D01*
Y4984260D01*
X8285000Y4910000D02*
Y4922500D01*
X8300000Y4972398D02*
Y5050000D01*
X8287500Y4959898D02*
X8300000Y4972398D01*
X8287500Y4925000D02*
Y4959898D01*
X8285000Y4922500D02*
X8287500Y4925000D01*
X5496109Y3756109D02*
X5500000Y3760000D01*
X6910000Y960000D02*
X6990000D01*
X6910000Y960000D02*
X6910000Y960000D01*
X4780000Y2985000D02*
X4850000D01*
X4990000Y3396716D02*
Y3620000D01*
X5070000Y3553550D02*
X5083949Y3567499D01*
X5090000Y3380000D02*
Y3386716D01*
X5070000Y3406716D02*
Y3553550D01*
X5030000Y3585976D02*
X5056523Y3612499D01*
X5083949Y3567499D02*
X5142700D01*
X5070000Y3406716D02*
X5090000Y3386716D01*
X5296376Y4090000D02*
X5450000D01*
X5905000Y3025000D02*
X5960000Y2970000D01*
X5905000Y3025000D02*
Y3244221D01*
X8207219Y5177219D02*
Y5260000D01*
X7490000Y5030000D02*
X7720000Y5260000D01*
X7200000Y2660000D02*
X7205000Y2665000D01*
X7130000Y2660000D02*
X7200000D01*
Y2560000D02*
X7205000Y2565000D01*
X7130000Y2560000D02*
X7200000D01*
X4990000Y3620000D02*
X5037499Y3667499D01*
X5142700D01*
X4770000Y2420000D02*
X4840000D01*
X4765000Y2415000D02*
X4770000Y2420000D01*
X8030000Y2340000D02*
X8035000Y2345000D01*
X8105000D02*
X8120000Y2330000D01*
X8035000Y2345000D02*
X8105000D01*
X7940000Y2331000D02*
X7949000Y2340000D01*
X8030000D01*
X7910000Y2585299D02*
Y2667781D01*
X7930000Y2687781D02*
Y2760000D01*
X7910000Y2667781D02*
X7930000Y2687781D01*
X7861389Y2536688D02*
X7910000Y2585299D01*
X7847758Y2592501D02*
X7870000Y2614742D01*
Y2780000D01*
X5281759Y3905740D02*
X5340000D01*
X5275000Y3912499D02*
X5281759Y3905740D01*
X5218166Y3912499D02*
X5275000D01*
X5142700Y3867499D02*
X5266580D01*
X5251657Y3967499D02*
X5308898Y4024741D01*
X5142700Y3967499D02*
X5251657D01*
X5250491Y4044114D02*
X5296376Y4090000D01*
X5250491Y4044114D02*
Y4044114D01*
X5228876Y4022499D02*
X5250491Y4044114D01*
X5673895Y3575000D02*
X5675000Y3573895D01*
X5625740Y3487692D02*
Y3504260D01*
X5675000Y3495000D02*
Y3573895D01*
X5620000Y3510000D02*
X5625740Y3504260D01*
X5675000Y3495000D02*
X5691500Y3478500D01*
X9399950Y3518750D02*
X9401200Y3517500D01*
X9061250Y3518750D02*
X9399950D01*
X9060000Y3520000D02*
X9061250Y3518750D01*
X9181250Y3581250D02*
X9399949D01*
X9180000Y3580000D02*
X9181250Y3581250D01*
X6416550Y3990000D02*
X6520000D01*
X7140000Y4980000D02*
X7520000D01*
X5480000Y5290000D02*
X5485000Y5285000D01*
X5420000Y5220000D02*
X5420000Y5220000D01*
X5420000Y5220000D02*
Y5360000D01*
X5330000Y5290000D02*
Y5600000D01*
X5300000Y5630000D02*
X5330000Y5600000D01*
X5585000Y5360000D02*
X5730000Y5505000D01*
X5420000Y5360000D02*
X5585000D01*
X5420000D02*
Y5695000D01*
X5990000Y6020000D02*
X6400000D01*
X5790000Y5764100D02*
Y5820000D01*
X5990000Y6020000D01*
X5730000Y5845000D02*
X5999216Y6114216D01*
X6054216D01*
X6055000Y6115000D01*
X5730000Y5505000D02*
Y5845000D01*
X5790000Y5764100D02*
X5983700D01*
X6450000Y6070000D02*
Y6235000D01*
X6400000Y6020000D02*
X6450000Y6070000D01*
X8993750Y3643750D02*
X9397450D01*
X9401200Y3647500D01*
X8990000Y3640000D02*
X8993750Y3643750D01*
X5641500Y4626454D02*
X5725045Y4710000D01*
X5730000D01*
X5590750Y4670750D02*
X5630000Y4710000D01*
X5590750Y4517049D02*
Y4670750D01*
X6520000Y4785000D02*
X6590000D01*
X5590750Y4517049D02*
X5591500Y4516299D01*
X6390000Y4812500D02*
X6407500D01*
X6370000Y4790000D02*
Y4792500D01*
X6407500Y4812500D02*
X6439260Y4844260D01*
X6370000Y4792500D02*
X6390000Y4812500D01*
X5996500Y4602475D02*
X6031524Y4637500D01*
X6365000D02*
X6510000Y4782500D01*
X6031524Y4637500D02*
X6365000D01*
X6510000Y4790000D02*
X6515000Y4785000D01*
X5996500Y4521299D02*
Y4602475D01*
X5991500Y4516299D02*
X5996500Y4521299D01*
X6590000Y4590000D02*
X6780000Y4400000D01*
X6106450Y4590000D02*
X6590000D01*
X6091500Y4575050D02*
X6106450Y4590000D01*
X6317053Y4677500D02*
X6351771Y4712218D01*
X5633901Y2006099D02*
X5645000Y1995000D01*
X5633901Y2006099D02*
Y2147200D01*
X8120000Y2220000D02*
X8220000D01*
X6780000Y3820000D02*
X6900000Y3700000D01*
X6780000Y3820000D02*
Y4400000D01*
X6900000Y3700000D02*
X7385000D01*
X7523000Y3562000D01*
X8270000Y5679015D02*
X8280897Y5668118D01*
X8328700Y5689979D02*
Y5765000D01*
X8280897Y5660000D02*
Y5668118D01*
X8270000Y5679015D02*
Y5765000D01*
X6170000Y4717500D02*
X6230000Y4777500D01*
X6351771Y4775614D02*
X6353078Y4776921D01*
X6351771Y4712218D02*
Y4775614D01*
X8155000Y4413543D02*
X8160000Y4418543D01*
Y4620000D01*
X8132391Y6254273D02*
Y6262391D01*
X8150000Y6197390D02*
Y6236664D01*
X8132391Y6254273D02*
X8150000Y6236664D01*
Y6197390D02*
X8150000Y6197390D01*
X4206000Y2420000D02*
Y2501000D01*
Y2419000D02*
Y2420000D01*
Y2419000D02*
X4250000Y2375000D01*
Y2320000D02*
X4250000Y2320000D01*
X4250000Y2320000D02*
Y2375000D01*
X4196000Y2909000D02*
Y2909183D01*
Y2909000D02*
X4225000Y2880000D01*
Y2811391D02*
X4225000Y2811391D01*
X4225000Y2811391D02*
Y2880000D01*
X4196000Y2910000D02*
Y2981000D01*
X6825000Y1315000D02*
X6855000D01*
X6810141Y1300140D02*
X6825000Y1315000D01*
X6810141Y1270141D02*
Y1300140D01*
X6805000Y1265000D02*
X6810141Y1270141D01*
X5688900Y2094774D02*
X5698674Y2085000D01*
X5730000D01*
X5733901Y2088901D01*
X5683900Y2147200D02*
X5688900Y2142200D01*
Y2094774D02*
Y2142200D01*
X5733901Y2088901D02*
Y2147200D01*
X5730000Y2085000D02*
X5840000D01*
X4196000Y2981000D02*
X4215000Y3000000D01*
X4206000Y2501000D02*
X4225000Y2520000D01*
X8678787Y3233787D02*
X8758787D01*
X8565000Y3120000D02*
X8670000Y3225000D01*
X6743118Y3120000D02*
X8565000D01*
X8670000Y3225000D02*
Y3225000D01*
X8678787Y3233787D01*
X6718118Y3145000D02*
X6743118Y3120000D01*
X6950000Y3900000D02*
X8130000D01*
X8390000Y2750000D02*
Y2950000D01*
X8435000Y2675000D02*
X8455000Y2655000D01*
X8435000Y2675000D02*
Y2705000D01*
X8390000Y2750000D02*
X8435000Y2705000D01*
X8260000Y3080000D02*
X8390000Y2950000D01*
X6677219Y3080000D02*
X8260000D01*
X6060000Y4757500D02*
X6097641Y4795141D01*
X10446361Y2528934D02*
X10468934D01*
X10422426Y2505000D02*
X10446361Y2528934D01*
X10468934D02*
X10474675Y2534675D01*
X10370000Y2500000D02*
X10375000Y2505000D01*
X10457218Y2470000D02*
X10530000D01*
X10375000Y2505000D02*
X10422426D01*
X10447218Y2240000D02*
X10529927D01*
X10530719Y2239208D01*
X10530000Y2350000D02*
X10533315Y2353315D01*
X10437218Y2450000D02*
X10457218Y2470000D01*
X10370000Y2400000D02*
X10372500Y2402500D01*
X10370000Y2450000D02*
X10437218D01*
X10372500Y2402500D02*
X10467500D01*
X10370000Y2300000D02*
X10372499Y2297500D01*
X10370000Y2250000D02*
X10437219D01*
X10447218Y2240000D01*
X10372499Y2297500D02*
X10467500D01*
X10370000Y2350000D02*
X10530000D01*
X10467500Y2402500D02*
X10470000Y2405000D01*
X10467500Y2297500D02*
X10470000Y2295000D01*
X10370000Y2350000D02*
X10370000Y2350000D01*
X6620000Y3137219D02*
X6677219Y3080000D01*
X8152001Y4180000D02*
X8212053Y4240052D01*
Y4273378D01*
X7870000Y2890000D02*
Y2960000D01*
X7870000Y2890000D02*
X7870000Y2890000D01*
X7950000Y2890000D02*
X7950000Y2890000D01*
Y2960000D01*
X6421741Y3817499D02*
X6562002Y3677239D01*
X6394050Y3767410D02*
X6566148Y3595312D01*
X6567530D01*
X8082500Y4719068D02*
Y4757500D01*
X7910564Y4430000D02*
X8037107D01*
X8082500Y4757500D02*
X8085000Y4760000D01*
X8090000Y4356000D02*
Y4426325D01*
X8080000Y4716568D02*
X8082500Y4719068D01*
X8120000Y4456325D02*
Y4700000D01*
X8080000Y4472893D02*
Y4716568D01*
X8090000Y4426325D02*
X8120000Y4456325D01*
X8037107Y4430000D02*
X8080000Y4472893D01*
X7884000Y4150000D02*
X8090000Y4356000D01*
X8235000Y4760000D02*
X8237500Y4757500D01*
X8200000Y4449875D02*
Y4710000D01*
X8237500Y4729068D02*
Y4757500D01*
X8240000Y4620000D02*
Y4726568D01*
X8187463Y4722537D02*
Y4757537D01*
Y4722537D02*
X8200000Y4710000D01*
X8185000Y4760000D02*
X8187463Y4757537D01*
X8237500Y4729068D02*
X8240000Y4726568D01*
X8138000Y6411284D02*
X8190000Y6359284D01*
Y6219411D02*
Y6359284D01*
X8230000Y6274000D02*
X8392000Y6436000D01*
X8190000Y6219411D02*
X8190000Y6219411D01*
X8138000Y6411284D02*
Y6436000D01*
X8230000Y6070000D02*
Y6274000D01*
X8190000Y6001084D02*
Y6219411D01*
X8230000Y5970000D02*
Y6070000D01*
X8110000Y5980000D02*
Y6155000D01*
X8395000Y6260000D02*
X8724000D01*
X8310000Y6070000D02*
Y6155000D01*
Y6175000D01*
X8110000Y6155000D02*
Y6207001D01*
X8070000Y5915000D02*
Y6070000D01*
X8270000Y6197426D02*
X8372574Y6300000D01*
X8310000Y6175000D02*
X8395000Y6260000D01*
X7763000Y6300000D02*
X7960431D01*
X7882500Y6434500D02*
X8110000Y6207001D01*
X8270000Y6155000D02*
Y6197426D01*
X8070000Y6070000D02*
Y6190432D01*
X8310000Y6022377D02*
Y6070000D01*
X8270000Y5915000D02*
Y6155000D01*
X7960431Y6300000D02*
X8070000Y6190432D01*
X8372574Y6300000D02*
X8510000D01*
X6290300Y3817499D02*
X6421741D01*
X6290389Y3767410D02*
X6394050D01*
X4977499Y3822500D02*
X5038950Y3883950D01*
X8210000Y4275432D02*
X8212053Y4273378D01*
X8250000Y4292000D02*
X8392000Y4150000D01*
X8250000Y4292000D02*
Y4456443D01*
X8210000Y4275432D02*
Y4439875D01*
X8330000Y4620000D02*
Y4645858D01*
Y4478137D02*
Y4620000D01*
X8331984Y4748284D02*
X8343700Y4760000D01*
X8290000Y4535000D02*
Y4760000D01*
X8240000Y4466443D02*
Y4620000D01*
X8120000Y4700000D02*
X8135000Y4715000D01*
Y4760000D01*
X8328700Y5903308D02*
Y6003677D01*
X8310000Y6022377D02*
X8328700Y6003677D01*
X8222500Y5962500D02*
X8230000Y5970000D01*
X8220000Y5915000D02*
X8222500Y5917500D01*
Y5962500D01*
X8170000Y5915000D02*
X8170000Y5915000D01*
Y5981084D01*
X8120000Y5915000D02*
Y5970000D01*
X8110000Y5980000D02*
X8120000Y5970000D01*
X7628500Y6434500D02*
X7763000Y6300000D01*
X8331984Y4647842D02*
Y4748284D01*
X8290000Y4461568D02*
Y4535000D01*
X8330000Y4645858D02*
X8331984Y4647842D01*
X8170000Y5981084D02*
X8190000Y6001084D01*
X8200000Y4449875D02*
X8210000Y4439875D01*
X8290000Y4461568D02*
X8371568Y4380000D01*
X8240000Y4466443D02*
X8250000Y4456443D01*
X8330000Y4478137D02*
X8388137Y4420000D01*
X7540000Y5471930D02*
Y5565901D01*
X7535100Y5570800D02*
X7540000Y5565901D01*
X6710000Y3780000D02*
Y4066743D01*
X6425000Y4165000D02*
X6611742D01*
X6710000Y4066743D01*
Y3780000D02*
X6860000Y3630000D01*
X6071250Y3668750D02*
X6289049D01*
X6290300Y3667499D01*
X6070000Y3670000D02*
X6071250Y3668750D01*
X6140000Y3608750D02*
X6144375Y3613124D01*
X6285925D02*
X6290300Y3617499D01*
X6144375Y3613124D02*
X6285925D01*
X6520000Y4077672D02*
Y4080000D01*
X6474828Y4032499D02*
X6520000Y4077672D01*
X6402481Y4032499D02*
X6474828D01*
X6479718Y3917499D02*
X6497218Y3934999D01*
X8724000Y6260000D02*
X8900000Y6436000D01*
X8510000Y6300000D02*
X8646000Y6436000D01*
X9399949Y3581250D02*
X9401200Y3582500D01*
X8416000Y4380000D02*
X8646000Y4150000D01*
X8371568Y4380000D02*
X8416000D01*
X8630000Y4420000D02*
X8900000Y4150000D01*
X8388137Y4420000D02*
X8630000D01*
X7630564Y4150000D02*
X7910564Y4430000D01*
X7630000Y4150000D02*
X7630564D01*
X6404726Y4072499D02*
X6435866Y4103639D01*
X6387482Y4017499D02*
X6402481Y4032499D01*
X6295300Y4072499D02*
X6404726D01*
X6376989Y4213012D02*
X6425000Y4165000D01*
X6290300Y3867499D02*
X6499382D01*
X6511882Y3880000D01*
X6290300Y3917499D02*
X6479718D01*
X6511882Y3880000D02*
X6520000D01*
X6394050Y3967499D02*
X6416550Y3990000D01*
X6290300Y3767499D02*
X6290389Y3767410D01*
X6290300Y4067499D02*
X6295300Y4072499D01*
X6290300Y4017499D02*
X6387482D01*
X5137700Y4012499D02*
X5147700Y4022499D01*
X5228876D01*
X5142700Y3917499D02*
X5147700Y3912499D01*
X5218165D01*
X5218166Y3912499D01*
X5565000Y3487219D02*
Y3577060D01*
X5562060Y3580000D02*
X5565000Y3577060D01*
X5740750Y3369449D02*
X5741500Y3368699D01*
X5740750Y3369449D02*
Y3509250D01*
X5740000Y3510000D02*
X5740750Y3509250D01*
X5691500Y3368699D02*
Y3478500D01*
X5791500Y3483718D02*
X5796500Y3488718D01*
X5641500Y3368699D02*
Y3471932D01*
X5625740Y3487692D02*
X5641500Y3471932D01*
X6710000Y3145000D02*
X6718118D01*
X6620000Y3137219D02*
Y3145000D01*
X5791500Y3368699D02*
Y3483718D01*
X5510000Y3510000D02*
X5515740Y3504260D01*
Y3475635D02*
Y3504260D01*
Y3475635D02*
X5536500Y3454875D01*
Y3373699D02*
X5541500Y3368699D01*
X5536500Y3373699D02*
Y3454875D01*
X5586500Y3373699D02*
Y3465719D01*
X5565000Y3487219D02*
X5586500Y3465719D01*
Y3373699D02*
X5591500Y3368699D01*
X5960000Y3065400D02*
Y3242653D01*
X4765000Y2895000D02*
X4850000D01*
X5641500Y4516299D02*
Y4626454D01*
X6294787Y4213012D02*
X6376989D01*
X6290300Y4217499D02*
X6294787Y4213012D01*
X6860000Y3630000D02*
X7328000D01*
X7396000Y3562000D01*
X4215000Y3090000D02*
X4360000D01*
X6230000Y4777500D02*
Y4785000D01*
X6439260Y4893520D02*
X6445000Y4899260D01*
X6439260Y4844260D02*
Y4893520D01*
X6091500Y4516299D02*
Y4575050D01*
X4770000Y2535000D02*
X4840000D01*
X4391911Y1838089D02*
Y1915000D01*
X4755000Y2424999D02*
X4765000Y2415000D01*
X4622500Y2424999D02*
X4755000D01*
X4622500Y2519999D02*
X4632501Y2530000D01*
X4765000D01*
X4770000Y2535000D01*
X4745000Y2614999D02*
X4765000Y2634999D01*
Y2640000D01*
X4605000Y2597499D02*
X4622500Y2614999D01*
X4745000D01*
X5905000Y3244221D02*
X5936500Y3275721D01*
X5960000Y3242653D02*
X5986500Y3269152D01*
X4290001Y3645000D02*
X4390000D01*
X4390001Y3645000D02*
X4440000D01*
X4760000Y3005000D02*
Y3010000D01*
Y3005000D02*
X4780000Y2985000D01*
X5986500Y3269152D02*
Y3363699D01*
X5936500Y3275721D02*
Y3363699D01*
X7280000Y1267500D02*
X7298687Y1248813D01*
X7280000Y1267500D02*
Y1291495D01*
X5891500Y4516299D02*
X5896500Y4521299D01*
X5941500Y4516299D02*
X5946500Y4521299D01*
X4190000Y3755000D02*
X4290000D01*
X4290000Y3755000D01*
X5038950Y3994924D02*
X5056524Y4012498D01*
X5067234D01*
X5038950Y3883950D02*
Y3994924D01*
X5067235Y4012499D02*
X5137700D01*
X5067234Y4012498D02*
X5067235Y4012499D01*
X4100000Y2730000D02*
Y2810000D01*
X4760000Y2900000D02*
X4765000Y2895000D01*
X5790750Y4405750D02*
Y4515549D01*
X5790000Y4405000D02*
X5790750Y4405750D01*
Y4515549D02*
X5791500Y4516299D01*
X5741500D02*
X5746500Y4521299D01*
X5690000Y4405000D02*
X5690750Y4405750D01*
Y4515549D02*
X5691500Y4516299D01*
X5690750Y4405750D02*
Y4515549D01*
X5056523Y3612499D02*
X5137700D01*
X5900450Y5844550D02*
X5983250D01*
X5900000Y5845000D02*
X5900450Y5844550D01*
X5983250D02*
X5983700Y5844100D01*
X6410000Y6275000D02*
X6450000Y6235000D01*
X6305000Y6275000D02*
X6410000D01*
X4620000Y2900000D02*
X4760000D01*
X4525000Y2951376D02*
Y3030000D01*
X4567500Y3072500D01*
X4602500D01*
X4620000Y3090000D01*
X4473624Y2900000D02*
X4525000Y2951376D01*
X4360000Y2900000D02*
X4473624D01*
X4745000Y2995000D02*
X4760000Y3010000D01*
X4620000Y2995000D02*
X4745000D01*
X5986500Y3363699D02*
X5991500Y3368699D01*
X5936500Y3363699D02*
X5941500Y3368699D01*
X6290300Y3967499D02*
X6394050D01*
X5137700Y3612499D02*
X5142700Y3617499D01*
X4630000Y3095000D02*
X4750000D01*
X5520663Y2085000D02*
X5528901Y2093238D01*
X5569127Y2085000D02*
X5578901Y2094774D01*
X5528901Y2093238D02*
Y2142200D01*
X5533901Y2147200D01*
X5578901Y2094774D02*
Y2142200D01*
X5583901Y2147200D01*
X4105000Y3000000D02*
Y3090000D01*
X4474999Y2424999D02*
X4537500Y2487500D01*
X4575073Y2597499D02*
X4605000D01*
X4229999Y2614999D02*
X4362500D01*
Y2424999D02*
X4474999D01*
X4107500Y2320000D02*
Y2413500D01*
Y2247500D02*
Y2320000D01*
Y2413500D02*
X4114000Y2420000D01*
X4100000Y2906000D02*
X4104000Y2910000D01*
X4100000Y2810000D02*
Y2906000D01*
X4104000Y2910000D02*
Y2999000D01*
X4105000Y3000000D01*
X4225000Y2610000D02*
X4229999Y2614999D01*
X4114000Y2420000D02*
Y2519000D01*
X4115000Y2520000D02*
Y2610000D01*
X4114000Y2519000D02*
X4115000Y2520000D01*
X4537500Y2487500D02*
Y2559926D01*
X4575073Y2597499D01*
X6740000Y1220000D02*
Y1289926D01*
X7142463Y1247536D02*
X7150000Y1240000D01*
X6606915Y1330480D02*
X6612655Y1324740D01*
X6717167D01*
X6787427Y1395000D01*
X6740000Y1289926D02*
X6805074Y1355000D01*
X6787427Y1395000D02*
X6788506D01*
Y1395000D01*
X6855000D01*
X6805074Y1355000D02*
X6855000D01*
X7075000Y1315000D02*
X7120000D01*
X7142463Y1292537D01*
Y1247536D02*
Y1292537D01*
X7219142Y1250858D02*
Y1295784D01*
X7315000Y2565000D02*
X7322500D01*
X7345001Y2587501D02*
X7480333D01*
X7322500Y2565000D02*
X7345001Y2587501D01*
X7322500Y2665000D02*
X7349999Y2637501D01*
X7315000Y2665000D02*
X7322500D01*
X7349999Y2637501D02*
X7480333D01*
X7950000Y2780000D02*
X8030000D01*
X7930000Y2760000D02*
X7950000Y2780000D01*
X7795332Y2592501D02*
X7847758D01*
X7791146Y2536688D02*
X7861389D01*
X7790332Y2587501D02*
X7795332Y2592501D01*
X7790332Y2537501D02*
X7791146Y2536688D01*
D71*
X7450000Y5409500D02*
X7500000Y5359500D01*
X6418714Y1303302D02*
Y1310000D01*
X7882500Y1405000D02*
X7890000Y1412500D01*
X7882500Y1310000D02*
Y1405000D01*
X7885000Y1283284D02*
X7886710Y1281574D01*
X7882500Y1310000D02*
X7885000Y1307500D01*
X7886710Y1207500D02*
Y1281574D01*
X7885000Y1283284D02*
Y1307500D01*
X7747500Y1207500D02*
X7887500D01*
X7887500Y1035000D02*
Y1184068D01*
X7887500Y1184069D02*
X7887500Y1184068D01*
X7887500Y1184069D02*
Y1207500D01*
X7890000Y1547500D02*
Y1760000D01*
X10550000Y3410000D02*
Y3747000D01*
X10350000Y3410000D02*
X10550000D01*
X10271000Y3489000D02*
X10350000Y3410000D01*
X10200000Y3489000D02*
X10271000D01*
X10200000Y3391000D02*
Y3489000D01*
Y3581000D02*
Y3679000D01*
X10141050Y3499000D02*
X10190000D01*
X10200000Y3489000D01*
X9988800Y3517500D02*
X10122550D01*
X10141050Y3499000D01*
X10375750Y3579750D02*
X10377000Y3578500D01*
X10200000Y3581000D02*
X10201250Y3579750D01*
X10375750D01*
X9989550Y3581750D02*
X10199250D01*
X9988800Y3582500D02*
X9989550Y3581750D01*
X10199250D02*
X10200000Y3581000D01*
X7810000Y915000D02*
X7880000Y985000D01*
Y1027500D01*
X7308750Y881250D02*
X7310000Y882500D01*
X7211250Y881250D02*
X7308750D01*
X7210000Y880000D02*
X7211250Y881250D01*
X7210000Y708824D02*
X7273000Y645824D01*
X7210000Y708824D02*
Y880000D01*
X7273000Y605000D02*
Y645824D01*
X7462500Y1830000D02*
X7540000D01*
X7462500Y2050000D02*
X7542500D01*
X7690000Y1265000D02*
X7747500Y1207500D01*
X7880000Y1027500D02*
X7887500Y1035000D01*
X7500000Y5380000D02*
Y5389500D01*
Y5290000D02*
Y5380000D01*
X7466000Y6160000D02*
X7540000D01*
X7450000Y5409500D02*
Y5560901D01*
X7440100Y5570800D02*
X7450000Y5560901D01*
X6398284Y1282872D02*
X6418714Y1303302D01*
X6398284Y1093284D02*
Y1282872D01*
X6375000Y1070000D02*
X6398284Y1093284D01*
X6351716D02*
Y1282872D01*
X6330000Y1304588D02*
X6351716Y1282872D01*
Y1093284D02*
X6375000Y1070000D01*
X6330000Y1304588D02*
Y1310000D01*
X7680000Y1065000D02*
Y1175000D01*
X7690000Y1265000D02*
Y1305000D01*
X7680000Y1315000D02*
X7690000Y1305000D01*
X8970000Y3340000D02*
X8980000Y3330000D01*
X9035000D01*
X9107500Y3302500D02*
X9130000Y3280000D01*
X9062500Y3302500D02*
X9107500D01*
X9035000Y3330000D02*
X9062500Y3302500D01*
D72*
X10259038Y2600000D02*
X10306538Y2552500D01*
X9817500Y2487500D02*
X9930000Y2600000D01*
X10259038D01*
X10306538Y2552500D02*
X10367499D01*
X10370000Y2550000D01*
X10287500Y2071538D02*
X10306538Y2052500D01*
X10367499D02*
X10370000Y2050000D01*
X10287500Y2071538D02*
Y2071601D01*
X10306538Y2052500D02*
X10367499D01*
X10227069Y2132032D02*
X10287500Y2071601D01*
X10227069Y2132032D02*
Y2228392D01*
X10225000Y2034038D02*
Y2070462D01*
X10180000Y2115462D02*
X10225000Y2070462D01*
Y2034038D02*
X10306538Y1952500D01*
X10367499D01*
X10180000Y2115462D02*
Y2145000D01*
X10170355Y1874645D02*
X10215355D01*
X9879644Y1809500D02*
X10085000D01*
X9865000Y1824145D02*
X9879644Y1809500D01*
X10155000Y1890000D02*
X10170355Y1874645D01*
X9820000Y1860000D02*
X9837500D01*
X9865000Y1832500D01*
Y1824145D02*
Y1832500D01*
X10155000Y2170000D02*
X10180000Y2145000D01*
X10155000Y2010000D02*
Y2019500D01*
X10200287Y2255175D02*
X10227069Y2228392D01*
X10155000Y1730000D02*
Y1739500D01*
X10085000Y1809500D02*
X10155000Y1739500D01*
X9820000Y2060000D02*
X9847500Y2087500D01*
X9877144D01*
X10084500Y2090000D02*
X10155000Y2019500D01*
Y2000500D02*
Y2010000D01*
X10180000Y1975500D02*
X10199962D01*
X9879644Y2090000D02*
X10084500D01*
X9877144Y2087500D02*
X9879644Y2090000D01*
X10155000Y2000500D02*
X10180000Y1975500D01*
X10155000Y1730000D02*
X10230000D01*
X10155000Y2280500D02*
X10180325Y2255175D01*
X10200287D01*
X10155000Y2280500D02*
Y2290000D01*
X9817500Y2480000D02*
Y2487500D01*
X9780000Y2450000D02*
X9787500D01*
X9817500Y2480000D01*
X9061187Y2387500D02*
X9294999D01*
X9190000Y2470000D02*
X9205125Y2485126D01*
X9022500Y2426187D02*
X9061187Y2387500D01*
X9022500Y2426187D02*
Y2447500D01*
X9000000Y2470000D02*
X9022500Y2447500D01*
X9292499Y2542500D02*
X9375000Y2460000D01*
X9292499Y2542500D02*
Y2665962D01*
X9205125Y2485126D02*
Y2592500D01*
X9207766Y2657766D02*
X9399999Y2850000D01*
X9190266Y2610000D02*
X9207766Y2627500D01*
Y2657766D01*
X9187626Y2610000D02*
X9205125Y2592500D01*
X9185000Y2610000D02*
X9190266D01*
X9185000D02*
X9187626D01*
X9367499Y2460000D02*
X9375000D01*
X9294999Y2387500D02*
X9367499Y2460000D01*
X9292499Y2665962D02*
X9424037Y2797500D01*
X10240000Y1850000D02*
X10370000D01*
X10275462Y1900000D02*
X10370000D01*
X10215355Y1874645D02*
X10240000Y1850000D01*
X10199962Y1975500D02*
X10275462Y1900000D01*
X9399999Y2850000D02*
X10370000D01*
X9424037Y2797500D02*
X10330177D01*
X10330177Y2797500D02*
X10367500D01*
X10330177Y2797500D02*
X10330177Y2797500D01*
X10230000Y1730000D02*
X10299999Y1800000D01*
X10370000D01*
X10367500Y2797500D02*
X10370000Y2800000D01*
D73*
X275000Y1372900D02*
X445000D01*
X275000Y990000D02*
X445000D01*
X275000D02*
Y1372900D01*
X445000Y990000D02*
Y1372900D01*
X402400Y1032500D02*
Y1059158D01*
Y1045829D01*
X322426D01*
X335755Y1032500D01*
D74*
X8900000Y6436000D02*
D03*
Y4150000D02*
D03*
X9505000Y925000D02*
D03*
D75*
X8646000Y6436000D02*
D03*
X8392000D02*
D03*
X8138000D02*
D03*
X7884000D02*
D03*
X7630000D02*
D03*
X7376000D02*
D03*
X7122000D02*
D03*
X8646000Y4150000D02*
D03*
X8392000D02*
D03*
X8138000D02*
D03*
X7884000D02*
D03*
X7630000D02*
D03*
X7376000D02*
D03*
X7122000D02*
D03*
X9630000Y675000D02*
D03*
X10080000D02*
D03*
X10205000Y925000D02*
D03*
D76*
X8135000Y260000D02*
D03*
X7237000D02*
D03*
X8099000Y605000D02*
D03*
X7273000D02*
D03*
D77*
X2380000Y6135000D02*
D03*
Y575000D02*
D03*
D78*
Y4945000D02*
D03*
Y1765000D02*
D03*
D79*
X10700000Y6350000D02*
D03*
Y350000D02*
D03*
X350000D02*
D03*
Y6350000D02*
D03*
D80*
X4190000Y4327000D02*
D03*
D81*
Y4073000D02*
D03*
D82*
X7904000Y3562000D02*
D03*
Y3435000D02*
D03*
X7777000Y3562000D02*
D03*
Y3435000D02*
D03*
X7650000Y3562000D02*
D03*
Y3435000D02*
D03*
X7523000Y3562000D02*
D03*
Y3435000D02*
D03*
X7396000Y3562000D02*
D03*
D83*
Y3435000D02*
D03*
D84*
X5269000Y1595000D02*
D03*
X4343000Y1598500D02*
D03*
D85*
X5523000Y1595000D02*
D03*
X4597000Y1598500D02*
D03*
D86*
X5142000Y731000D02*
D03*
X5650000D02*
D03*
X4216000Y734500D02*
D03*
X4724000D02*
D03*
D87*
X8855000Y615000D02*
D03*
D88*
X9205000D02*
D03*
D89*
X5585000Y2275000D02*
D03*
X5677500D02*
D03*
X7710000Y2845000D02*
D03*
X8093750Y2655000D02*
D03*
X8100000Y2890000D02*
D03*
X5290000Y2412500D02*
D03*
X5382219Y2082500D02*
D03*
X5347500Y2195000D02*
D03*
X5430000D02*
D03*
X5480000Y4397549D02*
D03*
X5450000Y3610000D02*
D03*
X5390000Y3510000D02*
D03*
X6170000Y4270000D02*
D03*
X5270000Y3720000D02*
D03*
X6540000Y4330000D02*
D03*
Y4250000D02*
D03*
X4465000Y2127500D02*
D03*
X4897500Y1737500D02*
D03*
X3650000Y2075000D02*
D03*
Y3575000D02*
D03*
X2025000Y6325001D02*
D03*
X2650000Y5575001D02*
D03*
Y6075001D02*
D03*
X1775000Y4325000D02*
D03*
X3525000Y2825000D02*
D03*
X2025000Y3325000D02*
D03*
X3400000Y5075001D02*
D03*
X1025000Y2825000D02*
D03*
X4025000Y1825000D02*
D03*
X3025000Y3325000D02*
D03*
X3525000Y1325000D02*
D03*
X650000Y5575001D02*
D03*
X2025000Y1825000D02*
D03*
X1775000Y4825001D02*
D03*
X525000Y4325000D02*
D03*
X1775000Y5325001D02*
D03*
X1650000Y1575000D02*
D03*
X525000Y5825001D02*
D03*
X3775000Y2825000D02*
D03*
X525000Y5325001D02*
D03*
X2775000Y3325000D02*
D03*
X2650000Y3075000D02*
D03*
X1900000Y1075000D02*
D03*
X1150000Y4575001D02*
D03*
X4025000Y2325000D02*
D03*
X2275000Y325000D02*
D03*
X650000Y3575000D02*
D03*
Y2075000D02*
D03*
X2775000Y3825000D02*
D03*
X3275000Y5825001D02*
D03*
X3775000Y1825000D02*
D03*
Y4325000D02*
D03*
X275000Y3825000D02*
D03*
X3900000Y5075001D02*
D03*
X1150000Y3575000D02*
D03*
X3275000Y825000D02*
D03*
X1900000Y2075000D02*
D03*
X3150000Y4075000D02*
D03*
X1150000Y2075000D02*
D03*
X2025000Y2825000D02*
D03*
X650000Y2575000D02*
D03*
X900000Y1075000D02*
D03*
X2650000Y4075000D02*
D03*
X1025000Y1825000D02*
D03*
X1275000Y4325000D02*
D03*
X3900000Y3075000D02*
D03*
X1400000Y4075000D02*
D03*
X525000Y825000D02*
D03*
X1775000Y3825000D02*
D03*
X2900000Y5575001D02*
D03*
X775000Y1325000D02*
D03*
X3650000Y4075000D02*
D03*
X2525000Y5325001D02*
D03*
X3775000Y325000D02*
D03*
X3900000Y3575000D02*
D03*
X1775000Y325000D02*
D03*
X275000Y5325001D02*
D03*
X2400000Y3075000D02*
D03*
X2025000Y2325000D02*
D03*
X410000Y5570000D02*
D03*
X3400000Y5575001D02*
D03*
X1525000Y4325000D02*
D03*
X3400000Y4575001D02*
D03*
X2525000Y3325000D02*
D03*
X3900000Y2575000D02*
D03*
X3525000Y325000D02*
D03*
X1775000Y6325001D02*
D03*
X3525000Y825000D02*
D03*
X2025000Y5325001D02*
D03*
X2150000Y4575001D02*
D03*
X3025000Y4325000D02*
D03*
X3775000Y5325001D02*
D03*
X900000Y1575000D02*
D03*
X1275000Y325000D02*
D03*
X1650000Y2075000D02*
D03*
X4025000Y2825000D02*
D03*
X1025000Y1325000D02*
D03*
X2275000Y5325001D02*
D03*
X1150000Y1075000D02*
D03*
X2150000D02*
D03*
X1275000Y5325001D02*
D03*
X3400000Y6075001D02*
D03*
X3775000Y4825001D02*
D03*
X2900000Y6075001D02*
D03*
X650000Y575000D02*
D03*
X400000Y2075000D02*
D03*
X2650000Y2575000D02*
D03*
X3525000Y1825000D02*
D03*
X1525000Y325000D02*
D03*
X4025000D02*
D03*
X3525000Y2325000D02*
D03*
X3150000Y1075000D02*
D03*
X2525000Y6325001D02*
D03*
X2150000Y4075000D02*
D03*
X1775000Y1325000D02*
D03*
X2775000Y825000D02*
D03*
X900000Y6075001D02*
D03*
X650000Y4575001D02*
D03*
X1400000Y575000D02*
D03*
X1650000Y1075000D02*
D03*
X1525000Y825000D02*
D03*
X1025000D02*
D03*
X1650000Y5075001D02*
D03*
X775000Y2825000D02*
D03*
X3150000Y6075001D02*
D03*
X2275000Y4325000D02*
D03*
X1400000Y1075000D02*
D03*
X400000Y5075001D02*
D03*
X1150000Y2575000D02*
D03*
X3900000Y2075000D02*
D03*
X2025000Y5825001D02*
D03*
X2275000Y3325000D02*
D03*
X2900000Y1075000D02*
D03*
X3525000Y4325000D02*
D03*
X900000Y2075000D02*
D03*
X1650000Y6075001D02*
D03*
X1525000Y3325000D02*
D03*
X3525000D02*
D03*
X1525000Y2325000D02*
D03*
X4025000Y1325000D02*
D03*
X1150000Y575000D02*
D03*
X3275000Y2825000D02*
D03*
X1900000Y4575001D02*
D03*
X4025000Y4325000D02*
D03*
X3150000Y2575000D02*
D03*
X1400000Y6075001D02*
D03*
X2525000Y2325000D02*
D03*
X3150000Y4575001D02*
D03*
X2650000Y1575000D02*
D03*
X3650000Y575000D02*
D03*
X650000Y4075000D02*
D03*
X1275000Y2325000D02*
D03*
X2025000Y825000D02*
D03*
X2275000Y2825000D02*
D03*
X3275000Y4325000D02*
D03*
X1525000Y2825000D02*
D03*
X3775000Y825000D02*
D03*
X3025000Y2825000D02*
D03*
X3400000Y3575000D02*
D03*
X1275000Y1325000D02*
D03*
X775000Y1825000D02*
D03*
X2775000Y4825001D02*
D03*
X1400000Y5575001D02*
D03*
X1900000Y3575000D02*
D03*
X900000Y3075000D02*
D03*
X1400000Y3575000D02*
D03*
X2150000Y575000D02*
D03*
X775000Y325000D02*
D03*
X2900000Y575000D02*
D03*
X1025000Y5825001D02*
D03*
X2400000Y5575001D02*
D03*
X2525000Y4325000D02*
D03*
X650000Y3075000D02*
D03*
X1775000Y1825000D02*
D03*
X3275000Y3825000D02*
D03*
X3400000Y2575000D02*
D03*
X3025000Y4825001D02*
D03*
X275000Y2325000D02*
D03*
X525000Y4825001D02*
D03*
X3900000Y1075000D02*
D03*
X1525000Y5825001D02*
D03*
X1650000Y4075000D02*
D03*
X2900000Y3075000D02*
D03*
X775000Y3825000D02*
D03*
X3650000Y4575001D02*
D03*
X2900000Y2075000D02*
D03*
X1900000Y6075001D02*
D03*
X650000Y1575000D02*
D03*
X1275000Y2825000D02*
D03*
X2650000Y3575000D02*
D03*
X2400000D02*
D03*
X3025000Y2325000D02*
D03*
X775000Y6325001D02*
D03*
X1025000Y2325000D02*
D03*
Y4325000D02*
D03*
X3025000Y825000D02*
D03*
X2650000Y2075000D02*
D03*
X3525000Y6325001D02*
D03*
X3400000Y575000D02*
D03*
X3775000Y2325000D02*
D03*
X2150000Y3075000D02*
D03*
X3150000Y5075001D02*
D03*
X3775000Y6325001D02*
D03*
X775000Y5825001D02*
D03*
X2525000Y2825000D02*
D03*
X1400000Y3075000D02*
D03*
X3275000Y1325000D02*
D03*
X3400000Y2075000D02*
D03*
X2525000Y325000D02*
D03*
X1900000Y2575000D02*
D03*
X3150000Y2075000D02*
D03*
X10680000Y870000D02*
D03*
X3525000Y5825001D02*
D03*
X4025000Y3325000D02*
D03*
X3900000Y575000D02*
D03*
X2775000Y1825000D02*
D03*
X3275000Y5325001D02*
D03*
X3025000Y1825000D02*
D03*
X1650000Y3075000D02*
D03*
X1900000D02*
D03*
X900000Y4575001D02*
D03*
Y575000D02*
D03*
X525000Y2325000D02*
D03*
X3150000Y3075000D02*
D03*
X1400000Y4575001D02*
D03*
X2525000Y1325000D02*
D03*
X1775000Y5825001D02*
D03*
X2650000Y575000D02*
D03*
X650000Y1075000D02*
D03*
X2400000Y4075000D02*
D03*
X1275000Y4825001D02*
D03*
X1150000Y5075001D02*
D03*
X3525000Y4825001D02*
D03*
X3150000Y5575001D02*
D03*
X525000Y3825000D02*
D03*
X2775000Y4325000D02*
D03*
X3775000Y1325000D02*
D03*
X1025000Y3825000D02*
D03*
X2775000Y2825000D02*
D03*
X3650000Y6075001D02*
D03*
X1900000Y5575001D02*
D03*
X1525000Y6325001D02*
D03*
X3275000Y4825001D02*
D03*
X3775000Y3825000D02*
D03*
X1150000Y4075000D02*
D03*
X775000Y4825001D02*
D03*
X2400000Y2575000D02*
D03*
X3275000Y3325000D02*
D03*
X3025000Y6325001D02*
D03*
X2900000Y4075000D02*
D03*
X1650000Y3575000D02*
D03*
X2275000Y6325001D02*
D03*
X1775000Y3325000D02*
D03*
X2025000Y325000D02*
D03*
X3275000Y2325000D02*
D03*
X2900000Y2575000D02*
D03*
X275000Y2825000D02*
D03*
X775000Y5325001D02*
D03*
X3025000D02*
D03*
X3650000Y1075000D02*
D03*
X3275000Y325000D02*
D03*
X275000Y4825001D02*
D03*
X3400000Y4075000D02*
D03*
X1900000Y575000D02*
D03*
X1150000Y3075000D02*
D03*
X2150000Y2575000D02*
D03*
X2025000Y4825001D02*
D03*
X2275000Y2325000D02*
D03*
X3650000Y5575001D02*
D03*
X1275000Y1825000D02*
D03*
X900000Y5575001D02*
D03*
X2150000Y2075000D02*
D03*
X900000Y5075001D02*
D03*
X2775000Y5825001D02*
D03*
X3525000Y5325001D02*
D03*
X1525000Y1325000D02*
D03*
X1025000Y4825001D02*
D03*
X650000Y5075001D02*
D03*
X1400000Y1575000D02*
D03*
X3025000Y3825000D02*
D03*
X1900000Y1575000D02*
D03*
X1150000D02*
D03*
X525000Y1825000D02*
D03*
X1025000Y5325001D02*
D03*
X1150000Y5575001D02*
D03*
X1900000Y5075001D02*
D03*
X775000Y3325000D02*
D03*
X1025000Y6325001D02*
D03*
X1650000Y5575001D02*
D03*
X525000Y1325000D02*
D03*
X400000Y3075000D02*
D03*
X775000Y4325000D02*
D03*
X1650000Y2575000D02*
D03*
X3900000Y4075000D02*
D03*
X2150000Y5575001D02*
D03*
X2275000Y1325000D02*
D03*
X3900000Y4575001D02*
D03*
X4025000Y3825000D02*
D03*
X3025000Y5825001D02*
D03*
X1025000Y325000D02*
D03*
X1150000Y6075001D02*
D03*
X3400000Y1075000D02*
D03*
X400000Y575000D02*
D03*
X2150000Y3575000D02*
D03*
X2025000Y3825000D02*
D03*
X1775000Y2325000D02*
D03*
X3275000Y6325001D02*
D03*
X900000Y2575000D02*
D03*
X400000D02*
D03*
X2400000Y4575001D02*
D03*
X3275000Y1825000D02*
D03*
X2025000Y4325000D02*
D03*
X2775000Y5325001D02*
D03*
X2650000Y4575001D02*
D03*
X2525000Y5825001D02*
D03*
X2275000Y3825000D02*
D03*
X775000Y2325000D02*
D03*
X2775000Y6325001D02*
D03*
X3025000Y325000D02*
D03*
X525000Y3325000D02*
D03*
X1275000Y825000D02*
D03*
X775000D02*
D03*
X3775000Y3325000D02*
D03*
X3525000Y3825000D02*
D03*
X400000Y4575001D02*
D03*
X1400000Y2075000D02*
D03*
X1775000Y825000D02*
D03*
X1650000Y4575001D02*
D03*
X400000Y4075000D02*
D03*
X2900000Y4575001D02*
D03*
X1525000Y3825000D02*
D03*
X1275000D02*
D03*
X1025000Y3325000D02*
D03*
X1275000Y5825001D02*
D03*
X900000Y3575000D02*
D03*
X275000Y1825000D02*
D03*
X900000Y4075000D02*
D03*
X2900000Y3575000D02*
D03*
X2775000Y325000D02*
D03*
Y2325000D02*
D03*
X1525000Y4825001D02*
D03*
X1400000Y5075001D02*
D03*
X3650000Y3075000D02*
D03*
X2275000Y5825001D02*
D03*
X400000Y1575000D02*
D03*
X3775000Y5825001D02*
D03*
X525000Y2825000D02*
D03*
X1525000Y1825000D02*
D03*
X1900000Y4075000D02*
D03*
X2525000Y3825000D02*
D03*
X1400000Y2575000D02*
D03*
X1275000Y6325001D02*
D03*
X2025000Y1325000D02*
D03*
X1275000Y3325000D02*
D03*
X3650000Y5075001D02*
D03*
X275000Y3325000D02*
D03*
X3150000Y3575000D02*
D03*
X650000Y6075001D02*
D03*
X1650000Y575000D02*
D03*
X3150000D02*
D03*
X3400000Y3075000D02*
D03*
X275000Y4325000D02*
D03*
X400000Y3575000D02*
D03*
X2900000Y5075001D02*
D03*
X3650000Y2575000D02*
D03*
X1775000Y2825000D02*
D03*
X1525000Y5325001D02*
D03*
X4610000Y3710000D02*
D03*
X4183609Y3451391D02*
D03*
X4403891Y3516109D02*
D03*
X4610000Y3629600D02*
D03*
X4200000Y3200000D02*
D03*
X4449995Y3424997D02*
D03*
X4374995Y3274997D02*
D03*
X4573605Y3451387D02*
D03*
X4190000Y3560000D02*
D03*
X4538887Y3261105D02*
D03*
X4810000Y3480000D02*
D03*
X4674995Y3274997D02*
D03*
X4749995Y3424997D02*
D03*
X5280000Y4585000D02*
D03*
X6129670Y3732770D02*
D03*
X6074670Y4024997D02*
D03*
X5733890Y3883891D02*
D03*
X5889101Y3728680D02*
D03*
X5865718Y3518632D02*
D03*
X5800000Y3570000D02*
D03*
X5649995Y4024997D02*
D03*
X8000000Y1610000D02*
D03*
X8280000Y1310000D02*
D03*
X6940523Y2660566D02*
D03*
X8290000Y2330000D02*
D03*
X9324994Y1474997D02*
D03*
X9174994D02*
D03*
X8724994D02*
D03*
X7449994Y1624997D02*
D03*
X8574994Y1474997D02*
D03*
X8874994D02*
D03*
X9474994D02*
D03*
X9024994D02*
D03*
X7524994D02*
D03*
X6999995Y1924997D02*
D03*
X8274994Y1774997D02*
D03*
X8949994Y6124996D02*
D03*
X5724995Y274998D02*
D03*
X8499994Y1924997D02*
D03*
X7674994Y5674996D02*
D03*
X8499994Y4024997D02*
D03*
X8649994Y5824996D02*
D03*
X5424995Y274998D02*
D03*
X9549994Y3724997D02*
D03*
X7524994Y6274996D02*
D03*
X9024994Y1174997D02*
D03*
X10824993Y2074997D02*
D03*
X10449994Y1324997D02*
D03*
X6699995Y2224997D02*
D03*
X8949994Y5524996D02*
D03*
X9999994Y1024997D02*
D03*
X10599994Y2824997D02*
D03*
X8799994Y6124996D02*
D03*
X4449995Y424998D02*
D03*
X9924994Y3274997D02*
D03*
X5949995Y4024997D02*
D03*
X9624994Y2674997D02*
D03*
X5874995Y874997D02*
D03*
X8724994Y1774997D02*
D03*
X8874994Y4774996D02*
D03*
X7149995Y6124996D02*
D03*
X8874994Y1774997D02*
D03*
X9474994Y2674997D02*
D03*
X6624995Y874997D02*
D03*
X5049995Y1624997D02*
D03*
X9249994Y1024997D02*
D03*
X9774994Y1474997D02*
D03*
X10749993Y3424997D02*
D03*
X4599995Y1324997D02*
D03*
X7449994Y3724997D02*
D03*
X8874994Y5974996D02*
D03*
X7524994Y1174997D02*
D03*
X4749995Y1024997D02*
D03*
X5124995Y274998D02*
D03*
X10224994D02*
D03*
X10599994Y1024997D02*
D03*
Y1924997D02*
D03*
X8424994Y5974996D02*
D03*
X8949994Y2824997D02*
D03*
X9324994Y1174997D02*
D03*
X8874994Y5374996D02*
D03*
X8649994Y6124996D02*
D03*
X5949995Y1324997D02*
D03*
X9549994Y3424997D02*
D03*
X8799994Y2824997D02*
D03*
X4599995Y424998D02*
D03*
X10374993Y874997D02*
D03*
X4824995Y1174997D02*
D03*
X9699994Y3424997D02*
D03*
X4299995Y1024997D02*
D03*
X9174994Y274998D02*
D03*
X9624994Y2074997D02*
D03*
X9474994Y3274997D02*
D03*
X10149994Y424998D02*
D03*
X8649994Y5224996D02*
D03*
X5649995Y424998D02*
D03*
X4599995Y2224997D02*
D03*
X8499994Y5824996D02*
D03*
X5424995Y874997D02*
D03*
X9474994Y1174997D02*
D03*
X10374993Y574998D02*
D03*
X10524993Y2974997D02*
D03*
X6024995Y4174996D02*
D03*
X7824994Y5674996D02*
D03*
X9249994Y2224997D02*
D03*
X9624994Y3574997D02*
D03*
X9699994Y1024997D02*
D03*
X9474994Y574998D02*
D03*
X7749994Y6124996D02*
D03*
X10524993Y874997D02*
D03*
X10749993Y2824997D02*
D03*
X5049995Y424998D02*
D03*
X9174994Y1774997D02*
D03*
X5649995Y1324997D02*
D03*
X8799994Y3724997D02*
D03*
X4524995Y274998D02*
D03*
X7674994Y5974996D02*
D03*
X8799994Y424998D02*
D03*
X7749994Y5524996D02*
D03*
X8874994Y2374997D02*
D03*
X6024995Y2074997D02*
D03*
X9849994Y1324997D02*
D03*
X7899994Y424998D02*
D03*
X10299994Y3724997D02*
D03*
X8499994Y1624997D02*
D03*
X10299994Y1024997D02*
D03*
X10074994Y1474997D02*
D03*
X6399995Y424998D02*
D03*
X8649994Y1324997D02*
D03*
X5349995Y2524997D02*
D03*
X8349994Y3424997D02*
D03*
X8199994Y3724997D02*
D03*
X9324994Y874997D02*
D03*
X10674993Y574998D02*
D03*
X7449994Y424998D02*
D03*
X6249995D02*
D03*
X6099995Y4324996D02*
D03*
X9549994Y1324997D02*
D03*
X5649995Y3724997D02*
D03*
X8649994Y4624996D02*
D03*
X9324994Y274998D02*
D03*
X8799994Y5524996D02*
D03*
X8649994Y3724997D02*
D03*
X10824993Y2974997D02*
D03*
X9774994Y574998D02*
D03*
X5349995Y1024997D02*
D03*
X9699994Y424998D02*
D03*
X4224995Y1774997D02*
D03*
X9924994Y874997D02*
D03*
X8649994Y1624997D02*
D03*
X10749993Y1024997D02*
D03*
X8949994Y424998D02*
D03*
X9549994Y2224997D02*
D03*
X7899994Y5824996D02*
D03*
X8124994Y3574997D02*
D03*
X9699994Y1624997D02*
D03*
X4974995Y1174997D02*
D03*
Y1474997D02*
D03*
X9099994Y1624997D02*
D03*
X4824995Y274998D02*
D03*
X4899995Y1624997D02*
D03*
X7599994Y424998D02*
D03*
X10449994Y1924997D02*
D03*
X10749993Y2224997D02*
D03*
X4149996Y424998D02*
D03*
X4899995Y2224997D02*
D03*
X10599994Y3124997D02*
D03*
X4749995Y1324997D02*
D03*
X9999994Y424998D02*
D03*
X9849994Y1024997D02*
D03*
X4524995Y1174997D02*
D03*
X8724994Y874997D02*
D03*
X8874994Y4474996D02*
D03*
X8424994Y5674996D02*
D03*
X8724994Y5974996D02*
D03*
X7749994Y5824996D02*
D03*
X10374993Y3274997D02*
D03*
X5199995Y1024997D02*
D03*
X10749993Y2524997D02*
D03*
X4299995Y424998D02*
D03*
X8724994Y1174997D02*
D03*
X4674995D02*
D03*
X7074994Y874997D02*
D03*
X8424994Y5374996D02*
D03*
X9474994Y274998D02*
D03*
X8724994Y4774996D02*
D03*
X9849994Y3424997D02*
D03*
X10524993Y1174997D02*
D03*
X7449994Y1324997D02*
D03*
X8349994Y4024997D02*
D03*
X8799994Y1624997D02*
D03*
X7824994Y5974996D02*
D03*
X8874994Y274998D02*
D03*
X10224994Y1474997D02*
D03*
X8574994Y5374996D02*
D03*
X4149996Y1924997D02*
D03*
X9774994Y274998D02*
D03*
X10824993Y574998D02*
D03*
X6324995Y1474997D02*
D03*
X6774995Y2374997D02*
D03*
X9024994Y1774997D02*
D03*
X9399994Y424998D02*
D03*
X10074994Y274998D02*
D03*
X9924994D02*
D03*
X7074994Y5974996D02*
D03*
X7824994Y4774996D02*
D03*
X5499995Y424998D02*
D03*
X7599994Y3724997D02*
D03*
X7674994Y5374996D02*
D03*
X6474995Y574998D02*
D03*
X10374993Y274998D02*
D03*
X8724994Y5374996D02*
D03*
X10299994Y1624997D02*
D03*
X9249994Y2824997D02*
D03*
X10449994Y3124997D02*
D03*
X10674993Y3274997D02*
D03*
X8649994Y5524996D02*
D03*
X4149996Y1024997D02*
D03*
X5199995Y2524997D02*
D03*
X7599994Y1924997D02*
D03*
X7224994Y5974996D02*
D03*
X8049994Y3724997D02*
D03*
X6399995Y724998D02*
D03*
X8874994Y2674997D02*
D03*
X8274994Y5374996D02*
D03*
X8949994Y4624996D02*
D03*
X5424995Y574998D02*
D03*
X7899994Y3724997D02*
D03*
X8949994Y1624997D02*
D03*
X10524993Y3274997D02*
D03*
Y574998D02*
D03*
X10599994Y724998D02*
D03*
X4449995Y1324997D02*
D03*
X6099995Y2524997D02*
D03*
X6399995D02*
D03*
X5724995Y4174996D02*
D03*
X9249994Y1624997D02*
D03*
X10749993Y1324997D02*
D03*
X5274995Y274998D02*
D03*
X10674993Y1174997D02*
D03*
X10299994Y1324997D02*
D03*
X8499994Y6124996D02*
D03*
X9924994Y1474997D02*
D03*
X6474995Y1174997D02*
D03*
X10224994D02*
D03*
X9024994Y274998D02*
D03*
X9249994Y3724997D02*
D03*
X6099995Y424998D02*
D03*
X6999995Y4024997D02*
D03*
X8799994Y5224996D02*
D03*
X10449994Y1024997D02*
D03*
X10674993Y2674997D02*
D03*
X8799994Y4624996D02*
D03*
X9024994Y874997D02*
D03*
X8949994Y1024997D02*
D03*
X5724995Y1474997D02*
D03*
X4149996Y1324997D02*
D03*
X5874995Y1474997D02*
D03*
X4974995Y274998D02*
D03*
X8949994Y4924996D02*
D03*
X6249995Y724998D02*
D03*
X5799995Y1324997D02*
D03*
X9849994Y3724997D02*
D03*
X7524994Y4474996D02*
D03*
X9774994Y874997D02*
D03*
X7674994Y4774996D02*
D03*
X10299994Y724998D02*
D03*
X5349995Y424998D02*
D03*
X5574995Y4174996D02*
D03*
X6024995Y874997D02*
D03*
X9549994Y424998D02*
D03*
X4824995Y1474997D02*
D03*
X7074994Y5674996D02*
D03*
X9999994Y3724997D02*
D03*
X8874994Y6274996D02*
D03*
X4599995Y2824997D02*
D03*
X9624994Y1774997D02*
D03*
X10449994Y1624997D02*
D03*
X4374995Y1174997D02*
D03*
X7599994Y1624997D02*
D03*
X5799995Y3124997D02*
D03*
X4224995Y274998D02*
D03*
X7074994Y4774996D02*
D03*
X8949994Y4324996D02*
D03*
X4899995Y424998D02*
D03*
X8424994Y274998D02*
D03*
X6699995Y4324996D02*
D03*
X4974995Y4774996D02*
D03*
X8649994Y424998D02*
D03*
X4749995D02*
D03*
X10524993Y1474997D02*
D03*
X9774994Y3274997D02*
D03*
X10299994Y424998D02*
D03*
X5049995Y1024997D02*
D03*
X9624994Y3274997D02*
D03*
X10824993Y2674997D02*
D03*
X9099994Y424998D02*
D03*
X4524995Y874997D02*
D03*
X9399994Y1324997D02*
D03*
X5499995Y1024997D02*
D03*
X8499994Y3724997D02*
D03*
X10599994Y1324997D02*
D03*
X10824993Y874997D02*
D03*
X8499994Y5524996D02*
D03*
X8049994Y4024997D02*
D03*
X9099994Y2824997D02*
D03*
X5649995Y3124997D02*
D03*
X6774995Y274998D02*
D03*
X8724994Y4474996D02*
D03*
X8874994Y5674996D02*
D03*
X8049994Y424998D02*
D03*
X8274994Y3574997D02*
D03*
X8874994Y874997D02*
D03*
X8649994Y4924996D02*
D03*
X8949994Y5824996D02*
D03*
X9774994Y3574997D02*
D03*
X8124994Y2974997D02*
D03*
X8724994Y5074996D02*
D03*
X6099995Y724998D02*
D03*
X6249995Y2524997D02*
D03*
X10449994Y424998D02*
D03*
X8424994Y3874997D02*
D03*
X8574994D02*
D03*
X7749994Y3724997D02*
D03*
X8649994Y1024997D02*
D03*
X7524994Y2974997D02*
D03*
X7749994Y424998D02*
D03*
X4524995Y2674997D02*
D03*
X6324995Y574998D02*
D03*
X8574994Y3574997D02*
D03*
X6324995Y2074997D02*
D03*
X9849994Y724998D02*
D03*
X10524993Y1774997D02*
D03*
X5199995Y424998D02*
D03*
X9174994Y874997D02*
D03*
X9624994Y274998D02*
D03*
X10374993Y1474997D02*
D03*
X10674993Y2074997D02*
D03*
X7674994Y6274996D02*
D03*
X8199994Y3424997D02*
D03*
X6549995Y1024997D02*
D03*
X9849994Y424998D02*
D03*
X5049995Y1324997D02*
D03*
X7899994Y1924997D02*
D03*
X5124995Y1174997D02*
D03*
X10749993Y3124997D02*
D03*
X9774994Y1774997D02*
D03*
X9624994Y1174997D02*
D03*
X5799995Y1024997D02*
D03*
X9399994Y3724997D02*
D03*
X10749993Y724998D02*
D03*
X9399994D02*
D03*
X10824993Y1174997D02*
D03*
X6174995Y1474997D02*
D03*
X8799994Y5824996D02*
D03*
X10824993Y2374997D02*
D03*
X10449994Y724998D02*
D03*
X5649995Y4324996D02*
D03*
X9099994Y1024997D02*
D03*
X5424995Y4174996D02*
D03*
X6174995Y574998D02*
D03*
X8649994Y724998D02*
D03*
X8949994Y4024997D02*
D03*
X10824993Y1474997D02*
D03*
X4899995Y1324997D02*
D03*
X4149996Y4924996D02*
D03*
X8274994Y3874997D02*
D03*
X5799995Y424998D02*
D03*
X10374993Y1174997D02*
D03*
X10674993Y1774997D02*
D03*
X6174995Y2074997D02*
D03*
X7149995Y5524996D02*
D03*
X9099994Y724998D02*
D03*
X4449995Y1024997D02*
D03*
X9924994Y574998D02*
D03*
X8799994Y4924996D02*
D03*
X5874995Y4174996D02*
D03*
X6024995Y1474997D02*
D03*
X4374995Y274998D02*
D03*
X5724995Y2974997D02*
D03*
X9699994Y1924997D02*
D03*
X4224995Y1174997D02*
D03*
X8724994Y5674996D02*
D03*
X7149995Y424998D02*
D03*
X6099995Y1324997D02*
D03*
X8574994Y1774997D02*
D03*
X7449994Y2224997D02*
D03*
X10749993Y3724997D02*
D03*
X8574994Y5974996D02*
D03*
X7149995Y5824996D02*
D03*
X8874994Y5074996D02*
D03*
X7899994Y6124996D02*
D03*
X7074994Y5374996D02*
D03*
X4224995Y4474996D02*
D03*
X5949995Y1024997D02*
D03*
X8724994Y274998D02*
D03*
X10674993Y3574997D02*
D03*
X7374994Y4474996D02*
D03*
X9699994Y3724997D02*
D03*
X7224994Y6274996D02*
D03*
X6024995Y3874997D02*
D03*
X4524995Y574998D02*
D03*
X5799995Y4324996D02*
D03*
X5874995Y2974997D02*
D03*
X10749993Y1624997D02*
D03*
X4674995Y274998D02*
D03*
X5949995Y4324996D02*
D03*
X10224994Y574998D02*
D03*
X4299995Y1324997D02*
D03*
X10674993Y2374997D02*
D03*
X8949994Y5224996D02*
D03*
X5649995Y1024997D02*
D03*
X4899995D02*
D03*
X4599995D02*
D03*
X5949995Y2524997D02*
D03*
X7899994Y4924996D02*
D03*
X4299995Y2224997D02*
D03*
X10824993Y3274997D02*
D03*
X8799994Y1024997D02*
D03*
X6474995Y874997D02*
D03*
X7974994Y2074997D02*
D03*
X8199994Y1924997D02*
D03*
X4449995Y2224997D02*
D03*
Y2824997D02*
D03*
X5574995Y274998D02*
D03*
X10674993Y1474997D02*
D03*
X8574994Y5674996D02*
D03*
X5120000Y2890000D02*
D03*
X5290000Y3190000D02*
D03*
X5170000Y3180000D02*
D03*
X5538783Y3249949D02*
D03*
X5210000Y4630000D02*
D03*
X5280000Y4460000D02*
D03*
X4970000Y3370000D02*
D03*
X6461053Y2620633D02*
D03*
X8445325Y2534675D02*
D03*
X6955000Y2140000D02*
D03*
X8470000Y2120000D02*
D03*
X7980000Y2630000D02*
D03*
X8250000Y2030000D02*
D03*
X6925000Y1820000D02*
D03*
X5430000Y2000000D02*
D03*
X5560000D02*
D03*
X7000000Y2600000D02*
D03*
X8230000Y2140000D02*
D03*
X5840000Y1740000D02*
D03*
X6818118Y1030000D02*
D03*
X7220000Y1430000D02*
D03*
X7010000Y1820000D02*
D03*
X5200000Y125000D02*
D03*
X5430000Y4883800D02*
D03*
X5630000Y4710000D02*
D03*
X5730000D02*
D03*
X5980000Y4900000D02*
D03*
X5979726Y4812487D02*
D03*
X4700000Y2300000D02*
D03*
X4390000Y3820000D02*
D03*
X4280000Y4210000D02*
D03*
X5100000Y4840000D02*
D03*
X4790000Y4910000D02*
D03*
X4640000D02*
D03*
X4552500Y3872500D02*
D03*
X4817500Y3877500D02*
D03*
X4977500Y3995000D02*
D03*
X4346148Y4449606D02*
D03*
X6030000Y3125000D02*
D03*
X4797500Y4375000D02*
D03*
X4855412Y4310000D02*
D03*
X4350000Y4602500D02*
D03*
X4961602Y4277499D02*
D03*
X4940000Y4355000D02*
D03*
X4937500Y4442500D02*
D03*
X4585000Y4440000D02*
D03*
X4855000D02*
D03*
X4455000D02*
D03*
X4725000D02*
D03*
X4802500Y4062500D02*
D03*
X4980000Y4086000D02*
D03*
X4883827D02*
D03*
X5300000Y4200000D02*
D03*
X4860000Y4670000D02*
D03*
Y4770000D02*
D03*
X5490000Y4630000D02*
D03*
X4580000Y3970000D02*
D03*
X4720000D02*
D03*
X4450000Y4088750D02*
D03*
X4880000Y3970000D02*
D03*
X4450000Y4330000D02*
D03*
X4451250Y4206250D02*
D03*
X4455000Y3967500D02*
D03*
X5390000Y4400000D02*
D03*
X7540000Y5696350D02*
D03*
X8840000Y3240000D02*
D03*
X4150000Y4530000D02*
D03*
X6350000Y4465000D02*
D03*
X6147359Y4772641D02*
D03*
X6295000Y4775000D02*
D03*
X6807500Y1117500D02*
D03*
X8180000Y5050000D02*
D03*
X8242637Y4992816D02*
D03*
X8207219Y5260000D02*
D03*
X8200000Y5340000D02*
D03*
X8090000Y5190000D02*
D03*
X8340000Y5590000D02*
D03*
X8043214Y5667023D02*
D03*
X8157161Y5662395D02*
D03*
X6588068Y3931932D02*
D03*
X8096257Y5593743D02*
D03*
X8212825Y5597175D02*
D03*
X6747500Y4712500D02*
D03*
X6820000Y4660000D02*
D03*
X8360000Y4990000D02*
D03*
X8420000Y5050000D02*
D03*
X8300000D02*
D03*
X8262499Y5130714D02*
D03*
X6980000Y4670000D02*
D03*
X5570000Y3700000D02*
D03*
X5201053Y3380633D02*
D03*
X5631053Y3020633D02*
D03*
X5391053Y3980632D02*
D03*
X5500000Y3760000D02*
D03*
Y3850000D02*
D03*
X8490000Y2020000D02*
D03*
X8270000Y2660000D02*
D03*
X4541053Y2760633D02*
D03*
X4381053D02*
D03*
X10460000Y2100000D02*
D03*
X4511053Y1930632D02*
D03*
X6601053Y1720633D02*
D03*
X5471053Y1370633D02*
D03*
X8060000Y920000D02*
D03*
X8200000Y1690000D02*
D03*
X8211053Y1550632D02*
D03*
X9670000Y2600000D02*
D03*
X8181053Y720633D02*
D03*
X6671053Y2530632D02*
D03*
X6571053Y1910632D02*
D03*
X6720000Y2140000D02*
D03*
X6881053Y1200632D02*
D03*
X7031053Y1070632D02*
D03*
X6990000Y960000D02*
D03*
X4990000Y2640000D02*
D03*
X4850000D02*
D03*
X4970000Y3270000D02*
D03*
X4850000Y2985000D02*
D03*
X5090000Y3380000D02*
D03*
X5430000Y3910000D02*
D03*
X5450000Y4090000D02*
D03*
X6060000Y3570000D02*
D03*
X6030000Y3790000D02*
D03*
X6430000Y3600000D02*
D03*
X8310000Y2890000D02*
D03*
X7610000Y2980000D02*
D03*
X7420000D02*
D03*
X7200000D02*
D03*
X6470000Y3120000D02*
D03*
X6280000D02*
D03*
X5960000Y2970000D02*
D03*
X8010000Y3440000D02*
D03*
X7160000Y4880000D02*
D03*
X6700000Y4160000D02*
D03*
X6840000Y4320000D02*
D03*
X8260000Y4060000D02*
D03*
X8140000Y4290000D02*
D03*
X8310000Y4360000D02*
D03*
X8430000Y4500000D02*
D03*
Y4660000D02*
D03*
Y4840000D02*
D03*
X6850000Y3910000D02*
D03*
X6920000Y4040000D02*
D03*
X7300000Y4430000D02*
D03*
X7560000Y4680000D02*
D03*
X7790000Y4920000D02*
D03*
X7980000Y5100000D02*
D03*
X4990000Y2820000D02*
D03*
X5130000Y2710000D02*
D03*
X7130000Y2660000D02*
D03*
Y2560000D02*
D03*
X8155000Y4413543D02*
D03*
X9690000Y2300000D02*
D03*
X8090000Y1610000D02*
D03*
X4840000Y2420000D02*
D03*
X7370000Y1130000D02*
D03*
X7610000Y2280000D02*
D03*
X8680000Y2020000D02*
D03*
X8690000Y1880000D02*
D03*
X7960000Y1035000D02*
D03*
X8030000Y2340000D02*
D03*
X5840000Y1990000D02*
D03*
X3975000Y5600000D02*
D03*
Y5450000D02*
D03*
Y5300000D02*
D03*
Y5150000D02*
D03*
X4086502Y5037265D02*
D03*
X3975000Y6350000D02*
D03*
Y6200000D02*
D03*
Y6050000D02*
D03*
Y5900000D02*
D03*
Y5750000D02*
D03*
X3250001Y6575000D02*
D03*
X3400001D02*
D03*
X3550001D02*
D03*
X3700001D02*
D03*
X3850001D02*
D03*
X3975000Y6500000D02*
D03*
X2650001Y6575000D02*
D03*
X2800000D02*
D03*
X2950000D02*
D03*
X3100001D02*
D03*
X1900000D02*
D03*
X2050000D02*
D03*
X2200000D02*
D03*
X2350000D02*
D03*
X2500001D02*
D03*
X1150000D02*
D03*
X1300000D02*
D03*
X1450000D02*
D03*
X1600000D02*
D03*
X1750000D02*
D03*
X250000D02*
D03*
X400000D02*
D03*
X550000D02*
D03*
X700000D02*
D03*
X850000D02*
D03*
X1000000D02*
D03*
X125000Y6425001D02*
D03*
Y6300001D02*
D03*
Y6150001D02*
D03*
Y6000000D02*
D03*
Y5850000D02*
D03*
Y5700001D02*
D03*
Y5550001D02*
D03*
Y5425001D02*
D03*
Y5300001D02*
D03*
Y5150001D02*
D03*
Y5000000D02*
D03*
Y4850000D02*
D03*
Y4725000D02*
D03*
Y4575001D02*
D03*
Y4425000D02*
D03*
Y4275000D02*
D03*
Y4125000D02*
D03*
Y3975000D02*
D03*
Y3850000D02*
D03*
Y3725000D02*
D03*
Y3575000D02*
D03*
Y3425000D02*
D03*
Y3275000D02*
D03*
Y3150000D02*
D03*
Y3000000D02*
D03*
Y2850000D02*
D03*
Y2700000D02*
D03*
Y2550000D02*
D03*
Y2400000D02*
D03*
Y2275000D02*
D03*
Y2150000D02*
D03*
Y2000000D02*
D03*
Y1850000D02*
D03*
Y1700000D02*
D03*
Y1575000D02*
D03*
Y1425000D02*
D03*
Y1275000D02*
D03*
Y1125000D02*
D03*
Y975000D02*
D03*
Y825000D02*
D03*
Y700000D02*
D03*
Y575000D02*
D03*
Y425000D02*
D03*
Y275000D02*
D03*
X6744546Y188008D02*
D03*
X6475000Y250000D02*
D03*
X6625000D02*
D03*
X6025000D02*
D03*
X5884947Y210496D02*
D03*
X699999Y125000D02*
D03*
X549999D02*
D03*
X399999D02*
D03*
X249999D02*
D03*
X1600000D02*
D03*
X1449999D02*
D03*
X1299999D02*
D03*
X1149999D02*
D03*
X999999D02*
D03*
X849999D02*
D03*
X2350000D02*
D03*
X2200000D02*
D03*
X2049999D02*
D03*
X1900000D02*
D03*
X1750000D02*
D03*
X3250000D02*
D03*
X3100000D02*
D03*
X2950000D02*
D03*
X2800000D02*
D03*
X2650000D02*
D03*
X2500000D02*
D03*
X4000000D02*
D03*
X3850000D02*
D03*
X3700000D02*
D03*
X3550000D02*
D03*
X3400000D02*
D03*
X5800000D02*
D03*
X5650000D02*
D03*
X5050000D02*
D03*
X7475000D02*
D03*
X7325000D02*
D03*
X7174999D02*
D03*
X8375000D02*
D03*
X8225000D02*
D03*
X8075000D02*
D03*
X7925000D02*
D03*
X7774999D02*
D03*
X7624999D02*
D03*
X9425000D02*
D03*
X10775000D02*
D03*
X10625000D02*
D03*
X10475000D02*
D03*
X10325000D02*
D03*
X10925000Y250000D02*
D03*
Y400000D02*
D03*
Y550000D02*
D03*
Y675000D02*
D03*
Y800000D02*
D03*
Y950000D02*
D03*
Y1100000D02*
D03*
Y1250000D02*
D03*
Y1400000D02*
D03*
Y1550000D02*
D03*
Y1675000D02*
D03*
Y1800000D02*
D03*
Y1950000D02*
D03*
Y2100000D02*
D03*
Y2250000D02*
D03*
Y2400000D02*
D03*
Y2550000D02*
D03*
Y2675000D02*
D03*
Y2800000D02*
D03*
Y2950000D02*
D03*
Y3100000D02*
D03*
Y3250000D02*
D03*
Y3400000D02*
D03*
Y3550000D02*
D03*
Y3675000D02*
D03*
Y3800000D02*
D03*
X10100000Y3875000D02*
D03*
X10250000D02*
D03*
X10400000D02*
D03*
X10550000D02*
D03*
X10700000D02*
D03*
X10850000D02*
D03*
X9050000D02*
D03*
X9200000D02*
D03*
X9350000D02*
D03*
X9500000D02*
D03*
X9650000D02*
D03*
X9800000D02*
D03*
X9950000D02*
D03*
X9050000Y4425000D02*
D03*
Y4275000D02*
D03*
Y4125000D02*
D03*
Y3975000D02*
D03*
Y4575000D02*
D03*
Y4725000D02*
D03*
Y4875000D02*
D03*
Y5025000D02*
D03*
Y5175000D02*
D03*
Y5325000D02*
D03*
Y5450000D02*
D03*
X8900000Y6575000D02*
D03*
X8750000D02*
D03*
X8600000D02*
D03*
X8450000D02*
D03*
X8300000D02*
D03*
X8150000D02*
D03*
X8000000D02*
D03*
X9050000D02*
D03*
Y6450000D02*
D03*
Y6325000D02*
D03*
Y6175000D02*
D03*
Y6025000D02*
D03*
Y5875000D02*
D03*
Y5725000D02*
D03*
Y5575000D02*
D03*
X6960000Y5120000D02*
D03*
X6870000Y5030000D02*
D03*
X6730000Y5000000D02*
D03*
X6580000D02*
D03*
X7940000Y2180000D02*
D03*
X7830000Y2130000D02*
D03*
X8260000Y1015000D02*
D03*
X8160000Y1010000D02*
D03*
X8580000Y560000D02*
D03*
X8310000Y1415000D02*
D03*
X8400000Y1320000D02*
D03*
X5340000Y3905740D02*
D03*
X5308898Y4024741D02*
D03*
X5620000Y3510000D02*
D03*
X9060000Y3520000D02*
D03*
X9180000Y3580000D02*
D03*
X6520000Y3990000D02*
D03*
X5480000Y5290000D02*
D03*
X5330000D02*
D03*
X5420000Y5220000D02*
D03*
X8990000Y3640000D02*
D03*
X6595000Y4875000D02*
D03*
X6590000Y4785000D02*
D03*
X6160000Y4905141D02*
D03*
X6740000Y4870000D02*
D03*
X4575000Y5000000D02*
D03*
X4425000D02*
D03*
X4275000D02*
D03*
X4875000D02*
D03*
X4725000D02*
D03*
X5830000D02*
D03*
X5980000D02*
D03*
X6130000D02*
D03*
X6280000D02*
D03*
X6430000D02*
D03*
X7000000Y5300000D02*
D03*
Y5450000D02*
D03*
Y5600000D02*
D03*
Y5750000D02*
D03*
Y5900000D02*
D03*
Y6050000D02*
D03*
Y6200000D02*
D03*
Y6325000D02*
D03*
Y6450000D02*
D03*
Y6575000D02*
D03*
X7850000D02*
D03*
X7700000D02*
D03*
X7550000D02*
D03*
X7400000D02*
D03*
X7250000D02*
D03*
X8280897Y5660000D02*
D03*
X9260000Y3270000D02*
D03*
X9920000Y2290000D02*
D03*
X6967463Y1446199D02*
D03*
X10120000Y3300000D02*
D03*
X9925000Y1610000D02*
D03*
Y1720000D02*
D03*
Y1900000D02*
D03*
X9080000Y2680000D02*
D03*
X9930000Y2710000D02*
D03*
X9925000Y2420000D02*
D03*
Y2170000D02*
D03*
X9930000Y2010000D02*
D03*
X4960000Y2400000D02*
D03*
Y2280000D02*
D03*
Y2170000D02*
D03*
X8132391Y6262391D02*
D03*
X7540000Y6160000D02*
D03*
X4253890Y2316109D02*
D03*
X5015448Y5366548D02*
D03*
X4850000Y2775000D02*
D03*
X6300000Y4905000D02*
D03*
X4470000Y2990000D02*
D03*
X10120000Y3770000D02*
D03*
X10110000Y3650000D02*
D03*
X5840000Y6200000D02*
D03*
X6190000Y2240000D02*
D03*
X4477500Y2525000D02*
D03*
X6280000Y2255000D02*
D03*
X6080000Y2205000D02*
D03*
X5960000D02*
D03*
X5840000D02*
D03*
X4940000Y6550001D02*
D03*
X5400000Y4765000D02*
D03*
X6390000Y6115000D02*
D03*
X4225000Y2811391D02*
D03*
X5380000Y3025000D02*
D03*
X6347574Y5847426D02*
D03*
X5840000Y2085000D02*
D03*
X5635049Y2483219D02*
D03*
X4304484Y1835516D02*
D03*
X9830000Y1155000D02*
D03*
X6805000Y1265000D02*
D03*
X6967463Y1342349D02*
D03*
X8130000Y3900000D02*
D03*
X7611591Y877754D02*
D03*
X10150000Y2510000D02*
D03*
X10530000Y2470000D02*
D03*
X10474675Y2534675D02*
D03*
X10470000Y2405000D02*
D03*
X10533315Y2353315D02*
D03*
X10470000Y2295000D02*
D03*
X10530719Y2239208D02*
D03*
X6950000Y3900000D02*
D03*
X7950000Y2960000D02*
D03*
X7870000D02*
D03*
X6562002Y3677239D02*
D03*
X6567530Y3595312D02*
D03*
X8380000Y560000D02*
D03*
X7620000Y705000D02*
D03*
X7540000Y5471930D02*
D03*
X6070000Y3670000D02*
D03*
X6140000Y3608750D02*
D03*
X6520000Y4080000D02*
D03*
Y3880000D02*
D03*
X6435866Y4103639D02*
D03*
X5460000Y3025000D02*
D03*
X5673895Y3575000D02*
D03*
X5562060Y3580000D02*
D03*
X5740000Y3510000D02*
D03*
X6710000Y3145000D02*
D03*
X6620000D02*
D03*
X6110000Y3125000D02*
D03*
X5510000Y3510000D02*
D03*
X5842500Y6280000D02*
D03*
X5960000Y3065400D02*
D03*
X4850000Y2895000D02*
D03*
X10180000Y1260000D02*
D03*
X5105226Y5370374D02*
D03*
X6445000Y4899260D02*
D03*
X4840000Y2535000D02*
D03*
X4391911Y1838089D02*
D03*
X6410000Y2395000D02*
D03*
X6490000D02*
D03*
Y2315000D02*
D03*
X5050000Y6550001D02*
D03*
X5320000Y4765000D02*
D03*
X6410000Y2315000D02*
D03*
X7140000Y555000D02*
D03*
X7728737Y730553D02*
D03*
X6392426Y6197426D02*
D03*
X4100000Y2730000D02*
D03*
X6760000Y1985000D02*
D03*
X5790000Y4405000D02*
D03*
X5690000D02*
D03*
X6350000Y5765000D02*
D03*
X5730000Y5845000D02*
D03*
X5900000D02*
D03*
X4107500Y2247500D02*
D03*
X9830000Y1245000D02*
D03*
X6606915Y1330480D02*
D03*
X7740000Y545000D02*
D03*
D90*
X7120000Y4020000D02*
D03*
Y4280000D02*
D03*
Y6570001D02*
D03*
Y6300000D02*
D03*
X7975000Y1245000D02*
D03*
X7370000Y1040000D02*
D03*
X7260000Y1050000D02*
D03*
X7890000Y1760000D02*
D03*
X7540000Y1830000D02*
D03*
X7542500Y2050000D02*
D03*
X8170000Y2460000D02*
D03*
X7680000Y1175000D02*
D03*
X3980000Y4637500D02*
D03*
X3990000Y4767500D02*
D03*
X6347500Y1867500D02*
D03*
X7410000Y910000D02*
D03*
X8443404Y3294290D02*
D03*
X8520000Y2924291D02*
D03*
X7500000Y5290000D02*
D03*
X9210000Y470000D02*
D03*
X9060000Y620000D02*
D03*
X9350000D02*
D03*
X9200000Y760000D02*
D03*
X6420000Y1310000D02*
D03*
X6330000D02*
D03*
X2380000Y6310000D02*
D03*
Y5960000D02*
D03*
X2200000Y6140000D02*
D03*
X2560000D02*
D03*
X6450000Y1415000D02*
D03*
X7960701Y919313D02*
D03*
X7540000Y950000D02*
D03*
X7810000Y915000D02*
D03*
X8640000Y2924291D02*
D03*
X7350000Y5290000D02*
D03*
X6570054Y2565000D02*
D03*
X8450000Y3430000D02*
D03*
%TF.MD5,04c4848e643b1b7e85fe030413f3b173*%
M02*
