%TF.GenerationSoftware,Altium Limited,Altium Designer,24.7.2 (38)*%
G04 Layer_Physical_Order=2*
G04 Layer_Color=6049555*
%FSLAX45Y45*%
%MOMM*%
%TF.SameCoordinates,33B871D1-E8D8-480E-9A2D-2420748CAAD8*%
%TF.FilePolarity,Positive*%
%TF.FileFunction,Copper,L2,Inr,Signal*%
%TF.Part,Single*%
G01*
G75*
%TA.AperFunction,Conductor*%
%ADD10C,0.30000*%
%ADD71C,0.40000*%
%TA.AperFunction,NonConductor*%
%ADD73C,0.20000*%
%TA.AperFunction,ComponentPad*%
%ADD74R,1.50000X1.50000*%
%ADD75C,1.50000*%
%ADD76O,0.80000X1.40000*%
%ADD77C,2.40000*%
%ADD78C,5.70000*%
%ADD79C,0.10000*%
%ADD80C,1.57000*%
%ADD81R,1.57000X1.57000*%
%ADD82C,1.01600*%
G04:AMPARAMS|DCode=83|XSize=1.016mm|YSize=1.016mm|CornerRadius=0.254mm|HoleSize=0mm|Usage=FLASHONLY|Rotation=0.000|XOffset=0mm|YOffset=0mm|HoleType=Round|Shape=RoundedRectangle|*
%AMROUNDEDRECTD83*
21,1,1.01600,0.50800,0,0,0.0*
21,1,0.50800,1.01600,0,0,0.0*
1,1,0.50800,0.25400,-0.25400*
1,1,0.50800,-0.25400,-0.25400*
1,1,0.50800,-0.25400,0.25400*
1,1,0.50800,0.25400,0.25400*
%
%ADD83ROUNDEDRECTD83*%
%ADD84C,1.69000*%
%ADD85R,1.69000X1.69000*%
%ADD86C,3.40000*%
G04:AMPARAMS|DCode=87|XSize=1.95mm|YSize=1.95mm|CornerRadius=0.4875mm|HoleSize=0mm|Usage=FLASHONLY|Rotation=0.000|XOffset=0mm|YOffset=0mm|HoleType=Round|Shape=RoundedRectangle|*
%AMROUNDEDRECTD87*
21,1,1.95000,0.97500,0,0,0.0*
21,1,0.97500,1.95000,0,0,0.0*
1,1,0.97500,0.48750,-0.48750*
1,1,0.97500,-0.48750,-0.48750*
1,1,0.97500,-0.48750,0.48750*
1,1,0.97500,0.48750,0.48750*
%
%ADD87ROUNDEDRECTD87*%
%ADD88C,1.95000*%
%TA.AperFunction,ViaPad*%
%ADD89C,0.50000*%
%ADD90C,0.60000*%
G36*
X9070000Y3890000D02*
X10949138D01*
Y127000D01*
Y124426D01*
X10948134Y119376D01*
X10946163Y114619D01*
X10943303Y110338D01*
X10939662Y106697D01*
X10935381Y103836D01*
X10930624Y101866D01*
X10925574Y100862D01*
X6774586D01*
X6770620Y108902D01*
X6758406Y127181D01*
X6751886Y134616D01*
X6745863Y142465D01*
X6730318Y158010D01*
X6722472Y164031D01*
X6715035Y170553D01*
X6696755Y182767D01*
X6687883Y187143D01*
X6679316Y192089D01*
X6659005Y200502D01*
X6649451Y203062D01*
X6640083Y206242D01*
X6618521Y210530D01*
X6611106Y211016D01*
X6603796Y212347D01*
X6592804Y212887D01*
X6590322Y212683D01*
X6587853Y213008D01*
X6012147D01*
X6009677Y212683D01*
X6007195Y212887D01*
X5996203Y212347D01*
X5988894Y211016D01*
X5981478Y210530D01*
X5959916Y206242D01*
X5950548Y203062D01*
X5940994Y200502D01*
X5920683Y192089D01*
X5912117Y187143D01*
X5903244Y182767D01*
X5884965Y170553D01*
X5877531Y164033D01*
X5869681Y158010D01*
X5854136Y142465D01*
X5848116Y134619D01*
X5841593Y127182D01*
X5829379Y108902D01*
X5825414Y100862D01*
X124426D01*
X119375Y101866D01*
X114619Y103836D01*
X110338Y106697D01*
X106697Y110338D01*
X103836Y114619D01*
X101866Y119375D01*
X100862Y124426D01*
Y127000D01*
Y6573000D01*
Y6575574D01*
X101866Y6580625D01*
X103836Y6585381D01*
X106697Y6589662D01*
X110338Y6593303D01*
X114619Y6596163D01*
X119376Y6598134D01*
X124426Y6599138D01*
X3975574D01*
X3980623Y6598134D01*
X3985381Y6596163D01*
X3989662Y6593303D01*
X3993303Y6589662D01*
X3996163Y6585381D01*
X3998134Y6580624D01*
X3999138Y6575574D01*
Y5252000D01*
X3999463Y5249533D01*
X3999260Y5247052D01*
X3999871Y5234604D01*
X4001202Y5227292D01*
X4001688Y5219875D01*
X4006545Y5195457D01*
X4009724Y5186090D01*
X4012284Y5176536D01*
X4021812Y5153535D01*
X4026758Y5144968D01*
X4031133Y5136096D01*
X4044964Y5115396D01*
X4051485Y5107961D01*
X4057508Y5100112D01*
X4075112Y5082508D01*
X4082960Y5076486D01*
X4090396Y5069964D01*
X4111096Y5056133D01*
X4119968Y5051758D01*
X4128535Y5046812D01*
X4151536Y5037285D01*
X4161091Y5034724D01*
X4170457Y5031545D01*
X4194875Y5026688D01*
X4202292Y5026202D01*
X4209604Y5024871D01*
X4222052Y5024260D01*
X4224533Y5024463D01*
X4227000Y5024139D01*
X4773000D01*
X4775467Y5024463D01*
X4777948Y5024260D01*
X4790396Y5024871D01*
X4791105Y5025000D01*
X6228895D01*
X6229604Y5024871D01*
X6242052Y5024260D01*
X6244533Y5024463D01*
X6247000Y5024139D01*
X6743000D01*
X6745467Y5024463D01*
X6747948Y5024260D01*
X6760396Y5024871D01*
X6767708Y5026202D01*
X6775125Y5026688D01*
X6799543Y5031545D01*
X6808910Y5034724D01*
X6818464Y5037285D01*
X6841465Y5046812D01*
X6850032Y5051758D01*
X6858903Y5056133D01*
X6879604Y5069964D01*
X6887039Y5076485D01*
X6894888Y5082508D01*
X6912492Y5100112D01*
X6918514Y5107960D01*
X6925035Y5115396D01*
X6938867Y5136096D01*
X6943242Y5144968D01*
X6948188Y5153535D01*
X6957715Y5176536D01*
X6960276Y5186091D01*
X6963455Y5195457D01*
X6968312Y5219875D01*
X6968798Y5227290D01*
X6970129Y5234602D01*
X6970740Y5247050D01*
X6970537Y5249532D01*
X6970862Y5252000D01*
Y6575574D01*
X6971866Y6580625D01*
X6973836Y6585381D01*
X6976697Y6589662D01*
X6980338Y6593303D01*
X6984618Y6596163D01*
X6989376Y6598134D01*
X6994426Y6599138D01*
X6997000D01*
X9069999Y6599139D01*
X9070000Y3890000D01*
D02*
G37*
%LPC*%
G36*
X7134507Y6531000D02*
X7132001D01*
Y6446001D01*
X7217000D01*
Y6448507D01*
X7210526Y6472669D01*
X7198019Y6494331D01*
X7180331Y6512019D01*
X7158668Y6524526D01*
X7134507Y6531000D01*
D02*
G37*
G36*
X7112001D02*
X7109493D01*
X7085332Y6524526D01*
X7063669Y6512019D01*
X7045981Y6494331D01*
X7033474Y6472669D01*
X7027000Y6448507D01*
Y6446001D01*
X7112001D01*
Y6531000D01*
D02*
G37*
G36*
X8995000D02*
X8805000D01*
Y6341000D01*
X8995000D01*
Y6531000D01*
D02*
G37*
G36*
X8658507D02*
X8633493D01*
X8609332Y6524526D01*
X8587669Y6512019D01*
X8569981Y6494331D01*
X8557474Y6472669D01*
X8551000Y6448507D01*
Y6423493D01*
X8557474Y6399332D01*
X8569981Y6377669D01*
X8587669Y6359981D01*
X8609332Y6347474D01*
X8633493Y6341000D01*
X8658507D01*
X8682668Y6347474D01*
X8704331Y6359981D01*
X8722019Y6377669D01*
X8734526Y6399332D01*
X8741000Y6423493D01*
Y6448507D01*
X8734526Y6472669D01*
X8722019Y6494331D01*
X8704331Y6512019D01*
X8682668Y6524526D01*
X8658507Y6531000D01*
D02*
G37*
G36*
X8404507D02*
X8379493D01*
X8355332Y6524526D01*
X8333669Y6512019D01*
X8315981Y6494331D01*
X8303474Y6472669D01*
X8297000Y6448507D01*
Y6423493D01*
X8303474Y6399332D01*
X8315981Y6377669D01*
X8333669Y6359981D01*
X8355332Y6347474D01*
X8379493Y6341000D01*
X8404507D01*
X8428668Y6347474D01*
X8450331Y6359981D01*
X8468019Y6377669D01*
X8480526Y6399332D01*
X8487000Y6423493D01*
Y6448507D01*
X8480526Y6472669D01*
X8468019Y6494331D01*
X8450331Y6512019D01*
X8428668Y6524526D01*
X8404507Y6531000D01*
D02*
G37*
G36*
X8150507D02*
X8125493D01*
X8101332Y6524526D01*
X8079669Y6512019D01*
X8061981Y6494331D01*
X8049474Y6472669D01*
X8043000Y6448507D01*
Y6423493D01*
X8049474Y6399332D01*
X8061981Y6377669D01*
X8079669Y6359981D01*
X8101332Y6347474D01*
X8125493Y6341000D01*
X8150507D01*
X8174668Y6347474D01*
X8196331Y6359981D01*
X8214019Y6377669D01*
X8226526Y6399332D01*
X8233000Y6423493D01*
Y6448507D01*
X8226526Y6472669D01*
X8214019Y6494331D01*
X8196331Y6512019D01*
X8174668Y6524526D01*
X8150507Y6531000D01*
D02*
G37*
G36*
X7896507D02*
X7871493D01*
X7847332Y6524526D01*
X7825669Y6512019D01*
X7807981Y6494331D01*
X7795474Y6472669D01*
X7789000Y6448507D01*
Y6423493D01*
X7795474Y6399332D01*
X7807981Y6377669D01*
X7825669Y6359981D01*
X7847332Y6347474D01*
X7871493Y6341000D01*
X7896507D01*
X7920668Y6347474D01*
X7942331Y6359981D01*
X7960019Y6377669D01*
X7972526Y6399332D01*
X7979000Y6423493D01*
Y6448507D01*
X7972526Y6472669D01*
X7960019Y6494331D01*
X7942331Y6512019D01*
X7920668Y6524526D01*
X7896507Y6531000D01*
D02*
G37*
G36*
X7642507D02*
X7617493D01*
X7593332Y6524526D01*
X7571669Y6512019D01*
X7553981Y6494331D01*
X7541474Y6472669D01*
X7535000Y6448507D01*
Y6423493D01*
X7541474Y6399332D01*
X7553981Y6377669D01*
X7571669Y6359981D01*
X7593332Y6347474D01*
X7617493Y6341000D01*
X7642507D01*
X7666668Y6347474D01*
X7688331Y6359981D01*
X7706019Y6377669D01*
X7718526Y6399332D01*
X7725000Y6423493D01*
Y6448507D01*
X7718526Y6472669D01*
X7706019Y6494331D01*
X7688331Y6512019D01*
X7666668Y6524526D01*
X7642507Y6531000D01*
D02*
G37*
G36*
X7388507D02*
X7363493D01*
X7339332Y6524526D01*
X7317669Y6512019D01*
X7299981Y6494331D01*
X7287474Y6472669D01*
X7281000Y6448507D01*
Y6423493D01*
X7287474Y6399332D01*
X7299981Y6377669D01*
X7317669Y6359981D01*
X7339332Y6347474D01*
X7363493Y6341000D01*
X7388507D01*
X7412668Y6347474D01*
X7434331Y6359981D01*
X7452019Y6377669D01*
X7464526Y6399332D01*
X7471000Y6423493D01*
Y6448507D01*
X7464526Y6472669D01*
X7452019Y6494331D01*
X7434331Y6512019D01*
X7412668Y6524526D01*
X7388507Y6531000D01*
D02*
G37*
G36*
X7217000Y6426001D02*
X7132001D01*
Y6341000D01*
X7134507D01*
X7158668Y6347474D01*
X7180331Y6359981D01*
X7198019Y6377669D01*
X7210526Y6399332D01*
X7217000Y6423493D01*
Y6426001D01*
D02*
G37*
G36*
X7112001D02*
X7027000D01*
Y6423493D01*
X7033474Y6399332D01*
X7045981Y6377669D01*
X7063669Y6359981D01*
X7085332Y6347474D01*
X7109493Y6341000D01*
X7112001D01*
Y6426001D01*
D02*
G37*
G36*
X367728Y6530000D02*
X332272D01*
X297496Y6523083D01*
X264738Y6509514D01*
X235257Y6489815D01*
X210185Y6464743D01*
X190486Y6435262D01*
X176917Y6402504D01*
X170000Y6367728D01*
Y6332272D01*
X176917Y6297496D01*
X190486Y6264738D01*
X210185Y6235257D01*
X235257Y6210185D01*
X264738Y6190486D01*
X297496Y6176917D01*
X332272Y6170000D01*
X367728D01*
X402504Y6176917D01*
X435262Y6190486D01*
X464743Y6210185D01*
X489815Y6235257D01*
X509514Y6264738D01*
X523083Y6297496D01*
X530000Y6332272D01*
Y6367728D01*
X523083Y6402504D01*
X509514Y6435262D01*
X489815Y6464743D01*
X464743Y6489815D01*
X435262Y6509514D01*
X402504Y6523083D01*
X367728Y6530000D01*
D02*
G37*
G36*
X2398431Y6275000D02*
X2390000D01*
Y6145001D01*
X2520000D01*
Y6153431D01*
X2510459Y6189038D01*
X2492028Y6220962D01*
X2465962Y6247028D01*
X2434038Y6265459D01*
X2398431Y6275000D01*
D02*
G37*
G36*
X2370000D02*
X2361569D01*
X2325962Y6265459D01*
X2294038Y6247028D01*
X2267972Y6220962D01*
X2249541Y6189038D01*
X2240000Y6153431D01*
Y6145001D01*
X2370000D01*
Y6275000D01*
D02*
G37*
G36*
X2520000Y6125001D02*
X2390000D01*
Y5995000D01*
X2398431D01*
X2434038Y6004541D01*
X2465962Y6022972D01*
X2492028Y6049038D01*
X2510459Y6080962D01*
X2520000Y6116569D01*
Y6125001D01*
D02*
G37*
G36*
X2370000D02*
X2240000D01*
Y6116569D01*
X2249541Y6080962D01*
X2267972Y6049038D01*
X2294038Y6022972D01*
X2325962Y6004541D01*
X2361569Y5995000D01*
X2370000D01*
Y6125001D01*
D02*
G37*
G36*
X8052165Y5712023D02*
X8034263D01*
X8017724Y5705172D01*
X8005065Y5692514D01*
X7998214Y5675974D01*
Y5658073D01*
X8005065Y5641533D01*
X8017724Y5628874D01*
X8034263Y5622024D01*
X8051257Y5602694D01*
Y5584792D01*
X8058108Y5568253D01*
X8070766Y5555594D01*
X8087306Y5548743D01*
X8105208D01*
X8121747Y5555594D01*
X8134406Y5568253D01*
X8136310Y5572849D01*
X8173592Y5574300D01*
X8174676Y5571684D01*
X8187335Y5559026D01*
X8203874Y5552175D01*
X8221776D01*
X8238316Y5559026D01*
X8250974Y5571684D01*
X8255966Y5583735D01*
X8262664Y5586582D01*
X8297815Y5574253D01*
X8301851Y5564510D01*
X8314510Y5551851D01*
X8331049Y5545000D01*
X8348951D01*
X8365491Y5551851D01*
X8378149Y5564510D01*
X8385000Y5581049D01*
Y5598951D01*
X8378149Y5615490D01*
X8365491Y5628149D01*
X8353472Y5633127D01*
X8345758Y5638141D01*
X8327785Y5655818D01*
X8325897Y5667865D01*
Y5668951D01*
X8319046Y5685491D01*
X8306387Y5698149D01*
X8289848Y5705000D01*
X8271946D01*
X8255406Y5698149D01*
X8242748Y5685491D01*
X8237756Y5673439D01*
X8236736Y5670976D01*
X8235691Y5668966D01*
X8202161Y5671346D01*
X8195311Y5687885D01*
X8182652Y5700544D01*
X8166112Y5707395D01*
X8148211D01*
X8131671Y5700544D01*
X8119013Y5687886D01*
X8082205Y5690483D01*
X8081363Y5692514D01*
X8068704Y5705172D01*
X8052165Y5712023D01*
D02*
G37*
G36*
X7548951Y5516930D02*
X7531049D01*
X7514509Y5510079D01*
X7501851Y5497421D01*
X7495000Y5480881D01*
Y5462979D01*
X7501851Y5446440D01*
X7514509Y5433781D01*
X7531049Y5426930D01*
X7548951D01*
X7565490Y5433781D01*
X7578149Y5446440D01*
X7585000Y5462979D01*
Y5480881D01*
X7578149Y5497421D01*
X7565490Y5510079D01*
X7548951Y5516930D01*
D02*
G37*
G36*
X7359946Y5340000D02*
X7340054D01*
X7321677Y5332388D01*
X7307612Y5318323D01*
X7300000Y5299946D01*
Y5280054D01*
X7307612Y5261677D01*
X7321677Y5247612D01*
X7340054Y5240000D01*
X7359946D01*
X7378323Y5247612D01*
X7392388Y5261677D01*
X7400000Y5280054D01*
Y5299946D01*
X7392388Y5318323D01*
X7378323Y5332388D01*
X7359946Y5340000D01*
D02*
G37*
G36*
X8216169Y5305000D02*
X8198268D01*
X8181728Y5298149D01*
X8169070Y5285490D01*
X8162219Y5268951D01*
Y5251049D01*
X8169070Y5234509D01*
X8181728Y5221851D01*
X8198268Y5215000D01*
X8216169D01*
X8232709Y5221851D01*
X8245368Y5234509D01*
X8252218Y5251049D01*
Y5268951D01*
X8245368Y5285490D01*
X8232709Y5298149D01*
X8216169Y5305000D01*
D02*
G37*
G36*
X8098951Y5235000D02*
X8081049D01*
X8064510Y5228149D01*
X8051851Y5215490D01*
X8045000Y5198951D01*
Y5181049D01*
X8051851Y5164510D01*
X8064510Y5151851D01*
X8081049Y5145000D01*
X8098951D01*
X8115490Y5151851D01*
X8128149Y5164510D01*
X8135000Y5181049D01*
Y5198951D01*
X8128149Y5215490D01*
X8115490Y5228149D01*
X8098951Y5235000D01*
D02*
G37*
G36*
X8308951Y5095000D02*
X8291049D01*
X8274509Y5088149D01*
X8261851Y5075490D01*
X8257500Y5064986D01*
X8255363Y5064590D01*
X8224637D01*
X8222500Y5064986D01*
X8218149Y5075490D01*
X8205490Y5088149D01*
X8188951Y5095000D01*
X8171049D01*
X8154509Y5088149D01*
X8141851Y5075490D01*
X8135000Y5058951D01*
Y5041049D01*
X8141851Y5024510D01*
X8154509Y5011851D01*
X8171049Y5005000D01*
X8189892Y5002709D01*
X8197637Y4983865D01*
X8204488Y4967326D01*
X8217146Y4954667D01*
X8233686Y4947816D01*
X8251588D01*
X8268127Y4954667D01*
X8280786Y4967326D01*
X8282664Y4971861D01*
X8319677Y4969758D01*
X8321851Y4964510D01*
X8334510Y4951851D01*
X8351049Y4945000D01*
X8368951D01*
X8385490Y4951851D01*
X8398149Y4964510D01*
X8405000Y4981049D01*
Y4998951D01*
X8398149Y5015490D01*
X8385490Y5028149D01*
X8368951Y5035000D01*
X8349829Y5039829D01*
X8345000Y5058951D01*
X8338149Y5075490D01*
X8325490Y5088149D01*
X8308951Y5095000D01*
D02*
G37*
G36*
X6453951Y4944260D02*
X6436049D01*
X6419509Y4937409D01*
X6406851Y4924750D01*
X6400000Y4908211D01*
Y4890309D01*
X6406851Y4873770D01*
X6419509Y4861111D01*
X6436049Y4854260D01*
X6453951D01*
X6470490Y4861111D01*
X6483149Y4873770D01*
X6490000Y4890309D01*
Y4908211D01*
X6483149Y4924750D01*
X6470490Y4937409D01*
X6453951Y4944260D01*
D02*
G37*
G36*
X5988951Y4945000D02*
X5971049D01*
X5954510Y4938149D01*
X5941851Y4925491D01*
X5935000Y4908951D01*
Y4891049D01*
X5941851Y4874510D01*
X5951398Y4856107D01*
X5941577Y4837977D01*
X5934726Y4821438D01*
Y4803536D01*
X5941577Y4786996D01*
X5954236Y4774338D01*
X5970775Y4767487D01*
X5988677D01*
X6005217Y4774338D01*
X6017875Y4786996D01*
X6024726Y4803536D01*
Y4821438D01*
X6017875Y4837977D01*
X6008329Y4856380D01*
X6018149Y4874510D01*
X6025000Y4891049D01*
Y4908951D01*
X6018149Y4925491D01*
X6005490Y4938149D01*
X5988951Y4945000D01*
D02*
G37*
G36*
X6598951Y4830000D02*
X6581049D01*
X6564510Y4823149D01*
X6551851Y4810491D01*
X6545000Y4793951D01*
Y4776049D01*
X6551851Y4759510D01*
X6564510Y4746851D01*
X6581049Y4740000D01*
X6598951D01*
X6615490Y4746851D01*
X6628149Y4759510D01*
X6635000Y4776049D01*
Y4793951D01*
X6628149Y4810491D01*
X6615490Y4823149D01*
X6598951Y4830000D01*
D02*
G37*
G36*
X5738951Y4755000D02*
X5721049D01*
X5704510Y4748149D01*
X5701879Y4745518D01*
X5680000Y4739014D01*
X5658121Y4745518D01*
X5655490Y4748149D01*
X5638951Y4755000D01*
X5621049D01*
X5604509Y4748149D01*
X5591851Y4735490D01*
X5585000Y4718951D01*
Y4701049D01*
X5591851Y4684510D01*
X5604509Y4671851D01*
X5621049Y4665000D01*
X5638951D01*
X5655490Y4671851D01*
X5658121Y4674482D01*
X5680000Y4680986D01*
X5701879Y4674482D01*
X5704510Y4671851D01*
X5721049Y4665000D01*
X5738951D01*
X5755490Y4671851D01*
X5768149Y4684510D01*
X5775000Y4701049D01*
Y4718951D01*
X5768149Y4735490D01*
X5755490Y4748149D01*
X5738951Y4755000D01*
D02*
G37*
G36*
X6303951Y4820000D02*
X6286049D01*
X6269510Y4813149D01*
X6256851Y4800491D01*
X6250000Y4783951D01*
Y4766049D01*
X6256851Y4749510D01*
X6269510Y4736851D01*
X6286049Y4730000D01*
X6303951D01*
X6320491Y4736851D01*
X6333149Y4749510D01*
X6340000Y4766049D01*
Y4783951D01*
X6333149Y4800491D01*
X6320491Y4813149D01*
X6303951Y4820000D01*
D02*
G37*
G36*
X6156310Y4817641D02*
X6138408D01*
X6121869Y4810790D01*
X6109210Y4798131D01*
X6102359Y4781592D01*
Y4763690D01*
X6109210Y4747150D01*
X6121869Y4734492D01*
X6138408Y4727641D01*
X6156310D01*
X6172850Y4734492D01*
X6185508Y4747150D01*
X6192359Y4763690D01*
Y4781592D01*
X6185508Y4798131D01*
X6172850Y4810790D01*
X6156310Y4817641D01*
D02*
G37*
G36*
X4868951Y4815000D02*
X4851049D01*
X4834510Y4808149D01*
X4821851Y4795491D01*
X4815000Y4778951D01*
Y4761049D01*
X4821851Y4744510D01*
X4834510Y4731851D01*
X4851049Y4725000D01*
X4868951D01*
X4885490Y4731851D01*
X4898149Y4744510D01*
X4905000Y4761049D01*
Y4778951D01*
X4898149Y4795491D01*
X4885490Y4808149D01*
X4868951Y4815000D01*
D02*
G37*
G36*
X5328951Y4810000D02*
X5311049D01*
X5294509Y4803149D01*
X5281851Y4790491D01*
X5275000Y4773951D01*
Y4756049D01*
X5281851Y4739510D01*
X5294509Y4726851D01*
X5311049Y4720000D01*
X5328951D01*
X5345490Y4726851D01*
X5358149Y4739510D01*
X5365000Y4756049D01*
Y4773951D01*
X5358149Y4790491D01*
X5345490Y4803149D01*
X5328951Y4810000D01*
D02*
G37*
G36*
X3999946Y4817500D02*
X3980055D01*
X3961677Y4809888D01*
X3947612Y4795823D01*
X3940000Y4777446D01*
Y4757555D01*
X3947612Y4739177D01*
X3961677Y4725112D01*
X3980055Y4717500D01*
X3999946D01*
X4018323Y4725112D01*
X4032388Y4739177D01*
X4040000Y4757555D01*
Y4777446D01*
X4032388Y4795823D01*
X4018323Y4809888D01*
X3999946Y4817500D01*
D02*
G37*
G36*
X2404004Y5250000D02*
X2355996D01*
X2308579Y5242490D01*
X2262921Y5227655D01*
X2220145Y5205859D01*
X2181306Y5177641D01*
X2147359Y5143694D01*
X2119141Y5104855D01*
X2097345Y5062079D01*
X2082510Y5016421D01*
X2075000Y4969004D01*
Y4920996D01*
X2082510Y4873579D01*
X2097345Y4827921D01*
X2119141Y4785145D01*
X2147359Y4746306D01*
X2181306Y4712359D01*
X2220145Y4684141D01*
X2262921Y4662346D01*
X2308579Y4647510D01*
X2355996Y4640000D01*
X2404004D01*
X2451421Y4647510D01*
X2497079Y4662346D01*
X2539855Y4684141D01*
X2578694Y4712359D01*
X2612641Y4746306D01*
X2640859Y4785145D01*
X2662654Y4827921D01*
X2677490Y4873579D01*
X2685000Y4920996D01*
Y4969004D01*
X2677490Y5016421D01*
X2662654Y5062079D01*
X2640859Y5104855D01*
X2612641Y5143694D01*
X2578694Y5177641D01*
X2539855Y5205859D01*
X2497079Y5227655D01*
X2451421Y5242490D01*
X2404004Y5250000D01*
D02*
G37*
G36*
X6756451Y4757500D02*
X6738549D01*
X6722010Y4750649D01*
X6709351Y4737991D01*
X6702500Y4721451D01*
Y4703549D01*
X6709351Y4687010D01*
X6722010Y4674351D01*
X6738549Y4667500D01*
X6756451D01*
X6775000Y4651049D01*
X6781851Y4634510D01*
X6794510Y4621851D01*
X6811049Y4615000D01*
X6828951D01*
X6845490Y4621851D01*
X6858149Y4634510D01*
X6865000Y4651049D01*
Y4668951D01*
X6858149Y4685491D01*
X6845490Y4698149D01*
X6828951Y4705000D01*
X6811049D01*
X6792500Y4721451D01*
X6785649Y4737991D01*
X6772991Y4750649D01*
X6756451Y4757500D01*
D02*
G37*
G36*
X5498951Y4675000D02*
X5481049D01*
X5464510Y4668149D01*
X5451851Y4655490D01*
X5445000Y4638951D01*
Y4621049D01*
X5451851Y4604509D01*
X5464510Y4591851D01*
X5481049Y4585000D01*
X5498951D01*
X5515490Y4591851D01*
X5528149Y4604509D01*
X5535000Y4621049D01*
Y4638951D01*
X5528149Y4655490D01*
X5515490Y4668149D01*
X5498951Y4675000D01*
D02*
G37*
G36*
X5218951D02*
X5201049D01*
X5184510Y4668149D01*
X5171851Y4655490D01*
X5165000Y4638951D01*
Y4621049D01*
X5171851Y4604509D01*
X5184510Y4591851D01*
X5201049Y4585000D01*
X5218951D01*
X5241851Y4559509D01*
X5254510Y4546851D01*
X5271049Y4540000D01*
X5288951D01*
X5305491Y4546851D01*
X5318149Y4559510D01*
X5325000Y4576049D01*
Y4593951D01*
X5318149Y4610490D01*
X5305491Y4623149D01*
X5288951Y4630000D01*
X5271049D01*
X5248149Y4655491D01*
X5235490Y4668149D01*
X5218951Y4675000D01*
D02*
G37*
G36*
X4158951Y4575000D02*
X4141049D01*
X4124510Y4568149D01*
X4111851Y4555491D01*
X4105000Y4538951D01*
Y4521049D01*
X4111851Y4504510D01*
X4124510Y4491851D01*
X4141049Y4485000D01*
X4158951D01*
X4175491Y4491851D01*
X4188149Y4504510D01*
X4195000Y4521049D01*
Y4538951D01*
X4188149Y4555491D01*
X4175491Y4568149D01*
X4158951Y4575000D01*
D02*
G37*
G36*
X5798951Y4450000D02*
X5781049D01*
X5764509Y4443149D01*
X5761879Y4440518D01*
X5740000Y4434014D01*
X5718121Y4440518D01*
X5715490Y4443149D01*
X5698951Y4450000D01*
X5681049D01*
X5664509Y4443149D01*
X5651851Y4430491D01*
X5645000Y4413951D01*
Y4396049D01*
X5651851Y4379510D01*
X5664509Y4366851D01*
X5681049Y4360000D01*
X5698951D01*
X5715490Y4366851D01*
X5718121Y4369482D01*
X5740000Y4375986D01*
X5761879Y4369482D01*
X5764509Y4366851D01*
X5781049Y4360000D01*
X5798951D01*
X5815490Y4366851D01*
X5828149Y4379510D01*
X5835000Y4396049D01*
Y4413951D01*
X5828149Y4430491D01*
X5815490Y4443149D01*
X5798951Y4450000D01*
D02*
G37*
G36*
X4202968Y4425500D02*
X4200000D01*
Y4337000D01*
X4288500D01*
Y4339968D01*
X4281787Y4365019D01*
X4268820Y4387480D01*
X4250480Y4405819D01*
X4228019Y4418787D01*
X4202968Y4425500D01*
D02*
G37*
G36*
X4180000D02*
X4177032D01*
X4151981Y4418787D01*
X4129520Y4405819D01*
X4111180Y4387480D01*
X4098213Y4365019D01*
X4091500Y4339968D01*
Y4337000D01*
X4180000D01*
Y4425500D01*
D02*
G37*
G36*
X6548951Y4375000D02*
X6531049D01*
X6514509Y4368149D01*
X6501851Y4355490D01*
X6495000Y4338951D01*
Y4321049D01*
X6501851Y4304510D01*
X6514509Y4291851D01*
X6531049Y4285000D01*
X6548951D01*
X6565490Y4291851D01*
X6578149Y4304510D01*
X6585000Y4321049D01*
Y4338951D01*
X6578149Y4355490D01*
X6565490Y4368149D01*
X6548951Y4375000D01*
D02*
G37*
G36*
X4288500Y4317000D02*
X4200000D01*
Y4228500D01*
X4202968D01*
X4228019Y4235213D01*
X4250480Y4248180D01*
X4268820Y4266520D01*
X4281787Y4288980D01*
X4288500Y4314032D01*
Y4317000D01*
D02*
G37*
G36*
X4180000D02*
X4091500D01*
Y4314032D01*
X4098213Y4288980D01*
X4111180Y4266520D01*
X4129520Y4248180D01*
X4151981Y4235213D01*
X4177032Y4228500D01*
X4180000D01*
Y4317000D01*
D02*
G37*
G36*
X7134507Y4245000D02*
X7132001D01*
Y4160001D01*
X7217000D01*
Y4162507D01*
X7210526Y4186669D01*
X7198019Y4208331D01*
X7180331Y4226019D01*
X7158668Y4238526D01*
X7134507Y4245000D01*
D02*
G37*
G36*
X7112001D02*
X7109493D01*
X7085332Y4238526D01*
X7063669Y4226019D01*
X7045981Y4208331D01*
X7033474Y4186669D01*
X7027000Y4162507D01*
Y4160001D01*
X7112001D01*
Y4245000D01*
D02*
G37*
G36*
X4412499Y4480012D02*
Y4399134D01*
Y3995935D01*
X4412500Y3957185D01*
X4412499Y3940054D01*
X4412500Y3925000D01*
X4412499Y3925000D01*
X4412500Y3925000D01*
X4472267D01*
X4862214D01*
X4902496Y3924999D01*
X4927500Y3950002D01*
X4927500Y4042499D01*
X5024999Y4042499D01*
X5025000Y4042499D01*
X5025000Y4042500D01*
X5025001Y4094999D01*
X5070000Y4139999D01*
X5188215D01*
X5207500Y4139999D01*
X5260000Y4192498D01*
X5260000Y4208052D01*
X5275001Y4237500D01*
X5299748Y4262248D01*
X5425534Y4388034D01*
Y4412517D01*
X5405151Y4432900D01*
X5372900D01*
X5237500Y4297500D01*
X5228251Y4288251D01*
X5222500Y4282501D01*
X5050455Y4282500D01*
X5025001Y4282501D01*
X5002781Y4304720D01*
X4987490Y4320109D01*
X4986518Y4330228D01*
X4985000Y4346049D01*
Y4363951D01*
X4978149Y4380490D01*
X4965490Y4393149D01*
X4948951Y4400000D01*
X4931049D01*
X4930000Y4399565D01*
X4910000Y4410882D01*
X4895859Y4418883D01*
X4895000Y4420068D01*
Y4480000D01*
X4869564D01*
X4846886D01*
X4512914D01*
X4468591Y4480001D01*
X4434179Y4480011D01*
X4412499Y4480012D01*
D02*
G37*
G36*
X8995000Y4245000D02*
X8805000D01*
Y4055000D01*
X8995000D01*
Y4245000D01*
D02*
G37*
G36*
X8658507D02*
X8633493D01*
X8609332Y4238526D01*
X8587669Y4226019D01*
X8569981Y4208331D01*
X8557474Y4186669D01*
X8551000Y4162507D01*
Y4137493D01*
X8557474Y4113332D01*
X8569981Y4091669D01*
X8587669Y4073981D01*
X8609332Y4061474D01*
X8633493Y4055000D01*
X8658507D01*
X8682668Y4061474D01*
X8704331Y4073981D01*
X8722019Y4091669D01*
X8734526Y4113332D01*
X8741000Y4137493D01*
Y4162507D01*
X8734526Y4186669D01*
X8722019Y4208331D01*
X8704331Y4226019D01*
X8682668Y4238526D01*
X8658507Y4245000D01*
D02*
G37*
G36*
X8404507D02*
X8379493D01*
X8355332Y4238526D01*
X8333669Y4226019D01*
X8315981Y4208331D01*
X8303474Y4186669D01*
X8297000Y4162507D01*
Y4137493D01*
X8303474Y4113332D01*
X8315981Y4091669D01*
X8333669Y4073981D01*
X8355332Y4061474D01*
X8379493Y4055000D01*
X8404507D01*
X8428668Y4061474D01*
X8450331Y4073981D01*
X8468019Y4091669D01*
X8480526Y4113332D01*
X8487000Y4137493D01*
Y4162507D01*
X8480526Y4186669D01*
X8468019Y4208331D01*
X8450331Y4226019D01*
X8428668Y4238526D01*
X8404507Y4245000D01*
D02*
G37*
G36*
X8150507D02*
X8125493D01*
X8101332Y4238526D01*
X8079669Y4226019D01*
X8061981Y4208331D01*
X8049474Y4186669D01*
X8043000Y4162507D01*
Y4137493D01*
X8049474Y4113332D01*
X8061981Y4091669D01*
X8079669Y4073981D01*
X8101332Y4061474D01*
X8125493Y4055000D01*
X8150507D01*
X8174668Y4061474D01*
X8196331Y4073981D01*
X8214019Y4091669D01*
X8226526Y4113332D01*
X8233000Y4137493D01*
Y4162507D01*
X8226526Y4186669D01*
X8214019Y4208331D01*
X8196331Y4226019D01*
X8174668Y4238526D01*
X8150507Y4245000D01*
D02*
G37*
G36*
X7896507D02*
X7871493D01*
X7847332Y4238526D01*
X7825669Y4226019D01*
X7807981Y4208331D01*
X7795474Y4186669D01*
X7789000Y4162507D01*
Y4137493D01*
X7795474Y4113332D01*
X7807981Y4091669D01*
X7825669Y4073981D01*
X7847332Y4061474D01*
X7871493Y4055000D01*
X7896507D01*
X7920668Y4061474D01*
X7942331Y4073981D01*
X7960019Y4091669D01*
X7972526Y4113332D01*
X7979000Y4137493D01*
Y4162507D01*
X7972526Y4186669D01*
X7960019Y4208331D01*
X7942331Y4226019D01*
X7920668Y4238526D01*
X7896507Y4245000D01*
D02*
G37*
G36*
X7642507D02*
X7617493D01*
X7593332Y4238526D01*
X7571669Y4226019D01*
X7553981Y4208331D01*
X7541474Y4186669D01*
X7535000Y4162507D01*
Y4137493D01*
X7541474Y4113332D01*
X7553981Y4091669D01*
X7571669Y4073981D01*
X7593332Y4061474D01*
X7617493Y4055000D01*
X7642507D01*
X7666668Y4061474D01*
X7688331Y4073981D01*
X7706019Y4091669D01*
X7718526Y4113332D01*
X7725000Y4137493D01*
Y4162507D01*
X7718526Y4186669D01*
X7706019Y4208331D01*
X7688331Y4226019D01*
X7666668Y4238526D01*
X7642507Y4245000D01*
D02*
G37*
G36*
X7388507D02*
X7363493D01*
X7339332Y4238526D01*
X7317669Y4226019D01*
X7299981Y4208331D01*
X7287474Y4186669D01*
X7281000Y4162507D01*
Y4137493D01*
X7287474Y4113332D01*
X7299981Y4091669D01*
X7317669Y4073981D01*
X7339332Y4061474D01*
X7363493Y4055000D01*
X7388507D01*
X7412668Y4061474D01*
X7434331Y4073981D01*
X7452019Y4091669D01*
X7464526Y4113332D01*
X7471000Y4137493D01*
Y4162507D01*
X7464526Y4186669D01*
X7452019Y4208331D01*
X7434331Y4226019D01*
X7412668Y4238526D01*
X7388507Y4245000D01*
D02*
G37*
G36*
X7217000Y4140001D02*
X7132001D01*
Y4055000D01*
X7134507D01*
X7158668Y4061474D01*
X7180331Y4073981D01*
X7198019Y4091669D01*
X7210526Y4113332D01*
X7217000Y4137493D01*
Y4140001D01*
D02*
G37*
G36*
X7112001D02*
X7027000D01*
Y4137493D01*
X7033474Y4113332D01*
X7045981Y4091669D01*
X7063669Y4073981D01*
X7085332Y4061474D01*
X7109493Y4055000D01*
X7112001D01*
Y4140001D01*
D02*
G37*
G36*
X5458951Y4135000D02*
X5441049D01*
X5424510Y4128149D01*
X5411851Y4115490D01*
X5405000Y4098951D01*
Y4081049D01*
X5411851Y4064510D01*
X5424510Y4051851D01*
X5441049Y4045000D01*
X5458951D01*
X5475490Y4051851D01*
X5488149Y4064510D01*
X5495000Y4081049D01*
Y4098951D01*
X5488149Y4115490D01*
X5475490Y4128149D01*
X5458951Y4135000D01*
D02*
G37*
G36*
X4288500Y4171500D02*
X4091500D01*
Y3974500D01*
X4288500D01*
Y4171500D01*
D02*
G37*
G36*
X5317849Y4069741D02*
X5299947D01*
X5283408Y4062890D01*
X5270749Y4050231D01*
X5263899Y4033692D01*
Y4015790D01*
X5270749Y3999250D01*
X5283408Y3986592D01*
X5299947Y3979741D01*
X5309603Y3979740D01*
X5316289Y3946131D01*
X5314509Y3943889D01*
X5308799Y3938178D01*
X5301851Y3931231D01*
X5295000Y3914691D01*
Y3896789D01*
X5301851Y3880250D01*
X5314510Y3867591D01*
X5331049Y3860740D01*
X5348951D01*
X5365490Y3867591D01*
X5378149Y3880250D01*
X5385000Y3896789D01*
Y3914691D01*
X5378149Y3931231D01*
X5365490Y3943889D01*
X5348951Y3950740D01*
X5339295Y3950741D01*
X5332610Y3984350D01*
X5334389Y3986591D01*
X5340100Y3992303D01*
X5347047Y3999250D01*
X5353898Y4015790D01*
Y4033692D01*
X5347047Y4050231D01*
X5334389Y4062890D01*
X5317849Y4069741D01*
D02*
G37*
G36*
X8138951Y3945000D02*
X8121049D01*
X8104510Y3938149D01*
X8091851Y3925490D01*
X8085000Y3908951D01*
Y3891049D01*
X8091851Y3874510D01*
X8104510Y3861851D01*
X8121049Y3855000D01*
X8138951D01*
X8155490Y3861851D01*
X8168149Y3874510D01*
X8175000Y3891049D01*
Y3908951D01*
X8168149Y3925490D01*
X8155490Y3938149D01*
X8138951Y3945000D01*
D02*
G37*
G36*
X6958951D02*
X6941049D01*
X6924510Y3938149D01*
X6911851Y3925490D01*
X6905000Y3908951D01*
Y3891049D01*
X6911851Y3874510D01*
X6924510Y3861851D01*
X6941049Y3855000D01*
X6958951D01*
X6975490Y3861851D01*
X6988149Y3874510D01*
X6995000Y3891049D01*
Y3908951D01*
X6988149Y3925490D01*
X6975490Y3938149D01*
X6958951Y3945000D01*
D02*
G37*
G36*
X6444817Y4148639D02*
X6426915D01*
X6410376Y4141788D01*
X6397717Y4129130D01*
X6390866Y4112590D01*
Y4094688D01*
X6397717Y4078149D01*
X6410376Y4065490D01*
X6426915Y4058639D01*
X6444817D01*
X6445093Y4058754D01*
X6450137Y4060827D01*
X6484306Y4042628D01*
X6485883Y4035000D01*
X6481851Y4015490D01*
X6479885Y4010745D01*
X6475000Y3998951D01*
Y3981049D01*
X6481851Y3964509D01*
X6491553Y3954808D01*
X6493150Y3935000D01*
X6491553Y3915192D01*
X6481851Y3905490D01*
X6475000Y3888951D01*
Y3871049D01*
X6481851Y3854509D01*
X6494509Y3841851D01*
X6511049Y3835000D01*
X6528951D01*
X6545490Y3841851D01*
X6558149Y3854509D01*
X6565000Y3871048D01*
X6579117Y3886933D01*
X6597019D01*
X6613558Y3893783D01*
X6626217Y3906442D01*
X6633068Y3922981D01*
Y3940883D01*
X6626217Y3957423D01*
X6613558Y3970081D01*
X6597019Y3976932D01*
X6577509Y3979441D01*
X6565000Y3998951D01*
X6560114Y4010745D01*
X6558149Y4015490D01*
X6554117Y4035000D01*
X6558149Y4054510D01*
X6560114Y4059255D01*
X6565000Y4071049D01*
Y4088951D01*
X6558149Y4105490D01*
X6545490Y4118149D01*
X6528951Y4125000D01*
X6511049D01*
X6510773Y4124886D01*
X6494456Y4118178D01*
X6474015Y4129130D01*
X6461356Y4141788D01*
X6444817Y4148639D01*
D02*
G37*
G36*
X5508951Y3895000D02*
X5491049D01*
X5474509Y3888149D01*
X5461851Y3875490D01*
X5455000Y3858951D01*
Y3841049D01*
X5461851Y3824510D01*
X5471219Y3805000D01*
X5461851Y3785491D01*
X5455000Y3768951D01*
Y3751049D01*
X5461851Y3734510D01*
X5474509Y3721851D01*
X5491049Y3715000D01*
X5508951D01*
X5525490Y3721851D01*
X5538149Y3734510D01*
X5545000Y3751049D01*
Y3768951D01*
X5538149Y3785490D01*
X5528780Y3805000D01*
X5538149Y3824509D01*
X5545000Y3841049D01*
Y3858951D01*
X5538149Y3875490D01*
X5525490Y3888149D01*
X5508951Y3895000D01*
D02*
G37*
G36*
X7913321Y3632800D02*
X7894679D01*
X7876672Y3627975D01*
X7864975Y3621222D01*
X7840500Y3608915D01*
X7816024Y3621222D01*
X7804328Y3627975D01*
X7786321Y3632800D01*
X7767679D01*
X7749672Y3627975D01*
X7737975Y3621222D01*
X7713500Y3608915D01*
X7689024Y3621222D01*
X7677328Y3627975D01*
X7659321Y3632800D01*
X7640679D01*
X7622672Y3627975D01*
X7610975Y3621222D01*
X7586500Y3608915D01*
X7562024Y3621222D01*
X7550328Y3627975D01*
X7532321Y3632800D01*
X7513679D01*
X7495672Y3627975D01*
X7483975Y3621222D01*
X7459500Y3608915D01*
X7435025Y3621222D01*
X7423328Y3627975D01*
X7405321Y3632800D01*
X7386679D01*
X7368672Y3627975D01*
X7352528Y3618654D01*
X7339346Y3605472D01*
X7330025Y3589328D01*
X7325200Y3571321D01*
Y3552679D01*
X7330025Y3534672D01*
X7339346Y3518528D01*
X7337868Y3493132D01*
X7327834Y3478114D01*
X7324310Y3460400D01*
Y3409600D01*
X7327834Y3391886D01*
X7337868Y3376868D01*
X7352886Y3366834D01*
X7370600Y3363311D01*
X7421400D01*
X7439114Y3366834D01*
X7454132Y3376868D01*
X7479528Y3378346D01*
X7495672Y3369025D01*
X7513000Y3364382D01*
Y3435000D01*
X7533000D01*
Y3364382D01*
X7550328Y3369025D01*
X7562024Y3375778D01*
X7586500Y3388085D01*
X7610975Y3375778D01*
X7622672Y3369025D01*
X7640000Y3364382D01*
Y3435000D01*
X7660000D01*
Y3364382D01*
X7677328Y3369025D01*
X7689024Y3375778D01*
X7713500Y3388085D01*
X7737975Y3375778D01*
X7749672Y3369025D01*
X7767679Y3364200D01*
X7786321D01*
X7804328Y3369025D01*
X7816024Y3375778D01*
X7840500Y3388085D01*
X7864975Y3375778D01*
X7876672Y3369025D01*
X7894000Y3364382D01*
Y3435000D01*
X7904000D01*
Y3445000D01*
X7974618D01*
X7969975Y3462328D01*
X7963222Y3474025D01*
X7950915Y3498500D01*
X7963222Y3522975D01*
X7969975Y3534672D01*
X7974800Y3552679D01*
Y3571321D01*
X7969975Y3589328D01*
X7960654Y3605472D01*
X7947472Y3618654D01*
X7931328Y3627975D01*
X7913321Y3632800D01*
D02*
G37*
G36*
X8998951Y3685000D02*
X8981049D01*
X8964510Y3678149D01*
X8951851Y3665491D01*
X8945000Y3648951D01*
Y3631049D01*
X8951851Y3614510D01*
X8964510Y3601851D01*
X8981049Y3595000D01*
X8998951D01*
X9015490Y3601851D01*
X9028149Y3614510D01*
X9035000Y3631049D01*
Y3648951D01*
X9028149Y3665491D01*
X9015490Y3678149D01*
X8998951Y3685000D01*
D02*
G37*
G36*
X4618951Y3674600D02*
X4601049D01*
X4584509Y3667749D01*
X4571851Y3655090D01*
X4565000Y3638551D01*
Y3620649D01*
X4571851Y3604109D01*
X4584509Y3591451D01*
X4601049Y3584600D01*
X4618951D01*
X4635490Y3591451D01*
X4648149Y3604109D01*
X4655000Y3620649D01*
Y3638551D01*
X4648149Y3655090D01*
X4635490Y3667749D01*
X4618951Y3674600D01*
D02*
G37*
G36*
X6138621Y3777769D02*
X6120719D01*
X6104180Y3770919D01*
X6091521Y3758260D01*
X6084670Y3741720D01*
X6080505Y3722264D01*
X6061049Y3715000D01*
X6044510Y3708149D01*
X6031851Y3695490D01*
X6025000Y3678951D01*
Y3661049D01*
X6031851Y3644510D01*
X6044510Y3631851D01*
X6061049Y3625000D01*
X6062664D01*
X6077132Y3621734D01*
X6092789Y3602512D01*
X6096114Y3597110D01*
X6101851Y3583259D01*
X6114509Y3570601D01*
X6131049Y3563750D01*
X6148951D01*
X6165490Y3570601D01*
X6178149Y3583259D01*
X6185000Y3599799D01*
Y3617701D01*
X6178149Y3634240D01*
X6165490Y3646899D01*
X6148951Y3653750D01*
X6147336D01*
X6140886Y3655206D01*
X6138621Y3687770D01*
X6155160Y3694620D01*
X6167819Y3707279D01*
X6174670Y3723819D01*
Y3741720D01*
X6167819Y3758260D01*
X6155160Y3770919D01*
X6138621Y3777769D01*
D02*
G37*
G36*
X6570953Y3722239D02*
X6553051D01*
X6536511Y3715388D01*
X6523853Y3702729D01*
X6517002Y3686190D01*
Y3668288D01*
X6523853Y3651749D01*
X6536491Y3639040D01*
X6523497Y3606597D01*
X6522530Y3604263D01*
Y3586361D01*
X6529381Y3569821D01*
X6542040Y3557163D01*
X6558579Y3550312D01*
X6576481D01*
X6593021Y3557163D01*
X6605679Y3569821D01*
X6612530Y3586361D01*
Y3604263D01*
X6605679Y3620802D01*
X6593041Y3633511D01*
X6606035Y3665954D01*
X6607002Y3668288D01*
Y3686190D01*
X6600151Y3702729D01*
X6587492Y3715388D01*
X6570953Y3722239D01*
D02*
G37*
G36*
X9188951Y3625000D02*
X9171049D01*
X9154510Y3618149D01*
X9141851Y3605490D01*
X9135000Y3588951D01*
Y3571049D01*
X9141851Y3554510D01*
X9154510Y3541851D01*
X9171049Y3535000D01*
X9188951D01*
X9205490Y3541851D01*
X9218149Y3554510D01*
X9225000Y3571049D01*
Y3588951D01*
X9218149Y3605490D01*
X9205490Y3618149D01*
X9188951Y3625000D01*
D02*
G37*
G36*
X4198951Y3605000D02*
X4181049D01*
X4164510Y3598149D01*
X4151851Y3585490D01*
X4145000Y3568951D01*
Y3551049D01*
X4151851Y3534510D01*
X4164510Y3521851D01*
X4181049Y3515000D01*
X4198951D01*
X4215491Y3521851D01*
X4228149Y3534510D01*
X4235000Y3551049D01*
Y3568951D01*
X4228149Y3585490D01*
X4215491Y3598149D01*
X4198951Y3605000D01*
D02*
G37*
G36*
X9068951Y3565000D02*
X9051049D01*
X9034509Y3558149D01*
X9021851Y3545490D01*
X9015000Y3528951D01*
Y3511049D01*
X9021851Y3494510D01*
X9034509Y3481851D01*
X9051049Y3475000D01*
X9068951D01*
X9085490Y3481851D01*
X9098149Y3494510D01*
X9105000Y3511049D01*
Y3528951D01*
X9098149Y3545490D01*
X9085490Y3558149D01*
X9068951Y3565000D01*
D02*
G37*
G36*
X5571011Y3625000D02*
X5553109D01*
X5536570Y3618149D01*
X5523911Y3605490D01*
X5517060Y3588951D01*
Y3571049D01*
X5501049Y3555000D01*
X5484509Y3548149D01*
X5471851Y3535491D01*
X5465000Y3518951D01*
Y3501049D01*
X5471851Y3484510D01*
X5484509Y3471851D01*
X5501049Y3465000D01*
X5518951D01*
X5535490Y3471851D01*
X5545192Y3481553D01*
X5565000Y3483150D01*
X5584808Y3481553D01*
X5594510Y3471851D01*
X5611049Y3465000D01*
X5628951D01*
X5645490Y3471851D01*
X5658149Y3484510D01*
X5662500Y3495014D01*
X5664637Y3495411D01*
X5695363D01*
X5697500Y3495014D01*
X5701851Y3484510D01*
X5714510Y3471851D01*
X5731049Y3465000D01*
X5748951D01*
X5765490Y3471851D01*
X5778149Y3484510D01*
X5785000Y3501049D01*
X5789829Y3520171D01*
X5808951Y3525000D01*
X5825491Y3531851D01*
X5838149Y3544510D01*
X5845000Y3561049D01*
Y3578951D01*
X5838149Y3595490D01*
X5825491Y3608149D01*
X5808951Y3615000D01*
X5791049D01*
X5774510Y3608149D01*
X5761851Y3595490D01*
X5759213Y3589122D01*
X5754740Y3585426D01*
X5736176Y3580808D01*
X5719779Y3582426D01*
X5718911Y3583923D01*
X5718553Y3584777D01*
X5717517Y3587279D01*
X5712044Y3600491D01*
X5699385Y3613149D01*
X5682846Y3620000D01*
X5664944D01*
X5648405Y3613149D01*
X5638870Y3603615D01*
X5618478Y3602920D01*
X5600209Y3605491D01*
X5587550Y3618149D01*
X5571011Y3625000D01*
D02*
G37*
G36*
X5098951Y3425000D02*
X5081049D01*
X5064510Y3418149D01*
X5051851Y3405491D01*
X5046871Y3393468D01*
X5031076Y3389369D01*
X5010429Y3389987D01*
X5009679Y3391797D01*
X5008149Y3395491D01*
X4995490Y3408149D01*
X4978951Y3415000D01*
X4961049D01*
X4944510Y3408149D01*
X4931851Y3395491D01*
X4925000Y3378951D01*
Y3361049D01*
X4931851Y3344510D01*
X4934482Y3341879D01*
X4940986Y3320000D01*
X4934482Y3298121D01*
X4931851Y3295490D01*
X4925000Y3278951D01*
Y3261049D01*
X4931851Y3244510D01*
X4944510Y3231851D01*
X4961049Y3225000D01*
X4978951D01*
X4995490Y3231851D01*
X5008149Y3244510D01*
X5015000Y3261049D01*
Y3278951D01*
X5008149Y3295490D01*
X5005518Y3298121D01*
X4999014Y3320000D01*
X5005518Y3341879D01*
X5008149Y3344510D01*
X5013129Y3356533D01*
X5028924Y3360632D01*
X5049571Y3360014D01*
X5050321Y3358203D01*
X5051851Y3354510D01*
X5064510Y3341851D01*
X5081049Y3335000D01*
X5098951D01*
X5115490Y3341851D01*
X5128149Y3354510D01*
X5135000Y3371049D01*
Y3388951D01*
X5128149Y3405491D01*
X5115490Y3418149D01*
X5098951Y3425000D01*
D02*
G37*
G36*
X8459945Y3480000D02*
X8440054D01*
X8421677Y3472388D01*
X8407612Y3458323D01*
X8400000Y3439946D01*
Y3420054D01*
X8407612Y3401677D01*
X8421677Y3387612D01*
X8440054Y3380000D01*
X8459945D01*
X8478323Y3387612D01*
X8492388Y3401677D01*
X8500000Y3420054D01*
Y3439946D01*
X8492388Y3458323D01*
X8478323Y3472388D01*
X8459945Y3480000D01*
D02*
G37*
G36*
X7974618Y3425000D02*
X7914000D01*
Y3364382D01*
X7931328Y3369025D01*
X7947472Y3378346D01*
X7960654Y3391528D01*
X7969975Y3407672D01*
X7974618Y3425000D01*
D02*
G37*
G36*
X5547734Y3294949D02*
X5529832D01*
X5513293Y3288098D01*
X5500634Y3275440D01*
X5493783Y3258900D01*
Y3240998D01*
X5500634Y3224459D01*
X5513293Y3211800D01*
X5529832Y3204949D01*
X5547734D01*
X5564273Y3211800D01*
X5576932Y3224459D01*
X5583783Y3240998D01*
Y3258900D01*
X5576932Y3275440D01*
X5564273Y3288098D01*
X5547734Y3294949D01*
D02*
G37*
G36*
X6718951Y3190000D02*
X6701049D01*
X6689255Y3185115D01*
X6684510Y3183149D01*
X6665000Y3179117D01*
X6645490Y3183149D01*
X6640745Y3185115D01*
X6628951Y3190000D01*
X6611049D01*
X6594510Y3183149D01*
X6581851Y3170490D01*
X6575000Y3153951D01*
Y3136049D01*
X6581851Y3119510D01*
X6594510Y3106851D01*
X6611049Y3100000D01*
X6628951D01*
X6640745Y3104886D01*
X6645490Y3106851D01*
X6665000Y3110883D01*
X6684510Y3106851D01*
X6689255Y3104886D01*
X6701049Y3100000D01*
X6718951D01*
X6735490Y3106851D01*
X6748149Y3119510D01*
X6755000Y3136049D01*
Y3153951D01*
X6748149Y3170490D01*
X6735490Y3183149D01*
X6718951Y3190000D01*
D02*
G37*
G36*
X5178951Y3225000D02*
X5161049D01*
X5144510Y3218149D01*
X5131851Y3205490D01*
X5125000Y3188951D01*
Y3171049D01*
X5131851Y3154510D01*
X5144510Y3141851D01*
X5161049Y3135000D01*
X5178951D01*
X5195490Y3141851D01*
X5208149Y3154510D01*
X5215000Y3171049D01*
Y3188951D01*
X5208149Y3205490D01*
X5195490Y3218149D01*
X5178951Y3225000D01*
D02*
G37*
G36*
X6118951Y3170000D02*
X6101049D01*
X6084510Y3163149D01*
X6071851Y3150491D01*
X6065000Y3133951D01*
Y3116049D01*
X6071851Y3099510D01*
X6084510Y3086851D01*
X6101049Y3080000D01*
X6118951D01*
X6135490Y3086851D01*
X6148149Y3099510D01*
X6155000Y3116049D01*
Y3133951D01*
X6148149Y3150491D01*
X6135490Y3163149D01*
X6118951Y3170000D01*
D02*
G37*
G36*
X7958951Y3005000D02*
X7941049D01*
X7924510Y2998149D01*
X7910000Y2986923D01*
X7895490Y2998149D01*
X7878951Y3005000D01*
X7861049D01*
X7844510Y2998149D01*
X7831851Y2985490D01*
X7825000Y2968951D01*
Y2951049D01*
X7831851Y2934509D01*
X7844510Y2921851D01*
X7861049Y2915000D01*
X7878951D01*
X7895490Y2921851D01*
X7910000Y2933077D01*
X7924510Y2921851D01*
X7941049Y2915000D01*
X7958951D01*
X7975491Y2921851D01*
X7988149Y2934509D01*
X7995000Y2951049D01*
Y2968951D01*
X7988149Y2985490D01*
X7975491Y2998149D01*
X7958951Y3005000D01*
D02*
G37*
G36*
X5468951Y3070000D02*
X5451049D01*
X5434509Y3063149D01*
X5421851Y3050490D01*
X5415000Y3033951D01*
Y3016049D01*
X5421851Y2999510D01*
X5434509Y2986851D01*
X5451049Y2980000D01*
X5468951D01*
X5485490Y2986851D01*
X5498149Y2999510D01*
X5505000Y3016049D01*
Y3033951D01*
X5498149Y3050490D01*
X5485490Y3063149D01*
X5468951Y3070000D01*
D02*
G37*
G36*
X5968951Y3110400D02*
X5951049D01*
X5934509Y3103549D01*
X5921851Y3090890D01*
X5915000Y3074351D01*
Y3056449D01*
X5921540Y3040660D01*
X5921850Y3039909D01*
X5930703Y3017700D01*
X5921851Y2995490D01*
X5921540Y2994739D01*
X5915000Y2978951D01*
Y2961049D01*
X5921851Y2944509D01*
X5934510Y2931851D01*
X5951049Y2925000D01*
X5968951D01*
X5985490Y2931851D01*
X5998149Y2944509D01*
X6005000Y2961049D01*
Y2978951D01*
X5998460Y2994739D01*
X5998149Y2995490D01*
X5989297Y3017700D01*
X5998149Y3039909D01*
X5998460Y3040661D01*
X6005000Y3056449D01*
Y3074351D01*
X5998149Y3090890D01*
X5985490Y3103549D01*
X5968951Y3110400D01*
D02*
G37*
G36*
X8649945Y2974291D02*
X8630054D01*
X8611677Y2966679D01*
X8597612Y2952614D01*
X8590000Y2934236D01*
Y2914345D01*
X8597612Y2895968D01*
X8611677Y2881903D01*
X8630054Y2874291D01*
X8649945D01*
X8668323Y2881903D01*
X8682388Y2895968D01*
X8690000Y2914345D01*
Y2934236D01*
X8682388Y2952614D01*
X8668323Y2966679D01*
X8649945Y2974291D01*
D02*
G37*
G36*
X4858951Y3030000D02*
X4841049D01*
X4824510Y3023149D01*
X4811851Y3010491D01*
X4805000Y2993951D01*
Y2976049D01*
X4809885Y2964255D01*
X4811851Y2959510D01*
X4815883Y2940000D01*
X4811851Y2920490D01*
X4809885Y2915746D01*
X4805000Y2903951D01*
Y2886049D01*
X4811851Y2869510D01*
X4824510Y2856851D01*
X4841049Y2850000D01*
X4858951D01*
X4875490Y2856851D01*
X4888149Y2869510D01*
X4895000Y2886049D01*
Y2903951D01*
X4890114Y2915745D01*
X4888149Y2920490D01*
X4884117Y2940000D01*
X4888149Y2959510D01*
X4890114Y2964255D01*
X4895000Y2976049D01*
Y2993951D01*
X4888149Y3010491D01*
X4875490Y3023149D01*
X4858951Y3030000D01*
D02*
G37*
G36*
X4998951Y2865000D02*
X4981049D01*
X4964510Y2858149D01*
X4951851Y2845490D01*
X4945000Y2828951D01*
Y2811049D01*
X4951851Y2794510D01*
X4964510Y2781851D01*
X4981049Y2775000D01*
X4998951D01*
X5015490Y2781851D01*
X5028149Y2794510D01*
X5035000Y2811049D01*
Y2828951D01*
X5028149Y2845490D01*
X5015490Y2858149D01*
X4998951Y2865000D01*
D02*
G37*
G36*
X4108951Y2775000D02*
X4091049D01*
X4074510Y2768149D01*
X4061851Y2755491D01*
X4055000Y2738951D01*
Y2721049D01*
X4061851Y2704510D01*
X4074510Y2691851D01*
X4091049Y2685000D01*
X4108951D01*
X4125490Y2691851D01*
X4138149Y2704510D01*
X4145000Y2721049D01*
Y2738951D01*
X4138149Y2755491D01*
X4125490Y2768149D01*
X4108951Y2775000D01*
D02*
G37*
G36*
X5138951Y2755000D02*
X5121049D01*
X5104509Y2748149D01*
X5091851Y2735490D01*
X5085000Y2718951D01*
Y2701049D01*
X5091851Y2684509D01*
X5104509Y2671851D01*
X5121049Y2665000D01*
X5138951D01*
X5155490Y2671851D01*
X5168149Y2684509D01*
X5175000Y2701049D01*
Y2718951D01*
X5168149Y2735490D01*
X5155490Y2748149D01*
X5138951Y2755000D01*
D02*
G37*
G36*
X6949474Y2705566D02*
X6931572D01*
X6915032Y2698715D01*
X6902374Y2686056D01*
X6895523Y2669517D01*
Y2651615D01*
X6902374Y2635076D01*
X6915032Y2622417D01*
X6931572Y2615566D01*
X6949474D01*
X6966013Y2622417D01*
X6978672Y2635076D01*
X6985522Y2651615D01*
Y2669517D01*
X6978672Y2686056D01*
X6966013Y2698715D01*
X6949474Y2705566D01*
D02*
G37*
G36*
X9678951Y2645000D02*
X9661049D01*
X9644510Y2638149D01*
X9631851Y2625490D01*
X9625000Y2608951D01*
Y2591049D01*
X9631851Y2574509D01*
X9644510Y2561851D01*
X9661049Y2555000D01*
X9678951D01*
X9695490Y2561851D01*
X9708149Y2574509D01*
X9715000Y2591049D01*
Y2608951D01*
X9708149Y2625490D01*
X9695490Y2638149D01*
X9678951Y2645000D01*
D02*
G37*
G36*
X7138951Y2705000D02*
X7121049D01*
X7104510Y2698149D01*
X7091851Y2685490D01*
X7085000Y2668951D01*
Y2651049D01*
X7091851Y2634510D01*
X7094482Y2631879D01*
X7100986Y2610000D01*
X7094482Y2588121D01*
X7091851Y2585490D01*
X7085000Y2568951D01*
Y2551049D01*
X7091851Y2534510D01*
X7104510Y2521851D01*
X7121049Y2515000D01*
X7138951D01*
X7155490Y2521851D01*
X7168149Y2534510D01*
X7175000Y2551049D01*
Y2568951D01*
X7168149Y2585490D01*
X7165518Y2588121D01*
X7159014Y2610000D01*
X7165518Y2631879D01*
X7168149Y2634510D01*
X7175000Y2651049D01*
Y2668951D01*
X7168149Y2685490D01*
X7155490Y2698149D01*
X7138951Y2705000D01*
D02*
G37*
G36*
X6580000Y2615000D02*
X6560109D01*
X6541731Y2607388D01*
X6527666Y2593323D01*
X6520054Y2574946D01*
Y2555054D01*
X6527666Y2536677D01*
X6541731Y2522612D01*
X6560109Y2515000D01*
X6580000D01*
X6598377Y2522612D01*
X6612442Y2536677D01*
X6620054Y2555054D01*
Y2574946D01*
X6612442Y2593323D01*
X6598377Y2607388D01*
X6580000Y2615000D01*
D02*
G37*
G36*
X10158951Y2555000D02*
X10141049D01*
X10124509Y2548149D01*
X10111851Y2535490D01*
X10105000Y2518951D01*
Y2501049D01*
X10111851Y2484509D01*
X10124509Y2471851D01*
X10141049Y2465000D01*
X10158951D01*
X10175490Y2471851D01*
X10188149Y2484509D01*
X10195000Y2501049D01*
Y2518951D01*
X10188149Y2535490D01*
X10175490Y2548149D01*
X10158951Y2555000D01*
D02*
G37*
G36*
X6498951Y2440000D02*
X6481049D01*
X6464510Y2433149D01*
X6450000Y2421923D01*
X6435490Y2433149D01*
X6418951Y2440000D01*
X6401049D01*
X6384509Y2433149D01*
X6371851Y2420490D01*
X6365000Y2403951D01*
Y2386049D01*
X6371851Y2369510D01*
X6383077Y2355000D01*
X6371851Y2340490D01*
X6365000Y2323951D01*
Y2306049D01*
X6371851Y2289510D01*
X6384509Y2276851D01*
X6401049Y2270000D01*
X6418951D01*
X6435490Y2276851D01*
X6450000Y2288077D01*
X6464510Y2276851D01*
X6481049Y2270000D01*
X6498951D01*
X6515490Y2276851D01*
X6528149Y2289510D01*
X6535000Y2306049D01*
Y2323951D01*
X6528149Y2340491D01*
X6516923Y2355000D01*
X6528149Y2369510D01*
X6535000Y2386049D01*
Y2403951D01*
X6528149Y2420490D01*
X6515490Y2433149D01*
X6498951Y2440000D01*
D02*
G37*
G36*
X8179946Y2510000D02*
X8160054D01*
X8141677Y2502388D01*
X8127612Y2488323D01*
X8120000Y2469946D01*
Y2450054D01*
X8127612Y2431677D01*
X8141677Y2417612D01*
X8160054Y2410000D01*
X8179946D01*
X8198323Y2417612D01*
X8212388Y2431677D01*
X8220000Y2450054D01*
Y2469946D01*
X8212388Y2488323D01*
X8198323Y2502388D01*
X8179946Y2510000D01*
D02*
G37*
G36*
X4848951Y2580000D02*
X4831049D01*
X4814510Y2573149D01*
X4801851Y2560490D01*
X4795000Y2543951D01*
Y2526049D01*
X4801851Y2509510D01*
X4814510Y2496851D01*
X4815497Y2496442D01*
Y2458558D01*
X4814510Y2458149D01*
X4801851Y2445490D01*
X4795000Y2428951D01*
Y2411049D01*
X4801851Y2394510D01*
X4814510Y2381851D01*
X4831049Y2375000D01*
X4848951D01*
X4865490Y2381851D01*
X4878149Y2394510D01*
X4885000Y2411049D01*
Y2428951D01*
X4878149Y2445490D01*
X4865490Y2458149D01*
X4864503Y2458558D01*
Y2496442D01*
X4865490Y2496851D01*
X4878149Y2509510D01*
X4885000Y2526049D01*
Y2543951D01*
X4878149Y2560490D01*
X4865490Y2573149D01*
X4848951Y2580000D01*
D02*
G37*
G36*
X5298951Y2457500D02*
X5281049D01*
X5264510Y2450649D01*
X5251851Y2437990D01*
X5245000Y2421451D01*
Y2403549D01*
X5251851Y2387009D01*
X5264510Y2374351D01*
X5281049Y2367500D01*
X5298951D01*
X5315491Y2374351D01*
X5328149Y2387009D01*
X5335000Y2403549D01*
Y2421451D01*
X5328149Y2437990D01*
X5315491Y2450649D01*
X5298951Y2457500D01*
D02*
G37*
G36*
X8038951Y2385000D02*
X8021049D01*
X8004510Y2378149D01*
X7991851Y2365490D01*
X7985000Y2348951D01*
Y2331049D01*
X7991851Y2314509D01*
X8004510Y2301851D01*
X8021049Y2295000D01*
X8038951D01*
X8055490Y2301851D01*
X8068149Y2314509D01*
X8075000Y2331049D01*
Y2348951D01*
X8068149Y2365490D01*
X8055490Y2378149D01*
X8038951Y2385000D01*
D02*
G37*
G36*
X4116451Y2292500D02*
X4098549D01*
X4082009Y2285649D01*
X4069351Y2272991D01*
X4062500Y2256451D01*
Y2238549D01*
X4069351Y2222010D01*
X4082009Y2209351D01*
X4098549Y2202500D01*
X4116451D01*
X4132990Y2209351D01*
X4145649Y2222010D01*
X4152500Y2238549D01*
Y2256451D01*
X4145649Y2272991D01*
X4132990Y2285649D01*
X4116451Y2292500D01*
D02*
G37*
G36*
X10483625Y2579675D02*
X10465724D01*
X10449184Y2572824D01*
X10436525Y2560165D01*
X10429675Y2543626D01*
Y2525724D01*
X10436525Y2509184D01*
X10449184Y2496526D01*
X10464470Y2490194D01*
X10465554Y2487294D01*
X10462979Y2451150D01*
X10453063Y2446692D01*
X10444509Y2443149D01*
X10431851Y2430490D01*
X10425000Y2413951D01*
Y2396049D01*
X10431851Y2379509D01*
X10441552Y2369808D01*
X10443150Y2350000D01*
X10441552Y2330192D01*
X10431851Y2320490D01*
X10425000Y2303951D01*
Y2286049D01*
X10431851Y2269510D01*
X10444509Y2256851D01*
X10461049Y2250000D01*
X10479420Y2248629D01*
X10485719Y2230257D01*
X10492570Y2213718D01*
X10505228Y2201059D01*
X10521768Y2194208D01*
X10539670D01*
X10556209Y2201059D01*
X10568868Y2213718D01*
X10575719Y2230257D01*
Y2248159D01*
X10568868Y2264699D01*
X10556210Y2277357D01*
X10557598Y2314666D01*
X10558806Y2315166D01*
X10571464Y2327825D01*
X10578315Y2344364D01*
Y2362266D01*
X10571464Y2378806D01*
X10558806Y2391464D01*
X10554127Y2393402D01*
X10552594Y2430651D01*
X10555490Y2431851D01*
X10568149Y2444509D01*
X10575000Y2461049D01*
Y2478951D01*
X10568149Y2495490D01*
X10555490Y2508149D01*
X10538951Y2515000D01*
X10520558Y2525232D01*
X10519674Y2543626D01*
X10512824Y2560165D01*
X10500165Y2572824D01*
X10483625Y2579675D01*
D02*
G37*
G36*
X8238951Y2185000D02*
X8221049D01*
X8204510Y2178149D01*
X8191851Y2165490D01*
X8185000Y2148951D01*
Y2131049D01*
X8191851Y2114510D01*
X8204510Y2101851D01*
X8221049Y2095000D01*
X8238951D01*
X8255490Y2101851D01*
X8268149Y2114510D01*
X8275000Y2131049D01*
Y2148951D01*
X8268149Y2165490D01*
X8255490Y2178149D01*
X8238951Y2185000D01*
D02*
G37*
G36*
X5391170Y2127500D02*
X5373268D01*
X5356728Y2120649D01*
X5344070Y2107990D01*
X5337219Y2091451D01*
Y2073549D01*
X5344070Y2057010D01*
X5356728Y2044351D01*
X5373268Y2037500D01*
X5391170D01*
X5407709Y2044351D01*
X5420368Y2057010D01*
X5427219Y2073549D01*
Y2091451D01*
X5420368Y2107990D01*
X5407709Y2120649D01*
X5391170Y2127500D01*
D02*
G37*
G36*
X7552446Y2100000D02*
X7532554D01*
X7514177Y2092388D01*
X7500112Y2078323D01*
X7492500Y2059946D01*
Y2040054D01*
X7500112Y2021677D01*
X7514177Y2007612D01*
X7532554Y2000000D01*
X7552446D01*
X7570823Y2007612D01*
X7584888Y2021677D01*
X7592500Y2040054D01*
Y2059946D01*
X7584888Y2078323D01*
X7570823Y2092388D01*
X7552446Y2100000D01*
D02*
G37*
G36*
X8688951Y2065000D02*
X8671049D01*
X8654509Y2058149D01*
X8641851Y2045490D01*
X8635000Y2028951D01*
Y2011049D01*
X8641851Y1994510D01*
X8654509Y1981851D01*
X8671049Y1975000D01*
X8688951D01*
X8705490Y1981851D01*
X8718149Y1994510D01*
X8725000Y2011049D01*
Y2028951D01*
X8718149Y2045490D01*
X8705490Y2058149D01*
X8688951Y2065000D01*
D02*
G37*
G36*
X6768951Y2030000D02*
X6751049D01*
X6734510Y2023149D01*
X6721851Y2010491D01*
X6715000Y1993951D01*
Y1976049D01*
X6721851Y1959510D01*
X6734510Y1946851D01*
X6751049Y1940000D01*
X6768951D01*
X6785490Y1946851D01*
X6798149Y1959510D01*
X6805000Y1976049D01*
Y1993951D01*
X6798149Y2010491D01*
X6785490Y2023149D01*
X6768951Y2030000D01*
D02*
G37*
G36*
X6357446Y1917500D02*
X6337554D01*
X6319177Y1909888D01*
X6305112Y1895823D01*
X6297500Y1877446D01*
Y1857554D01*
X6305112Y1839177D01*
X6319177Y1825112D01*
X6337554Y1817500D01*
X6357446D01*
X6375823Y1825112D01*
X6389888Y1839177D01*
X6397500Y1857554D01*
Y1877446D01*
X6389888Y1895823D01*
X6375823Y1909888D01*
X6357446Y1917500D01*
D02*
G37*
G36*
X4400862Y1883089D02*
X4382960D01*
X4366420Y1876238D01*
X4353762Y1863580D01*
X4346911Y1847040D01*
Y1829138D01*
X4353762Y1812599D01*
X4366420Y1799940D01*
X4382960Y1793089D01*
X4400862D01*
X4417401Y1799940D01*
X4430060Y1812599D01*
X4436911Y1829138D01*
Y1847040D01*
X4430060Y1863580D01*
X4417401Y1876238D01*
X4400862Y1883089D01*
D02*
G37*
G36*
X7549946Y1880000D02*
X7530054D01*
X7511677Y1872388D01*
X7497612Y1858323D01*
X7490000Y1839946D01*
Y1820054D01*
X7497612Y1801677D01*
X7511677Y1787612D01*
X7530054Y1780000D01*
X7549946D01*
X7568323Y1787612D01*
X7582388Y1801677D01*
X7590000Y1820054D01*
Y1839946D01*
X7582388Y1858323D01*
X7568323Y1872388D01*
X7549946Y1880000D01*
D02*
G37*
G36*
X7899946Y1810000D02*
X7880054D01*
X7861677Y1802388D01*
X7847612Y1788323D01*
X7840000Y1769946D01*
Y1750054D01*
X7847612Y1731677D01*
X7861677Y1717612D01*
X7880054Y1710000D01*
X7899946D01*
X7918323Y1717612D01*
X7932388Y1731677D01*
X7940000Y1750054D01*
Y1769946D01*
X7932388Y1788323D01*
X7918323Y1802388D01*
X7899946Y1810000D01*
D02*
G37*
G36*
X8008951Y1655000D02*
X7991049D01*
X7974510Y1648149D01*
X7961851Y1635491D01*
X7955000Y1618951D01*
Y1601049D01*
X7961851Y1584510D01*
X7974510Y1571851D01*
X7991049Y1565000D01*
X8008951D01*
X8025490Y1571851D01*
X8038149Y1584510D01*
X8045000Y1601049D01*
Y1618951D01*
X8038149Y1635491D01*
X8025490Y1648149D01*
X8008951Y1655000D01*
D02*
G37*
G36*
X4701500Y1703000D02*
X4492500D01*
Y1494000D01*
X4701500D01*
Y1703000D01*
D02*
G37*
G36*
X4356758D02*
X4329242D01*
X4302664Y1695878D01*
X4278835Y1682121D01*
X4259379Y1662664D01*
X4245621Y1638835D01*
X4238500Y1612258D01*
Y1584742D01*
X4245621Y1558165D01*
X4259379Y1534336D01*
X4278835Y1514879D01*
X4302664Y1501121D01*
X4329242Y1494000D01*
X4356758D01*
X4383335Y1501121D01*
X4407164Y1514879D01*
X4426621Y1534336D01*
X4440378Y1558165D01*
X4447500Y1584742D01*
Y1612258D01*
X4440378Y1638835D01*
X4426621Y1662664D01*
X4407164Y1682121D01*
X4383335Y1695878D01*
X4356758Y1703000D01*
D02*
G37*
G36*
X5627500Y1699500D02*
X5418500D01*
Y1490500D01*
X5627500D01*
Y1699500D01*
D02*
G37*
G36*
X5282758D02*
X5255242D01*
X5228664Y1692378D01*
X5204835Y1678620D01*
X5185379Y1659164D01*
X5171621Y1635335D01*
X5164500Y1608758D01*
Y1581242D01*
X5171621Y1554664D01*
X5185379Y1530835D01*
X5204835Y1511379D01*
X5228664Y1497621D01*
X5255242Y1490500D01*
X5282758D01*
X5309335Y1497621D01*
X5333164Y1511379D01*
X5352620Y1530835D01*
X5366378Y1554664D01*
X5373500Y1581242D01*
Y1608758D01*
X5366378Y1635335D01*
X5352620Y1659164D01*
X5333164Y1678620D01*
X5309335Y1692378D01*
X5282758Y1699500D01*
D02*
G37*
G36*
X2404004Y2070000D02*
X2355996D01*
X2308579Y2062490D01*
X2262921Y2047655D01*
X2220145Y2025859D01*
X2181306Y1997641D01*
X2147359Y1963694D01*
X2119141Y1924855D01*
X2097345Y1882079D01*
X2082510Y1836421D01*
X2075000Y1789004D01*
Y1740996D01*
X2082510Y1693579D01*
X2097345Y1647921D01*
X2119141Y1605145D01*
X2147359Y1566306D01*
X2181306Y1532359D01*
X2220145Y1504141D01*
X2262921Y1482346D01*
X2308579Y1467510D01*
X2355996Y1460000D01*
X2404004D01*
X2451421Y1467510D01*
X2497079Y1482346D01*
X2539855Y1504141D01*
X2578694Y1532359D01*
X2612641Y1566306D01*
X2640859Y1605145D01*
X2662654Y1647921D01*
X2677490Y1693579D01*
X2685000Y1740996D01*
Y1789004D01*
X2677490Y1836421D01*
X2662654Y1882079D01*
X2640859Y1924855D01*
X2612641Y1963694D01*
X2578694Y1997641D01*
X2539855Y2025859D01*
X2497079Y2047655D01*
X2451421Y2062490D01*
X2404004Y2070000D01*
D02*
G37*
G36*
X7228951Y1475000D02*
X7211049D01*
X7194510Y1468149D01*
X7181851Y1455490D01*
X7175000Y1438951D01*
Y1421049D01*
X7181851Y1404510D01*
X7194510Y1391851D01*
X7211049Y1385000D01*
X7228951D01*
X7245490Y1391851D01*
X7258149Y1404510D01*
X7265000Y1421049D01*
Y1438951D01*
X7258149Y1455490D01*
X7245490Y1468149D01*
X7228951Y1475000D01*
D02*
G37*
G36*
X6615866Y1375480D02*
X6597964D01*
X6581424Y1368629D01*
X6568766Y1355971D01*
X6561915Y1339431D01*
Y1321529D01*
X6568766Y1304990D01*
X6581424Y1292331D01*
X6597964Y1285480D01*
X6615866D01*
X6632405Y1292331D01*
X6645064Y1304990D01*
X6651915Y1321529D01*
Y1339431D01*
X6645064Y1355971D01*
X6632405Y1368629D01*
X6615866Y1375480D01*
D02*
G37*
G36*
X10188951Y1305000D02*
X10171049D01*
X10154510Y1298149D01*
X10141851Y1285490D01*
X10135000Y1268951D01*
Y1251049D01*
X10141851Y1234510D01*
X10154510Y1221851D01*
X10171049Y1215000D01*
X10188951D01*
X10205490Y1221851D01*
X10218149Y1234510D01*
X10225000Y1251049D01*
Y1268951D01*
X10218149Y1285490D01*
X10205490Y1298149D01*
X10188951Y1305000D01*
D02*
G37*
G36*
X9838951Y1290000D02*
X9821049D01*
X9804509Y1283149D01*
X9791851Y1270491D01*
X9785000Y1253951D01*
Y1236049D01*
X9791851Y1219510D01*
X9804509Y1206851D01*
X9821049Y1200000D01*
X9838951D01*
X9855490Y1206851D01*
X9868149Y1219510D01*
X9875000Y1236049D01*
Y1253951D01*
X9868149Y1270491D01*
X9855490Y1283149D01*
X9838951Y1290000D01*
D02*
G37*
G36*
X8268951Y1060000D02*
X8251049D01*
X8234509Y1053149D01*
X8230365Y1049005D01*
X8213668Y1042000D01*
X8186656Y1046983D01*
X8185490Y1048149D01*
X8168951Y1055000D01*
X8151049D01*
X8134510Y1048149D01*
X8121851Y1035490D01*
X8115000Y1018951D01*
Y1001049D01*
X8121851Y984510D01*
X8134510Y971851D01*
X8151049Y965000D01*
X8168951D01*
X8185490Y971851D01*
X8189635Y975996D01*
X8206332Y983000D01*
X8233343Y978017D01*
X8234509Y976851D01*
X8251049Y970000D01*
X8268951D01*
X8285490Y976851D01*
X8298149Y989510D01*
X8305000Y1006049D01*
Y1023951D01*
X8298149Y1040491D01*
X8285490Y1053149D01*
X8268951Y1060000D01*
D02*
G37*
G36*
X6827069Y1075000D02*
X6809167D01*
X6792628Y1068149D01*
X6779969Y1055490D01*
X6773118Y1038951D01*
Y1021049D01*
X6779969Y1004510D01*
X6792628Y991851D01*
X6809167Y985000D01*
X6827069D01*
X6843608Y991851D01*
X6856267Y1004510D01*
X6863118Y1021049D01*
Y1038951D01*
X6856267Y1055490D01*
X6843608Y1068149D01*
X6827069Y1075000D01*
D02*
G37*
G36*
X445000Y1403488D02*
X275000D01*
X263295Y1401160D01*
X253371Y1394529D01*
X246741Y1384606D01*
X244413Y1372900D01*
Y990000D01*
X246741Y978295D01*
X253371Y968371D01*
X263295Y961741D01*
X275000Y959412D01*
X445000D01*
X456706Y961741D01*
X466629Y968371D01*
X473260Y978295D01*
X475588Y990000D01*
Y1372900D01*
X473260Y1384606D01*
X466629Y1394529D01*
X456706Y1401160D01*
X445000Y1403488D01*
D02*
G37*
G36*
X10217507Y1020000D02*
X10215000D01*
Y935000D01*
X10300000D01*
Y937507D01*
X10293526Y961669D01*
X10281019Y983331D01*
X10263331Y1001019D01*
X10241668Y1013526D01*
X10217507Y1020000D01*
D02*
G37*
G36*
X10195000D02*
X10192493D01*
X10168331Y1013526D01*
X10146669Y1001019D01*
X10128981Y983331D01*
X10116474Y961669D01*
X10110000Y937507D01*
Y935000D01*
X10195000D01*
Y1020000D01*
D02*
G37*
G36*
X9600000D02*
X9515000D01*
Y935000D01*
X9600000D01*
Y1020000D01*
D02*
G37*
G36*
X9495000D02*
X9410000D01*
Y935000D01*
X9495000D01*
Y1020000D01*
D02*
G37*
G36*
X6998951Y1005000D02*
X6981049D01*
X6964510Y998149D01*
X6951851Y985491D01*
X6945000Y968951D01*
Y951049D01*
X6951851Y934510D01*
X6964510Y921851D01*
X6981049Y915000D01*
X6998951D01*
X7015490Y921851D01*
X7028149Y934510D01*
X7035000Y951049D01*
Y968951D01*
X7028149Y985491D01*
X7015490Y998149D01*
X6998951Y1005000D01*
D02*
G37*
G36*
X7819946Y965000D02*
X7800055D01*
X7781677Y957388D01*
X7767612Y943323D01*
X7760000Y924946D01*
Y905054D01*
X7767612Y886677D01*
X7781677Y872612D01*
X7800055Y865000D01*
X7819946D01*
X7838323Y872612D01*
X7852388Y886677D01*
X7860000Y905054D01*
Y924946D01*
X7852388Y943323D01*
X7838323Y957388D01*
X7819946Y965000D01*
D02*
G37*
G36*
X7549946Y1000000D02*
X7530054D01*
X7511677Y992388D01*
X7497612Y978323D01*
X7490000Y959946D01*
Y940054D01*
X7497612Y921677D01*
X7511677Y907612D01*
X7530054Y900000D01*
X7534255D01*
X7554393Y891720D01*
X7566591Y869011D01*
Y868803D01*
X7573442Y852263D01*
X7586101Y839605D01*
X7602640Y832754D01*
X7620542D01*
X7637082Y839605D01*
X7649740Y852263D01*
X7656591Y868803D01*
Y886705D01*
X7649740Y903244D01*
X7637082Y915903D01*
X7620692Y922692D01*
X7620541Y922755D01*
X7597549Y935778D01*
X7590000Y955090D01*
Y959946D01*
X7582388Y978323D01*
X7568323Y992388D01*
X7549946Y1000000D01*
D02*
G37*
G36*
X10300000Y915000D02*
X10215000D01*
Y830000D01*
X10217507D01*
X10241668Y836475D01*
X10263331Y848982D01*
X10281019Y866669D01*
X10293526Y888332D01*
X10300000Y912493D01*
Y915000D01*
D02*
G37*
G36*
X10195000D02*
X10110000D01*
Y912493D01*
X10116474Y888332D01*
X10128981Y866669D01*
X10146669Y848982D01*
X10168331Y836475D01*
X10192493Y830000D01*
X10195000D01*
Y915000D01*
D02*
G37*
G36*
X9600000D02*
X9515000D01*
Y830000D01*
X9600000D01*
Y915000D01*
D02*
G37*
G36*
X9495000D02*
X9410000D01*
Y830000D01*
X9495000D01*
Y915000D01*
D02*
G37*
G36*
X7735699Y765553D02*
X7721775D01*
X7708911Y760225D01*
X7699066Y750379D01*
X7693737Y737515D01*
Y723591D01*
X7699066Y710727D01*
X7708911Y700882D01*
X7721775Y695553D01*
X7735699D01*
X7748563Y700882D01*
X7758409Y710727D01*
X7763737Y723591D01*
Y737515D01*
X7758409Y750379D01*
X7748563Y760225D01*
X7735699Y765553D01*
D02*
G37*
G36*
X9642507Y770000D02*
X9640000D01*
Y685000D01*
X9725000D01*
Y687507D01*
X9718525Y711669D01*
X9706018Y733331D01*
X9688331Y751019D01*
X9666668Y763526D01*
X9642507Y770000D01*
D02*
G37*
G36*
X9620000D02*
X9617493D01*
X9593331Y763526D01*
X9571669Y751019D01*
X9553981Y733331D01*
X9541474Y711669D01*
X9535000Y687507D01*
Y685000D01*
X9620000D01*
Y770000D01*
D02*
G37*
G36*
X7626962Y740000D02*
X7613038D01*
X7600174Y734671D01*
X7590328Y724826D01*
X7585000Y711962D01*
Y698038D01*
X7590328Y685174D01*
X7600174Y675328D01*
X7613038Y670000D01*
X7626962D01*
X7639826Y675328D01*
X7649672Y685174D01*
X7655000Y698038D01*
Y711962D01*
X7649672Y724826D01*
X7639826Y734671D01*
X7626962Y740000D01*
D02*
G37*
G36*
X9220469Y732500D02*
X9215000D01*
Y625000D01*
X9322500D01*
Y630469D01*
X9314492Y660354D01*
X9299023Y687147D01*
X9277147Y709024D01*
X9250353Y724493D01*
X9220469Y732500D01*
D02*
G37*
G36*
X9195000D02*
X9189531D01*
X9159647Y724493D01*
X9132853Y709024D01*
X9110976Y687147D01*
X9095507Y660354D01*
X9087500Y630469D01*
Y625000D01*
X9195000D01*
Y732500D01*
D02*
G37*
G36*
X10092507Y770000D02*
X10067493D01*
X10043331Y763526D01*
X10021669Y751019D01*
X10003981Y733331D01*
X9991474Y711669D01*
X9985000Y687507D01*
Y662493D01*
X9991474Y638332D01*
X10003981Y616669D01*
X10021669Y598982D01*
X10043331Y586475D01*
X10067493Y580000D01*
X10092507D01*
X10116668Y586475D01*
X10138331Y598982D01*
X10156019Y616669D01*
X10168526Y638332D01*
X10175000Y662493D01*
Y687507D01*
X10168526Y711669D01*
X10156019Y733331D01*
X10138331Y751019D01*
X10116668Y763526D01*
X10092507Y770000D01*
D02*
G37*
G36*
X9725000Y665000D02*
X9640000D01*
Y580000D01*
X9642507D01*
X9666668Y586475D01*
X9688331Y598982D01*
X9706018Y616669D01*
X9718525Y638332D01*
X9725000Y662493D01*
Y665000D01*
D02*
G37*
G36*
X9620000D02*
X9535000D01*
Y662493D01*
X9541474Y638332D01*
X9553981Y616669D01*
X9571669Y598982D01*
X9593331Y586475D01*
X9617493Y580000D01*
X9620000D01*
Y665000D01*
D02*
G37*
G36*
X4742713Y924500D02*
X4705286D01*
X4668579Y917198D01*
X4634001Y902876D01*
X4602882Y882082D01*
X4576418Y855618D01*
X4555624Y824498D01*
X4541302Y789921D01*
X4534000Y753213D01*
Y715786D01*
X4541302Y679079D01*
X4555624Y644501D01*
X4576418Y613382D01*
X4602882Y586918D01*
X4634001Y566124D01*
X4668579Y551802D01*
X4705286Y544500D01*
X4742713D01*
X4779421Y551802D01*
X4813998Y566124D01*
X4845118Y586918D01*
X4871582Y613382D01*
X4892376Y644501D01*
X4906698Y679079D01*
X4914000Y715786D01*
Y753213D01*
X4906698Y789921D01*
X4892376Y824498D01*
X4871582Y855618D01*
X4845118Y882082D01*
X4813998Y902876D01*
X4779421Y917198D01*
X4742713Y924500D01*
D02*
G37*
G36*
X4234713D02*
X4197286D01*
X4160579Y917198D01*
X4126001Y902876D01*
X4094882Y882082D01*
X4068418Y855618D01*
X4047624Y824498D01*
X4033302Y789921D01*
X4026000Y753213D01*
Y715786D01*
X4033302Y679079D01*
X4047624Y644501D01*
X4068418Y613382D01*
X4094882Y586918D01*
X4126001Y566124D01*
X4160579Y551802D01*
X4197286Y544500D01*
X4234713D01*
X4271421Y551802D01*
X4305998Y566124D01*
X4337118Y586918D01*
X4363582Y613382D01*
X4384376Y644501D01*
X4398698Y679079D01*
X4406000Y715786D01*
Y753213D01*
X4398698Y789921D01*
X4384376Y824498D01*
X4363582Y855618D01*
X4337118Y882082D01*
X4305998Y902876D01*
X4271421Y917198D01*
X4234713Y924500D01*
D02*
G37*
G36*
X5668713Y921000D02*
X5631286D01*
X5594579Y913698D01*
X5560001Y899375D01*
X5528882Y878582D01*
X5502417Y852118D01*
X5481624Y820998D01*
X5467302Y786421D01*
X5460000Y749713D01*
Y712286D01*
X5467302Y675579D01*
X5481624Y641001D01*
X5502417Y609882D01*
X5528882Y583417D01*
X5560001Y562624D01*
X5594579Y548302D01*
X5631286Y541000D01*
X5668713D01*
X5705421Y548302D01*
X5739998Y562624D01*
X5771118Y583417D01*
X5797582Y609882D01*
X5818375Y641001D01*
X5832698Y675579D01*
X5840000Y712286D01*
Y749713D01*
X5832698Y786421D01*
X5818375Y820998D01*
X5797582Y852118D01*
X5771118Y878582D01*
X5739998Y899375D01*
X5705421Y913698D01*
X5668713Y921000D01*
D02*
G37*
G36*
X5160713D02*
X5123286D01*
X5086579Y913698D01*
X5052001Y899375D01*
X5020882Y878582D01*
X4994417Y852118D01*
X4973624Y820998D01*
X4959302Y786421D01*
X4952000Y749713D01*
Y712286D01*
X4959302Y675579D01*
X4973624Y641001D01*
X4994417Y609882D01*
X5020882Y583417D01*
X5052001Y562624D01*
X5086579Y548302D01*
X5123286Y541000D01*
X5160713D01*
X5197421Y548302D01*
X5231998Y562624D01*
X5263118Y583417D01*
X5289582Y609882D01*
X5310375Y641001D01*
X5324698Y675579D01*
X5332000Y712286D01*
Y749713D01*
X5324698Y786421D01*
X5310375Y820998D01*
X5289582Y852118D01*
X5263118Y878582D01*
X5231998Y899375D01*
X5197421Y913698D01*
X5160713Y921000D01*
D02*
G37*
G36*
X8588951Y605000D02*
X8571049D01*
X8554510Y598149D01*
X8541851Y585490D01*
X8535000Y568951D01*
Y551049D01*
X8541851Y534509D01*
X8554510Y521851D01*
X8571049Y515000D01*
X8588951D01*
X8605491Y521851D01*
X8618149Y534509D01*
X8625000Y551049D01*
Y568951D01*
X8618149Y585490D01*
X8605491Y598149D01*
X8588951Y605000D01*
D02*
G37*
G36*
X8388951D02*
X8371049D01*
X8354510Y598149D01*
X8341851Y585490D01*
X8335000Y568951D01*
Y551049D01*
X8341851Y534509D01*
X8354510Y521851D01*
X8371049Y515000D01*
X8388951D01*
X8405490Y521851D01*
X8418149Y534509D01*
X8425000Y551049D01*
Y568951D01*
X8418149Y585490D01*
X8405490Y598149D01*
X8388951Y605000D01*
D02*
G37*
G36*
X7748951Y590000D02*
X7731049D01*
X7714509Y583149D01*
X7701851Y570490D01*
X7695000Y553951D01*
Y536049D01*
X7701851Y519510D01*
X7714509Y506851D01*
X7731049Y500000D01*
X7748951D01*
X7765490Y506851D01*
X7778149Y519510D01*
X7785000Y536049D01*
Y553951D01*
X7778149Y570490D01*
X7765490Y583149D01*
X7748951Y590000D01*
D02*
G37*
G36*
X9322500Y605000D02*
X9215000D01*
Y497500D01*
X9220469D01*
X9250353Y505508D01*
X9277147Y520977D01*
X9299023Y542854D01*
X9314492Y569647D01*
X9322500Y599531D01*
Y605000D01*
D02*
G37*
G36*
X9195000D02*
X9087500D01*
Y599531D01*
X9095507Y569647D01*
X9110976Y542854D01*
X9132853Y520977D01*
X9159647Y505508D01*
X9189531Y497500D01*
X9195000D01*
Y605000D01*
D02*
G37*
G36*
X8903750Y733094D02*
X8806250D01*
X8788303Y730731D01*
X8771579Y723803D01*
X8757217Y712783D01*
X8746197Y698422D01*
X8739270Y681698D01*
X8736907Y663750D01*
Y566250D01*
X8739270Y548303D01*
X8746197Y531579D01*
X8757217Y517217D01*
X8771579Y506197D01*
X8788303Y499270D01*
X8806250Y496907D01*
X8903750D01*
X8921697Y499270D01*
X8938422Y506197D01*
X8952783Y517217D01*
X8963803Y531579D01*
X8970731Y548303D01*
X8973093Y566250D01*
Y663750D01*
X8970731Y681698D01*
X8963803Y698422D01*
X8952783Y712783D01*
X8938422Y723803D01*
X8921697Y730731D01*
X8903750Y733094D01*
D02*
G37*
G36*
X2398431Y715000D02*
X2361569D01*
X2325962Y705459D01*
X2294038Y687028D01*
X2267972Y660962D01*
X2249541Y629038D01*
X2240000Y593431D01*
Y556569D01*
X2249541Y520962D01*
X2267972Y489038D01*
X2294038Y462972D01*
X2325962Y444541D01*
X2361569Y435000D01*
X2398431D01*
X2434038Y444541D01*
X2465962Y462972D01*
X2492028Y489038D01*
X2510459Y520962D01*
X2520000Y556569D01*
Y593431D01*
X2510459Y629038D01*
X2492028Y660962D01*
X2465962Y687028D01*
X2434038Y705459D01*
X2398431Y715000D01*
D02*
G37*
G36*
X8061000Y783529D02*
X8031000D01*
X8010516Y779454D01*
X7993150Y767850D01*
X7981546Y750484D01*
X7977471Y730000D01*
X7981546Y709516D01*
X7993150Y692150D01*
X8010516Y680546D01*
X8014630Y679728D01*
X8033613Y665199D01*
X8039112Y641471D01*
X8037824Y635000D01*
Y575000D01*
X8042481Y551589D01*
X8055742Y531743D01*
X8075589Y518481D01*
X8094090Y514801D01*
X8094216Y514675D01*
Y334910D01*
X8091743Y333257D01*
X8078481Y313411D01*
X8075970Y300783D01*
X7296030D01*
X7293519Y313411D01*
X7280257Y333257D01*
X7277783Y334910D01*
Y511282D01*
X7282144Y515644D01*
X7296411Y518481D01*
X7316257Y531743D01*
X7329519Y551589D01*
X7334175Y575000D01*
Y635000D01*
X7332684Y642500D01*
X7335030Y664345D01*
X7353999Y684772D01*
X7355739Y685493D01*
X7370507Y700261D01*
X7378500Y719557D01*
Y740443D01*
X7370507Y759739D01*
X7355739Y774507D01*
X7336443Y782500D01*
X7315557D01*
X7296261Y774507D01*
X7281492Y759739D01*
X7273500Y740443D01*
Y729244D01*
X7273351Y719382D01*
X7249589Y691519D01*
X7229742Y678257D01*
X7216481Y658411D01*
X7211825Y635000D01*
Y590650D01*
X7183771Y582187D01*
X7176825Y581815D01*
X7165490Y593149D01*
X7148951Y600000D01*
X7131049D01*
X7114510Y593149D01*
X7101851Y580491D01*
X7095000Y563951D01*
Y546049D01*
X7101851Y529510D01*
X7114510Y516851D01*
X7131049Y510000D01*
X7148951D01*
X7161216Y515081D01*
X7180034Y507966D01*
X7196216Y498080D01*
Y334910D01*
X7193742Y333257D01*
X7180481Y313411D01*
X7175824Y290000D01*
Y230000D01*
X7180481Y206589D01*
X7193742Y186743D01*
X7213589Y173481D01*
X7237000Y168825D01*
X7260411Y173481D01*
X7280257Y186743D01*
X7293519Y206589D01*
X7296030Y219216D01*
X8075970D01*
X8078481Y206589D01*
X8091743Y186743D01*
X8111589Y173481D01*
X8135000Y168825D01*
X8158411Y173481D01*
X8178257Y186743D01*
X8191519Y206589D01*
X8196175Y230000D01*
Y290000D01*
X8191519Y313411D01*
X8178257Y333257D01*
X8175783Y334910D01*
Y531567D01*
X8175784Y531568D01*
X8172679Y547176D01*
X8163838Y560407D01*
X8163838Y560407D01*
X8158362Y565883D01*
X8160175Y575000D01*
Y635000D01*
X8155519Y658411D01*
X8142257Y678257D01*
X8122411Y691519D01*
X8114293Y728819D01*
X8114528Y730000D01*
X8110454Y750484D01*
X8098850Y767850D01*
X8081484Y779454D01*
X8061000Y783529D01*
D02*
G37*
G36*
X10717728Y530000D02*
X10682271D01*
X10647496Y523083D01*
X10614738Y509514D01*
X10585257Y489815D01*
X10560185Y464743D01*
X10540486Y435262D01*
X10526917Y402504D01*
X10520000Y367728D01*
Y332272D01*
X10526917Y297496D01*
X10540486Y264738D01*
X10560185Y235257D01*
X10585257Y210185D01*
X10614738Y190486D01*
X10647496Y176917D01*
X10682271Y170000D01*
X10717728D01*
X10752504Y176917D01*
X10785262Y190486D01*
X10814743Y210185D01*
X10839815Y235257D01*
X10859514Y264738D01*
X10873083Y297496D01*
X10880000Y332272D01*
Y367728D01*
X10873083Y402504D01*
X10859514Y435262D01*
X10839815Y464743D01*
X10814743Y489815D01*
X10785262Y509514D01*
X10752504Y523083D01*
X10717728Y530000D01*
D02*
G37*
G36*
X367728D02*
X332272D01*
X297496Y523083D01*
X264738Y509514D01*
X235257Y489815D01*
X210185Y464743D01*
X190486Y435262D01*
X176917Y402504D01*
X170000Y367728D01*
Y332272D01*
X176917Y297496D01*
X190486Y264738D01*
X210185Y235257D01*
X235257Y210185D01*
X264738Y190486D01*
X297496Y176917D01*
X332272Y170000D01*
X367728D01*
X402504Y176917D01*
X435262Y190486D01*
X464743Y210185D01*
X489815Y235257D01*
X509514Y264738D01*
X523083Y297496D01*
X530000Y332272D01*
Y367728D01*
X523083Y402504D01*
X509514Y435262D01*
X489815Y464743D01*
X464743Y489815D01*
X435262Y509514D01*
X402504Y523083D01*
X367728Y530000D01*
D02*
G37*
%LPD*%
G36*
X4874752Y4448739D02*
X4874999Y4447253D01*
X4874999Y4393059D01*
X4875000D01*
Y4393059D01*
X4874999Y4393059D01*
X4875000Y4393058D01*
X4875000Y4300000D01*
X4938076D01*
X4974999Y4299999D01*
X5012499Y4262500D01*
X5043217D01*
X5175311Y4262499D01*
X5205001D01*
X5210625Y4261044D01*
X5231223Y4237522D01*
X5239999Y4227500D01*
X5239999Y4202500D01*
X5197500Y4160001D01*
X5079285Y4160000D01*
X5059999Y4160001D01*
X5004999Y4104999D01*
X5004999Y4062501D01*
X4924418Y4062500D01*
X4907500D01*
X4907500Y4062501D01*
X4907499Y4062500D01*
Y4045003D01*
X4907499Y3960000D01*
X4892499Y3945000D01*
X4872924D01*
X4488517Y3945000D01*
X4456978Y3945000D01*
X4432746Y3969323D01*
X4432276Y3969940D01*
X4432470Y4021980D01*
X4433780Y4372948D01*
X4433975Y4425157D01*
X4434223Y4457244D01*
X4443758Y4459999D01*
X4490734Y4459999D01*
X4860000D01*
X4874752Y4448739D01*
D02*
G37*
D10*
X5478775Y4398775D02*
X5480000Y4397549D01*
X5391225Y4398775D02*
X5478775D01*
X5390000Y4400000D02*
X5391225Y4398775D01*
X4983827Y4089827D02*
Y4113827D01*
X5050000Y4180000D02*
X5184852D01*
X4983827Y4113827D02*
X5050000Y4180000D01*
X4980000Y4086000D02*
X4983827Y4089827D01*
X4961602Y4277499D02*
X4996601Y4242500D01*
X4800000Y4730000D02*
X4860000Y4670000D01*
X4800000Y4730000D02*
Y4804853D01*
X5014999Y5019851D01*
Y5366098D01*
X4996601Y4242500D02*
X5220000D01*
Y4230000D02*
Y4242500D01*
Y4215148D02*
Y4230000D01*
X5184852Y4180000D02*
X5220000Y4215148D01*
Y4230000D02*
X5390000Y4400000D01*
X5015448Y5366548D02*
X5079274Y5430373D01*
X5014999Y5366098D02*
X5015448Y5366548D01*
X5079274Y5430373D02*
X5930521D01*
X4940000Y6550001D02*
X5290001Y6200000D01*
X5840000D01*
X6305000D01*
X6390000Y6115000D01*
X5930521Y5430373D02*
X6347573Y5847426D01*
X6390000Y6115000D02*
X6390000D01*
X6347574Y5847426D02*
X6410000Y5909853D01*
X6390000Y6109588D02*
Y6115000D01*
Y6109588D02*
X6410000Y6089588D01*
Y5909853D02*
Y6089588D01*
D71*
X7120000Y4020000D02*
X7121000Y4021000D01*
Y4149000D01*
X7120000Y4280000D02*
X7121000Y4279000D01*
Y4151000D02*
Y4279000D01*
Y4151000D02*
X7122000Y4150000D01*
X7121000Y4149000D02*
X7122000Y4150000D01*
X7120000Y6570001D02*
X7121000Y6569001D01*
Y6437000D02*
Y6569001D01*
Y6301000D02*
Y6435000D01*
X7120000Y6300000D02*
X7121000Y6301000D01*
X8135000Y260000D02*
Y531568D01*
X7237000Y260000D02*
Y528176D01*
Y260000D02*
X8135000D01*
X8099000Y567569D02*
X8135000Y531568D01*
X8099000Y567569D02*
Y605000D01*
X7237000Y528176D02*
X7273000Y564176D01*
Y605000D01*
X7121000Y6435000D02*
X7122000Y6436000D01*
X7121000Y6437000D02*
X7122000Y6436000D01*
X9202500Y617500D02*
X9205000Y615000D01*
X9202500Y617500D02*
X9202500Y617500D01*
X9207500Y472500D02*
X9210000Y470000D01*
X9205000Y615000D02*
X9207500Y612500D01*
Y472500D02*
Y612500D01*
X9062500Y617500D02*
X9202500D01*
X9060000Y620000D02*
X9062500Y617500D01*
X9207500D02*
X9347500D01*
X9350000Y620000D01*
X9202500Y617500D02*
Y757500D01*
X9200000Y760000D02*
X9202500Y757500D01*
X9205000Y615000D02*
X9207500Y617500D01*
X2200000Y6140000D02*
X2202500Y6137500D01*
X2377500D02*
X2380000Y6135000D01*
X2202500Y6137500D02*
X2377500D01*
X2380000Y6135000D02*
X2382500Y6137500D01*
X2380000Y6135000D02*
Y6310000D01*
X2380000Y6135000D02*
X2380000Y6135000D01*
X2382500Y6137500D02*
X2557500D01*
X2560000Y6140000D01*
X2380000Y5960000D02*
Y6135000D01*
X2380000Y6135000D02*
X2380000Y6135000D01*
D73*
X275000Y1372900D02*
X445000D01*
Y990000D02*
Y1372900D01*
X275000Y990000D02*
X445000D01*
X275000D02*
Y1372900D01*
X402400Y1150816D02*
Y1097500D01*
X349084Y1150816D01*
X335755D01*
X322426Y1137487D01*
Y1110829D01*
X335755Y1097500D01*
D74*
X8900000Y6436000D02*
D03*
Y4150000D02*
D03*
X9505000Y925000D02*
D03*
D75*
X8646000Y6436000D02*
D03*
X8392000D02*
D03*
X8138000D02*
D03*
X7884000D02*
D03*
X7630000D02*
D03*
X7376000D02*
D03*
X7122000D02*
D03*
X8646000Y4150000D02*
D03*
X8392000D02*
D03*
X8138000D02*
D03*
X7884000D02*
D03*
X7630000D02*
D03*
X7376000D02*
D03*
X7122000D02*
D03*
X9630000Y675000D02*
D03*
X10080000D02*
D03*
X10205000Y925000D02*
D03*
D76*
X8135000Y260000D02*
D03*
X7237000D02*
D03*
X8099000Y605000D02*
D03*
X7273000D02*
D03*
D77*
X2380000Y6135000D02*
D03*
Y575000D02*
D03*
D78*
Y4945000D02*
D03*
Y1765000D02*
D03*
D79*
X10700000Y6350000D02*
D03*
Y350000D02*
D03*
X350000D02*
D03*
Y6350000D02*
D03*
D80*
X4190000Y4327000D02*
D03*
D81*
Y4073000D02*
D03*
D82*
X7904000Y3562000D02*
D03*
Y3435000D02*
D03*
X7777000Y3562000D02*
D03*
Y3435000D02*
D03*
X7650000Y3562000D02*
D03*
Y3435000D02*
D03*
X7523000Y3562000D02*
D03*
Y3435000D02*
D03*
X7396000Y3562000D02*
D03*
D83*
Y3435000D02*
D03*
D84*
X5269000Y1595000D02*
D03*
X4343000Y1598500D02*
D03*
D85*
X5523000Y1595000D02*
D03*
X4597000Y1598500D02*
D03*
D86*
X5142000Y731000D02*
D03*
X5650000D02*
D03*
X4216000Y734500D02*
D03*
X4724000D02*
D03*
D87*
X8855000Y615000D02*
D03*
D88*
X9205000D02*
D03*
D89*
X5585000Y2275000D02*
D03*
X5677500D02*
D03*
X7710000Y2845000D02*
D03*
X8093750Y2655000D02*
D03*
X8100000Y2890000D02*
D03*
X5290000Y2412500D02*
D03*
X5382219Y2082500D02*
D03*
X5347500Y2195000D02*
D03*
X5430000D02*
D03*
X5480000Y4397549D02*
D03*
X5450000Y3610000D02*
D03*
X5390000Y3510000D02*
D03*
X6170000Y4270000D02*
D03*
X5270000Y3720000D02*
D03*
X6540000Y4330000D02*
D03*
Y4250000D02*
D03*
X4465000Y2127500D02*
D03*
X4897500Y1737500D02*
D03*
X3650000Y2075000D02*
D03*
Y3575000D02*
D03*
X2025000Y6325001D02*
D03*
X2650000Y5575001D02*
D03*
Y6075001D02*
D03*
X1775000Y4325000D02*
D03*
X3525000Y2825000D02*
D03*
X2025000Y3325000D02*
D03*
X3400000Y5075001D02*
D03*
X1025000Y2825000D02*
D03*
X4025000Y1825000D02*
D03*
X3025000Y3325000D02*
D03*
X3525000Y1325000D02*
D03*
X650000Y5575001D02*
D03*
X2025000Y1825000D02*
D03*
X1775000Y4825001D02*
D03*
X525000Y4325000D02*
D03*
X1775000Y5325001D02*
D03*
X1650000Y1575000D02*
D03*
X525000Y5825001D02*
D03*
X3775000Y2825000D02*
D03*
X525000Y5325001D02*
D03*
X2775000Y3325000D02*
D03*
X2650000Y3075000D02*
D03*
X1900000Y1075000D02*
D03*
X1150000Y4575001D02*
D03*
X4025000Y2325000D02*
D03*
X2275000Y325000D02*
D03*
X650000Y3575000D02*
D03*
Y2075000D02*
D03*
X2775000Y3825000D02*
D03*
X3275000Y5825001D02*
D03*
X3775000Y1825000D02*
D03*
Y4325000D02*
D03*
X275000Y3825000D02*
D03*
X3900000Y5075001D02*
D03*
X1150000Y3575000D02*
D03*
X3275000Y825000D02*
D03*
X1900000Y2075000D02*
D03*
X3150000Y4075000D02*
D03*
X1150000Y2075000D02*
D03*
X2025000Y2825000D02*
D03*
X650000Y2575000D02*
D03*
X900000Y1075000D02*
D03*
X2650000Y4075000D02*
D03*
X1025000Y1825000D02*
D03*
X1275000Y4325000D02*
D03*
X3900000Y3075000D02*
D03*
X1400000Y4075000D02*
D03*
X525000Y825000D02*
D03*
X1775000Y3825000D02*
D03*
X2900000Y5575001D02*
D03*
X775000Y1325000D02*
D03*
X3650000Y4075000D02*
D03*
X2525000Y5325001D02*
D03*
X3775000Y325000D02*
D03*
X3900000Y3575000D02*
D03*
X1775000Y325000D02*
D03*
X275000Y5325001D02*
D03*
X2400000Y3075000D02*
D03*
X2025000Y2325000D02*
D03*
X410000Y5570000D02*
D03*
X3400000Y5575001D02*
D03*
X1525000Y4325000D02*
D03*
X3400000Y4575001D02*
D03*
X2525000Y3325000D02*
D03*
X3900000Y2575000D02*
D03*
X3525000Y325000D02*
D03*
X1775000Y6325001D02*
D03*
X3525000Y825000D02*
D03*
X2025000Y5325001D02*
D03*
X2150000Y4575001D02*
D03*
X3025000Y4325000D02*
D03*
X3775000Y5325001D02*
D03*
X900000Y1575000D02*
D03*
X1275000Y325000D02*
D03*
X1650000Y2075000D02*
D03*
X4025000Y2825000D02*
D03*
X1025000Y1325000D02*
D03*
X2275000Y5325001D02*
D03*
X1150000Y1075000D02*
D03*
X2150000D02*
D03*
X1275000Y5325001D02*
D03*
X3400000Y6075001D02*
D03*
X3775000Y4825001D02*
D03*
X2900000Y6075001D02*
D03*
X650000Y575000D02*
D03*
X400000Y2075000D02*
D03*
X2650000Y2575000D02*
D03*
X3525000Y1825000D02*
D03*
X1525000Y325000D02*
D03*
X4025000D02*
D03*
X3525000Y2325000D02*
D03*
X3150000Y1075000D02*
D03*
X2525000Y6325001D02*
D03*
X2150000Y4075000D02*
D03*
X1775000Y1325000D02*
D03*
X2775000Y825000D02*
D03*
X900000Y6075001D02*
D03*
X650000Y4575001D02*
D03*
X1400000Y575000D02*
D03*
X1650000Y1075000D02*
D03*
X1525000Y825000D02*
D03*
X1025000D02*
D03*
X1650000Y5075001D02*
D03*
X775000Y2825000D02*
D03*
X3150000Y6075001D02*
D03*
X2275000Y4325000D02*
D03*
X1400000Y1075000D02*
D03*
X400000Y5075001D02*
D03*
X1150000Y2575000D02*
D03*
X3900000Y2075000D02*
D03*
X2025000Y5825001D02*
D03*
X2275000Y3325000D02*
D03*
X2900000Y1075000D02*
D03*
X3525000Y4325000D02*
D03*
X900000Y2075000D02*
D03*
X1650000Y6075001D02*
D03*
X1525000Y3325000D02*
D03*
X3525000D02*
D03*
X1525000Y2325000D02*
D03*
X4025000Y1325000D02*
D03*
X1150000Y575000D02*
D03*
X3275000Y2825000D02*
D03*
X1900000Y4575001D02*
D03*
X4025000Y4325000D02*
D03*
X3150000Y2575000D02*
D03*
X1400000Y6075001D02*
D03*
X2525000Y2325000D02*
D03*
X3150000Y4575001D02*
D03*
X2650000Y1575000D02*
D03*
X3650000Y575000D02*
D03*
X650000Y4075000D02*
D03*
X1275000Y2325000D02*
D03*
X2025000Y825000D02*
D03*
X2275000Y2825000D02*
D03*
X3275000Y4325000D02*
D03*
X1525000Y2825000D02*
D03*
X3775000Y825000D02*
D03*
X3025000Y2825000D02*
D03*
X3400000Y3575000D02*
D03*
X1275000Y1325000D02*
D03*
X775000Y1825000D02*
D03*
X2775000Y4825001D02*
D03*
X1400000Y5575001D02*
D03*
X1900000Y3575000D02*
D03*
X900000Y3075000D02*
D03*
X1400000Y3575000D02*
D03*
X2150000Y575000D02*
D03*
X775000Y325000D02*
D03*
X2900000Y575000D02*
D03*
X1025000Y5825001D02*
D03*
X2400000Y5575001D02*
D03*
X2525000Y4325000D02*
D03*
X650000Y3075000D02*
D03*
X1775000Y1825000D02*
D03*
X3275000Y3825000D02*
D03*
X3400000Y2575000D02*
D03*
X3025000Y4825001D02*
D03*
X275000Y2325000D02*
D03*
X525000Y4825001D02*
D03*
X3900000Y1075000D02*
D03*
X1525000Y5825001D02*
D03*
X1650000Y4075000D02*
D03*
X2900000Y3075000D02*
D03*
X775000Y3825000D02*
D03*
X3650000Y4575001D02*
D03*
X2900000Y2075000D02*
D03*
X1900000Y6075001D02*
D03*
X650000Y1575000D02*
D03*
X1275000Y2825000D02*
D03*
X2650000Y3575000D02*
D03*
X2400000D02*
D03*
X3025000Y2325000D02*
D03*
X775000Y6325001D02*
D03*
X1025000Y2325000D02*
D03*
Y4325000D02*
D03*
X3025000Y825000D02*
D03*
X2650000Y2075000D02*
D03*
X3525000Y6325001D02*
D03*
X3400000Y575000D02*
D03*
X3775000Y2325000D02*
D03*
X2150000Y3075000D02*
D03*
X3150000Y5075001D02*
D03*
X3775000Y6325001D02*
D03*
X775000Y5825001D02*
D03*
X2525000Y2825000D02*
D03*
X1400000Y3075000D02*
D03*
X3275000Y1325000D02*
D03*
X3400000Y2075000D02*
D03*
X2525000Y325000D02*
D03*
X1900000Y2575000D02*
D03*
X3150000Y2075000D02*
D03*
X10680000Y870000D02*
D03*
X3525000Y5825001D02*
D03*
X4025000Y3325000D02*
D03*
X3900000Y575000D02*
D03*
X2775000Y1825000D02*
D03*
X3275000Y5325001D02*
D03*
X3025000Y1825000D02*
D03*
X1650000Y3075000D02*
D03*
X1900000D02*
D03*
X900000Y4575001D02*
D03*
Y575000D02*
D03*
X525000Y2325000D02*
D03*
X3150000Y3075000D02*
D03*
X1400000Y4575001D02*
D03*
X2525000Y1325000D02*
D03*
X1775000Y5825001D02*
D03*
X2650000Y575000D02*
D03*
X650000Y1075000D02*
D03*
X2400000Y4075000D02*
D03*
X1275000Y4825001D02*
D03*
X1150000Y5075001D02*
D03*
X3525000Y4825001D02*
D03*
X3150000Y5575001D02*
D03*
X525000Y3825000D02*
D03*
X2775000Y4325000D02*
D03*
X3775000Y1325000D02*
D03*
X1025000Y3825000D02*
D03*
X2775000Y2825000D02*
D03*
X3650000Y6075001D02*
D03*
X1900000Y5575001D02*
D03*
X1525000Y6325001D02*
D03*
X3275000Y4825001D02*
D03*
X3775000Y3825000D02*
D03*
X1150000Y4075000D02*
D03*
X775000Y4825001D02*
D03*
X2400000Y2575000D02*
D03*
X3275000Y3325000D02*
D03*
X3025000Y6325001D02*
D03*
X2900000Y4075000D02*
D03*
X1650000Y3575000D02*
D03*
X2275000Y6325001D02*
D03*
X1775000Y3325000D02*
D03*
X2025000Y325000D02*
D03*
X3275000Y2325000D02*
D03*
X2900000Y2575000D02*
D03*
X275000Y2825000D02*
D03*
X775000Y5325001D02*
D03*
X3025000D02*
D03*
X3650000Y1075000D02*
D03*
X3275000Y325000D02*
D03*
X275000Y4825001D02*
D03*
X3400000Y4075000D02*
D03*
X1900000Y575000D02*
D03*
X1150000Y3075000D02*
D03*
X2150000Y2575000D02*
D03*
X2025000Y4825001D02*
D03*
X2275000Y2325000D02*
D03*
X3650000Y5575001D02*
D03*
X1275000Y1825000D02*
D03*
X900000Y5575001D02*
D03*
X2150000Y2075000D02*
D03*
X900000Y5075001D02*
D03*
X2775000Y5825001D02*
D03*
X3525000Y5325001D02*
D03*
X1525000Y1325000D02*
D03*
X1025000Y4825001D02*
D03*
X650000Y5075001D02*
D03*
X1400000Y1575000D02*
D03*
X3025000Y3825000D02*
D03*
X1900000Y1575000D02*
D03*
X1150000D02*
D03*
X525000Y1825000D02*
D03*
X1025000Y5325001D02*
D03*
X1150000Y5575001D02*
D03*
X1900000Y5075001D02*
D03*
X775000Y3325000D02*
D03*
X1025000Y6325001D02*
D03*
X1650000Y5575001D02*
D03*
X525000Y1325000D02*
D03*
X400000Y3075000D02*
D03*
X775000Y4325000D02*
D03*
X1650000Y2575000D02*
D03*
X3900000Y4075000D02*
D03*
X2150000Y5575001D02*
D03*
X2275000Y1325000D02*
D03*
X3900000Y4575001D02*
D03*
X4025000Y3825000D02*
D03*
X3025000Y5825001D02*
D03*
X1025000Y325000D02*
D03*
X1150000Y6075001D02*
D03*
X3400000Y1075000D02*
D03*
X400000Y575000D02*
D03*
X2150000Y3575000D02*
D03*
X2025000Y3825000D02*
D03*
X1775000Y2325000D02*
D03*
X3275000Y6325001D02*
D03*
X900000Y2575000D02*
D03*
X400000D02*
D03*
X2400000Y4575001D02*
D03*
X3275000Y1825000D02*
D03*
X2025000Y4325000D02*
D03*
X2775000Y5325001D02*
D03*
X2650000Y4575001D02*
D03*
X2525000Y5825001D02*
D03*
X2275000Y3825000D02*
D03*
X775000Y2325000D02*
D03*
X2775000Y6325001D02*
D03*
X3025000Y325000D02*
D03*
X525000Y3325000D02*
D03*
X1275000Y825000D02*
D03*
X775000D02*
D03*
X3775000Y3325000D02*
D03*
X3525000Y3825000D02*
D03*
X400000Y4575001D02*
D03*
X1400000Y2075000D02*
D03*
X1775000Y825000D02*
D03*
X1650000Y4575001D02*
D03*
X400000Y4075000D02*
D03*
X2900000Y4575001D02*
D03*
X1525000Y3825000D02*
D03*
X1275000D02*
D03*
X1025000Y3325000D02*
D03*
X1275000Y5825001D02*
D03*
X900000Y3575000D02*
D03*
X275000Y1825000D02*
D03*
X900000Y4075000D02*
D03*
X2900000Y3575000D02*
D03*
X2775000Y325000D02*
D03*
Y2325000D02*
D03*
X1525000Y4825001D02*
D03*
X1400000Y5075001D02*
D03*
X3650000Y3075000D02*
D03*
X2275000Y5825001D02*
D03*
X400000Y1575000D02*
D03*
X3775000Y5825001D02*
D03*
X525000Y2825000D02*
D03*
X1525000Y1825000D02*
D03*
X1900000Y4075000D02*
D03*
X2525000Y3825000D02*
D03*
X1400000Y2575000D02*
D03*
X1275000Y6325001D02*
D03*
X2025000Y1325000D02*
D03*
X1275000Y3325000D02*
D03*
X3650000Y5075001D02*
D03*
X275000Y3325000D02*
D03*
X3150000Y3575000D02*
D03*
X650000Y6075001D02*
D03*
X1650000Y575000D02*
D03*
X3150000D02*
D03*
X3400000Y3075000D02*
D03*
X275000Y4325000D02*
D03*
X400000Y3575000D02*
D03*
X2900000Y5075001D02*
D03*
X3650000Y2575000D02*
D03*
X1775000Y2825000D02*
D03*
X1525000Y5325001D02*
D03*
X4610000Y3710000D02*
D03*
X4183609Y3451391D02*
D03*
X4403891Y3516109D02*
D03*
X4610000Y3629600D02*
D03*
X4200000Y3200000D02*
D03*
X4449995Y3424997D02*
D03*
X4374995Y3274997D02*
D03*
X4573605Y3451387D02*
D03*
X4190000Y3560000D02*
D03*
X4538887Y3261105D02*
D03*
X4810000Y3480000D02*
D03*
X4674995Y3274997D02*
D03*
X4749995Y3424997D02*
D03*
X5280000Y4585000D02*
D03*
X6129670Y3732770D02*
D03*
X6074670Y4024997D02*
D03*
X5733890Y3883891D02*
D03*
X5889101Y3728680D02*
D03*
X5865718Y3518632D02*
D03*
X5800000Y3570000D02*
D03*
X5649995Y4024997D02*
D03*
X8000000Y1610000D02*
D03*
X8280000Y1310000D02*
D03*
X6940523Y2660566D02*
D03*
X8290000Y2330000D02*
D03*
X9324994Y1474997D02*
D03*
X9174994D02*
D03*
X8724994D02*
D03*
X7449994Y1624997D02*
D03*
X8574994Y1474997D02*
D03*
X8874994D02*
D03*
X9474994D02*
D03*
X9024994D02*
D03*
X7524994D02*
D03*
X6999995Y1924997D02*
D03*
X8274994Y1774997D02*
D03*
X8949994Y6124996D02*
D03*
X5724995Y274998D02*
D03*
X8499994Y1924997D02*
D03*
X7674994Y5674996D02*
D03*
X8499994Y4024997D02*
D03*
X8649994Y5824996D02*
D03*
X5424995Y274998D02*
D03*
X9549994Y3724997D02*
D03*
X7524994Y6274996D02*
D03*
X9024994Y1174997D02*
D03*
X10824993Y2074997D02*
D03*
X10449994Y1324997D02*
D03*
X6699995Y2224997D02*
D03*
X8949994Y5524996D02*
D03*
X9999994Y1024997D02*
D03*
X10599994Y2824997D02*
D03*
X8799994Y6124996D02*
D03*
X4449995Y424998D02*
D03*
X9924994Y3274997D02*
D03*
X5949995Y4024997D02*
D03*
X9624994Y2674997D02*
D03*
X5874995Y874997D02*
D03*
X8724994Y1774997D02*
D03*
X8874994Y4774996D02*
D03*
X7149995Y6124996D02*
D03*
X8874994Y1774997D02*
D03*
X9474994Y2674997D02*
D03*
X6624995Y874997D02*
D03*
X5049995Y1624997D02*
D03*
X9249994Y1024997D02*
D03*
X9774994Y1474997D02*
D03*
X10749993Y3424997D02*
D03*
X4599995Y1324997D02*
D03*
X7449994Y3724997D02*
D03*
X8874994Y5974996D02*
D03*
X7524994Y1174997D02*
D03*
X4749995Y1024997D02*
D03*
X5124995Y274998D02*
D03*
X10224994D02*
D03*
X10599994Y1024997D02*
D03*
Y1924997D02*
D03*
X8424994Y5974996D02*
D03*
X8949994Y2824997D02*
D03*
X9324994Y1174997D02*
D03*
X8874994Y5374996D02*
D03*
X8649994Y6124996D02*
D03*
X5949995Y1324997D02*
D03*
X9549994Y3424997D02*
D03*
X8799994Y2824997D02*
D03*
X4599995Y424998D02*
D03*
X10374993Y874997D02*
D03*
X4824995Y1174997D02*
D03*
X9699994Y3424997D02*
D03*
X4299995Y1024997D02*
D03*
X9174994Y274998D02*
D03*
X9624994Y2074997D02*
D03*
X9474994Y3274997D02*
D03*
X10149994Y424998D02*
D03*
X8649994Y5224996D02*
D03*
X5649995Y424998D02*
D03*
X4599995Y2224997D02*
D03*
X8499994Y5824996D02*
D03*
X5424995Y874997D02*
D03*
X9474994Y1174997D02*
D03*
X10374993Y574998D02*
D03*
X10524993Y2974997D02*
D03*
X6024995Y4174996D02*
D03*
X7824994Y5674996D02*
D03*
X9249994Y2224997D02*
D03*
X9624994Y3574997D02*
D03*
X9699994Y1024997D02*
D03*
X9474994Y574998D02*
D03*
X7749994Y6124996D02*
D03*
X10524993Y874997D02*
D03*
X10749993Y2824997D02*
D03*
X5049995Y424998D02*
D03*
X9174994Y1774997D02*
D03*
X5649995Y1324997D02*
D03*
X8799994Y3724997D02*
D03*
X4524995Y274998D02*
D03*
X7674994Y5974996D02*
D03*
X8799994Y424998D02*
D03*
X7749994Y5524996D02*
D03*
X8874994Y2374997D02*
D03*
X6024995Y2074997D02*
D03*
X9849994Y1324997D02*
D03*
X7899994Y424998D02*
D03*
X10299994Y3724997D02*
D03*
X8499994Y1624997D02*
D03*
X10299994Y1024997D02*
D03*
X10074994Y1474997D02*
D03*
X6399995Y424998D02*
D03*
X8649994Y1324997D02*
D03*
X5349995Y2524997D02*
D03*
X8349994Y3424997D02*
D03*
X8199994Y3724997D02*
D03*
X9324994Y874997D02*
D03*
X10674993Y574998D02*
D03*
X7449994Y424998D02*
D03*
X6249995D02*
D03*
X6099995Y4324996D02*
D03*
X9549994Y1324997D02*
D03*
X5649995Y3724997D02*
D03*
X8649994Y4624996D02*
D03*
X9324994Y274998D02*
D03*
X8799994Y5524996D02*
D03*
X8649994Y3724997D02*
D03*
X10824993Y2974997D02*
D03*
X9774994Y574998D02*
D03*
X5349995Y1024997D02*
D03*
X9699994Y424998D02*
D03*
X4224995Y1774997D02*
D03*
X9924994Y874997D02*
D03*
X8649994Y1624997D02*
D03*
X10749993Y1024997D02*
D03*
X8949994Y424998D02*
D03*
X9549994Y2224997D02*
D03*
X7899994Y5824996D02*
D03*
X8124994Y3574997D02*
D03*
X9699994Y1624997D02*
D03*
X4974995Y1174997D02*
D03*
Y1474997D02*
D03*
X9099994Y1624997D02*
D03*
X4824995Y274998D02*
D03*
X4899995Y1624997D02*
D03*
X7599994Y424998D02*
D03*
X10449994Y1924997D02*
D03*
X10749993Y2224997D02*
D03*
X4149996Y424998D02*
D03*
X4899995Y2224997D02*
D03*
X10599994Y3124997D02*
D03*
X4749995Y1324997D02*
D03*
X9999994Y424998D02*
D03*
X9849994Y1024997D02*
D03*
X4524995Y1174997D02*
D03*
X8724994Y874997D02*
D03*
X8874994Y4474996D02*
D03*
X8424994Y5674996D02*
D03*
X8724994Y5974996D02*
D03*
X7749994Y5824996D02*
D03*
X10374993Y3274997D02*
D03*
X5199995Y1024997D02*
D03*
X10749993Y2524997D02*
D03*
X4299995Y424998D02*
D03*
X8724994Y1174997D02*
D03*
X4674995D02*
D03*
X7074994Y874997D02*
D03*
X8424994Y5374996D02*
D03*
X9474994Y274998D02*
D03*
X8724994Y4774996D02*
D03*
X9849994Y3424997D02*
D03*
X10524993Y1174997D02*
D03*
X7449994Y1324997D02*
D03*
X8349994Y4024997D02*
D03*
X8799994Y1624997D02*
D03*
X7824994Y5974996D02*
D03*
X8874994Y274998D02*
D03*
X10224994Y1474997D02*
D03*
X8574994Y5374996D02*
D03*
X4149996Y1924997D02*
D03*
X9774994Y274998D02*
D03*
X10824993Y574998D02*
D03*
X6324995Y1474997D02*
D03*
X6774995Y2374997D02*
D03*
X9024994Y1774997D02*
D03*
X9399994Y424998D02*
D03*
X10074994Y274998D02*
D03*
X9924994D02*
D03*
X7074994Y5974996D02*
D03*
X7824994Y4774996D02*
D03*
X5499995Y424998D02*
D03*
X7599994Y3724997D02*
D03*
X7674994Y5374996D02*
D03*
X6474995Y574998D02*
D03*
X10374993Y274998D02*
D03*
X8724994Y5374996D02*
D03*
X10299994Y1624997D02*
D03*
X9249994Y2824997D02*
D03*
X10449994Y3124997D02*
D03*
X10674993Y3274997D02*
D03*
X8649994Y5524996D02*
D03*
X4149996Y1024997D02*
D03*
X5199995Y2524997D02*
D03*
X7599994Y1924997D02*
D03*
X7224994Y5974996D02*
D03*
X8049994Y3724997D02*
D03*
X6399995Y724998D02*
D03*
X8874994Y2674997D02*
D03*
X8274994Y5374996D02*
D03*
X8949994Y4624996D02*
D03*
X5424995Y574998D02*
D03*
X7899994Y3724997D02*
D03*
X8949994Y1624997D02*
D03*
X10524993Y3274997D02*
D03*
Y574998D02*
D03*
X10599994Y724998D02*
D03*
X4449995Y1324997D02*
D03*
X6099995Y2524997D02*
D03*
X6399995D02*
D03*
X5724995Y4174996D02*
D03*
X9249994Y1624997D02*
D03*
X10749993Y1324997D02*
D03*
X5274995Y274998D02*
D03*
X10674993Y1174997D02*
D03*
X10299994Y1324997D02*
D03*
X8499994Y6124996D02*
D03*
X9924994Y1474997D02*
D03*
X6474995Y1174997D02*
D03*
X10224994D02*
D03*
X9024994Y274998D02*
D03*
X9249994Y3724997D02*
D03*
X6099995Y424998D02*
D03*
X6999995Y4024997D02*
D03*
X8799994Y5224996D02*
D03*
X10449994Y1024997D02*
D03*
X10674993Y2674997D02*
D03*
X8799994Y4624996D02*
D03*
X9024994Y874997D02*
D03*
X8949994Y1024997D02*
D03*
X5724995Y1474997D02*
D03*
X4149996Y1324997D02*
D03*
X5874995Y1474997D02*
D03*
X4974995Y274998D02*
D03*
X8949994Y4924996D02*
D03*
X6249995Y724998D02*
D03*
X5799995Y1324997D02*
D03*
X9849994Y3724997D02*
D03*
X7524994Y4474996D02*
D03*
X9774994Y874997D02*
D03*
X7674994Y4774996D02*
D03*
X10299994Y724998D02*
D03*
X5349995Y424998D02*
D03*
X5574995Y4174996D02*
D03*
X6024995Y874997D02*
D03*
X9549994Y424998D02*
D03*
X4824995Y1474997D02*
D03*
X7074994Y5674996D02*
D03*
X9999994Y3724997D02*
D03*
X8874994Y6274996D02*
D03*
X4599995Y2824997D02*
D03*
X9624994Y1774997D02*
D03*
X10449994Y1624997D02*
D03*
X4374995Y1174997D02*
D03*
X7599994Y1624997D02*
D03*
X5799995Y3124997D02*
D03*
X4224995Y274998D02*
D03*
X7074994Y4774996D02*
D03*
X8949994Y4324996D02*
D03*
X4899995Y424998D02*
D03*
X8424994Y274998D02*
D03*
X6699995Y4324996D02*
D03*
X4974995Y4774996D02*
D03*
X8649994Y424998D02*
D03*
X4749995D02*
D03*
X10524993Y1474997D02*
D03*
X9774994Y3274997D02*
D03*
X10299994Y424998D02*
D03*
X5049995Y1024997D02*
D03*
X9624994Y3274997D02*
D03*
X10824993Y2674997D02*
D03*
X9099994Y424998D02*
D03*
X4524995Y874997D02*
D03*
X9399994Y1324997D02*
D03*
X5499995Y1024997D02*
D03*
X8499994Y3724997D02*
D03*
X10599994Y1324997D02*
D03*
X10824993Y874997D02*
D03*
X8499994Y5524996D02*
D03*
X8049994Y4024997D02*
D03*
X9099994Y2824997D02*
D03*
X5649995Y3124997D02*
D03*
X6774995Y274998D02*
D03*
X8724994Y4474996D02*
D03*
X8874994Y5674996D02*
D03*
X8049994Y424998D02*
D03*
X8274994Y3574997D02*
D03*
X8874994Y874997D02*
D03*
X8649994Y4924996D02*
D03*
X8949994Y5824996D02*
D03*
X9774994Y3574997D02*
D03*
X8124994Y2974997D02*
D03*
X8724994Y5074996D02*
D03*
X6099995Y724998D02*
D03*
X6249995Y2524997D02*
D03*
X10449994Y424998D02*
D03*
X8424994Y3874997D02*
D03*
X8574994D02*
D03*
X7749994Y3724997D02*
D03*
X8649994Y1024997D02*
D03*
X7524994Y2974997D02*
D03*
X7749994Y424998D02*
D03*
X4524995Y2674997D02*
D03*
X6324995Y574998D02*
D03*
X8574994Y3574997D02*
D03*
X6324995Y2074997D02*
D03*
X9849994Y724998D02*
D03*
X10524993Y1774997D02*
D03*
X5199995Y424998D02*
D03*
X9174994Y874997D02*
D03*
X9624994Y274998D02*
D03*
X10374993Y1474997D02*
D03*
X10674993Y2074997D02*
D03*
X7674994Y6274996D02*
D03*
X8199994Y3424997D02*
D03*
X6549995Y1024997D02*
D03*
X9849994Y424998D02*
D03*
X5049995Y1324997D02*
D03*
X7899994Y1924997D02*
D03*
X5124995Y1174997D02*
D03*
X10749993Y3124997D02*
D03*
X9774994Y1774997D02*
D03*
X9624994Y1174997D02*
D03*
X5799995Y1024997D02*
D03*
X9399994Y3724997D02*
D03*
X10749993Y724998D02*
D03*
X9399994D02*
D03*
X10824993Y1174997D02*
D03*
X6174995Y1474997D02*
D03*
X8799994Y5824996D02*
D03*
X10824993Y2374997D02*
D03*
X10449994Y724998D02*
D03*
X5649995Y4324996D02*
D03*
X9099994Y1024997D02*
D03*
X5424995Y4174996D02*
D03*
X6174995Y574998D02*
D03*
X8649994Y724998D02*
D03*
X8949994Y4024997D02*
D03*
X10824993Y1474997D02*
D03*
X4899995Y1324997D02*
D03*
X4149996Y4924996D02*
D03*
X8274994Y3874997D02*
D03*
X5799995Y424998D02*
D03*
X10374993Y1174997D02*
D03*
X10674993Y1774997D02*
D03*
X6174995Y2074997D02*
D03*
X7149995Y5524996D02*
D03*
X9099994Y724998D02*
D03*
X4449995Y1024997D02*
D03*
X9924994Y574998D02*
D03*
X8799994Y4924996D02*
D03*
X5874995Y4174996D02*
D03*
X6024995Y1474997D02*
D03*
X4374995Y274998D02*
D03*
X5724995Y2974997D02*
D03*
X9699994Y1924997D02*
D03*
X4224995Y1174997D02*
D03*
X8724994Y5674996D02*
D03*
X7149995Y424998D02*
D03*
X6099995Y1324997D02*
D03*
X8574994Y1774997D02*
D03*
X7449994Y2224997D02*
D03*
X10749993Y3724997D02*
D03*
X8574994Y5974996D02*
D03*
X7149995Y5824996D02*
D03*
X8874994Y5074996D02*
D03*
X7899994Y6124996D02*
D03*
X7074994Y5374996D02*
D03*
X4224995Y4474996D02*
D03*
X5949995Y1024997D02*
D03*
X8724994Y274998D02*
D03*
X10674993Y3574997D02*
D03*
X7374994Y4474996D02*
D03*
X9699994Y3724997D02*
D03*
X7224994Y6274996D02*
D03*
X6024995Y3874997D02*
D03*
X4524995Y574998D02*
D03*
X5799995Y4324996D02*
D03*
X5874995Y2974997D02*
D03*
X10749993Y1624997D02*
D03*
X4674995Y274998D02*
D03*
X5949995Y4324996D02*
D03*
X10224994Y574998D02*
D03*
X4299995Y1324997D02*
D03*
X10674993Y2374997D02*
D03*
X8949994Y5224996D02*
D03*
X5649995Y1024997D02*
D03*
X4899995D02*
D03*
X4599995D02*
D03*
X5949995Y2524997D02*
D03*
X7899994Y4924996D02*
D03*
X4299995Y2224997D02*
D03*
X10824993Y3274997D02*
D03*
X8799994Y1024997D02*
D03*
X6474995Y874997D02*
D03*
X7974994Y2074997D02*
D03*
X8199994Y1924997D02*
D03*
X4449995Y2224997D02*
D03*
Y2824997D02*
D03*
X5574995Y274998D02*
D03*
X10674993Y1474997D02*
D03*
X8574994Y5674996D02*
D03*
X5120000Y2890000D02*
D03*
X5290000Y3190000D02*
D03*
X5170000Y3180000D02*
D03*
X5538783Y3249949D02*
D03*
X5210000Y4630000D02*
D03*
X5280000Y4460000D02*
D03*
X4970000Y3370000D02*
D03*
X6461053Y2620633D02*
D03*
X8445325Y2534675D02*
D03*
X6955000Y2140000D02*
D03*
X8470000Y2120000D02*
D03*
X7980000Y2630000D02*
D03*
X8250000Y2030000D02*
D03*
X6925000Y1820000D02*
D03*
X5430000Y2000000D02*
D03*
X5560000D02*
D03*
X7000000Y2600000D02*
D03*
X8230000Y2140000D02*
D03*
X5840000Y1740000D02*
D03*
X6818118Y1030000D02*
D03*
X7220000Y1430000D02*
D03*
X7010000Y1820000D02*
D03*
X5200000Y125000D02*
D03*
X5430000Y4883800D02*
D03*
X5630000Y4710000D02*
D03*
X5730000D02*
D03*
X5980000Y4900000D02*
D03*
X5979726Y4812487D02*
D03*
X4700000Y2300000D02*
D03*
X4390000Y3820000D02*
D03*
X4280000Y4210000D02*
D03*
X5100000Y4840000D02*
D03*
X4790000Y4910000D02*
D03*
X4640000D02*
D03*
X4552500Y3872500D02*
D03*
X4817500Y3877500D02*
D03*
X4977500Y3995000D02*
D03*
X4346148Y4449606D02*
D03*
X6030000Y3125000D02*
D03*
X4797500Y4375000D02*
D03*
X4855412Y4310000D02*
D03*
X4350000Y4602500D02*
D03*
X4961602Y4277499D02*
D03*
X4940000Y4355000D02*
D03*
X4937500Y4442500D02*
D03*
X4585000Y4440000D02*
D03*
X4855000D02*
D03*
X4455000D02*
D03*
X4725000D02*
D03*
X4802500Y4062500D02*
D03*
X4980000Y4086000D02*
D03*
X4883827D02*
D03*
X5300000Y4200000D02*
D03*
X4860000Y4670000D02*
D03*
Y4770000D02*
D03*
X5490000Y4630000D02*
D03*
X4580000Y3970000D02*
D03*
X4720000D02*
D03*
X4450000Y4088750D02*
D03*
X4880000Y3970000D02*
D03*
X4450000Y4330000D02*
D03*
X4451250Y4206250D02*
D03*
X4455000Y3967500D02*
D03*
X5390000Y4400000D02*
D03*
X7540000Y5696350D02*
D03*
X8840000Y3240000D02*
D03*
X4150000Y4530000D02*
D03*
X6350000Y4465000D02*
D03*
X6147359Y4772641D02*
D03*
X6295000Y4775000D02*
D03*
X6807500Y1117500D02*
D03*
X8180000Y5050000D02*
D03*
X8242637Y4992816D02*
D03*
X8207219Y5260000D02*
D03*
X8200000Y5340000D02*
D03*
X8090000Y5190000D02*
D03*
X8340000Y5590000D02*
D03*
X8043214Y5667023D02*
D03*
X8157161Y5662395D02*
D03*
X6588068Y3931932D02*
D03*
X8096257Y5593743D02*
D03*
X8212825Y5597175D02*
D03*
X6747500Y4712500D02*
D03*
X6820000Y4660000D02*
D03*
X8360000Y4990000D02*
D03*
X8420000Y5050000D02*
D03*
X8300000D02*
D03*
X8262499Y5130714D02*
D03*
X6980000Y4670000D02*
D03*
X5570000Y3700000D02*
D03*
X5201053Y3380633D02*
D03*
X5631053Y3020633D02*
D03*
X5391053Y3980632D02*
D03*
X5500000Y3760000D02*
D03*
Y3850000D02*
D03*
X8490000Y2020000D02*
D03*
X8270000Y2660000D02*
D03*
X4541053Y2760633D02*
D03*
X4381053D02*
D03*
X10460000Y2100000D02*
D03*
X4511053Y1930632D02*
D03*
X6601053Y1720633D02*
D03*
X5471053Y1370633D02*
D03*
X8060000Y920000D02*
D03*
X8200000Y1690000D02*
D03*
X8211053Y1550632D02*
D03*
X9670000Y2600000D02*
D03*
X8181053Y720633D02*
D03*
X6671053Y2530632D02*
D03*
X6571053Y1910632D02*
D03*
X6720000Y2140000D02*
D03*
X6881053Y1200632D02*
D03*
X7031053Y1070632D02*
D03*
X6990000Y960000D02*
D03*
X4990000Y2640000D02*
D03*
X4850000D02*
D03*
X4970000Y3270000D02*
D03*
X4850000Y2985000D02*
D03*
X5090000Y3380000D02*
D03*
X5430000Y3910000D02*
D03*
X5450000Y4090000D02*
D03*
X6060000Y3570000D02*
D03*
X6030000Y3790000D02*
D03*
X6430000Y3600000D02*
D03*
X8310000Y2890000D02*
D03*
X7610000Y2980000D02*
D03*
X7420000D02*
D03*
X7200000D02*
D03*
X6470000Y3120000D02*
D03*
X6280000D02*
D03*
X5960000Y2970000D02*
D03*
X8010000Y3440000D02*
D03*
X7160000Y4880000D02*
D03*
X6700000Y4160000D02*
D03*
X6840000Y4320000D02*
D03*
X8260000Y4060000D02*
D03*
X8140000Y4290000D02*
D03*
X8310000Y4360000D02*
D03*
X8430000Y4500000D02*
D03*
Y4660000D02*
D03*
Y4840000D02*
D03*
X6850000Y3910000D02*
D03*
X6920000Y4040000D02*
D03*
X7300000Y4430000D02*
D03*
X7560000Y4680000D02*
D03*
X7790000Y4920000D02*
D03*
X7980000Y5100000D02*
D03*
X4990000Y2820000D02*
D03*
X5130000Y2710000D02*
D03*
X7130000Y2660000D02*
D03*
Y2560000D02*
D03*
X8155000Y4413543D02*
D03*
X9690000Y2300000D02*
D03*
X8090000Y1610000D02*
D03*
X4840000Y2420000D02*
D03*
X7370000Y1130000D02*
D03*
X7610000Y2280000D02*
D03*
X8680000Y2020000D02*
D03*
X8690000Y1880000D02*
D03*
X7960000Y1035000D02*
D03*
X8030000Y2340000D02*
D03*
X5840000Y1990000D02*
D03*
X3975000Y5600000D02*
D03*
Y5450000D02*
D03*
Y5300000D02*
D03*
Y5150000D02*
D03*
X4086502Y5037265D02*
D03*
X3975000Y6350000D02*
D03*
Y6200000D02*
D03*
Y6050000D02*
D03*
Y5900000D02*
D03*
Y5750000D02*
D03*
X3250001Y6575000D02*
D03*
X3400001D02*
D03*
X3550001D02*
D03*
X3700001D02*
D03*
X3850001D02*
D03*
X3975000Y6500000D02*
D03*
X2650001Y6575000D02*
D03*
X2800000D02*
D03*
X2950000D02*
D03*
X3100001D02*
D03*
X1900000D02*
D03*
X2050000D02*
D03*
X2200000D02*
D03*
X2350000D02*
D03*
X2500001D02*
D03*
X1150000D02*
D03*
X1300000D02*
D03*
X1450000D02*
D03*
X1600000D02*
D03*
X1750000D02*
D03*
X250000D02*
D03*
X400000D02*
D03*
X550000D02*
D03*
X700000D02*
D03*
X850000D02*
D03*
X1000000D02*
D03*
X125000Y6425001D02*
D03*
Y6300001D02*
D03*
Y6150001D02*
D03*
Y6000000D02*
D03*
Y5850000D02*
D03*
Y5700001D02*
D03*
Y5550001D02*
D03*
Y5425001D02*
D03*
Y5300001D02*
D03*
Y5150001D02*
D03*
Y5000000D02*
D03*
Y4850000D02*
D03*
Y4725000D02*
D03*
Y4575001D02*
D03*
Y4425000D02*
D03*
Y4275000D02*
D03*
Y4125000D02*
D03*
Y3975000D02*
D03*
Y3850000D02*
D03*
Y3725000D02*
D03*
Y3575000D02*
D03*
Y3425000D02*
D03*
Y3275000D02*
D03*
Y3150000D02*
D03*
Y3000000D02*
D03*
Y2850000D02*
D03*
Y2700000D02*
D03*
Y2550000D02*
D03*
Y2400000D02*
D03*
Y2275000D02*
D03*
Y2150000D02*
D03*
Y2000000D02*
D03*
Y1850000D02*
D03*
Y1700000D02*
D03*
Y1575000D02*
D03*
Y1425000D02*
D03*
Y1275000D02*
D03*
Y1125000D02*
D03*
Y975000D02*
D03*
Y825000D02*
D03*
Y700000D02*
D03*
Y575000D02*
D03*
Y425000D02*
D03*
Y275000D02*
D03*
X6744546Y188008D02*
D03*
X6475000Y250000D02*
D03*
X6625000D02*
D03*
X6025000D02*
D03*
X5884947Y210496D02*
D03*
X699999Y125000D02*
D03*
X549999D02*
D03*
X399999D02*
D03*
X249999D02*
D03*
X1600000D02*
D03*
X1449999D02*
D03*
X1299999D02*
D03*
X1149999D02*
D03*
X999999D02*
D03*
X849999D02*
D03*
X2350000D02*
D03*
X2200000D02*
D03*
X2049999D02*
D03*
X1900000D02*
D03*
X1750000D02*
D03*
X3250000D02*
D03*
X3100000D02*
D03*
X2950000D02*
D03*
X2800000D02*
D03*
X2650000D02*
D03*
X2500000D02*
D03*
X4000000D02*
D03*
X3850000D02*
D03*
X3700000D02*
D03*
X3550000D02*
D03*
X3400000D02*
D03*
X5800000D02*
D03*
X5650000D02*
D03*
X5050000D02*
D03*
X7475000D02*
D03*
X7325000D02*
D03*
X7174999D02*
D03*
X8375000D02*
D03*
X8225000D02*
D03*
X8075000D02*
D03*
X7925000D02*
D03*
X7774999D02*
D03*
X7624999D02*
D03*
X9425000D02*
D03*
X10775000D02*
D03*
X10625000D02*
D03*
X10475000D02*
D03*
X10325000D02*
D03*
X10925000Y250000D02*
D03*
Y400000D02*
D03*
Y550000D02*
D03*
Y675000D02*
D03*
Y800000D02*
D03*
Y950000D02*
D03*
Y1100000D02*
D03*
Y1250000D02*
D03*
Y1400000D02*
D03*
Y1550000D02*
D03*
Y1675000D02*
D03*
Y1800000D02*
D03*
Y1950000D02*
D03*
Y2100000D02*
D03*
Y2250000D02*
D03*
Y2400000D02*
D03*
Y2550000D02*
D03*
Y2675000D02*
D03*
Y2800000D02*
D03*
Y2950000D02*
D03*
Y3100000D02*
D03*
Y3250000D02*
D03*
Y3400000D02*
D03*
Y3550000D02*
D03*
Y3675000D02*
D03*
Y3800000D02*
D03*
X10100000Y3875000D02*
D03*
X10250000D02*
D03*
X10400000D02*
D03*
X10550000D02*
D03*
X10700000D02*
D03*
X10850000D02*
D03*
X9050000D02*
D03*
X9200000D02*
D03*
X9350000D02*
D03*
X9500000D02*
D03*
X9650000D02*
D03*
X9800000D02*
D03*
X9950000D02*
D03*
X9050000Y4425000D02*
D03*
Y4275000D02*
D03*
Y4125000D02*
D03*
Y3975000D02*
D03*
Y4575000D02*
D03*
Y4725000D02*
D03*
Y4875000D02*
D03*
Y5025000D02*
D03*
Y5175000D02*
D03*
Y5325000D02*
D03*
Y5450000D02*
D03*
X8900000Y6575000D02*
D03*
X8750000D02*
D03*
X8600000D02*
D03*
X8450000D02*
D03*
X8300000D02*
D03*
X8150000D02*
D03*
X8000000D02*
D03*
X9050000D02*
D03*
Y6450000D02*
D03*
Y6325000D02*
D03*
Y6175000D02*
D03*
Y6025000D02*
D03*
Y5875000D02*
D03*
Y5725000D02*
D03*
Y5575000D02*
D03*
X6960000Y5120000D02*
D03*
X6870000Y5030000D02*
D03*
X6730000Y5000000D02*
D03*
X6580000D02*
D03*
X7940000Y2180000D02*
D03*
X7830000Y2130000D02*
D03*
X8260000Y1015000D02*
D03*
X8160000Y1010000D02*
D03*
X8580000Y560000D02*
D03*
X8310000Y1415000D02*
D03*
X8400000Y1320000D02*
D03*
X5340000Y3905740D02*
D03*
X5308898Y4024741D02*
D03*
X5620000Y3510000D02*
D03*
X9060000Y3520000D02*
D03*
X9180000Y3580000D02*
D03*
X6520000Y3990000D02*
D03*
X5480000Y5290000D02*
D03*
X5330000D02*
D03*
X5420000Y5220000D02*
D03*
X8990000Y3640000D02*
D03*
X6595000Y4875000D02*
D03*
X6590000Y4785000D02*
D03*
X6160000Y4905141D02*
D03*
X6740000Y4870000D02*
D03*
X4575000Y5000000D02*
D03*
X4425000D02*
D03*
X4275000D02*
D03*
X4875000D02*
D03*
X4725000D02*
D03*
X5830000D02*
D03*
X5980000D02*
D03*
X6130000D02*
D03*
X6280000D02*
D03*
X6430000D02*
D03*
X7000000Y5300000D02*
D03*
Y5450000D02*
D03*
Y5600000D02*
D03*
Y5750000D02*
D03*
Y5900000D02*
D03*
Y6050000D02*
D03*
Y6200000D02*
D03*
Y6325000D02*
D03*
Y6450000D02*
D03*
Y6575000D02*
D03*
X7850000D02*
D03*
X7700000D02*
D03*
X7550000D02*
D03*
X7400000D02*
D03*
X7250000D02*
D03*
X8280897Y5660000D02*
D03*
X9260000Y3270000D02*
D03*
X9920000Y2290000D02*
D03*
X6967463Y1446199D02*
D03*
X10120000Y3300000D02*
D03*
X9925000Y1610000D02*
D03*
Y1720000D02*
D03*
Y1900000D02*
D03*
X9080000Y2680000D02*
D03*
X9930000Y2710000D02*
D03*
X9925000Y2420000D02*
D03*
Y2170000D02*
D03*
X9930000Y2010000D02*
D03*
X4960000Y2400000D02*
D03*
Y2280000D02*
D03*
Y2170000D02*
D03*
X8132391Y6262391D02*
D03*
X7540000Y6160000D02*
D03*
X4253890Y2316109D02*
D03*
X5015448Y5366548D02*
D03*
X4850000Y2775000D02*
D03*
X6300000Y4905000D02*
D03*
X4470000Y2990000D02*
D03*
X10120000Y3770000D02*
D03*
X10110000Y3650000D02*
D03*
X5840000Y6200000D02*
D03*
X6190000Y2240000D02*
D03*
X4477500Y2525000D02*
D03*
X6280000Y2255000D02*
D03*
X6080000Y2205000D02*
D03*
X5960000D02*
D03*
X5840000D02*
D03*
X4940000Y6550001D02*
D03*
X5400000Y4765000D02*
D03*
X6390000Y6115000D02*
D03*
X4225000Y2811391D02*
D03*
X5380000Y3025000D02*
D03*
X6347574Y5847426D02*
D03*
X5840000Y2085000D02*
D03*
X5635049Y2483219D02*
D03*
X4304484Y1835516D02*
D03*
X9830000Y1155000D02*
D03*
X6805000Y1265000D02*
D03*
X6967463Y1342349D02*
D03*
X8130000Y3900000D02*
D03*
X7611591Y877754D02*
D03*
X10150000Y2510000D02*
D03*
X10530000Y2470000D02*
D03*
X10474675Y2534675D02*
D03*
X10470000Y2405000D02*
D03*
X10533315Y2353315D02*
D03*
X10470000Y2295000D02*
D03*
X10530719Y2239208D02*
D03*
X6950000Y3900000D02*
D03*
X7950000Y2960000D02*
D03*
X7870000D02*
D03*
X6562002Y3677239D02*
D03*
X6567530Y3595312D02*
D03*
X8380000Y560000D02*
D03*
X7620000Y705000D02*
D03*
X7540000Y5471930D02*
D03*
X6070000Y3670000D02*
D03*
X6140000Y3608750D02*
D03*
X6520000Y4080000D02*
D03*
Y3880000D02*
D03*
X6435866Y4103639D02*
D03*
X5460000Y3025000D02*
D03*
X5673895Y3575000D02*
D03*
X5562060Y3580000D02*
D03*
X5740000Y3510000D02*
D03*
X6710000Y3145000D02*
D03*
X6620000D02*
D03*
X6110000Y3125000D02*
D03*
X5510000Y3510000D02*
D03*
X5842500Y6280000D02*
D03*
X5960000Y3065400D02*
D03*
X4850000Y2895000D02*
D03*
X10180000Y1260000D02*
D03*
X5105226Y5370374D02*
D03*
X6445000Y4899260D02*
D03*
X4840000Y2535000D02*
D03*
X4391911Y1838089D02*
D03*
X6410000Y2395000D02*
D03*
X6490000D02*
D03*
Y2315000D02*
D03*
X5050000Y6550001D02*
D03*
X5320000Y4765000D02*
D03*
X6410000Y2315000D02*
D03*
X7140000Y555000D02*
D03*
X7728737Y730553D02*
D03*
X6392426Y6197426D02*
D03*
X4100000Y2730000D02*
D03*
X6760000Y1985000D02*
D03*
X5790000Y4405000D02*
D03*
X5690000D02*
D03*
X6350000Y5765000D02*
D03*
X5730000Y5845000D02*
D03*
X5900000D02*
D03*
X4107500Y2247500D02*
D03*
X9830000Y1245000D02*
D03*
X6606915Y1330480D02*
D03*
X7740000Y545000D02*
D03*
D90*
X7120000Y4020000D02*
D03*
Y4280000D02*
D03*
Y6570001D02*
D03*
Y6300000D02*
D03*
X7975000Y1245000D02*
D03*
X7370000Y1040000D02*
D03*
X7260000Y1050000D02*
D03*
X7890000Y1760000D02*
D03*
X7540000Y1830000D02*
D03*
X7542500Y2050000D02*
D03*
X8170000Y2460000D02*
D03*
X7680000Y1175000D02*
D03*
X3980000Y4637500D02*
D03*
X3990000Y4767500D02*
D03*
X6347500Y1867500D02*
D03*
X7410000Y910000D02*
D03*
X8443404Y3294290D02*
D03*
X8520000Y2924291D02*
D03*
X7500000Y5290000D02*
D03*
X9210000Y470000D02*
D03*
X9060000Y620000D02*
D03*
X9350000D02*
D03*
X9200000Y760000D02*
D03*
X6420000Y1310000D02*
D03*
X6330000D02*
D03*
X2380000Y6310000D02*
D03*
Y5960000D02*
D03*
X2200000Y6140000D02*
D03*
X2560000D02*
D03*
X6450000Y1415000D02*
D03*
X7960701Y919313D02*
D03*
X7540000Y950000D02*
D03*
X7810000Y915000D02*
D03*
X8640000Y2924291D02*
D03*
X7350000Y5290000D02*
D03*
X6570054Y2565000D02*
D03*
X8450000Y3430000D02*
D03*
%TF.MD5,9741e5505dfe8ee63af27b8b0997349f*%
M02*
