%TF.GenerationSoftware,Altium Limited,Altium Designer,24.7.2 (38)*%
G04 Layer_Color=0*
%FSLAX45Y45*%
%MOMM*%
%TF.SameCoordinates,33B871D1-E8D8-480E-9A2D-2420748CAAD8*%
%TF.FilePolarity,Positive*%
%TF.FileFunction,Profile,NP*%
%TF.Part,Single*%
G01*
G75*
%TA.AperFunction,Profile*%
%ADD164C,0.02540*%
D164*
X0Y127000D02*
Y6573000D01*
D02*
G02*
X127000Y6700000I127000J0D01*
G01*
X3973000D01*
D02*
G02*
X4100000Y6573000I0J-127000D01*
G01*
Y5252000D01*
D02*
G03*
X4227000Y5125000I127000J0D01*
G01*
X4773000D01*
D02*
G03*
X4900000Y5252000I0J127000D01*
G01*
Y5298000D01*
D02*
G03*
X4773000Y5425000I-127000J0D01*
G01*
X4577000D01*
D02*
G02*
X4450000Y5552000I0J127000D01*
G01*
Y6573000D01*
D02*
G02*
X4577000Y6700000I127000J0D01*
G01*
X6443000D01*
D02*
G02*
X6570000Y6573000I0J-127000D01*
G01*
Y5552000D01*
D02*
G02*
X6443000Y5425000I-127000J0D01*
G01*
X6247000D01*
D02*
G03*
X6120000Y5298000I0J-127000D01*
G01*
Y5252000D01*
D02*
G03*
X6247000Y5125000I127000J0D01*
G01*
X6743000D01*
D02*
G03*
X6870000Y5252000I0J127000D01*
G01*
Y6573000D01*
D02*
G02*
X6997000Y6700000I127000J0D01*
G01*
X10800000Y6700000D01*
X10923000D01*
D02*
G02*
X11050000Y6573000I0J-127000D01*
G01*
Y127000D01*
D02*
G02*
X10923000Y0I-127000J0D01*
G01*
X6700000D01*
D02*
G03*
X6587853Y112147I-112147J0D01*
G01*
X6012147D01*
D02*
G03*
X5900000Y0I0J-112147D01*
G01*
X127000D01*
D02*
G02*
X0Y127000I0J127000D01*
G01*
%TF.MD5,09156f56a1def2eda8f6441f93fb87fc*%
M02*
