%TF.GenerationSoftware,Altium Limited,Altium Designer,24.7.2 (38)*%
G04 Layer_Color=0*
%FSLAX45Y45*%
%MOMM*%
%TF.SameCoordinates,33B871D1-E8D8-480E-9A2D-2420748CAAD8*%
%TF.FilePolarity,Positive*%
%TF.FileFunction,Plated,1,4,PTH,Drill*%
%TF.Part,Single*%
G01*
G75*
%TA.AperFunction,ComponentDrill*%
%ADD169C,1.00000*%
%ADD170O,0.50000X1.10000*%
%ADD171C,1.60000*%
%ADD172C,3.80000*%
%ADD173C,1.02000*%
%ADD174C,0.60960*%
%ADD175C,1.09000*%
%ADD176C,1.30000*%
%TA.AperFunction,ViaDrill,NotFilled*%
%ADD177C,0.30000*%
%ADD178C,0.40000*%
D169*
X8900000Y6436000D02*
D03*
X8646000D02*
D03*
X8392000D02*
D03*
X8138000D02*
D03*
X7884000D02*
D03*
X7630000D02*
D03*
X7376000D02*
D03*
X7122000D02*
D03*
X8900000Y4150000D02*
D03*
X8646000D02*
D03*
X8392000D02*
D03*
X8138000D02*
D03*
X7884000D02*
D03*
X7630000D02*
D03*
X7376000D02*
D03*
X7122000D02*
D03*
X9505000Y925000D02*
D03*
X9630000Y675000D02*
D03*
X10080000D02*
D03*
X10205000Y925000D02*
D03*
D170*
X8135000Y260000D02*
D03*
X7237000D02*
D03*
X8099000Y605000D02*
D03*
X7273000D02*
D03*
D171*
X2380000Y6135000D02*
D03*
Y575000D02*
D03*
D172*
Y4945000D02*
D03*
Y1765000D02*
D03*
D173*
X4190000Y4327000D02*
D03*
Y4073000D02*
D03*
D174*
X7904000Y3562000D02*
D03*
Y3435000D02*
D03*
X7777000Y3562000D02*
D03*
Y3435000D02*
D03*
X7650000Y3562000D02*
D03*
Y3435000D02*
D03*
X7523000Y3562000D02*
D03*
Y3435000D02*
D03*
X7396000Y3562000D02*
D03*
Y3435000D02*
D03*
D175*
X5269000Y1595000D02*
D03*
X5523000D02*
D03*
X4343000Y1598500D02*
D03*
X4597000D02*
D03*
D176*
X8855000Y615000D02*
D03*
X9205000D02*
D03*
D177*
X5585000Y2275000D02*
D03*
X5677500D02*
D03*
X7710000Y2845000D02*
D03*
X8093750Y2655000D02*
D03*
X8100000Y2890000D02*
D03*
X5290000Y2412500D02*
D03*
X5382219Y2082500D02*
D03*
X5347500Y2195000D02*
D03*
X5430000D02*
D03*
X5480000Y4397549D02*
D03*
X5450000Y3610000D02*
D03*
X5390000Y3510000D02*
D03*
X6170000Y4270000D02*
D03*
X5270000Y3720000D02*
D03*
X6540000Y4330000D02*
D03*
Y4250000D02*
D03*
X4465000Y2127500D02*
D03*
X4897500Y1737500D02*
D03*
X3650000Y2075000D02*
D03*
Y3575000D02*
D03*
X2025000Y6325001D02*
D03*
X2650000Y5575001D02*
D03*
Y6075001D02*
D03*
X1775000Y4325000D02*
D03*
X3525000Y2825000D02*
D03*
X2025000Y3325000D02*
D03*
X3400000Y5075001D02*
D03*
X1025000Y2825000D02*
D03*
X4025000Y1825000D02*
D03*
X3025000Y3325000D02*
D03*
X3525000Y1325000D02*
D03*
X650000Y5575001D02*
D03*
X2025000Y1825000D02*
D03*
X1775000Y4825001D02*
D03*
X525000Y4325000D02*
D03*
X1775000Y5325001D02*
D03*
X1650000Y1575000D02*
D03*
X525000Y5825001D02*
D03*
X3775000Y2825000D02*
D03*
X525000Y5325001D02*
D03*
X2775000Y3325000D02*
D03*
X2650000Y3075000D02*
D03*
X1900000Y1075000D02*
D03*
X1150000Y4575001D02*
D03*
X4025000Y2325000D02*
D03*
X2275000Y325000D02*
D03*
X650000Y3575000D02*
D03*
Y2075000D02*
D03*
X2775000Y3825000D02*
D03*
X3275000Y5825001D02*
D03*
X3775000Y1825000D02*
D03*
Y4325000D02*
D03*
X275000Y3825000D02*
D03*
X3900000Y5075001D02*
D03*
X1150000Y3575000D02*
D03*
X3275000Y825000D02*
D03*
X1900000Y2075000D02*
D03*
X3150000Y4075000D02*
D03*
X1150000Y2075000D02*
D03*
X2025000Y2825000D02*
D03*
X650000Y2575000D02*
D03*
X900000Y1075000D02*
D03*
X2650000Y4075000D02*
D03*
X1025000Y1825000D02*
D03*
X1275000Y4325000D02*
D03*
X3900000Y3075000D02*
D03*
X1400000Y4075000D02*
D03*
X525000Y825000D02*
D03*
X1775000Y3825000D02*
D03*
X2900000Y5575001D02*
D03*
X775000Y1325000D02*
D03*
X3650000Y4075000D02*
D03*
X2525000Y5325001D02*
D03*
X3775000Y325000D02*
D03*
X3900000Y3575000D02*
D03*
X1775000Y325000D02*
D03*
X275000Y5325001D02*
D03*
X2400000Y3075000D02*
D03*
X2025000Y2325000D02*
D03*
X410000Y5570000D02*
D03*
X3400000Y5575001D02*
D03*
X1525000Y4325000D02*
D03*
X3400000Y4575001D02*
D03*
X2525000Y3325000D02*
D03*
X3900000Y2575000D02*
D03*
X3525000Y325000D02*
D03*
X1775000Y6325001D02*
D03*
X3525000Y825000D02*
D03*
X2025000Y5325001D02*
D03*
X2150000Y4575001D02*
D03*
X3025000Y4325000D02*
D03*
X3775000Y5325001D02*
D03*
X900000Y1575000D02*
D03*
X1275000Y325000D02*
D03*
X1650000Y2075000D02*
D03*
X4025000Y2825000D02*
D03*
X1025000Y1325000D02*
D03*
X2275000Y5325001D02*
D03*
X1150000Y1075000D02*
D03*
X2150000D02*
D03*
X1275000Y5325001D02*
D03*
X3400000Y6075001D02*
D03*
X3775000Y4825001D02*
D03*
X2900000Y6075001D02*
D03*
X650000Y575000D02*
D03*
X400000Y2075000D02*
D03*
X2650000Y2575000D02*
D03*
X3525000Y1825000D02*
D03*
X1525000Y325000D02*
D03*
X4025000D02*
D03*
X3525000Y2325000D02*
D03*
X3150000Y1075000D02*
D03*
X2525000Y6325001D02*
D03*
X2150000Y4075000D02*
D03*
X1775000Y1325000D02*
D03*
X2775000Y825000D02*
D03*
X900000Y6075001D02*
D03*
X650000Y4575001D02*
D03*
X1400000Y575000D02*
D03*
X1650000Y1075000D02*
D03*
X1525000Y825000D02*
D03*
X1025000D02*
D03*
X1650000Y5075001D02*
D03*
X775000Y2825000D02*
D03*
X3150000Y6075001D02*
D03*
X2275000Y4325000D02*
D03*
X1400000Y1075000D02*
D03*
X400000Y5075001D02*
D03*
X1150000Y2575000D02*
D03*
X3900000Y2075000D02*
D03*
X2025000Y5825001D02*
D03*
X2275000Y3325000D02*
D03*
X2900000Y1075000D02*
D03*
X3525000Y4325000D02*
D03*
X900000Y2075000D02*
D03*
X1650000Y6075001D02*
D03*
X1525000Y3325000D02*
D03*
X3525000D02*
D03*
X1525000Y2325000D02*
D03*
X4025000Y1325000D02*
D03*
X1150000Y575000D02*
D03*
X3275000Y2825000D02*
D03*
X1900000Y4575001D02*
D03*
X4025000Y4325000D02*
D03*
X3150000Y2575000D02*
D03*
X1400000Y6075001D02*
D03*
X2525000Y2325000D02*
D03*
X3150000Y4575001D02*
D03*
X2650000Y1575000D02*
D03*
X3650000Y575000D02*
D03*
X650000Y4075000D02*
D03*
X1275000Y2325000D02*
D03*
X2025000Y825000D02*
D03*
X2275000Y2825000D02*
D03*
X3275000Y4325000D02*
D03*
X1525000Y2825000D02*
D03*
X3775000Y825000D02*
D03*
X3025000Y2825000D02*
D03*
X3400000Y3575000D02*
D03*
X1275000Y1325000D02*
D03*
X775000Y1825000D02*
D03*
X2775000Y4825001D02*
D03*
X1400000Y5575001D02*
D03*
X1900000Y3575000D02*
D03*
X900000Y3075000D02*
D03*
X1400000Y3575000D02*
D03*
X2150000Y575000D02*
D03*
X775000Y325000D02*
D03*
X2900000Y575000D02*
D03*
X1025000Y5825001D02*
D03*
X2400000Y5575001D02*
D03*
X2525000Y4325000D02*
D03*
X650000Y3075000D02*
D03*
X1775000Y1825000D02*
D03*
X3275000Y3825000D02*
D03*
X3400000Y2575000D02*
D03*
X3025000Y4825001D02*
D03*
X275000Y2325000D02*
D03*
X525000Y4825001D02*
D03*
X3900000Y1075000D02*
D03*
X1525000Y5825001D02*
D03*
X1650000Y4075000D02*
D03*
X2900000Y3075000D02*
D03*
X775000Y3825000D02*
D03*
X3650000Y4575001D02*
D03*
X2900000Y2075000D02*
D03*
X1900000Y6075001D02*
D03*
X650000Y1575000D02*
D03*
X1275000Y2825000D02*
D03*
X2650000Y3575000D02*
D03*
X2400000D02*
D03*
X3025000Y2325000D02*
D03*
X775000Y6325001D02*
D03*
X1025000Y2325000D02*
D03*
Y4325000D02*
D03*
X3025000Y825000D02*
D03*
X2650000Y2075000D02*
D03*
X3525000Y6325001D02*
D03*
X3400000Y575000D02*
D03*
X3775000Y2325000D02*
D03*
X2150000Y3075000D02*
D03*
X3150000Y5075001D02*
D03*
X3775000Y6325001D02*
D03*
X775000Y5825001D02*
D03*
X2525000Y2825000D02*
D03*
X1400000Y3075000D02*
D03*
X3275000Y1325000D02*
D03*
X3400000Y2075000D02*
D03*
X2525000Y325000D02*
D03*
X1900000Y2575000D02*
D03*
X3150000Y2075000D02*
D03*
X10680000Y870000D02*
D03*
X3525000Y5825001D02*
D03*
X4025000Y3325000D02*
D03*
X3900000Y575000D02*
D03*
X2775000Y1825000D02*
D03*
X3275000Y5325001D02*
D03*
X3025000Y1825000D02*
D03*
X1650000Y3075000D02*
D03*
X1900000D02*
D03*
X900000Y4575001D02*
D03*
Y575000D02*
D03*
X525000Y2325000D02*
D03*
X3150000Y3075000D02*
D03*
X1400000Y4575001D02*
D03*
X2525000Y1325000D02*
D03*
X1775000Y5825001D02*
D03*
X2650000Y575000D02*
D03*
X650000Y1075000D02*
D03*
X2400000Y4075000D02*
D03*
X1275000Y4825001D02*
D03*
X1150000Y5075001D02*
D03*
X3525000Y4825001D02*
D03*
X3150000Y5575001D02*
D03*
X525000Y3825000D02*
D03*
X2775000Y4325000D02*
D03*
X3775000Y1325000D02*
D03*
X1025000Y3825000D02*
D03*
X2775000Y2825000D02*
D03*
X3650000Y6075001D02*
D03*
X1900000Y5575001D02*
D03*
X1525000Y6325001D02*
D03*
X3275000Y4825001D02*
D03*
X3775000Y3825000D02*
D03*
X1150000Y4075000D02*
D03*
X775000Y4825001D02*
D03*
X2400000Y2575000D02*
D03*
X3275000Y3325000D02*
D03*
X3025000Y6325001D02*
D03*
X2900000Y4075000D02*
D03*
X1650000Y3575000D02*
D03*
X2275000Y6325001D02*
D03*
X1775000Y3325000D02*
D03*
X2025000Y325000D02*
D03*
X3275000Y2325000D02*
D03*
X2900000Y2575000D02*
D03*
X275000Y2825000D02*
D03*
X775000Y5325001D02*
D03*
X3025000D02*
D03*
X3650000Y1075000D02*
D03*
X3275000Y325000D02*
D03*
X275000Y4825001D02*
D03*
X3400000Y4075000D02*
D03*
X1900000Y575000D02*
D03*
X1150000Y3075000D02*
D03*
X2150000Y2575000D02*
D03*
X2025000Y4825001D02*
D03*
X2275000Y2325000D02*
D03*
X3650000Y5575001D02*
D03*
X1275000Y1825000D02*
D03*
X900000Y5575001D02*
D03*
X2150000Y2075000D02*
D03*
X900000Y5075001D02*
D03*
X2775000Y5825001D02*
D03*
X3525000Y5325001D02*
D03*
X1525000Y1325000D02*
D03*
X1025000Y4825001D02*
D03*
X650000Y5075001D02*
D03*
X1400000Y1575000D02*
D03*
X3025000Y3825000D02*
D03*
X1900000Y1575000D02*
D03*
X1150000D02*
D03*
X525000Y1825000D02*
D03*
X1025000Y5325001D02*
D03*
X1150000Y5575001D02*
D03*
X1900000Y5075001D02*
D03*
X775000Y3325000D02*
D03*
X1025000Y6325001D02*
D03*
X1650000Y5575001D02*
D03*
X525000Y1325000D02*
D03*
X400000Y3075000D02*
D03*
X775000Y4325000D02*
D03*
X1650000Y2575000D02*
D03*
X3900000Y4075000D02*
D03*
X2150000Y5575001D02*
D03*
X2275000Y1325000D02*
D03*
X3900000Y4575001D02*
D03*
X4025000Y3825000D02*
D03*
X3025000Y5825001D02*
D03*
X1025000Y325000D02*
D03*
X1150000Y6075001D02*
D03*
X3400000Y1075000D02*
D03*
X400000Y575000D02*
D03*
X2150000Y3575000D02*
D03*
X2025000Y3825000D02*
D03*
X1775000Y2325000D02*
D03*
X3275000Y6325001D02*
D03*
X900000Y2575000D02*
D03*
X400000D02*
D03*
X2400000Y4575001D02*
D03*
X3275000Y1825000D02*
D03*
X2025000Y4325000D02*
D03*
X2775000Y5325001D02*
D03*
X2650000Y4575001D02*
D03*
X2525000Y5825001D02*
D03*
X2275000Y3825000D02*
D03*
X775000Y2325000D02*
D03*
X2775000Y6325001D02*
D03*
X3025000Y325000D02*
D03*
X525000Y3325000D02*
D03*
X1275000Y825000D02*
D03*
X775000D02*
D03*
X3775000Y3325000D02*
D03*
X3525000Y3825000D02*
D03*
X400000Y4575001D02*
D03*
X1400000Y2075000D02*
D03*
X1775000Y825000D02*
D03*
X1650000Y4575001D02*
D03*
X400000Y4075000D02*
D03*
X2900000Y4575001D02*
D03*
X1525000Y3825000D02*
D03*
X1275000D02*
D03*
X1025000Y3325000D02*
D03*
X1275000Y5825001D02*
D03*
X900000Y3575000D02*
D03*
X275000Y1825000D02*
D03*
X900000Y4075000D02*
D03*
X2900000Y3575000D02*
D03*
X2775000Y325000D02*
D03*
Y2325000D02*
D03*
X1525000Y4825001D02*
D03*
X1400000Y5075001D02*
D03*
X3650000Y3075000D02*
D03*
X2275000Y5825001D02*
D03*
X400000Y1575000D02*
D03*
X3775000Y5825001D02*
D03*
X525000Y2825000D02*
D03*
X1525000Y1825000D02*
D03*
X1900000Y4075000D02*
D03*
X2525000Y3825000D02*
D03*
X1400000Y2575000D02*
D03*
X1275000Y6325001D02*
D03*
X2025000Y1325000D02*
D03*
X1275000Y3325000D02*
D03*
X3650000Y5075001D02*
D03*
X275000Y3325000D02*
D03*
X3150000Y3575000D02*
D03*
X650000Y6075001D02*
D03*
X1650000Y575000D02*
D03*
X3150000D02*
D03*
X3400000Y3075000D02*
D03*
X275000Y4325000D02*
D03*
X400000Y3575000D02*
D03*
X2900000Y5075001D02*
D03*
X3650000Y2575000D02*
D03*
X1775000Y2825000D02*
D03*
X1525000Y5325001D02*
D03*
X4610000Y3710000D02*
D03*
X4183609Y3451391D02*
D03*
X4403891Y3516109D02*
D03*
X4610000Y3629600D02*
D03*
X4200000Y3200000D02*
D03*
X4449995Y3424997D02*
D03*
X4374995Y3274997D02*
D03*
X4573605Y3451387D02*
D03*
X4190000Y3560000D02*
D03*
X4538887Y3261105D02*
D03*
X4810000Y3480000D02*
D03*
X4674995Y3274997D02*
D03*
X4749995Y3424997D02*
D03*
X5280000Y4585000D02*
D03*
X6129670Y3732770D02*
D03*
X6074670Y4024997D02*
D03*
X5733890Y3883891D02*
D03*
X5889101Y3728680D02*
D03*
X5865718Y3518632D02*
D03*
X5800000Y3570000D02*
D03*
X5649995Y4024997D02*
D03*
X8000000Y1610000D02*
D03*
X8280000Y1310000D02*
D03*
X6940523Y2660566D02*
D03*
X8290000Y2330000D02*
D03*
X9324994Y1474997D02*
D03*
X9174994D02*
D03*
X8724994D02*
D03*
X7449994Y1624997D02*
D03*
X8574994Y1474997D02*
D03*
X8874994D02*
D03*
X9474994D02*
D03*
X9024994D02*
D03*
X7524994D02*
D03*
X6999995Y1924997D02*
D03*
X8274994Y1774997D02*
D03*
X8949994Y6124996D02*
D03*
X5724995Y274998D02*
D03*
X8499994Y1924997D02*
D03*
X7674994Y5674996D02*
D03*
X8499994Y4024997D02*
D03*
X8649994Y5824996D02*
D03*
X5424995Y274998D02*
D03*
X9549994Y3724997D02*
D03*
X7524994Y6274996D02*
D03*
X9024994Y1174997D02*
D03*
X10824993Y2074997D02*
D03*
X10449994Y1324997D02*
D03*
X6699995Y2224997D02*
D03*
X8949994Y5524996D02*
D03*
X9999994Y1024997D02*
D03*
X10599994Y2824997D02*
D03*
X8799994Y6124996D02*
D03*
X4449995Y424998D02*
D03*
X9924994Y3274997D02*
D03*
X5949995Y4024997D02*
D03*
X9624994Y2674997D02*
D03*
X5874995Y874997D02*
D03*
X8724994Y1774997D02*
D03*
X8874994Y4774996D02*
D03*
X7149995Y6124996D02*
D03*
X8874994Y1774997D02*
D03*
X9474994Y2674997D02*
D03*
X6624995Y874997D02*
D03*
X5049995Y1624997D02*
D03*
X9249994Y1024997D02*
D03*
X9774994Y1474997D02*
D03*
X10749993Y3424997D02*
D03*
X4599995Y1324997D02*
D03*
X7449994Y3724997D02*
D03*
X8874994Y5974996D02*
D03*
X7524994Y1174997D02*
D03*
X4749995Y1024997D02*
D03*
X5124995Y274998D02*
D03*
X10224994D02*
D03*
X10599994Y1024997D02*
D03*
Y1924997D02*
D03*
X8424994Y5974996D02*
D03*
X8949994Y2824997D02*
D03*
X9324994Y1174997D02*
D03*
X8874994Y5374996D02*
D03*
X8649994Y6124996D02*
D03*
X5949995Y1324997D02*
D03*
X9549994Y3424997D02*
D03*
X8799994Y2824997D02*
D03*
X4599995Y424998D02*
D03*
X10374993Y874997D02*
D03*
X4824995Y1174997D02*
D03*
X9699994Y3424997D02*
D03*
X4299995Y1024997D02*
D03*
X9174994Y274998D02*
D03*
X9624994Y2074997D02*
D03*
X9474994Y3274997D02*
D03*
X10149994Y424998D02*
D03*
X8649994Y5224996D02*
D03*
X5649995Y424998D02*
D03*
X4599995Y2224997D02*
D03*
X8499994Y5824996D02*
D03*
X5424995Y874997D02*
D03*
X9474994Y1174997D02*
D03*
X10374993Y574998D02*
D03*
X10524993Y2974997D02*
D03*
X6024995Y4174996D02*
D03*
X7824994Y5674996D02*
D03*
X9249994Y2224997D02*
D03*
X9624994Y3574997D02*
D03*
X9699994Y1024997D02*
D03*
X9474994Y574998D02*
D03*
X7749994Y6124996D02*
D03*
X10524993Y874997D02*
D03*
X10749993Y2824997D02*
D03*
X5049995Y424998D02*
D03*
X9174994Y1774997D02*
D03*
X5649995Y1324997D02*
D03*
X8799994Y3724997D02*
D03*
X4524995Y274998D02*
D03*
X7674994Y5974996D02*
D03*
X8799994Y424998D02*
D03*
X7749994Y5524996D02*
D03*
X8874994Y2374997D02*
D03*
X6024995Y2074997D02*
D03*
X9849994Y1324997D02*
D03*
X7899994Y424998D02*
D03*
X10299994Y3724997D02*
D03*
X8499994Y1624997D02*
D03*
X10299994Y1024997D02*
D03*
X10074994Y1474997D02*
D03*
X6399995Y424998D02*
D03*
X8649994Y1324997D02*
D03*
X5349995Y2524997D02*
D03*
X8349994Y3424997D02*
D03*
X8199994Y3724997D02*
D03*
X9324994Y874997D02*
D03*
X10674993Y574998D02*
D03*
X7449994Y424998D02*
D03*
X6249995D02*
D03*
X6099995Y4324996D02*
D03*
X9549994Y1324997D02*
D03*
X5649995Y3724997D02*
D03*
X8649994Y4624996D02*
D03*
X9324994Y274998D02*
D03*
X8799994Y5524996D02*
D03*
X8649994Y3724997D02*
D03*
X10824993Y2974997D02*
D03*
X9774994Y574998D02*
D03*
X5349995Y1024997D02*
D03*
X9699994Y424998D02*
D03*
X4224995Y1774997D02*
D03*
X9924994Y874997D02*
D03*
X8649994Y1624997D02*
D03*
X10749993Y1024997D02*
D03*
X8949994Y424998D02*
D03*
X9549994Y2224997D02*
D03*
X7899994Y5824996D02*
D03*
X8124994Y3574997D02*
D03*
X9699994Y1624997D02*
D03*
X4974995Y1174997D02*
D03*
Y1474997D02*
D03*
X9099994Y1624997D02*
D03*
X4824995Y274998D02*
D03*
X4899995Y1624997D02*
D03*
X7599994Y424998D02*
D03*
X10449994Y1924997D02*
D03*
X10749993Y2224997D02*
D03*
X4149996Y424998D02*
D03*
X4899995Y2224997D02*
D03*
X10599994Y3124997D02*
D03*
X4749995Y1324997D02*
D03*
X9999994Y424998D02*
D03*
X9849994Y1024997D02*
D03*
X4524995Y1174997D02*
D03*
X8724994Y874997D02*
D03*
X8874994Y4474996D02*
D03*
X8424994Y5674996D02*
D03*
X8724994Y5974996D02*
D03*
X7749994Y5824996D02*
D03*
X10374993Y3274997D02*
D03*
X5199995Y1024997D02*
D03*
X10749993Y2524997D02*
D03*
X4299995Y424998D02*
D03*
X8724994Y1174997D02*
D03*
X4674995D02*
D03*
X7074994Y874997D02*
D03*
X8424994Y5374996D02*
D03*
X9474994Y274998D02*
D03*
X8724994Y4774996D02*
D03*
X9849994Y3424997D02*
D03*
X10524993Y1174997D02*
D03*
X7449994Y1324997D02*
D03*
X8349994Y4024997D02*
D03*
X8799994Y1624997D02*
D03*
X7824994Y5974996D02*
D03*
X8874994Y274998D02*
D03*
X10224994Y1474997D02*
D03*
X8574994Y5374996D02*
D03*
X4149996Y1924997D02*
D03*
X9774994Y274998D02*
D03*
X10824993Y574998D02*
D03*
X6324995Y1474997D02*
D03*
X6774995Y2374997D02*
D03*
X9024994Y1774997D02*
D03*
X9399994Y424998D02*
D03*
X10074994Y274998D02*
D03*
X9924994D02*
D03*
X7074994Y5974996D02*
D03*
X7824994Y4774996D02*
D03*
X5499995Y424998D02*
D03*
X7599994Y3724997D02*
D03*
X7674994Y5374996D02*
D03*
X6474995Y574998D02*
D03*
X10374993Y274998D02*
D03*
X8724994Y5374996D02*
D03*
X10299994Y1624997D02*
D03*
X9249994Y2824997D02*
D03*
X10449994Y3124997D02*
D03*
X10674993Y3274997D02*
D03*
X8649994Y5524996D02*
D03*
X4149996Y1024997D02*
D03*
X5199995Y2524997D02*
D03*
X7599994Y1924997D02*
D03*
X7224994Y5974996D02*
D03*
X8049994Y3724997D02*
D03*
X6399995Y724998D02*
D03*
X8874994Y2674997D02*
D03*
X8274994Y5374996D02*
D03*
X8949994Y4624996D02*
D03*
X5424995Y574998D02*
D03*
X7899994Y3724997D02*
D03*
X8949994Y1624997D02*
D03*
X10524993Y3274997D02*
D03*
Y574998D02*
D03*
X10599994Y724998D02*
D03*
X4449995Y1324997D02*
D03*
X6099995Y2524997D02*
D03*
X6399995D02*
D03*
X5724995Y4174996D02*
D03*
X9249994Y1624997D02*
D03*
X10749993Y1324997D02*
D03*
X5274995Y274998D02*
D03*
X10674993Y1174997D02*
D03*
X10299994Y1324997D02*
D03*
X8499994Y6124996D02*
D03*
X9924994Y1474997D02*
D03*
X6474995Y1174997D02*
D03*
X10224994D02*
D03*
X9024994Y274998D02*
D03*
X9249994Y3724997D02*
D03*
X6099995Y424998D02*
D03*
X6999995Y4024997D02*
D03*
X8799994Y5224996D02*
D03*
X10449994Y1024997D02*
D03*
X10674993Y2674997D02*
D03*
X8799994Y4624996D02*
D03*
X9024994Y874997D02*
D03*
X8949994Y1024997D02*
D03*
X5724995Y1474997D02*
D03*
X4149996Y1324997D02*
D03*
X5874995Y1474997D02*
D03*
X4974995Y274998D02*
D03*
X8949994Y4924996D02*
D03*
X6249995Y724998D02*
D03*
X5799995Y1324997D02*
D03*
X9849994Y3724997D02*
D03*
X7524994Y4474996D02*
D03*
X9774994Y874997D02*
D03*
X7674994Y4774996D02*
D03*
X10299994Y724998D02*
D03*
X5349995Y424998D02*
D03*
X5574995Y4174996D02*
D03*
X6024995Y874997D02*
D03*
X9549994Y424998D02*
D03*
X4824995Y1474997D02*
D03*
X7074994Y5674996D02*
D03*
X9999994Y3724997D02*
D03*
X8874994Y6274996D02*
D03*
X4599995Y2824997D02*
D03*
X9624994Y1774997D02*
D03*
X10449994Y1624997D02*
D03*
X4374995Y1174997D02*
D03*
X7599994Y1624997D02*
D03*
X5799995Y3124997D02*
D03*
X4224995Y274998D02*
D03*
X7074994Y4774996D02*
D03*
X8949994Y4324996D02*
D03*
X4899995Y424998D02*
D03*
X8424994Y274998D02*
D03*
X6699995Y4324996D02*
D03*
X4974995Y4774996D02*
D03*
X8649994Y424998D02*
D03*
X4749995D02*
D03*
X10524993Y1474997D02*
D03*
X9774994Y3274997D02*
D03*
X10299994Y424998D02*
D03*
X5049995Y1024997D02*
D03*
X9624994Y3274997D02*
D03*
X10824993Y2674997D02*
D03*
X9099994Y424998D02*
D03*
X4524995Y874997D02*
D03*
X9399994Y1324997D02*
D03*
X5499995Y1024997D02*
D03*
X8499994Y3724997D02*
D03*
X10599994Y1324997D02*
D03*
X10824993Y874997D02*
D03*
X8499994Y5524996D02*
D03*
X8049994Y4024997D02*
D03*
X9099994Y2824997D02*
D03*
X5649995Y3124997D02*
D03*
X6774995Y274998D02*
D03*
X8724994Y4474996D02*
D03*
X8874994Y5674996D02*
D03*
X8049994Y424998D02*
D03*
X8274994Y3574997D02*
D03*
X8874994Y874997D02*
D03*
X8649994Y4924996D02*
D03*
X8949994Y5824996D02*
D03*
X9774994Y3574997D02*
D03*
X8124994Y2974997D02*
D03*
X8724994Y5074996D02*
D03*
X6099995Y724998D02*
D03*
X6249995Y2524997D02*
D03*
X10449994Y424998D02*
D03*
X8424994Y3874997D02*
D03*
X8574994D02*
D03*
X7749994Y3724997D02*
D03*
X8649994Y1024997D02*
D03*
X7524994Y2974997D02*
D03*
X7749994Y424998D02*
D03*
X4524995Y2674997D02*
D03*
X6324995Y574998D02*
D03*
X8574994Y3574997D02*
D03*
X6324995Y2074997D02*
D03*
X9849994Y724998D02*
D03*
X10524993Y1774997D02*
D03*
X5199995Y424998D02*
D03*
X9174994Y874997D02*
D03*
X9624994Y274998D02*
D03*
X10374993Y1474997D02*
D03*
X10674993Y2074997D02*
D03*
X7674994Y6274996D02*
D03*
X8199994Y3424997D02*
D03*
X6549995Y1024997D02*
D03*
X9849994Y424998D02*
D03*
X5049995Y1324997D02*
D03*
X7899994Y1924997D02*
D03*
X5124995Y1174997D02*
D03*
X10749993Y3124997D02*
D03*
X9774994Y1774997D02*
D03*
X9624994Y1174997D02*
D03*
X5799995Y1024997D02*
D03*
X9399994Y3724997D02*
D03*
X10749993Y724998D02*
D03*
X9399994D02*
D03*
X10824993Y1174997D02*
D03*
X6174995Y1474997D02*
D03*
X8799994Y5824996D02*
D03*
X10824993Y2374997D02*
D03*
X10449994Y724998D02*
D03*
X5649995Y4324996D02*
D03*
X9099994Y1024997D02*
D03*
X5424995Y4174996D02*
D03*
X6174995Y574998D02*
D03*
X8649994Y724998D02*
D03*
X8949994Y4024997D02*
D03*
X10824993Y1474997D02*
D03*
X4899995Y1324997D02*
D03*
X4149996Y4924996D02*
D03*
X8274994Y3874997D02*
D03*
X5799995Y424998D02*
D03*
X10374993Y1174997D02*
D03*
X10674993Y1774997D02*
D03*
X6174995Y2074997D02*
D03*
X7149995Y5524996D02*
D03*
X9099994Y724998D02*
D03*
X4449995Y1024997D02*
D03*
X9924994Y574998D02*
D03*
X8799994Y4924996D02*
D03*
X5874995Y4174996D02*
D03*
X6024995Y1474997D02*
D03*
X4374995Y274998D02*
D03*
X5724995Y2974997D02*
D03*
X9699994Y1924997D02*
D03*
X4224995Y1174997D02*
D03*
X8724994Y5674996D02*
D03*
X7149995Y424998D02*
D03*
X6099995Y1324997D02*
D03*
X8574994Y1774997D02*
D03*
X7449994Y2224997D02*
D03*
X10749993Y3724997D02*
D03*
X8574994Y5974996D02*
D03*
X7149995Y5824996D02*
D03*
X8874994Y5074996D02*
D03*
X7899994Y6124996D02*
D03*
X7074994Y5374996D02*
D03*
X4224995Y4474996D02*
D03*
X5949995Y1024997D02*
D03*
X8724994Y274998D02*
D03*
X10674993Y3574997D02*
D03*
X7374994Y4474996D02*
D03*
X9699994Y3724997D02*
D03*
X7224994Y6274996D02*
D03*
X6024995Y3874997D02*
D03*
X4524995Y574998D02*
D03*
X5799995Y4324996D02*
D03*
X5874995Y2974997D02*
D03*
X10749993Y1624997D02*
D03*
X4674995Y274998D02*
D03*
X5949995Y4324996D02*
D03*
X10224994Y574998D02*
D03*
X4299995Y1324997D02*
D03*
X10674993Y2374997D02*
D03*
X8949994Y5224996D02*
D03*
X5649995Y1024997D02*
D03*
X4899995D02*
D03*
X4599995D02*
D03*
X5949995Y2524997D02*
D03*
X7899994Y4924996D02*
D03*
X4299995Y2224997D02*
D03*
X10824993Y3274997D02*
D03*
X8799994Y1024997D02*
D03*
X6474995Y874997D02*
D03*
X7974994Y2074997D02*
D03*
X8199994Y1924997D02*
D03*
X4449995Y2224997D02*
D03*
Y2824997D02*
D03*
X5574995Y274998D02*
D03*
X10674993Y1474997D02*
D03*
X8574994Y5674996D02*
D03*
X5120000Y2890000D02*
D03*
X5290000Y3190000D02*
D03*
X5170000Y3180000D02*
D03*
X5538783Y3249949D02*
D03*
X5210000Y4630000D02*
D03*
X5280000Y4460000D02*
D03*
X4970000Y3370000D02*
D03*
X6461053Y2620633D02*
D03*
X8445325Y2534675D02*
D03*
X6955000Y2140000D02*
D03*
X8470000Y2120000D02*
D03*
X7980000Y2630000D02*
D03*
X8250000Y2030000D02*
D03*
X6925000Y1820000D02*
D03*
X5430000Y2000000D02*
D03*
X5560000D02*
D03*
X7000000Y2600000D02*
D03*
X8230000Y2140000D02*
D03*
X5840000Y1740000D02*
D03*
X6818118Y1030000D02*
D03*
X7220000Y1430000D02*
D03*
X7010000Y1820000D02*
D03*
X5200000Y125000D02*
D03*
X5430000Y4883800D02*
D03*
X5630000Y4710000D02*
D03*
X5730000D02*
D03*
X5980000Y4900000D02*
D03*
X5979726Y4812487D02*
D03*
X4700000Y2300000D02*
D03*
X4390000Y3820000D02*
D03*
X4280000Y4210000D02*
D03*
X5100000Y4840000D02*
D03*
X4790000Y4910000D02*
D03*
X4640000D02*
D03*
X4552500Y3872500D02*
D03*
X4817500Y3877500D02*
D03*
X4977500Y3995000D02*
D03*
X4346148Y4449606D02*
D03*
X6030000Y3125000D02*
D03*
X4797500Y4375000D02*
D03*
X4855412Y4310000D02*
D03*
X4350000Y4602500D02*
D03*
X4961602Y4277499D02*
D03*
X4940000Y4355000D02*
D03*
X4937500Y4442500D02*
D03*
X4585000Y4440000D02*
D03*
X4855000D02*
D03*
X4455000D02*
D03*
X4725000D02*
D03*
X4802500Y4062500D02*
D03*
X4980000Y4086000D02*
D03*
X4883827D02*
D03*
X5300000Y4200000D02*
D03*
X4860000Y4670000D02*
D03*
Y4770000D02*
D03*
X5490000Y4630000D02*
D03*
X4580000Y3970000D02*
D03*
X4720000D02*
D03*
X4450000Y4088750D02*
D03*
X4880000Y3970000D02*
D03*
X4450000Y4330000D02*
D03*
X4451250Y4206250D02*
D03*
X4455000Y3967500D02*
D03*
X5390000Y4400000D02*
D03*
X7540000Y5696350D02*
D03*
X8840000Y3240000D02*
D03*
X4150000Y4530000D02*
D03*
X6350000Y4465000D02*
D03*
X6147359Y4772641D02*
D03*
X6295000Y4775000D02*
D03*
X6807500Y1117500D02*
D03*
X8180000Y5050000D02*
D03*
X8242637Y4992816D02*
D03*
X8207219Y5260000D02*
D03*
X8200000Y5340000D02*
D03*
X8090000Y5190000D02*
D03*
X8340000Y5590000D02*
D03*
X8043214Y5667023D02*
D03*
X8157161Y5662395D02*
D03*
X6588068Y3931932D02*
D03*
X8096257Y5593743D02*
D03*
X8212825Y5597175D02*
D03*
X6747500Y4712500D02*
D03*
X6820000Y4660000D02*
D03*
X8360000Y4990000D02*
D03*
X8420000Y5050000D02*
D03*
X8300000D02*
D03*
X8262499Y5130714D02*
D03*
X6980000Y4670000D02*
D03*
X5570000Y3700000D02*
D03*
X5201053Y3380633D02*
D03*
X5631053Y3020633D02*
D03*
X5391053Y3980632D02*
D03*
X5500000Y3760000D02*
D03*
Y3850000D02*
D03*
X8490000Y2020000D02*
D03*
X8270000Y2660000D02*
D03*
X4541053Y2760633D02*
D03*
X4381053D02*
D03*
X10460000Y2100000D02*
D03*
X4511053Y1930632D02*
D03*
X6601053Y1720633D02*
D03*
X5471053Y1370633D02*
D03*
X8060000Y920000D02*
D03*
X8200000Y1690000D02*
D03*
X8211053Y1550632D02*
D03*
X9670000Y2600000D02*
D03*
X8181053Y720633D02*
D03*
X6671053Y2530632D02*
D03*
X6571053Y1910632D02*
D03*
X6720000Y2140000D02*
D03*
X6881053Y1200632D02*
D03*
X7031053Y1070632D02*
D03*
X6990000Y960000D02*
D03*
X4990000Y2640000D02*
D03*
X4850000D02*
D03*
X4970000Y3270000D02*
D03*
X4850000Y2985000D02*
D03*
X5090000Y3380000D02*
D03*
X5430000Y3910000D02*
D03*
X5450000Y4090000D02*
D03*
X6060000Y3570000D02*
D03*
X6030000Y3790000D02*
D03*
X6430000Y3600000D02*
D03*
X8310000Y2890000D02*
D03*
X7610000Y2980000D02*
D03*
X7420000D02*
D03*
X7200000D02*
D03*
X6470000Y3120000D02*
D03*
X6280000D02*
D03*
X5960000Y2970000D02*
D03*
X8010000Y3440000D02*
D03*
X7160000Y4880000D02*
D03*
X6700000Y4160000D02*
D03*
X6840000Y4320000D02*
D03*
X8260000Y4060000D02*
D03*
X8140000Y4290000D02*
D03*
X8310000Y4360000D02*
D03*
X8430000Y4500000D02*
D03*
Y4660000D02*
D03*
Y4840000D02*
D03*
X6850000Y3910000D02*
D03*
X6920000Y4040000D02*
D03*
X7300000Y4430000D02*
D03*
X7560000Y4680000D02*
D03*
X7790000Y4920000D02*
D03*
X7980000Y5100000D02*
D03*
X4990000Y2820000D02*
D03*
X5130000Y2710000D02*
D03*
X7130000Y2660000D02*
D03*
Y2560000D02*
D03*
X8155000Y4413543D02*
D03*
X9690000Y2300000D02*
D03*
X8090000Y1610000D02*
D03*
X4840000Y2420000D02*
D03*
X7370000Y1130000D02*
D03*
X7610000Y2280000D02*
D03*
X8680000Y2020000D02*
D03*
X8690000Y1880000D02*
D03*
X7960000Y1035000D02*
D03*
X8030000Y2340000D02*
D03*
X5840000Y1990000D02*
D03*
X3975000Y5600000D02*
D03*
Y5450000D02*
D03*
Y5300000D02*
D03*
Y5150000D02*
D03*
X4086502Y5037265D02*
D03*
X3975000Y6350000D02*
D03*
Y6200000D02*
D03*
Y6050000D02*
D03*
Y5900000D02*
D03*
Y5750000D02*
D03*
X3250001Y6575000D02*
D03*
X3400001D02*
D03*
X3550001D02*
D03*
X3700001D02*
D03*
X3850001D02*
D03*
X3975000Y6500000D02*
D03*
X2650001Y6575000D02*
D03*
X2800000D02*
D03*
X2950000D02*
D03*
X3100001D02*
D03*
X1900000D02*
D03*
X2050000D02*
D03*
X2200000D02*
D03*
X2350000D02*
D03*
X2500001D02*
D03*
X1150000D02*
D03*
X1300000D02*
D03*
X1450000D02*
D03*
X1600000D02*
D03*
X1750000D02*
D03*
X250000D02*
D03*
X400000D02*
D03*
X550000D02*
D03*
X700000D02*
D03*
X850000D02*
D03*
X1000000D02*
D03*
X125000Y6425001D02*
D03*
Y6300001D02*
D03*
Y6150001D02*
D03*
Y6000000D02*
D03*
Y5850000D02*
D03*
Y5700001D02*
D03*
Y5550001D02*
D03*
Y5425001D02*
D03*
Y5300001D02*
D03*
Y5150001D02*
D03*
Y5000000D02*
D03*
Y4850000D02*
D03*
Y4725000D02*
D03*
Y4575001D02*
D03*
Y4425000D02*
D03*
Y4275000D02*
D03*
Y4125000D02*
D03*
Y3975000D02*
D03*
Y3850000D02*
D03*
Y3725000D02*
D03*
Y3575000D02*
D03*
Y3425000D02*
D03*
Y3275000D02*
D03*
Y3150000D02*
D03*
Y3000000D02*
D03*
Y2850000D02*
D03*
Y2700000D02*
D03*
Y2550000D02*
D03*
Y2400000D02*
D03*
Y2275000D02*
D03*
Y2150000D02*
D03*
Y2000000D02*
D03*
Y1850000D02*
D03*
Y1700000D02*
D03*
Y1575000D02*
D03*
Y1425000D02*
D03*
Y1275000D02*
D03*
Y1125000D02*
D03*
Y975000D02*
D03*
Y825000D02*
D03*
Y700000D02*
D03*
Y575000D02*
D03*
Y425000D02*
D03*
Y275000D02*
D03*
X6744546Y188008D02*
D03*
X6475000Y250000D02*
D03*
X6625000D02*
D03*
X6025000D02*
D03*
X5884947Y210496D02*
D03*
X699999Y125000D02*
D03*
X549999D02*
D03*
X399999D02*
D03*
X249999D02*
D03*
X1600000D02*
D03*
X1449999D02*
D03*
X1299999D02*
D03*
X1149999D02*
D03*
X999999D02*
D03*
X849999D02*
D03*
X2350000D02*
D03*
X2200000D02*
D03*
X2049999D02*
D03*
X1900000D02*
D03*
X1750000D02*
D03*
X3250000D02*
D03*
X3100000D02*
D03*
X2950000D02*
D03*
X2800000D02*
D03*
X2650000D02*
D03*
X2500000D02*
D03*
X4000000D02*
D03*
X3850000D02*
D03*
X3700000D02*
D03*
X3550000D02*
D03*
X3400000D02*
D03*
X5800000D02*
D03*
X5650000D02*
D03*
X5050000D02*
D03*
X7475000D02*
D03*
X7325000D02*
D03*
X7174999D02*
D03*
X8375000D02*
D03*
X8225000D02*
D03*
X8075000D02*
D03*
X7925000D02*
D03*
X7774999D02*
D03*
X7624999D02*
D03*
X9425000D02*
D03*
X10775000D02*
D03*
X10625000D02*
D03*
X10475000D02*
D03*
X10325000D02*
D03*
X10925000Y250000D02*
D03*
Y400000D02*
D03*
Y550000D02*
D03*
Y675000D02*
D03*
Y800000D02*
D03*
Y950000D02*
D03*
Y1100000D02*
D03*
Y1250000D02*
D03*
Y1400000D02*
D03*
Y1550000D02*
D03*
Y1675000D02*
D03*
Y1800000D02*
D03*
Y1950000D02*
D03*
Y2100000D02*
D03*
Y2250000D02*
D03*
Y2400000D02*
D03*
Y2550000D02*
D03*
Y2675000D02*
D03*
Y2800000D02*
D03*
Y2950000D02*
D03*
Y3100000D02*
D03*
Y3250000D02*
D03*
Y3400000D02*
D03*
Y3550000D02*
D03*
Y3675000D02*
D03*
Y3800000D02*
D03*
X10100000Y3875000D02*
D03*
X10250000D02*
D03*
X10400000D02*
D03*
X10550000D02*
D03*
X10700000D02*
D03*
X10850000D02*
D03*
X9050000D02*
D03*
X9200000D02*
D03*
X9350000D02*
D03*
X9500000D02*
D03*
X9650000D02*
D03*
X9800000D02*
D03*
X9950000D02*
D03*
X9050000Y4425000D02*
D03*
Y4275000D02*
D03*
Y4125000D02*
D03*
Y3975000D02*
D03*
Y4575000D02*
D03*
Y4725000D02*
D03*
Y4875000D02*
D03*
Y5025000D02*
D03*
Y5175000D02*
D03*
Y5325000D02*
D03*
Y5450000D02*
D03*
X8900000Y6575000D02*
D03*
X8750000D02*
D03*
X8600000D02*
D03*
X8450000D02*
D03*
X8300000D02*
D03*
X8150000D02*
D03*
X8000000D02*
D03*
X9050000D02*
D03*
Y6450000D02*
D03*
Y6325000D02*
D03*
Y6175000D02*
D03*
Y6025000D02*
D03*
Y5875000D02*
D03*
Y5725000D02*
D03*
Y5575000D02*
D03*
X6960000Y5120000D02*
D03*
X6870000Y5030000D02*
D03*
X6730000Y5000000D02*
D03*
X6580000D02*
D03*
X7940000Y2180000D02*
D03*
X7830000Y2130000D02*
D03*
X8260000Y1015000D02*
D03*
X8160000Y1010000D02*
D03*
X8580000Y560000D02*
D03*
X8310000Y1415000D02*
D03*
X8400000Y1320000D02*
D03*
X5340000Y3905740D02*
D03*
X5308898Y4024741D02*
D03*
X5620000Y3510000D02*
D03*
X9060000Y3520000D02*
D03*
X9180000Y3580000D02*
D03*
X6520000Y3990000D02*
D03*
X5480000Y5290000D02*
D03*
X5330000D02*
D03*
X5420000Y5220000D02*
D03*
X8990000Y3640000D02*
D03*
X6595000Y4875000D02*
D03*
X6590000Y4785000D02*
D03*
X6160000Y4905141D02*
D03*
X6740000Y4870000D02*
D03*
X4575000Y5000000D02*
D03*
X4425000D02*
D03*
X4275000D02*
D03*
X4875000D02*
D03*
X4725000D02*
D03*
X5830000D02*
D03*
X5980000D02*
D03*
X6130000D02*
D03*
X6280000D02*
D03*
X6430000D02*
D03*
X7000000Y5300000D02*
D03*
Y5450000D02*
D03*
Y5600000D02*
D03*
Y5750000D02*
D03*
Y5900000D02*
D03*
Y6050000D02*
D03*
Y6200000D02*
D03*
Y6325000D02*
D03*
Y6450000D02*
D03*
Y6575000D02*
D03*
X7850000D02*
D03*
X7700000D02*
D03*
X7550000D02*
D03*
X7400000D02*
D03*
X7250000D02*
D03*
X8280897Y5660000D02*
D03*
X9260000Y3270000D02*
D03*
X9920000Y2290000D02*
D03*
X6967463Y1446199D02*
D03*
X10120000Y3300000D02*
D03*
X9925000Y1610000D02*
D03*
Y1720000D02*
D03*
Y1900000D02*
D03*
X9080000Y2680000D02*
D03*
X9930000Y2710000D02*
D03*
X9925000Y2420000D02*
D03*
Y2170000D02*
D03*
X9930000Y2010000D02*
D03*
X4960000Y2400000D02*
D03*
Y2280000D02*
D03*
Y2170000D02*
D03*
X8132391Y6262391D02*
D03*
X7540000Y6160000D02*
D03*
X4253890Y2316109D02*
D03*
X5015448Y5366548D02*
D03*
X4850000Y2775000D02*
D03*
X6300000Y4905000D02*
D03*
X4470000Y2990000D02*
D03*
X10120000Y3770000D02*
D03*
X10110000Y3650000D02*
D03*
X5840000Y6200000D02*
D03*
X6190000Y2240000D02*
D03*
X4477500Y2525000D02*
D03*
X6280000Y2255000D02*
D03*
X6080000Y2205000D02*
D03*
X5960000D02*
D03*
X5840000D02*
D03*
X4940000Y6550001D02*
D03*
X5400000Y4765000D02*
D03*
X6390000Y6115000D02*
D03*
X4225000Y2811391D02*
D03*
X5380000Y3025000D02*
D03*
X6347574Y5847426D02*
D03*
X5840000Y2085000D02*
D03*
X5635049Y2483219D02*
D03*
X4304484Y1835516D02*
D03*
X9830000Y1155000D02*
D03*
X6805000Y1265000D02*
D03*
X6967463Y1342349D02*
D03*
X8130000Y3900000D02*
D03*
X7611591Y877754D02*
D03*
X10150000Y2510000D02*
D03*
X10530000Y2470000D02*
D03*
X10474675Y2534675D02*
D03*
X10470000Y2405000D02*
D03*
X10533315Y2353315D02*
D03*
X10470000Y2295000D02*
D03*
X10530719Y2239208D02*
D03*
X6950000Y3900000D02*
D03*
X7950000Y2960000D02*
D03*
X7870000D02*
D03*
X6562002Y3677239D02*
D03*
X6567530Y3595312D02*
D03*
X8380000Y560000D02*
D03*
X7620000Y705000D02*
D03*
X7540000Y5471930D02*
D03*
X6070000Y3670000D02*
D03*
X6140000Y3608750D02*
D03*
X6520000Y4080000D02*
D03*
Y3880000D02*
D03*
X6435866Y4103639D02*
D03*
X5460000Y3025000D02*
D03*
X5673895Y3575000D02*
D03*
X5562060Y3580000D02*
D03*
X5740000Y3510000D02*
D03*
X6710000Y3145000D02*
D03*
X6620000D02*
D03*
X6110000Y3125000D02*
D03*
X5510000Y3510000D02*
D03*
X5842500Y6280000D02*
D03*
X5960000Y3065400D02*
D03*
X4850000Y2895000D02*
D03*
X10180000Y1260000D02*
D03*
X5105226Y5370374D02*
D03*
X6445000Y4899260D02*
D03*
X4840000Y2535000D02*
D03*
X4391911Y1838089D02*
D03*
X6410000Y2395000D02*
D03*
X6490000D02*
D03*
Y2315000D02*
D03*
X5050000Y6550001D02*
D03*
X5320000Y4765000D02*
D03*
X6410000Y2315000D02*
D03*
X7140000Y555000D02*
D03*
X7728737Y730553D02*
D03*
X6392426Y6197426D02*
D03*
X4100000Y2730000D02*
D03*
X6760000Y1985000D02*
D03*
X5790000Y4405000D02*
D03*
X5690000D02*
D03*
X6350000Y5765000D02*
D03*
X5730000Y5845000D02*
D03*
X5900000D02*
D03*
X4107500Y2247500D02*
D03*
X9830000Y1245000D02*
D03*
X6606915Y1330480D02*
D03*
X7740000Y545000D02*
D03*
D178*
X7120000Y4020000D02*
D03*
Y4280000D02*
D03*
Y6570001D02*
D03*
Y6300000D02*
D03*
X7975000Y1245000D02*
D03*
X7370000Y1040000D02*
D03*
X7260000Y1050000D02*
D03*
X7890000Y1760000D02*
D03*
X7540000Y1830000D02*
D03*
X7542500Y2050000D02*
D03*
X8170000Y2460000D02*
D03*
X7680000Y1175000D02*
D03*
X3980000Y4637500D02*
D03*
X3990000Y4767500D02*
D03*
X6347500Y1867500D02*
D03*
X7410000Y910000D02*
D03*
X8443404Y3294290D02*
D03*
X8520000Y2924291D02*
D03*
X7500000Y5290000D02*
D03*
X9210000Y470000D02*
D03*
X9060000Y620000D02*
D03*
X9350000D02*
D03*
X9200000Y760000D02*
D03*
X6420000Y1310000D02*
D03*
X6330000D02*
D03*
X2380000Y6310000D02*
D03*
Y5960000D02*
D03*
X2200000Y6140000D02*
D03*
X2560000D02*
D03*
X6450000Y1415000D02*
D03*
X7960701Y919313D02*
D03*
X7540000Y950000D02*
D03*
X7810000Y915000D02*
D03*
X8640000Y2924291D02*
D03*
X7350000Y5290000D02*
D03*
X6570054Y2565000D02*
D03*
X8450000Y3430000D02*
D03*
%TF.MD5,5aed99706b6b4b19010886a37b99321c*%
M02*
