%TF.GenerationSoftware,Altium Limited,Altium Designer,24.7.2 (38)*%
G04 Layer_Color=65535*
%FSLAX45Y45*%
%MOMM*%
%TF.SameCoordinates,33B871D1-E8D8-480E-9A2D-2420748CAAD8*%
%TF.FilePolarity,Positive*%
%TF.FileFunction,Legend,Top*%
%TF.Part,Single*%
G01*
G75*
%TA.AperFunction,NonConductor*%
%ADD73C,0.20000*%
%ADD91C,0.10000*%
%ADD92C,0.25000*%
%ADD93C,0.05200*%
%ADD94C,0.30000*%
%ADD95C,0.12000*%
%ADD96C,0.25400*%
%ADD97C,0.40000*%
%ADD98C,0.35000*%
G36*
X9660800Y5894800D02*
X9662333D01*
Y5887133D01*
X9663867D01*
Y5881000D01*
X9665400D01*
Y5873333D01*
X9666933D01*
Y5865666D01*
X9668467D01*
Y5858000D01*
X9670000D01*
Y5851866D01*
X9671533D01*
Y5844200D01*
X9673067D01*
Y5836533D01*
X9674600D01*
Y5828866D01*
X9676133D01*
Y5821200D01*
X9677666D01*
Y5813533D01*
X9679200D01*
Y5805866D01*
X9680733D01*
Y5799733D01*
X9682266D01*
Y5792066D01*
X9683800D01*
Y5784400D01*
X9685333D01*
Y5776733D01*
X9686867D01*
Y5769066D01*
X9688400D01*
Y5762933D01*
X9689933D01*
Y5755267D01*
X9691467D01*
Y5747600D01*
X9693000D01*
Y5739933D01*
X9694533D01*
Y5732266D01*
X9696066D01*
Y5726133D01*
X9697600D01*
Y5718467D01*
X9699133D01*
Y5710800D01*
X9700666D01*
Y5703133D01*
X9702200D01*
Y5695466D01*
X9703733D01*
Y5687800D01*
X9705267D01*
Y5680133D01*
X9706800D01*
Y5674000D01*
X9708333D01*
Y5666333D01*
X9709867D01*
Y5658667D01*
X9711400D01*
Y5652533D01*
X9712933D01*
Y5644867D01*
X9714466D01*
Y5637200D01*
X9716000D01*
Y5629533D01*
X9717533D01*
Y5621867D01*
X9719066D01*
Y5614200D01*
X9720600D01*
Y5606533D01*
X9716000D01*
Y5608067D01*
X9711400D01*
Y5609600D01*
X9706800D01*
Y5611133D01*
X9702200D01*
Y5612666D01*
X9697600D01*
Y5614200D01*
X9693000D01*
Y5615733D01*
X9686867D01*
Y5617266D01*
X9682266D01*
Y5618800D01*
X9677666D01*
Y5620333D01*
X9673067D01*
Y5621867D01*
X9668467D01*
Y5623400D01*
X9663867D01*
Y5624933D01*
X9659266D01*
Y5626467D01*
X9654666D01*
Y5628000D01*
X9648533D01*
Y5629533D01*
X9643933D01*
Y5631066D01*
X9639333D01*
Y5632600D01*
X9634733D01*
Y5634133D01*
X9630133D01*
Y5635666D01*
X9625533D01*
Y5637200D01*
X9620933D01*
Y5638733D01*
X9616333D01*
Y5640267D01*
X9610200D01*
Y5641800D01*
X9605600D01*
Y5643333D01*
X9601000D01*
Y5644867D01*
X9596400D01*
Y5646400D01*
X9591800D01*
Y5647933D01*
X9587200D01*
Y5649466D01*
X9582600D01*
Y5651000D01*
X9578000D01*
Y5652533D01*
X9571867D01*
Y5654066D01*
X9567267D01*
Y5655600D01*
X9562666D01*
Y5657133D01*
X9558066D01*
Y5658667D01*
X9553467D01*
Y5660200D01*
X9548867D01*
Y5661733D01*
X9542733D01*
Y5663267D01*
X9538133D01*
Y5664800D01*
X9533533D01*
Y5666333D01*
X9528933D01*
Y5667866D01*
X9524333D01*
Y5669400D01*
X9519733D01*
Y5670933D01*
X9515133D01*
Y5672466D01*
X9510533D01*
Y5674000D01*
X9504400D01*
Y5675533D01*
X9499800D01*
Y5677067D01*
X9495200D01*
Y5678600D01*
X9490600D01*
Y5680133D01*
X9486000D01*
Y5681667D01*
X9481400D01*
Y5683200D01*
X9476800D01*
Y5684733D01*
X9472200D01*
Y5686267D01*
X9466066D01*
Y5687800D01*
X9461466D01*
Y5689333D01*
X9456867D01*
Y5690866D01*
X9452267D01*
Y5692400D01*
X9447666D01*
Y5693933D01*
X9443066D01*
Y5695466D01*
X9438467D01*
Y5697000D01*
X9433867D01*
Y5700067D01*
X9435400D01*
Y5704667D01*
X9436933D01*
Y5709266D01*
X9438467D01*
Y5713866D01*
X9440000D01*
Y5716933D01*
X9441533D01*
Y5721533D01*
X9443066D01*
Y5724600D01*
X9444600D01*
Y5729200D01*
X9446133D01*
Y5732266D01*
X9447666D01*
Y5735333D01*
X9449200D01*
Y5738400D01*
X9450733D01*
Y5741467D01*
X9452267D01*
Y5744533D01*
X9453800D01*
Y5747600D01*
X9455333D01*
Y5750666D01*
X9456867D01*
Y5753733D01*
X9458400D01*
Y5756800D01*
X9459933D01*
Y5759867D01*
X9461466D01*
Y5761400D01*
X9463000D01*
Y5764467D01*
X9464533D01*
Y5767533D01*
X9466066D01*
Y5769066D01*
X9467600D01*
Y5772133D01*
X9469133D01*
Y5773666D01*
X9470667D01*
Y5776733D01*
X9472200D01*
Y5778267D01*
X9473733D01*
Y5781333D01*
X9475267D01*
Y5782867D01*
X9476800D01*
Y5784400D01*
X9478333D01*
Y5787466D01*
X9479866D01*
Y5789000D01*
X9481400D01*
Y5792066D01*
X9482933D01*
Y5793600D01*
X9484466D01*
Y5795133D01*
X9486000D01*
Y5796667D01*
X9487533D01*
Y5799733D01*
X9489067D01*
Y5801267D01*
X9490600D01*
Y5802800D01*
X9492133D01*
Y5804333D01*
X9493667D01*
Y5805866D01*
X9495200D01*
Y5807400D01*
X9496733D01*
Y5810466D01*
X9498266D01*
Y5812000D01*
X9499800D01*
Y5813533D01*
X9501333D01*
Y5815067D01*
X9502866D01*
Y5816600D01*
X9504400D01*
Y5818133D01*
X9505933D01*
Y5819667D01*
X9507467D01*
Y5821200D01*
X9509000D01*
Y5822733D01*
X9510533D01*
Y5824266D01*
X9512067D01*
Y5825800D01*
X9513600D01*
Y5827333D01*
X9515133D01*
Y5828866D01*
X9516667D01*
Y5830400D01*
X9518200D01*
Y5831933D01*
X9521266D01*
Y5833467D01*
X9522800D01*
Y5835000D01*
X9524333D01*
Y5836533D01*
X9525866D01*
Y5838067D01*
X9527400D01*
Y5839600D01*
X9530467D01*
Y5841133D01*
X9532000D01*
Y5842666D01*
X9533533D01*
Y5844200D01*
X9535067D01*
Y5845733D01*
X9538133D01*
Y5847266D01*
X9539666D01*
Y5848800D01*
X9541200D01*
Y5850333D01*
X9544266D01*
Y5851866D01*
X9545800D01*
Y5853400D01*
X9547333D01*
Y5854933D01*
X9550400D01*
Y5856467D01*
X9551933D01*
Y5858000D01*
X9555000D01*
Y5859533D01*
X9556533D01*
Y5861067D01*
X9559600D01*
Y5862600D01*
X9562666D01*
Y5864133D01*
X9564200D01*
Y5865666D01*
X9567267D01*
Y5867200D01*
X9570333D01*
Y5868733D01*
X9573400D01*
Y5870266D01*
X9574933D01*
Y5871800D01*
X9578000D01*
Y5873333D01*
X9581066D01*
Y5874867D01*
X9584133D01*
Y5876400D01*
X9587200D01*
Y5877933D01*
X9590267D01*
Y5879467D01*
X9594867D01*
Y5881000D01*
X9597933D01*
Y5882533D01*
X9601000D01*
Y5884066D01*
X9604066D01*
Y5885600D01*
X9608667D01*
Y5887133D01*
X9611733D01*
Y5888666D01*
X9616333D01*
Y5890200D01*
X9620933D01*
Y5891733D01*
X9625533D01*
Y5893267D01*
X9631667D01*
Y5894800D01*
X9636266D01*
Y5896333D01*
X9642400D01*
Y5897867D01*
X9648533D01*
Y5899400D01*
X9654666D01*
Y5900933D01*
X9660800D01*
Y5894800D01*
D02*
G37*
G36*
X9739000Y5844200D02*
X9752800D01*
Y5842666D01*
X9762000D01*
Y5841133D01*
X9769667D01*
Y5839600D01*
X9777333D01*
Y5838067D01*
X9783467D01*
Y5836533D01*
X9788067D01*
Y5835000D01*
X9794200D01*
Y5833467D01*
X9798800D01*
Y5831933D01*
X9803400D01*
Y5830400D01*
X9806467D01*
Y5828866D01*
X9811066D01*
Y5827333D01*
X9814133D01*
Y5825800D01*
X9817200D01*
Y5824266D01*
X9821800D01*
Y5822733D01*
X9824867D01*
Y5821200D01*
X9827933D01*
Y5819667D01*
X9831000D01*
Y5818133D01*
X9834066D01*
Y5816600D01*
X9835600D01*
Y5815067D01*
X9838666D01*
Y5813533D01*
X9841733D01*
Y5812000D01*
X9843267D01*
Y5810466D01*
X9846333D01*
Y5808933D01*
X9849400D01*
Y5807400D01*
X9850933D01*
Y5805866D01*
X9854000D01*
Y5804333D01*
X9855533D01*
Y5802800D01*
X9858600D01*
Y5801267D01*
X9860133D01*
Y5799733D01*
X9861667D01*
Y5798200D01*
X9864733D01*
Y5796667D01*
X9866267D01*
Y5795133D01*
X9867800D01*
Y5793600D01*
X9870866D01*
Y5792066D01*
X9872400D01*
Y5790533D01*
X9873933D01*
Y5789000D01*
X9875466D01*
Y5787466D01*
X9877000D01*
Y5785933D01*
X9878533D01*
Y5784400D01*
X9880067D01*
Y5782867D01*
X9881600D01*
Y5781333D01*
X9884667D01*
Y5779800D01*
X9886200D01*
Y5778267D01*
X9887733D01*
Y5776733D01*
X9889266D01*
Y5775200D01*
X9890800D01*
Y5773666D01*
X9892333D01*
Y5770600D01*
X9893866D01*
Y5769066D01*
X9895400D01*
Y5767533D01*
X9896933D01*
Y5766000D01*
X9898467D01*
Y5764467D01*
X9900000D01*
Y5762933D01*
X9901533D01*
Y5761400D01*
X9903067D01*
Y5758333D01*
X9904600D01*
Y5756800D01*
X9906133D01*
Y5755267D01*
X9907666D01*
Y5753733D01*
X9909200D01*
Y5750666D01*
X9910733D01*
Y5749133D01*
X9912266D01*
Y5747600D01*
X9913800D01*
Y5744533D01*
X9915333D01*
Y5743000D01*
X9916866D01*
Y5739933D01*
X9918400D01*
Y5738400D01*
X9919933D01*
Y5735333D01*
X9921467D01*
Y5732266D01*
X9923000D01*
Y5730733D01*
X9924533D01*
Y5727666D01*
X9926067D01*
Y5724600D01*
X9927600D01*
Y5721533D01*
X9929133D01*
Y5718467D01*
X9930666D01*
Y5716933D01*
X9932200D01*
Y5713866D01*
X9933733D01*
Y5709266D01*
X9935266D01*
Y5706200D01*
X9936800D01*
Y5703133D01*
X9938333D01*
Y5698533D01*
X9939867D01*
Y5695466D01*
X9941400D01*
Y5690866D01*
X9942933D01*
Y5686267D01*
X9944467D01*
Y5681667D01*
X9946000D01*
Y5677067D01*
X9947533D01*
Y5672466D01*
X9949066D01*
Y5666333D01*
X9950600D01*
Y5658667D01*
X9952133D01*
Y5651000D01*
X9953666D01*
Y5640267D01*
X9955200D01*
Y5624933D01*
X9956733D01*
Y5592733D01*
X9955200D01*
Y5575866D01*
X9953666D01*
Y5566667D01*
X9952133D01*
Y5557466D01*
X9950600D01*
Y5551333D01*
X9949066D01*
Y5545200D01*
X9947533D01*
Y5539066D01*
X9946000D01*
Y5534466D01*
X9944467D01*
Y5529867D01*
X9942933D01*
Y5525267D01*
X9941400D01*
Y5522200D01*
X9939867D01*
Y5517600D01*
X9938333D01*
Y5513000D01*
X9936800D01*
Y5509933D01*
X9935266D01*
Y5506867D01*
X9933733D01*
Y5503800D01*
X9932200D01*
Y5500733D01*
X9930666D01*
Y5497666D01*
X9929133D01*
Y5494600D01*
X9927600D01*
Y5491533D01*
X9926067D01*
Y5488467D01*
X9924533D01*
Y5486933D01*
X9923000D01*
Y5483867D01*
X9921467D01*
Y5480800D01*
X9919933D01*
Y5479266D01*
X9918400D01*
Y5476200D01*
X9916866D01*
Y5474666D01*
X9915333D01*
Y5471600D01*
X9913800D01*
Y5470067D01*
X9912266D01*
Y5467000D01*
X9910733D01*
Y5465467D01*
X9909200D01*
Y5463933D01*
X9907666D01*
Y5460866D01*
X9906133D01*
Y5459333D01*
X9904600D01*
Y5457800D01*
X9903067D01*
Y5456266D01*
X9901533D01*
Y5453200D01*
X9900000D01*
Y5451667D01*
X9898467D01*
Y5450133D01*
X9896933D01*
Y5448600D01*
X9895400D01*
Y5447067D01*
X9893866D01*
Y5445533D01*
X9892333D01*
Y5444000D01*
X9890800D01*
Y5442467D01*
X9889266D01*
Y5440933D01*
X9887733D01*
Y5439400D01*
X9886200D01*
Y5437866D01*
X9884667D01*
Y5436333D01*
X9883133D01*
Y5434800D01*
X9881600D01*
Y5433267D01*
X9880067D01*
Y5431733D01*
X9878533D01*
Y5430200D01*
X9877000D01*
Y5428667D01*
X9875466D01*
Y5427133D01*
X9873933D01*
Y5425600D01*
X9870866D01*
Y5424067D01*
X9869333D01*
Y5422533D01*
X9867800D01*
Y5421000D01*
X9866267D01*
Y5419466D01*
X9863200D01*
Y5417933D01*
X9861667D01*
Y5416400D01*
X9860133D01*
Y5414866D01*
X9857066D01*
Y5413333D01*
X9855533D01*
Y5411800D01*
X9852466D01*
Y5410267D01*
X9850933D01*
Y5408733D01*
X9847867D01*
Y5407200D01*
X9846333D01*
Y5405667D01*
X9843267D01*
Y5404133D01*
X9840200D01*
Y5402600D01*
X9838666D01*
Y5401066D01*
X9835600D01*
Y5399533D01*
X9832533D01*
Y5398000D01*
X9829466D01*
Y5396466D01*
X9826400D01*
Y5394933D01*
X9823333D01*
Y5393400D01*
X9820267D01*
Y5391867D01*
X9817200D01*
Y5390333D01*
X9812600D01*
Y5388800D01*
X9809533D01*
Y5387267D01*
X9806467D01*
Y5385733D01*
X9801867D01*
Y5384200D01*
X9797266D01*
Y5382666D01*
X9792666D01*
Y5381133D01*
X9788067D01*
Y5379600D01*
X9781933D01*
Y5378066D01*
X9775800D01*
Y5376533D01*
X9768133D01*
Y5375000D01*
X9760466D01*
Y5373467D01*
X9751267D01*
Y5371933D01*
X9737466D01*
Y5370400D01*
X9700666D01*
Y5371933D01*
X9686867D01*
Y5373467D01*
X9677666D01*
Y5375000D01*
X9670000D01*
Y5376533D01*
X9662333D01*
Y5378066D01*
X9656200D01*
Y5379600D01*
X9650067D01*
Y5381133D01*
X9645467D01*
Y5382666D01*
X9640866D01*
Y5384200D01*
X9636266D01*
Y5385733D01*
X9631667D01*
Y5387267D01*
X9628600D01*
Y5388800D01*
X9625533D01*
Y5390333D01*
X9620933D01*
Y5391867D01*
X9617866D01*
Y5393400D01*
X9614800D01*
Y5394933D01*
X9611733D01*
Y5396466D01*
X9608667D01*
Y5398000D01*
X9605600D01*
Y5399533D01*
X9602533D01*
Y5401066D01*
X9599466D01*
Y5402600D01*
X9597933D01*
Y5404133D01*
X9594867D01*
Y5405667D01*
X9591800D01*
Y5407200D01*
X9590267D01*
Y5408733D01*
X9587200D01*
Y5410267D01*
X9585667D01*
Y5411800D01*
X9582600D01*
Y5413333D01*
X9581066D01*
Y5414866D01*
X9578000D01*
Y5416400D01*
X9576466D01*
Y5417933D01*
X9574933D01*
Y5419466D01*
X9571867D01*
Y5421000D01*
X9570333D01*
Y5422533D01*
X9568800D01*
Y5424067D01*
X9567267D01*
Y5425600D01*
X9564200D01*
Y5427133D01*
X9562666D01*
Y5428667D01*
X9561133D01*
Y5430200D01*
X9559600D01*
Y5431733D01*
X9558066D01*
Y5433267D01*
X9556533D01*
Y5434800D01*
X9555000D01*
Y5436333D01*
X9553467D01*
Y5437866D01*
X9551933D01*
Y5439400D01*
X9550400D01*
Y5440933D01*
X9548867D01*
Y5442467D01*
X9547333D01*
Y5444000D01*
X9545800D01*
Y5445533D01*
X9544266D01*
Y5447067D01*
X9542733D01*
Y5448600D01*
X9541200D01*
Y5450133D01*
X9539666D01*
Y5451667D01*
X9538133D01*
Y5453200D01*
X9536600D01*
Y5456266D01*
X9535067D01*
Y5457800D01*
X9533533D01*
Y5459333D01*
X9532000D01*
Y5460866D01*
X9530467D01*
Y5463933D01*
X9528933D01*
Y5465467D01*
X9527400D01*
Y5467000D01*
X9525866D01*
Y5470067D01*
X9524333D01*
Y5471600D01*
X9522800D01*
Y5473133D01*
X9521266D01*
Y5476200D01*
X9519733D01*
Y5479266D01*
X9518200D01*
Y5480800D01*
X9516667D01*
Y5483867D01*
X9515133D01*
Y5485400D01*
X9513600D01*
Y5488467D01*
X9512067D01*
Y5491533D01*
X9510533D01*
Y5494600D01*
X9509000D01*
Y5497666D01*
X9507467D01*
Y5500733D01*
X9505933D01*
Y5503800D01*
X9504400D01*
Y5506867D01*
X9502866D01*
Y5509933D01*
X9501333D01*
Y5513000D01*
X9499800D01*
Y5517600D01*
X9498266D01*
Y5520667D01*
X9496733D01*
Y5525267D01*
X9495200D01*
Y5529867D01*
X9493667D01*
Y5534466D01*
X9492133D01*
Y5539066D01*
X9490600D01*
Y5545200D01*
X9489067D01*
Y5551333D01*
X9487533D01*
Y5557466D01*
X9486000D01*
Y5565133D01*
X9484466D01*
Y5574333D01*
X9482933D01*
Y5589666D01*
X9481400D01*
Y5629533D01*
X9482933D01*
Y5643333D01*
X9489067D01*
Y5641800D01*
X9493667D01*
Y5640267D01*
X9499800D01*
Y5638733D01*
X9504400D01*
Y5637200D01*
X9509000D01*
Y5635666D01*
X9513600D01*
Y5634133D01*
X9518200D01*
Y5632600D01*
X9524333D01*
Y5631066D01*
X9528933D01*
Y5629533D01*
X9533533D01*
Y5628000D01*
X9539666D01*
Y5626467D01*
X9544266D01*
Y5624933D01*
X9548867D01*
Y5623400D01*
X9553467D01*
Y5621867D01*
X9559600D01*
Y5620333D01*
X9564200D01*
Y5618800D01*
X9568800D01*
Y5617266D01*
X9574933D01*
Y5615733D01*
X9579533D01*
Y5614200D01*
X9584133D01*
Y5612666D01*
X9588733D01*
Y5611133D01*
X9590267D01*
Y5597333D01*
X9591800D01*
Y5585067D01*
X9593333D01*
Y5577400D01*
X9594867D01*
Y5572800D01*
Y5571266D01*
X9596400D01*
Y5566667D01*
X9597933D01*
Y5562067D01*
X9599466D01*
Y5559000D01*
X9601000D01*
Y5555933D01*
X9602533D01*
Y5551333D01*
X9604066D01*
Y5548267D01*
X9605600D01*
Y5545200D01*
X9607133D01*
Y5543667D01*
X9608667D01*
Y5540600D01*
X9610200D01*
Y5537533D01*
X9611733D01*
Y5536000D01*
X9613267D01*
Y5532933D01*
X9614800D01*
Y5531400D01*
X9616333D01*
Y5529867D01*
X9617866D01*
Y5526800D01*
X9619400D01*
Y5525267D01*
X9620933D01*
Y5523733D01*
X9622466D01*
Y5522200D01*
X9624000D01*
Y5520667D01*
X9625533D01*
Y5519133D01*
X9627067D01*
Y5517600D01*
X9628600D01*
Y5516066D01*
X9630133D01*
Y5514533D01*
X9631667D01*
Y5513000D01*
X9633200D01*
Y5511466D01*
X9634733D01*
Y5509933D01*
X9636266D01*
Y5508400D01*
X9637800D01*
Y5506867D01*
X9640866D01*
Y5505333D01*
X9642400D01*
Y5503800D01*
X9645467D01*
Y5502267D01*
X9647000D01*
Y5500733D01*
X9650067D01*
Y5499200D01*
X9651600D01*
Y5497666D01*
X9654666D01*
Y5496133D01*
X9656200D01*
Y5494600D01*
X9659266D01*
Y5493066D01*
X9662333D01*
Y5491533D01*
X9666933D01*
Y5490000D01*
X9670000D01*
Y5488467D01*
X9674600D01*
Y5486933D01*
X9679200D01*
Y5485400D01*
X9683800D01*
Y5483867D01*
X9689933D01*
Y5482333D01*
X9697600D01*
Y5480800D01*
X9709867D01*
Y5479266D01*
X9728267D01*
Y5480800D01*
X9740533D01*
Y5482333D01*
X9748200D01*
Y5483867D01*
X9754333D01*
Y5485400D01*
X9758933D01*
Y5486933D01*
X9763533D01*
Y5488467D01*
X9768133D01*
Y5490000D01*
X9771200D01*
Y5491533D01*
X9774266D01*
Y5493066D01*
X9777333D01*
Y5494600D01*
X9780400D01*
Y5496133D01*
X9783467D01*
Y5497666D01*
X9786533D01*
Y5499200D01*
X9788067D01*
Y5500733D01*
X9791133D01*
Y5502267D01*
X9792666D01*
Y5503800D01*
X9795733D01*
Y5505333D01*
X9797266D01*
Y5506867D01*
X9798800D01*
Y5508400D01*
X9801867D01*
Y5509933D01*
X9803400D01*
Y5511466D01*
X9804933D01*
Y5513000D01*
X9806467D01*
Y5514533D01*
X9808000D01*
Y5516066D01*
X9809533D01*
Y5517600D01*
X9811066D01*
Y5519133D01*
X9812600D01*
Y5520667D01*
X9814133D01*
Y5522200D01*
X9815666D01*
Y5523733D01*
X9817200D01*
Y5526800D01*
X9818733D01*
Y5528333D01*
X9820267D01*
Y5529867D01*
X9821800D01*
Y5531400D01*
X9823333D01*
Y5534466D01*
X9824867D01*
Y5536000D01*
X9826400D01*
Y5539066D01*
X9827933D01*
Y5542133D01*
X9829466D01*
Y5543667D01*
X9831000D01*
Y5546733D01*
X9832533D01*
Y5549800D01*
X9834066D01*
Y5552866D01*
X9835600D01*
Y5555933D01*
X9837133D01*
Y5560533D01*
X9838666D01*
Y5563600D01*
X9840200D01*
Y5569733D01*
X9841733D01*
Y5574333D01*
X9843267D01*
Y5582000D01*
X9844800D01*
Y5589666D01*
X9846333D01*
Y5626467D01*
X9844800D01*
Y5634133D01*
X9843267D01*
Y5641800D01*
X9841733D01*
Y5646400D01*
X9840200D01*
Y5651000D01*
X9838666D01*
Y5655600D01*
X9837133D01*
Y5658667D01*
X9835600D01*
Y5663267D01*
X9834066D01*
Y5666333D01*
X9832533D01*
Y5667866D01*
X9831000D01*
Y5670933D01*
X9829466D01*
Y5674000D01*
X9827933D01*
Y5677067D01*
X9826400D01*
Y5678600D01*
X9824867D01*
Y5681667D01*
X9823333D01*
Y5683200D01*
X9821800D01*
Y5684733D01*
X9820267D01*
Y5687800D01*
X9818733D01*
Y5689333D01*
X9817200D01*
Y5690866D01*
X9815666D01*
Y5692400D01*
X9814133D01*
Y5693933D01*
X9812600D01*
Y5695466D01*
X9811066D01*
Y5697000D01*
X9809533D01*
Y5698533D01*
X9808000D01*
Y5700067D01*
X9806467D01*
Y5701600D01*
X9804933D01*
Y5703133D01*
X9803400D01*
Y5704667D01*
X9801867D01*
Y5706200D01*
X9800333D01*
Y5707733D01*
X9797266D01*
Y5709266D01*
X9795733D01*
Y5710800D01*
X9794200D01*
Y5712333D01*
X9791133D01*
Y5713866D01*
X9789600D01*
Y5715400D01*
X9786533D01*
Y5716933D01*
X9785000D01*
Y5718467D01*
X9781933D01*
Y5720000D01*
X9778866D01*
Y5721533D01*
X9775800D01*
Y5723067D01*
X9772733D01*
Y5724600D01*
X9769667D01*
Y5726133D01*
X9765067D01*
Y5727666D01*
X9760466D01*
Y5729200D01*
X9755866D01*
Y5730733D01*
X9751267D01*
Y5732266D01*
X9743600D01*
Y5733800D01*
X9734400D01*
Y5735333D01*
X9732866D01*
Y5736867D01*
X9731333D01*
Y5744533D01*
X9729800D01*
Y5753733D01*
X9728267D01*
Y5761400D01*
X9726733D01*
Y5769066D01*
X9725200D01*
Y5776733D01*
X9723667D01*
Y5782867D01*
X9722133D01*
Y5790533D01*
X9720600D01*
Y5798200D01*
X9719066D01*
Y5805866D01*
X9717533D01*
Y5813533D01*
X9716000D01*
Y5822733D01*
X9714466D01*
Y5830400D01*
X9712933D01*
Y5838067D01*
X9711400D01*
Y5845733D01*
X9739000D01*
Y5844200D01*
D02*
G37*
G36*
X7133015Y3205642D02*
X7135847Y3205142D01*
X7138180Y3204476D01*
X7140346Y3203976D01*
X7142012Y3203476D01*
X7142512Y3203309D01*
X7143012Y3203143D01*
X7143179Y3202976D01*
X7143345D01*
X7146345Y3201643D01*
X7149011Y3200310D01*
X7151510Y3198644D01*
X7153676Y3197144D01*
X7155509Y3195811D01*
X7156842Y3194645D01*
X7157675Y3193978D01*
X7158008Y3193645D01*
X7145678Y3178149D01*
X7142346Y3180315D01*
X7140679Y3181148D01*
X7139346Y3181981D01*
X7138180Y3182481D01*
X7137347Y3182815D01*
X7136680Y3183148D01*
X7136514D01*
X7134848Y3183814D01*
X7133181Y3184148D01*
X7131682Y3184481D01*
X7130182Y3184814D01*
X7128849D01*
X7127849Y3184981D01*
X7125350D01*
X7124017Y3184647D01*
X7122851Y3184481D01*
X7121684Y3184148D01*
X7121018Y3183814D01*
X7120351Y3183648D01*
X7120018Y3183314D01*
X7119851D01*
X7119018Y3182648D01*
X7118352Y3181981D01*
X7117852Y3181148D01*
X7117519Y3180482D01*
X7117352Y3179815D01*
X7117185Y3179149D01*
Y3178816D01*
Y3178649D01*
X7117352Y3177483D01*
X7117852Y3176483D01*
X7119185Y3174817D01*
X7119851Y3174317D01*
X7120518Y3173817D01*
X7120851Y3173650D01*
X7121018Y3173484D01*
X7122517Y3172817D01*
X7124184Y3171984D01*
X7125850Y3171318D01*
X7127516Y3170651D01*
X7129016Y3170151D01*
X7130182Y3169651D01*
X7130849Y3169485D01*
X7131182Y3169318D01*
X7142512Y3164986D01*
X7145511Y3163486D01*
X7148177Y3161987D01*
X7150510Y3160320D01*
X7152510Y3158821D01*
X7153843Y3157321D01*
X7155009Y3156155D01*
X7155676Y3155488D01*
X7155842Y3155155D01*
X7157342Y3152656D01*
X7158508Y3150156D01*
X7159341Y3147490D01*
X7160008Y3144991D01*
X7160341Y3142825D01*
X7160508Y3141159D01*
Y3140492D01*
Y3139992D01*
Y3139659D01*
Y3139492D01*
X7160341Y3137326D01*
X7160174Y3135160D01*
X7159675Y3132994D01*
X7159008Y3131161D01*
X7157508Y3127662D01*
X7155842Y3124663D01*
X7154009Y3122163D01*
X7153176Y3121164D01*
X7152510Y3120331D01*
X7151843Y3119664D01*
X7151343Y3119164D01*
X7151177Y3118998D01*
X7151010Y3118831D01*
X7149177Y3117331D01*
X7147178Y3115998D01*
X7145012Y3114832D01*
X7142846Y3113832D01*
X7138347Y3112333D01*
X7134181Y3111166D01*
X7132015Y3110833D01*
X7130182Y3110500D01*
X7128516Y3110333D01*
X7127016Y3110166D01*
X7125850D01*
X7125017Y3110000D01*
X7124184D01*
X7120851Y3110166D01*
X7117519Y3110333D01*
X7114353Y3110833D01*
X7111687Y3111499D01*
X7109354Y3111999D01*
X7107521Y3112499D01*
X7106855Y3112666D01*
X7106355Y3112832D01*
X7106022Y3112999D01*
X7105855D01*
X7102522Y3114332D01*
X7099357Y3115998D01*
X7096524Y3117665D01*
X7094025Y3119331D01*
X7091859Y3120664D01*
X7090359Y3121830D01*
X7089359Y3122663D01*
X7089193Y3122997D01*
X7089026D01*
X7103022Y3139826D01*
X7106855Y3137160D01*
X7108521Y3135993D01*
X7110187Y3135160D01*
X7111687Y3134327D01*
X7112687Y3133827D01*
X7113520Y3133494D01*
X7113686Y3133327D01*
X7115852Y3132494D01*
X7117852Y3131994D01*
X7119685Y3131494D01*
X7121351Y3131161D01*
X7122684Y3130995D01*
X7123850Y3130828D01*
X7124683D01*
X7126683Y3130995D01*
X7128349Y3131161D01*
X7129682Y3131494D01*
X7130849Y3131828D01*
X7131682Y3132161D01*
X7132348Y3132327D01*
X7132681Y3132661D01*
X7132848D01*
X7133681Y3133327D01*
X7134348Y3134160D01*
X7134848Y3134993D01*
X7135181Y3135660D01*
X7135347Y3136326D01*
X7135514Y3136993D01*
Y3137326D01*
Y3137493D01*
X7135347Y3138659D01*
X7134848Y3139659D01*
X7133681Y3141159D01*
X7132515Y3142158D01*
X7132182Y3142492D01*
X7132015D01*
X7130682Y3143158D01*
X7129182Y3143825D01*
X7126183Y3145158D01*
X7124683Y3145657D01*
X7123684Y3146157D01*
X7123017Y3146324D01*
X7122684Y3146491D01*
X7111187Y3151323D01*
X7108354Y3152656D01*
X7105855Y3153989D01*
X7103522Y3155655D01*
X7101689Y3157154D01*
X7100190Y3158487D01*
X7099023Y3159654D01*
X7098190Y3160320D01*
X7098024Y3160654D01*
X7096191Y3163153D01*
X7094858Y3165986D01*
X7094025Y3168652D01*
X7093358Y3171318D01*
X7092858Y3173650D01*
X7092692Y3175483D01*
X7092525Y3176150D01*
Y3176649D01*
Y3176983D01*
Y3177149D01*
X7092692Y3179482D01*
X7093025Y3181648D01*
X7094025Y3185481D01*
X7095691Y3188980D01*
X7097357Y3191979D01*
X7099023Y3194478D01*
X7099857Y3195311D01*
X7100523Y3196144D01*
X7101190Y3196811D01*
X7101689Y3197311D01*
X7101856Y3197477D01*
X7102023Y3197644D01*
X7103855Y3199144D01*
X7105855Y3200310D01*
X7110021Y3202476D01*
X7114186Y3203809D01*
X7118019Y3204809D01*
X7119851Y3205309D01*
X7121684Y3205475D01*
X7123184Y3205642D01*
X7124517Y3205809D01*
X7125517Y3205975D01*
X7130015D01*
X7133015Y3205642D01*
D02*
G37*
G36*
X7266147Y3111499D02*
X7234822D01*
X7227657Y3148323D01*
X7226991Y3152322D01*
X7226657Y3154155D01*
X7226324Y3155821D01*
X7226158Y3157154D01*
X7225991Y3158154D01*
X7225824Y3158987D01*
Y3159154D01*
X7225324Y3163320D01*
X7224991Y3165152D01*
X7224825Y3166652D01*
X7224658Y3167985D01*
X7224491Y3169151D01*
X7224325Y3169818D01*
Y3169985D01*
X7223658D01*
X7223158Y3166152D01*
X7222825Y3164319D01*
X7222658Y3162653D01*
X7222492Y3161153D01*
X7222325Y3160154D01*
X7222159Y3159487D01*
Y3159154D01*
X7221492Y3155155D01*
X7221159Y3153322D01*
X7220992Y3151656D01*
X7220659Y3150323D01*
X7220492Y3149323D01*
X7220326Y3148490D01*
Y3148323D01*
X7213327Y3111499D01*
X7182835D01*
X7166506Y3204309D01*
X7191666D01*
X7196832Y3163819D01*
X7197165Y3161153D01*
X7197332Y3158487D01*
X7197665Y3155988D01*
X7197831Y3153822D01*
X7197998Y3151823D01*
X7198165Y3150490D01*
X7198331Y3149490D01*
Y3149323D01*
Y3149157D01*
X7198665Y3146491D01*
X7198998Y3143825D01*
X7199164Y3141325D01*
X7199498Y3139159D01*
X7199664Y3137160D01*
X7199831Y3135827D01*
X7199998Y3134827D01*
Y3134660D01*
Y3134494D01*
X7200497D01*
X7200997Y3137160D01*
X7201497Y3139826D01*
X7201830Y3142325D01*
X7202330Y3144658D01*
X7202497Y3146491D01*
X7202830Y3147824D01*
X7202997Y3148823D01*
Y3149157D01*
X7203497Y3151823D01*
X7203997Y3154488D01*
X7204496Y3156988D01*
X7204830Y3159321D01*
X7205163Y3161153D01*
X7205496Y3162486D01*
X7205663Y3163486D01*
Y3163819D01*
X7214494Y3204309D01*
X7235155D01*
X7243986Y3163819D01*
X7244986Y3158654D01*
X7245319Y3156155D01*
X7245819Y3153989D01*
X7245986Y3151989D01*
X7246319Y3150656D01*
X7246486Y3149656D01*
Y3149490D01*
Y3149323D01*
X7247485Y3143991D01*
X7247985Y3141492D01*
X7248318Y3139159D01*
X7248652Y3137326D01*
X7248985Y3135827D01*
X7249152Y3134827D01*
Y3134660D01*
Y3134494D01*
X7249818D01*
X7250151Y3137326D01*
X7250318Y3139992D01*
X7250651Y3142492D01*
X7250818Y3144658D01*
X7250984Y3146657D01*
X7251151Y3147990D01*
X7251318Y3148990D01*
Y3149323D01*
X7251651Y3151989D01*
X7251984Y3154655D01*
X7252151Y3157154D01*
X7252484Y3159321D01*
X7252651Y3161153D01*
X7252817Y3162653D01*
X7252984Y3163486D01*
Y3163819D01*
X7257983Y3204309D01*
X7281477D01*
X7266147Y3111499D01*
D02*
G37*
G36*
X7074530Y3143825D02*
Y3141159D01*
X7074196Y3138659D01*
X7073363Y3133994D01*
X7072197Y3129995D01*
X7071530Y3128162D01*
X7070697Y3126496D01*
X7070031Y3124996D01*
X7069364Y3123663D01*
X7068698Y3122497D01*
X7068031Y3121497D01*
X7067531Y3120830D01*
X7067198Y3120331D01*
X7067032Y3119997D01*
X7066865Y3119831D01*
X7065365Y3118164D01*
X7063699Y3116665D01*
X7061866Y3115332D01*
X7059867Y3114332D01*
X7056034Y3112499D01*
X7052035Y3111333D01*
X7048536Y3110666D01*
X7047037Y3110333D01*
X7045704Y3110166D01*
X7044537D01*
X7043704Y3110000D01*
X7043038D01*
X7039039Y3110166D01*
X7035373Y3110666D01*
X7032207Y3111333D01*
X7029375Y3111999D01*
X7027042Y3112832D01*
X7025376Y3113499D01*
X7024876Y3113832D01*
X7024376Y3113999D01*
X7024209Y3114165D01*
X7024043D01*
X7021377Y3115998D01*
X7018877Y3117998D01*
X7016711Y3120164D01*
X7014878Y3122330D01*
X7013379Y3124330D01*
X7012212Y3125829D01*
X7011879Y3126496D01*
X7011546Y3126996D01*
X7011379Y3127162D01*
Y3127329D01*
X7027875Y3139826D01*
X7028875Y3138326D01*
X7029874Y3136826D01*
X7030708Y3135660D01*
X7031541Y3134660D01*
X7032374Y3133994D01*
X7032874Y3133494D01*
X7033207Y3133161D01*
X7033374Y3132994D01*
X7034540Y3132327D01*
X7035706Y3131828D01*
X7037706Y3131161D01*
X7038539Y3130995D01*
X7039205Y3130828D01*
X7039705D01*
X7041538Y3130995D01*
X7043038Y3131161D01*
X7044204Y3131661D01*
X7045370Y3132327D01*
X7046204Y3132827D01*
X7046703Y3133327D01*
X7047037Y3133660D01*
X7047203Y3133827D01*
X7048036Y3135327D01*
X7048703Y3137160D01*
X7049203Y3139159D01*
X7049703Y3141159D01*
X7049869Y3142991D01*
X7050036Y3144491D01*
Y3145491D01*
Y3145657D01*
Y3145824D01*
Y3204309D01*
X7074530D01*
Y3143825D01*
D02*
G37*
G36*
X7328631Y3203976D02*
X7332130Y3203476D01*
X7335463Y3202809D01*
X7338462Y3201976D01*
X7341295Y3201143D01*
X7343794Y3200143D01*
X7346127Y3199144D01*
X7348293Y3198144D01*
X7350126Y3197144D01*
X7351625Y3196144D01*
X7352958Y3195311D01*
X7353958Y3194645D01*
X7354625Y3194145D01*
X7355124Y3193812D01*
X7355291Y3193645D01*
X7357624Y3191479D01*
X7359623Y3188980D01*
X7361290Y3186314D01*
X7362789Y3183481D01*
X7364122Y3180648D01*
X7365289Y3177649D01*
X7366122Y3174817D01*
X7366788Y3171984D01*
X7367455Y3169151D01*
X7367788Y3166652D01*
X7368121Y3164319D01*
X7368454Y3162320D01*
Y3160654D01*
X7368621Y3159321D01*
Y3158654D01*
Y3158321D01*
X7368454Y3153822D01*
X7367955Y3149823D01*
X7367288Y3145991D01*
X7366455Y3142492D01*
X7365455Y3139159D01*
X7364289Y3136326D01*
X7363122Y3133660D01*
X7361956Y3131328D01*
X7360790Y3129328D01*
X7359623Y3127495D01*
X7358624Y3125996D01*
X7357624Y3124829D01*
X7356791Y3123830D01*
X7356124Y3123163D01*
X7355791Y3122830D01*
X7355624Y3122663D01*
X7353125Y3120664D01*
X7350626Y3118998D01*
X7347793Y3117498D01*
X7345127Y3116165D01*
X7342294Y3115165D01*
X7339462Y3114165D01*
X7334296Y3112832D01*
X7331797Y3112499D01*
X7329464Y3112166D01*
X7327465Y3111833D01*
X7325799Y3111666D01*
X7324299Y3111499D01*
X7293474D01*
Y3204309D01*
X7324966D01*
X7328631Y3203976D01*
D02*
G37*
G36*
X4676697Y225137D02*
X4679696Y224804D01*
X4682362Y224137D01*
X4684862Y223471D01*
X4686861Y222804D01*
X4688194Y222138D01*
X4689194Y221805D01*
X4689527Y221638D01*
X4692193Y220305D01*
X4694526Y218806D01*
X4696692Y217473D01*
X4698525Y216140D01*
X4699858Y214973D01*
X4701024Y213973D01*
X4701691Y213307D01*
X4701857Y213140D01*
X4688361Y197978D01*
X4685861Y199977D01*
X4683695Y201310D01*
X4682862Y201810D01*
X4682196Y202143D01*
X4681696Y202476D01*
X4681529D01*
X4678863Y203476D01*
X4676364Y203976D01*
X4675364Y204143D01*
X4674531Y204309D01*
X4673698D01*
X4670532Y203976D01*
X4667866Y203143D01*
X4665367Y201976D01*
X4663200Y200643D01*
X4661534Y199310D01*
X4660201Y198311D01*
X4659535Y197478D01*
X4659202Y197144D01*
X4657202Y194312D01*
X4655702Y191146D01*
X4654703Y187813D01*
X4653870Y184648D01*
X4653536Y181815D01*
X4653370Y180482D01*
X4653203Y179482D01*
X4653036Y178482D01*
Y177816D01*
Y177483D01*
Y177316D01*
X4653370Y172651D01*
X4654036Y168652D01*
X4654869Y165319D01*
X4655869Y162487D01*
X4656869Y160154D01*
X4657702Y158654D01*
X4658368Y157654D01*
X4658535Y157321D01*
X4660701Y154989D01*
X4663200Y153322D01*
X4665533Y151989D01*
X4667866Y151156D01*
X4670032Y150656D01*
X4671698Y150323D01*
X4672365Y150156D01*
X4673198D01*
X4675197Y150323D01*
X4676864Y150490D01*
X4678530Y150990D01*
X4679863Y151323D01*
X4681029Y151656D01*
X4681862Y151989D01*
X4682362Y152323D01*
X4682529D01*
X4685361Y153989D01*
X4686528Y154822D01*
X4687528Y155822D01*
X4688361Y156488D01*
X4689027Y157155D01*
X4689360Y157488D01*
X4689527Y157654D01*
X4702857Y142825D01*
X4700524Y140492D01*
X4698192Y138326D01*
X4696025Y136660D01*
X4693859Y135160D01*
X4692026Y134161D01*
X4690527Y133327D01*
X4689527Y132828D01*
X4689360Y132661D01*
X4689194D01*
X4686361Y131495D01*
X4683362Y130661D01*
X4680696Y130162D01*
X4678197Y129828D01*
X4676031Y129495D01*
X4674364Y129328D01*
X4672865D01*
X4668366Y129495D01*
X4664200Y130162D01*
X4660368Y130995D01*
X4657035Y131994D01*
X4655536Y132328D01*
X4654203Y132828D01*
X4653036Y133327D01*
X4652203Y133661D01*
X4651370Y133994D01*
X4650870Y134327D01*
X4650537Y134494D01*
X4650370D01*
X4646705Y136660D01*
X4643539Y139159D01*
X4640706Y141659D01*
X4638374Y144325D01*
X4636541Y146491D01*
X4635208Y148490D01*
X4634708Y149157D01*
X4634375Y149657D01*
X4634041Y149990D01*
Y150156D01*
X4632042Y154322D01*
X4630542Y158654D01*
X4629542Y163153D01*
X4628876Y167319D01*
X4628543Y169152D01*
X4628376Y170984D01*
X4628209Y172484D01*
Y173817D01*
X4628043Y174983D01*
Y175817D01*
Y176316D01*
Y176483D01*
X4628376Y182148D01*
X4629043Y187314D01*
X4630042Y191812D01*
X4630709Y193812D01*
X4631209Y195645D01*
X4631875Y197311D01*
X4632375Y198811D01*
X4632875Y199977D01*
X4633375Y200977D01*
X4633875Y201810D01*
X4634041Y202476D01*
X4634375Y202810D01*
Y202976D01*
X4636874Y206809D01*
X4639706Y210308D01*
X4642372Y213140D01*
X4645038Y215473D01*
X4647371Y217306D01*
X4649204Y218639D01*
X4649871Y218972D01*
X4650370Y219305D01*
X4650704Y219639D01*
X4650870D01*
X4654869Y221471D01*
X4658702Y222971D01*
X4662534Y223971D01*
X4666033Y224637D01*
X4669032Y224971D01*
X4670199Y225137D01*
X4671365Y225304D01*
X4673365D01*
X4676697Y225137D01*
D02*
G37*
G36*
X4490578Y224971D02*
X4493411Y224471D01*
X4495743Y223804D01*
X4497909Y223304D01*
X4499576Y222804D01*
X4500076Y222638D01*
X4500575Y222471D01*
X4500742Y222305D01*
X4500909D01*
X4503908Y220972D01*
X4506574Y219639D01*
X4509073Y217972D01*
X4511239Y216473D01*
X4513072Y215140D01*
X4514405Y213973D01*
X4515238Y213307D01*
X4515572Y212974D01*
X4503241Y197478D01*
X4499909Y199644D01*
X4498243Y200477D01*
X4496910Y201310D01*
X4495743Y201810D01*
X4494910Y202143D01*
X4494244Y202476D01*
X4494077D01*
X4492411Y203143D01*
X4490745Y203476D01*
X4489245Y203809D01*
X4487745Y204143D01*
X4486412D01*
X4485413Y204309D01*
X4482913D01*
X4481580Y203976D01*
X4480414Y203809D01*
X4479248Y203476D01*
X4478581Y203143D01*
X4477915Y202976D01*
X4477581Y202643D01*
X4477415D01*
X4476582Y201976D01*
X4475915Y201310D01*
X4475415Y200477D01*
X4475082Y199810D01*
X4474915Y199144D01*
X4474749Y198477D01*
Y198144D01*
Y197978D01*
X4474915Y196811D01*
X4475415Y195811D01*
X4476748Y194145D01*
X4477415Y193645D01*
X4478081Y193145D01*
X4478414Y192979D01*
X4478581Y192812D01*
X4480081Y192146D01*
X4481747Y191313D01*
X4483413Y190646D01*
X4485079Y189980D01*
X4486579Y189480D01*
X4487745Y188980D01*
X4488412Y188813D01*
X4488745Y188647D01*
X4500076Y184314D01*
X4503075Y182815D01*
X4505741Y181315D01*
X4508074Y179649D01*
X4510073Y178149D01*
X4511406Y176650D01*
X4512572Y175483D01*
X4513239Y174817D01*
X4513406Y174484D01*
X4514905Y171984D01*
X4516071Y169485D01*
X4516905Y166819D01*
X4517571Y164319D01*
X4517904Y162153D01*
X4518071Y160487D01*
Y159821D01*
Y159321D01*
Y158987D01*
Y158821D01*
X4517904Y156655D01*
X4517738Y154489D01*
X4517238Y152323D01*
X4516571Y150490D01*
X4515072Y146991D01*
X4513406Y143991D01*
X4511573Y141492D01*
X4510740Y140492D01*
X4510073Y139659D01*
X4509407Y138993D01*
X4508907Y138493D01*
X4508740Y138326D01*
X4508573Y138159D01*
X4506741Y136660D01*
X4504741Y135327D01*
X4502575Y134161D01*
X4500409Y133161D01*
X4495910Y131661D01*
X4491744Y130495D01*
X4489578Y130162D01*
X4487745Y129828D01*
X4486079Y129662D01*
X4484580Y129495D01*
X4483413D01*
X4482580Y129328D01*
X4481747D01*
X4478414Y129495D01*
X4475082Y129662D01*
X4471916Y130162D01*
X4469250Y130828D01*
X4466917Y131328D01*
X4465085Y131828D01*
X4464418Y131994D01*
X4463918Y132161D01*
X4463585Y132328D01*
X4463418D01*
X4460086Y133661D01*
X4456920Y135327D01*
X4454087Y136993D01*
X4451588Y138659D01*
X4449422Y139992D01*
X4447922Y141159D01*
X4446923Y141992D01*
X4446756Y142325D01*
X4446589D01*
X4460586Y159154D01*
X4464418Y156488D01*
X4466084Y155322D01*
X4467751Y154489D01*
X4469250Y153656D01*
X4470250Y153156D01*
X4471083Y152822D01*
X4471250Y152656D01*
X4473416Y151823D01*
X4475415Y151323D01*
X4477248Y150823D01*
X4478914Y150490D01*
X4480247Y150323D01*
X4481414Y150156D01*
X4482247D01*
X4484246Y150323D01*
X4485913Y150490D01*
X4487246Y150823D01*
X4488412Y151156D01*
X4489245Y151489D01*
X4489912Y151656D01*
X4490245Y151989D01*
X4490411D01*
X4491245Y152656D01*
X4491911Y153489D01*
X4492411Y154322D01*
X4492744Y154989D01*
X4492911Y155655D01*
X4493077Y156322D01*
Y156655D01*
Y156821D01*
X4492911Y157988D01*
X4492411Y158987D01*
X4491245Y160487D01*
X4490078Y161487D01*
X4489745Y161820D01*
X4489578D01*
X4488245Y162487D01*
X4486746Y163153D01*
X4483746Y164486D01*
X4482247Y164986D01*
X4481247Y165486D01*
X4480581Y165652D01*
X4480247Y165819D01*
X4468750Y170651D01*
X4465918Y171984D01*
X4463418Y173317D01*
X4461086Y174983D01*
X4459253Y176483D01*
X4457753Y177816D01*
X4456587Y178982D01*
X4455754Y179649D01*
X4455587Y179982D01*
X4453754Y182481D01*
X4452421Y185314D01*
X4451588Y187980D01*
X4450922Y190646D01*
X4450422Y192979D01*
X4450255Y194812D01*
X4450088Y195478D01*
Y195978D01*
Y196311D01*
Y196478D01*
X4450255Y198811D01*
X4450588Y200977D01*
X4451588Y204809D01*
X4453254Y208308D01*
X4454920Y211307D01*
X4456587Y213807D01*
X4457420Y214640D01*
X4458086Y215473D01*
X4458753Y216140D01*
X4459253Y216639D01*
X4459419Y216806D01*
X4459586Y216973D01*
X4461419Y218472D01*
X4463418Y219639D01*
X4467584Y221805D01*
X4471750Y223138D01*
X4475582Y224137D01*
X4477415Y224637D01*
X4479248Y224804D01*
X4480747Y224971D01*
X4482080Y225137D01*
X4483080Y225304D01*
X4487579D01*
X4490578Y224971D01*
D02*
G37*
G36*
X4150998Y163153D02*
Y160487D01*
X4150665Y157988D01*
X4149832Y153322D01*
X4148666Y149323D01*
X4147999Y147490D01*
X4147166Y145824D01*
X4146499Y144325D01*
X4145833Y142992D01*
X4145166Y141825D01*
X4144500Y140825D01*
X4144000Y140159D01*
X4143667Y139659D01*
X4143500Y139326D01*
X4143334Y139159D01*
X4141834Y137493D01*
X4140168Y135993D01*
X4138335Y134660D01*
X4136335Y133661D01*
X4132503Y131828D01*
X4128504Y130661D01*
X4125005Y129995D01*
X4123505Y129662D01*
X4122172Y129495D01*
X4121006D01*
X4120173Y129328D01*
X4119506D01*
X4115507Y129495D01*
X4111842Y129995D01*
X4108676Y130661D01*
X4105843Y131328D01*
X4103510Y132161D01*
X4101844Y132828D01*
X4101344Y133161D01*
X4100844Y133327D01*
X4100678Y133494D01*
X4100511D01*
X4097845Y135327D01*
X4095346Y137326D01*
X4093180Y139492D01*
X4091347Y141659D01*
X4089847Y143658D01*
X4088681Y145158D01*
X4088348Y145824D01*
X4088014Y146324D01*
X4087848Y146491D01*
Y146657D01*
X4104344Y159154D01*
X4105343Y157654D01*
X4106343Y156155D01*
X4107176Y154989D01*
X4108009Y153989D01*
X4108842Y153322D01*
X4109342Y152822D01*
X4109676Y152489D01*
X4109842Y152323D01*
X4111009Y151656D01*
X4112175Y151156D01*
X4114174Y150490D01*
X4115008Y150323D01*
X4115674Y150156D01*
X4116174D01*
X4118007Y150323D01*
X4119506Y150490D01*
X4120673Y150990D01*
X4121839Y151656D01*
X4122672Y152156D01*
X4123172Y152656D01*
X4123505Y152989D01*
X4123672Y153156D01*
X4124505Y154655D01*
X4125172Y156488D01*
X4125671Y158488D01*
X4126171Y160487D01*
X4126338Y162320D01*
X4126505Y163820D01*
Y164819D01*
Y164986D01*
Y165153D01*
Y223638D01*
X4150998D01*
Y163153D01*
D02*
G37*
G36*
X4819161Y222971D02*
X4821660Y222805D01*
X4826159Y221805D01*
X4829991Y220472D01*
X4833157Y218972D01*
X4834490Y218306D01*
X4835656Y217473D01*
X4836823Y216806D01*
X4837656Y216306D01*
X4838322Y215640D01*
X4838822Y215307D01*
X4838989Y215140D01*
X4839155Y214973D01*
X4840655Y213474D01*
X4841988Y211808D01*
X4843154Y210141D01*
X4844154Y208308D01*
X4845654Y204809D01*
X4846654Y201310D01*
X4847320Y198144D01*
X4847487Y196811D01*
X4847653Y195812D01*
X4847820Y194812D01*
Y194145D01*
Y193646D01*
Y193479D01*
X4847653Y190813D01*
X4847153Y187980D01*
X4846487Y185481D01*
X4845820Y183315D01*
X4845154Y181315D01*
X4844487Y179816D01*
X4843988Y178816D01*
X4843821Y178649D01*
Y178483D01*
X4842321Y175650D01*
X4840655Y172984D01*
X4838989Y170485D01*
X4837489Y168319D01*
X4836156Y166486D01*
X4834990Y164986D01*
X4834323Y164153D01*
X4833990Y163986D01*
Y163820D01*
X4831824Y161154D01*
X4829658Y158654D01*
X4827658Y156322D01*
X4825659Y154322D01*
X4824159Y152656D01*
X4822993Y151323D01*
X4822160Y150490D01*
X4821827Y150157D01*
X4824659Y150490D01*
X4825992Y150657D01*
X4827158Y150823D01*
X4828158D01*
X4828991Y150990D01*
X4829658D01*
X4832490Y151156D01*
X4833823Y151323D01*
X4852152D01*
Y130828D01*
X4786336D01*
Y144825D01*
X4792167Y150157D01*
X4795000Y152656D01*
X4797499Y155155D01*
X4799832Y157488D01*
X4802165Y159654D01*
X4804164Y161654D01*
X4805997Y163487D01*
X4807663Y165153D01*
X4809163Y166652D01*
X4810329Y167985D01*
X4811496Y169152D01*
X4812329Y169985D01*
X4812829Y170651D01*
X4813162Y170985D01*
X4813329Y171151D01*
X4815162Y173317D01*
X4816828Y175484D01*
X4818327Y177483D01*
X4819660Y179316D01*
X4820660Y181149D01*
X4821493Y182815D01*
X4822993Y185981D01*
X4823826Y188480D01*
X4823993Y189480D01*
X4824326Y190313D01*
Y190980D01*
X4824493Y191646D01*
Y191813D01*
Y191979D01*
X4824326Y194145D01*
X4823993Y195978D01*
X4823493Y197645D01*
X4822826Y198811D01*
X4822326Y199811D01*
X4821827Y200644D01*
X4821493Y200977D01*
X4821327Y201144D01*
X4820160Y202143D01*
X4818827Y202810D01*
X4817494Y203476D01*
X4816161Y203810D01*
X4814995Y203976D01*
X4814162Y204143D01*
X4813329D01*
X4811662Y203976D01*
X4810163Y203643D01*
X4808830Y203143D01*
X4807497Y202643D01*
X4806497Y202143D01*
X4805831Y201810D01*
X4805331Y201477D01*
X4805164Y201310D01*
X4802498Y199311D01*
X4801332Y198311D01*
X4800332Y197478D01*
X4799499Y196645D01*
X4798832Y195978D01*
X4798499Y195645D01*
X4798333Y195478D01*
X4785169Y208642D01*
X4787835Y211308D01*
X4790335Y213474D01*
X4792834Y215473D01*
X4795000Y216973D01*
X4796833Y218139D01*
X4798333Y218972D01*
X4799166Y219472D01*
X4799499Y219639D01*
X4802332Y220805D01*
X4805331Y221805D01*
X4808163Y222305D01*
X4810829Y222805D01*
X4813162Y222971D01*
X4814995Y223138D01*
X4816661D01*
X4819161Y222971D01*
D02*
G37*
G36*
X4740347Y151323D02*
X4775672D01*
Y130828D01*
X4715854D01*
Y223638D01*
X4740347D01*
Y151323D01*
D02*
G37*
G36*
X4431760Y130828D02*
X4407266D01*
Y223638D01*
X4431760D01*
Y130828D01*
D02*
G37*
G36*
X4355946Y151323D02*
X4391270D01*
Y130828D01*
X4331452D01*
Y223638D01*
X4355946D01*
Y151323D01*
D02*
G37*
G36*
X4214482Y223304D02*
X4217648Y222804D01*
X4220314Y222305D01*
X4222647Y221805D01*
X4224313Y221305D01*
X4224979Y221138D01*
X4225479Y220972D01*
X4225646Y220805D01*
X4225812D01*
X4228812Y219639D01*
X4231478Y218139D01*
X4233810Y216473D01*
X4235810Y214973D01*
X4237310Y213474D01*
X4238476Y212307D01*
X4239142Y211474D01*
X4239309Y211141D01*
X4240975Y208475D01*
X4242308Y205476D01*
X4243141Y202476D01*
X4243808Y199477D01*
X4244141Y196811D01*
X4244308Y195645D01*
X4244474Y194812D01*
Y193979D01*
Y193312D01*
Y192979D01*
Y192812D01*
X4244308Y188813D01*
X4243641Y185147D01*
X4242808Y181982D01*
X4241975Y179316D01*
X4240975Y177150D01*
X4240142Y175650D01*
X4239476Y174650D01*
X4239309Y174484D01*
Y174317D01*
X4237310Y171818D01*
X4234977Y169651D01*
X4232644Y167819D01*
X4230478Y166319D01*
X4228645Y165153D01*
X4226979Y164319D01*
X4225979Y163820D01*
X4225812Y163653D01*
X4225646D01*
X4222480Y162487D01*
X4219314Y161653D01*
X4216148Y160987D01*
X4213316Y160654D01*
X4210983Y160487D01*
X4208983Y160320D01*
X4195820D01*
Y130828D01*
X4171326D01*
Y223638D01*
X4210983D01*
X4214482Y223304D01*
D02*
G37*
G36*
X4575890Y225137D02*
X4579222Y224804D01*
X4582388Y224137D01*
X4585387Y223304D01*
X4588220Y222471D01*
X4590719Y221471D01*
X4593218Y220305D01*
X4595218Y219139D01*
X4597217Y217972D01*
X4598884Y216806D01*
X4600217Y215806D01*
X4601383Y214973D01*
X4602383Y214140D01*
X4603049Y213474D01*
X4603382Y213140D01*
X4603549Y212974D01*
X4605549Y210474D01*
X4607381Y207975D01*
X4609048Y205142D01*
X4610381Y202310D01*
X4611547Y199310D01*
X4612380Y196311D01*
X4613213Y193479D01*
X4613880Y190646D01*
X4614380Y187980D01*
X4614713Y185647D01*
X4615046Y183315D01*
X4615213Y181482D01*
Y179815D01*
X4615379Y178649D01*
Y177983D01*
Y177649D01*
X4615213Y173484D01*
X4614880Y169485D01*
X4614213Y165819D01*
X4613547Y162320D01*
X4612547Y159154D01*
X4611547Y156155D01*
X4610547Y153489D01*
X4609381Y151156D01*
X4608381Y148990D01*
X4607215Y147157D01*
X4606215Y145658D01*
X4605382Y144325D01*
X4604549Y143325D01*
X4604049Y142658D01*
X4603716Y142158D01*
X4603549Y141992D01*
X4601216Y139826D01*
X4598884Y137826D01*
X4596384Y136160D01*
X4593718Y134827D01*
X4591052Y133494D01*
X4588553Y132494D01*
X4585887Y131661D01*
X4583554Y130995D01*
X4581221Y130495D01*
X4579055Y129995D01*
X4577222Y129828D01*
X4575556Y129495D01*
X4574057D01*
X4573057Y129328D01*
X4572224D01*
X4568558Y129495D01*
X4565226Y129995D01*
X4562060Y130495D01*
X4559060Y131328D01*
X4556228Y132328D01*
X4553729Y133494D01*
X4551396Y134494D01*
X4549230Y135660D01*
X4547230Y136826D01*
X4545564Y137993D01*
X4544231Y139159D01*
X4543065Y139992D01*
X4542065Y140825D01*
X4541398Y141492D01*
X4541065Y141825D01*
X4540898Y141992D01*
X4538899Y144491D01*
X4537066Y147157D01*
X4535400Y149990D01*
X4534067Y152822D01*
X4533067Y155822D01*
X4532067Y158821D01*
X4531234Y161653D01*
X4530568Y164486D01*
X4530068Y167152D01*
X4529735Y169651D01*
X4529401Y171984D01*
X4529235Y173817D01*
Y175483D01*
X4529068Y176650D01*
Y177316D01*
Y177649D01*
X4529235Y181815D01*
X4529568Y185814D01*
X4530235Y189480D01*
X4531068Y192812D01*
X4531901Y195978D01*
X4532901Y198977D01*
X4533900Y201643D01*
X4535067Y203976D01*
X4536066Y205975D01*
X4537233Y207808D01*
X4538232Y209475D01*
X4539066Y210641D01*
X4539899Y211641D01*
X4540399Y212474D01*
X4540732Y212807D01*
X4540898Y212974D01*
X4543231Y215140D01*
X4545564Y216973D01*
X4548063Y218639D01*
X4550729Y220138D01*
X4553395Y221305D01*
X4555895Y222305D01*
X4558561Y223138D01*
X4560893Y223804D01*
X4563226Y224304D01*
X4565392Y224637D01*
X4567392Y224971D01*
X4569058Y225137D01*
X4570391Y225304D01*
X4572224D01*
X4575890Y225137D01*
D02*
G37*
G36*
X4319122Y110000D02*
X4251139D01*
Y123330D01*
X4319122D01*
Y110000D01*
D02*
G37*
G36*
X7114277Y3965809D02*
X7117276Y3965475D01*
X7119942Y3964809D01*
X7122442Y3964142D01*
X7124441Y3963476D01*
X7125774Y3962809D01*
X7126774Y3962476D01*
X7127107Y3962310D01*
X7129773Y3960977D01*
X7132106Y3959477D01*
X7134272Y3958144D01*
X7136105Y3956811D01*
X7137438Y3955645D01*
X7138604Y3954645D01*
X7139271Y3953978D01*
X7139437Y3953812D01*
X7125941Y3938649D01*
X7123441Y3940648D01*
X7121275Y3941981D01*
X7120442Y3942481D01*
X7119776Y3942815D01*
X7119276Y3943148D01*
X7119109D01*
X7116443Y3944148D01*
X7113944Y3944647D01*
X7112944Y3944814D01*
X7112111Y3944981D01*
X7111278D01*
X7108112Y3944647D01*
X7105446Y3943814D01*
X7102947Y3942648D01*
X7100781Y3941315D01*
X7099114Y3939982D01*
X7097781Y3938982D01*
X7097115Y3938149D01*
X7096782Y3937816D01*
X7094782Y3934983D01*
X7093282Y3931817D01*
X7092283Y3928485D01*
X7091450Y3925319D01*
X7091116Y3922486D01*
X7090950Y3921153D01*
X7090783Y3920154D01*
X7090617Y3919154D01*
Y3918487D01*
Y3918154D01*
Y3917988D01*
X7090950Y3913322D01*
X7091616Y3909323D01*
X7092449Y3905991D01*
X7093449Y3903158D01*
X7094449Y3900825D01*
X7095282Y3899326D01*
X7095948Y3898326D01*
X7096115Y3897993D01*
X7098281Y3895660D01*
X7100781Y3893994D01*
X7103113Y3892661D01*
X7105446Y3891828D01*
X7107612Y3891328D01*
X7109278Y3890995D01*
X7109945Y3890828D01*
X7110778D01*
X7112777Y3890995D01*
X7114444Y3891161D01*
X7116110Y3891661D01*
X7117443Y3891994D01*
X7118609Y3892327D01*
X7119442Y3892661D01*
X7119942Y3892994D01*
X7120109D01*
X7122942Y3894660D01*
X7124108Y3895493D01*
X7125108Y3896493D01*
X7125941Y3897160D01*
X7126607Y3897826D01*
X7126941Y3898159D01*
X7127107Y3898326D01*
X7140437Y3883496D01*
X7138104Y3881164D01*
X7135772Y3878998D01*
X7133605Y3877331D01*
X7131439Y3875832D01*
X7129607Y3874832D01*
X7128107Y3873999D01*
X7127107Y3873499D01*
X7126941Y3873332D01*
X7126774D01*
X7123941Y3872166D01*
X7120942Y3871333D01*
X7118276Y3870833D01*
X7115777Y3870500D01*
X7113611Y3870167D01*
X7111944Y3870000D01*
X7110445D01*
X7105946Y3870167D01*
X7101780Y3870833D01*
X7097948Y3871666D01*
X7094615Y3872666D01*
X7093116Y3872999D01*
X7091783Y3873499D01*
X7090617Y3873999D01*
X7089783Y3874332D01*
X7088950Y3874665D01*
X7088450Y3874999D01*
X7088117Y3875165D01*
X7087951D01*
X7084285Y3877331D01*
X7081119Y3879831D01*
X7078286Y3882330D01*
X7075954Y3884996D01*
X7074121Y3887162D01*
X7072788Y3889162D01*
X7072288Y3889828D01*
X7071955Y3890328D01*
X7071621Y3890661D01*
Y3890828D01*
X7069622Y3894993D01*
X7068122Y3899326D01*
X7067123Y3903825D01*
X7066456Y3907990D01*
X7066123Y3909823D01*
X7065956Y3911656D01*
X7065790Y3913155D01*
Y3914488D01*
X7065623Y3915655D01*
Y3916488D01*
Y3916988D01*
Y3917154D01*
X7065956Y3922820D01*
X7066623Y3927985D01*
X7067622Y3932484D01*
X7068289Y3934483D01*
X7068789Y3936316D01*
X7069455Y3937982D01*
X7069955Y3939482D01*
X7070455Y3940648D01*
X7070955Y3941648D01*
X7071455Y3942481D01*
X7071621Y3943148D01*
X7071955Y3943481D01*
Y3943648D01*
X7074454Y3947480D01*
X7077287Y3950979D01*
X7079953Y3953812D01*
X7082619Y3956144D01*
X7084951Y3957977D01*
X7086784Y3959310D01*
X7087451Y3959644D01*
X7087951Y3959977D01*
X7088284Y3960310D01*
X7088450D01*
X7092449Y3962143D01*
X7096282Y3963643D01*
X7100114Y3964642D01*
X7103613Y3965309D01*
X7106612Y3965642D01*
X7107779Y3965809D01*
X7108945Y3965975D01*
X7110945D01*
X7114277Y3965809D01*
D02*
G37*
G36*
X7453857Y3871499D02*
X7431196D01*
Y3898826D01*
X7431363Y3904658D01*
X7431529Y3907324D01*
X7431696Y3909990D01*
X7431862Y3912156D01*
X7432029Y3913989D01*
Y3914655D01*
X7432196Y3915155D01*
Y3915322D01*
Y3915488D01*
X7432696Y3918821D01*
X7433029Y3921987D01*
X7433362Y3924819D01*
X7433695Y3927319D01*
X7433862Y3929318D01*
X7434029Y3930818D01*
X7434195Y3931817D01*
Y3932151D01*
X7433695D01*
X7426031Y3910323D01*
X7413034Y3878998D01*
X7403870D01*
X7391040Y3910323D01*
X7383541Y3932151D01*
X7382875D01*
X7383208Y3929318D01*
X7383541Y3926485D01*
X7383875Y3923653D01*
X7384208Y3921153D01*
X7384541Y3918821D01*
X7384708Y3916988D01*
Y3916321D01*
X7384874Y3915988D01*
Y3915655D01*
Y3915488D01*
X7385208Y3912156D01*
X7385541Y3908990D01*
X7385708Y3906157D01*
X7385874Y3903658D01*
X7386041Y3901658D01*
Y3900159D01*
Y3899159D01*
Y3898992D01*
Y3898826D01*
Y3871499D01*
X7363547D01*
Y3964309D01*
X7389040D01*
X7403536Y3925819D01*
X7408702Y3910656D01*
X7409368D01*
X7414534Y3925819D01*
X7428530Y3964309D01*
X7453857D01*
Y3871499D01*
D02*
G37*
G36*
X7342719D02*
X7320058D01*
Y3898826D01*
X7320224Y3904658D01*
X7320391Y3907324D01*
X7320558Y3909990D01*
X7320724Y3912156D01*
X7320891Y3913989D01*
Y3914655D01*
X7321057Y3915155D01*
Y3915322D01*
Y3915488D01*
X7321557Y3918821D01*
X7321891Y3921987D01*
X7322224Y3924819D01*
X7322557Y3927319D01*
X7322724Y3929318D01*
X7322890Y3930818D01*
X7323057Y3931817D01*
Y3932151D01*
X7322557D01*
X7314892Y3910323D01*
X7301896Y3878998D01*
X7292731D01*
X7279901Y3910323D01*
X7272403Y3932151D01*
X7271737D01*
X7272070Y3929318D01*
X7272403Y3926485D01*
X7272737Y3923653D01*
X7273070Y3921153D01*
X7273403Y3918821D01*
X7273570Y3916988D01*
Y3916321D01*
X7273736Y3915988D01*
Y3915655D01*
Y3915488D01*
X7274070Y3912156D01*
X7274403Y3908990D01*
X7274569Y3906157D01*
X7274736Y3903658D01*
X7274903Y3901658D01*
Y3900159D01*
Y3899159D01*
Y3898992D01*
Y3898826D01*
Y3871499D01*
X7252408D01*
Y3964309D01*
X7277902D01*
X7292398Y3925819D01*
X7297564Y3910656D01*
X7298230D01*
X7303395Y3925819D01*
X7317392Y3964309D01*
X7342719D01*
Y3871499D01*
D02*
G37*
G36*
X7049294Y3903825D02*
Y3901159D01*
X7048961Y3898659D01*
X7048127Y3893994D01*
X7046961Y3889995D01*
X7046295Y3888162D01*
X7045461Y3886496D01*
X7044795Y3884996D01*
X7044128Y3883663D01*
X7043462Y3882497D01*
X7042795Y3881497D01*
X7042296Y3880830D01*
X7041962Y3880331D01*
X7041796Y3879997D01*
X7041629Y3879831D01*
X7040129Y3878164D01*
X7038463Y3876665D01*
X7036630Y3875332D01*
X7034631Y3874332D01*
X7030798Y3872499D01*
X7026800Y3871333D01*
X7023300Y3870666D01*
X7021801Y3870333D01*
X7020468Y3870167D01*
X7019301D01*
X7018468Y3870000D01*
X7017802D01*
X7013803Y3870167D01*
X7010137Y3870666D01*
X7006971Y3871333D01*
X7004139Y3871999D01*
X7001806Y3872832D01*
X7000140Y3873499D01*
X6999640Y3873832D01*
X6999140Y3873999D01*
X6998973Y3874165D01*
X6998807D01*
X6996141Y3875998D01*
X6993641Y3877998D01*
X6991475Y3880164D01*
X6989642Y3882330D01*
X6988143Y3884330D01*
X6986976Y3885829D01*
X6986643Y3886496D01*
X6986310Y3886996D01*
X6986143Y3887162D01*
Y3887329D01*
X7002639Y3899826D01*
X7003639Y3898326D01*
X7004639Y3896826D01*
X7005472Y3895660D01*
X7006305Y3894660D01*
X7007138Y3893994D01*
X7007638Y3893494D01*
X7007971Y3893161D01*
X7008138Y3892994D01*
X7009304Y3892327D01*
X7010470Y3891828D01*
X7012470Y3891161D01*
X7013303Y3890995D01*
X7013969Y3890828D01*
X7014469D01*
X7016302Y3890995D01*
X7017802Y3891161D01*
X7018968Y3891661D01*
X7020135Y3892327D01*
X7020968Y3892827D01*
X7021468Y3893327D01*
X7021801Y3893660D01*
X7021967Y3893827D01*
X7022801Y3895327D01*
X7023467Y3897160D01*
X7023967Y3899159D01*
X7024467Y3901159D01*
X7024633Y3902991D01*
X7024800Y3904491D01*
Y3905491D01*
Y3905657D01*
Y3905824D01*
Y3964309D01*
X7049294D01*
Y3903825D01*
D02*
G37*
G36*
X7196256Y3965809D02*
X7199589Y3965475D01*
X7202754Y3964809D01*
X7205754Y3963976D01*
X7208586Y3963143D01*
X7211086Y3962143D01*
X7213585Y3960977D01*
X7215585Y3959810D01*
X7217584Y3958644D01*
X7219250Y3957477D01*
X7220583Y3956478D01*
X7221750Y3955645D01*
X7222749Y3954811D01*
X7223416Y3954145D01*
X7223749Y3953812D01*
X7223916Y3953645D01*
X7225915Y3951146D01*
X7227748Y3948646D01*
X7229414Y3945814D01*
X7230747Y3942981D01*
X7231914Y3939982D01*
X7232747Y3936983D01*
X7233580Y3934150D01*
X7234246Y3931318D01*
X7234746Y3928652D01*
X7235080Y3926319D01*
X7235413Y3923986D01*
X7235579Y3922153D01*
Y3920487D01*
X7235746Y3919321D01*
Y3918654D01*
Y3918321D01*
X7235579Y3914155D01*
X7235246Y3910156D01*
X7234580Y3906491D01*
X7233913Y3902991D01*
X7232913Y3899826D01*
X7231914Y3896826D01*
X7230914Y3894160D01*
X7229748Y3891828D01*
X7228748Y3889662D01*
X7227581Y3887829D01*
X7226582Y3886329D01*
X7225749Y3884996D01*
X7224915Y3883996D01*
X7224416Y3883330D01*
X7224082Y3882830D01*
X7223916Y3882663D01*
X7221583Y3880497D01*
X7219250Y3878498D01*
X7216751Y3876831D01*
X7214085Y3875498D01*
X7211419Y3874165D01*
X7208920Y3873166D01*
X7206254Y3872333D01*
X7203921Y3871666D01*
X7201588Y3871166D01*
X7199422Y3870666D01*
X7197589Y3870500D01*
X7195923Y3870167D01*
X7194423D01*
X7193424Y3870000D01*
X7192590D01*
X7188925Y3870167D01*
X7185592Y3870666D01*
X7182426Y3871166D01*
X7179427Y3871999D01*
X7176594Y3872999D01*
X7174095Y3874165D01*
X7171762Y3875165D01*
X7169596Y3876332D01*
X7167597Y3877498D01*
X7165931Y3878664D01*
X7164598Y3879831D01*
X7163431Y3880664D01*
X7162431Y3881497D01*
X7161765Y3882163D01*
X7161432Y3882497D01*
X7161265Y3882663D01*
X7159266Y3885163D01*
X7157433Y3887829D01*
X7155766Y3890661D01*
X7154433Y3893494D01*
X7153434Y3896493D01*
X7152434Y3899492D01*
X7151601Y3902325D01*
X7150934Y3905158D01*
X7150435Y3907824D01*
X7150101Y3910323D01*
X7149768Y3912656D01*
X7149601Y3914488D01*
Y3916155D01*
X7149435Y3917321D01*
Y3917988D01*
Y3918321D01*
X7149601Y3922486D01*
X7149935Y3926485D01*
X7150601Y3930151D01*
X7151434Y3933484D01*
X7152267Y3936649D01*
X7153267Y3939649D01*
X7154267Y3942315D01*
X7155433Y3944647D01*
X7156433Y3946647D01*
X7157599Y3948480D01*
X7158599Y3950146D01*
X7159432Y3951312D01*
X7160265Y3952312D01*
X7160765Y3953145D01*
X7161098Y3953479D01*
X7161265Y3953645D01*
X7163598Y3955811D01*
X7165931Y3957644D01*
X7168430Y3959310D01*
X7171096Y3960810D01*
X7173762Y3961976D01*
X7176261Y3962976D01*
X7178927Y3963809D01*
X7181260Y3964476D01*
X7183593Y3964976D01*
X7185759Y3965309D01*
X7187758Y3965642D01*
X7189425Y3965809D01*
X7190758Y3965975D01*
X7192590D01*
X7196256Y3965809D01*
D02*
G37*
G36*
X10868836Y3681209D02*
X10871002Y3678876D01*
X10872668Y3676710D01*
X10874168Y3674544D01*
X10875168Y3672711D01*
X10876001Y3671212D01*
X10876501Y3670212D01*
X10876667Y3670045D01*
Y3669879D01*
X10877834Y3667046D01*
X10878667Y3664047D01*
X10879167Y3661381D01*
X10879500Y3658881D01*
X10879833Y3656715D01*
X10880000Y3655049D01*
Y3653549D01*
X10879833Y3649051D01*
X10879167Y3644885D01*
X10878334Y3641053D01*
X10877334Y3637720D01*
X10877001Y3636221D01*
X10876501Y3634888D01*
X10876001Y3633721D01*
X10875668Y3632888D01*
X10875334Y3632055D01*
X10875001Y3631555D01*
X10874834Y3631222D01*
Y3631055D01*
X10872668Y3627389D01*
X10870169Y3624224D01*
X10867670Y3621391D01*
X10865004Y3619058D01*
X10862838Y3617225D01*
X10860838Y3615892D01*
X10860172Y3615393D01*
X10859672Y3615059D01*
X10859338Y3614726D01*
X10859172D01*
X10855006Y3612727D01*
X10850674Y3611227D01*
X10846175Y3610227D01*
X10842010Y3609561D01*
X10840177Y3609227D01*
X10838344Y3609061D01*
X10836844Y3608894D01*
X10835511D01*
X10834345Y3608728D01*
X10833512D01*
X10833012D01*
X10832845D01*
X10827180Y3609061D01*
X10822015Y3609727D01*
X10817516Y3610727D01*
X10815516Y3611394D01*
X10813683Y3611893D01*
X10812017Y3612560D01*
X10810518Y3613060D01*
X10809351Y3613560D01*
X10808352Y3614060D01*
X10807518Y3614559D01*
X10806852Y3614726D01*
X10806519Y3615059D01*
X10806352D01*
X10802520Y3617559D01*
X10799021Y3620391D01*
X10796188Y3623057D01*
X10793855Y3625723D01*
X10792022Y3628056D01*
X10790689Y3629889D01*
X10790356Y3630555D01*
X10790023Y3631055D01*
X10789690Y3631388D01*
Y3631555D01*
X10787857Y3635554D01*
X10786357Y3639386D01*
X10785357Y3643219D01*
X10784691Y3646718D01*
X10784358Y3649717D01*
X10784191Y3650883D01*
X10784024Y3652050D01*
Y3654049D01*
X10784191Y3657382D01*
X10784524Y3660381D01*
X10785191Y3663047D01*
X10785857Y3665546D01*
X10786524Y3667546D01*
X10787190Y3668879D01*
X10787524Y3669879D01*
X10787690Y3670212D01*
X10789023Y3672878D01*
X10790523Y3675211D01*
X10791856Y3677377D01*
X10793189Y3679210D01*
X10794355Y3680543D01*
X10795355Y3681709D01*
X10796021Y3682375D01*
X10796188Y3682542D01*
X10811351Y3669045D01*
X10809351Y3666546D01*
X10808018Y3664380D01*
X10807518Y3663547D01*
X10807185Y3662880D01*
X10806852Y3662381D01*
Y3662214D01*
X10805852Y3659548D01*
X10805352Y3657049D01*
X10805186Y3656049D01*
X10805019Y3655216D01*
Y3654383D01*
X10805352Y3651217D01*
X10806185Y3648551D01*
X10807352Y3646051D01*
X10808685Y3643885D01*
X10810018Y3642219D01*
X10811017Y3640886D01*
X10811851Y3640220D01*
X10812184Y3639886D01*
X10815016Y3637887D01*
X10818182Y3636387D01*
X10821515Y3635387D01*
X10824681Y3634554D01*
X10827513Y3634221D01*
X10828846Y3634054D01*
X10829846Y3633888D01*
X10830846Y3633721D01*
X10831512D01*
X10831845D01*
X10832012D01*
X10836678Y3634054D01*
X10840677Y3634721D01*
X10844009Y3635554D01*
X10846842Y3636554D01*
X10849174Y3637554D01*
X10850674Y3638387D01*
X10851674Y3639053D01*
X10852007Y3639220D01*
X10854340Y3641386D01*
X10856006Y3643885D01*
X10857339Y3646218D01*
X10858172Y3648551D01*
X10858672Y3650717D01*
X10859005Y3652383D01*
X10859172Y3653050D01*
Y3653883D01*
X10859005Y3655882D01*
X10858839Y3657548D01*
X10858339Y3659215D01*
X10858005Y3660548D01*
X10857672Y3661714D01*
X10857339Y3662547D01*
X10857006Y3663047D01*
Y3663214D01*
X10855339Y3666046D01*
X10854506Y3667213D01*
X10853507Y3668212D01*
X10852840Y3669045D01*
X10852174Y3669712D01*
X10851840Y3670045D01*
X10851674Y3670212D01*
X10866503Y3683542D01*
X10868836Y3681209D01*
D02*
G37*
G36*
X10806185Y3560573D02*
X10824014D01*
Y3591565D01*
X10844509D01*
Y3560573D01*
X10878500D01*
Y3536080D01*
X10785691D01*
Y3596731D01*
X10806185D01*
Y3560573D01*
D02*
G37*
G36*
X10878500Y3490258D02*
X10837011Y3469597D01*
X10816183Y3460765D01*
Y3460266D01*
X10822348Y3460932D01*
X10825347Y3461265D01*
X10828013Y3461432D01*
X10830346Y3461765D01*
X10832012Y3461932D01*
X10832679D01*
X10833178Y3462098D01*
X10833512D01*
X10833678D01*
X10837177Y3462432D01*
X10840343Y3462765D01*
X10843509Y3462932D01*
X10846175Y3463098D01*
X10848508Y3463265D01*
X10850174D01*
X10850841D01*
X10851341D01*
X10851507D01*
X10851674D01*
X10878500D01*
Y3439937D01*
X10785691D01*
Y3465098D01*
X10827013Y3485759D01*
X10848008Y3494590D01*
Y3495090D01*
X10842010Y3494424D01*
X10839177Y3494090D01*
X10836511Y3493757D01*
X10834178Y3493590D01*
X10832345Y3493257D01*
X10831679D01*
X10831179Y3493091D01*
X10831012D01*
X10830846D01*
X10827347Y3492757D01*
X10824014Y3492591D01*
X10820848Y3492257D01*
X10818182D01*
X10815850Y3492091D01*
X10814017D01*
X10813350D01*
X10812850D01*
X10812684D01*
X10812517D01*
X10785691D01*
Y3515418D01*
X10878500D01*
Y3490258D01*
D02*
G37*
G36*
X10851341Y3419276D02*
X10856006Y3418443D01*
X10860005Y3417277D01*
X10861838Y3416610D01*
X10863504Y3415777D01*
X10865004Y3415111D01*
X10866337Y3414444D01*
X10867503Y3413778D01*
X10868503Y3413111D01*
X10869169Y3412611D01*
X10869669Y3412278D01*
X10870002Y3412111D01*
X10870169Y3411945D01*
X10871835Y3410445D01*
X10873335Y3408779D01*
X10874668Y3406946D01*
X10875668Y3404946D01*
X10877500Y3401114D01*
X10878667Y3397115D01*
X10879333Y3393616D01*
X10879667Y3392116D01*
X10879833Y3390783D01*
Y3389617D01*
X10880000Y3388784D01*
Y3388117D01*
X10879833Y3384118D01*
X10879333Y3380453D01*
X10878667Y3377287D01*
X10878000Y3374454D01*
X10877167Y3372122D01*
X10876501Y3370455D01*
X10876167Y3369955D01*
X10876001Y3369456D01*
X10875834Y3369289D01*
Y3369122D01*
X10874001Y3366456D01*
X10872002Y3363957D01*
X10869836Y3361791D01*
X10867670Y3359958D01*
X10865670Y3358458D01*
X10864171Y3357292D01*
X10863504Y3356959D01*
X10863004Y3356625D01*
X10862838Y3356459D01*
X10862671D01*
X10850174Y3372955D01*
X10851674Y3373954D01*
X10853173Y3374954D01*
X10854340Y3375787D01*
X10855339Y3376620D01*
X10856006Y3377453D01*
X10856506Y3377953D01*
X10856839Y3378287D01*
X10857006Y3378453D01*
X10857672Y3379620D01*
X10858172Y3380786D01*
X10858839Y3382785D01*
X10859005Y3383619D01*
X10859172Y3384285D01*
Y3384785D01*
X10859005Y3386618D01*
X10858839Y3388117D01*
X10858339Y3389284D01*
X10857672Y3390450D01*
X10857172Y3391283D01*
X10856672Y3391783D01*
X10856339Y3392116D01*
X10856173Y3392283D01*
X10854673Y3393116D01*
X10852840Y3393783D01*
X10850841Y3394283D01*
X10848841Y3394782D01*
X10847008Y3394949D01*
X10845509Y3395116D01*
X10844509D01*
X10844342D01*
X10844176D01*
X10785691D01*
Y3419609D01*
X10846175D01*
X10848841D01*
X10851341Y3419276D01*
D02*
G37*
G36*
X10770515Y2006952D02*
X10774180Y2006286D01*
X10777346Y2005452D01*
X10780012Y2004619D01*
X10782178Y2003620D01*
X10783678Y2002786D01*
X10784678Y2002120D01*
X10784844Y2001953D01*
X10785011D01*
X10787510Y1999954D01*
X10789676Y1997621D01*
X10791509Y1995288D01*
X10793009Y1993122D01*
X10794175Y1991289D01*
X10795008Y1989623D01*
X10795508Y1988623D01*
X10795675Y1988457D01*
Y1988290D01*
X10796841Y1985124D01*
X10797674Y1981958D01*
X10798341Y1978793D01*
X10798674Y1975960D01*
X10798841Y1973627D01*
X10799007Y1971628D01*
Y1958464D01*
X10828500D01*
Y1933971D01*
X10735690D01*
Y1973627D01*
X10736023Y1977126D01*
X10736523Y1980292D01*
X10737023Y1982958D01*
X10737523Y1985291D01*
X10738023Y1986957D01*
X10738190Y1987624D01*
X10738356Y1988124D01*
X10738523Y1988290D01*
Y1988457D01*
X10739689Y1991456D01*
X10741189Y1994122D01*
X10742855Y1996455D01*
X10744355Y1998454D01*
X10745854Y1999954D01*
X10747021Y2001120D01*
X10747854Y2001787D01*
X10748187Y2001953D01*
X10750853Y2003620D01*
X10753852Y2004953D01*
X10756851Y2005786D01*
X10759851Y2006452D01*
X10762517Y2006785D01*
X10763683Y2006952D01*
X10764516Y2007119D01*
X10765349D01*
X10766016D01*
X10766349D01*
X10766516D01*
X10770515Y2006952D01*
D02*
G37*
G36*
X10802673Y1918808D02*
X10804839Y1918641D01*
X10807005Y1918141D01*
X10808838Y1917475D01*
X10812337Y1915975D01*
X10815337Y1914309D01*
X10817836Y1912476D01*
X10818836Y1911643D01*
X10819669Y1910977D01*
X10820335Y1910310D01*
X10820835Y1909810D01*
X10821002Y1909644D01*
X10821168Y1909477D01*
X10822668Y1907644D01*
X10824001Y1905645D01*
X10825167Y1903479D01*
X10826167Y1901312D01*
X10827667Y1896814D01*
X10828833Y1892648D01*
X10829166Y1890482D01*
X10829500Y1888649D01*
X10829666Y1886983D01*
X10829833Y1885483D01*
Y1884317D01*
X10829999Y1883484D01*
Y1882651D01*
X10829833Y1879318D01*
X10829666Y1875986D01*
X10829166Y1872820D01*
X10828500Y1870154D01*
X10828000Y1867821D01*
X10827500Y1865988D01*
X10827333Y1865322D01*
X10827167Y1864822D01*
X10827000Y1864489D01*
Y1864322D01*
X10825667Y1860989D01*
X10824001Y1857824D01*
X10822335Y1854991D01*
X10820668Y1852492D01*
X10819335Y1850325D01*
X10818169Y1848826D01*
X10817336Y1847826D01*
X10817003Y1847659D01*
Y1847493D01*
X10800174Y1861489D01*
X10802840Y1865322D01*
X10804006Y1866988D01*
X10804839Y1868654D01*
X10805672Y1870154D01*
X10806172Y1871153D01*
X10806505Y1871987D01*
X10806672Y1872153D01*
X10807505Y1874319D01*
X10808005Y1876319D01*
X10808505Y1878152D01*
X10808838Y1879818D01*
X10809005Y1881151D01*
X10809171Y1882317D01*
Y1883150D01*
X10809005Y1885150D01*
X10808838Y1886816D01*
X10808505Y1888149D01*
X10808172Y1889316D01*
X10807838Y1890149D01*
X10807672Y1890815D01*
X10807339Y1891148D01*
Y1891315D01*
X10806672Y1892148D01*
X10805839Y1892815D01*
X10805006Y1893314D01*
X10804339Y1893648D01*
X10803673Y1893814D01*
X10803006Y1893981D01*
X10802673D01*
X10802506D01*
X10801340Y1893814D01*
X10800340Y1893314D01*
X10798841Y1892148D01*
X10797841Y1890982D01*
X10797508Y1890648D01*
Y1890482D01*
X10796841Y1889149D01*
X10796175Y1887649D01*
X10794842Y1884650D01*
X10794342Y1883150D01*
X10793842Y1882151D01*
X10793675Y1881484D01*
X10793509Y1881151D01*
X10788677Y1869654D01*
X10787344Y1866821D01*
X10786011Y1864322D01*
X10784344Y1861989D01*
X10782845Y1860156D01*
X10781512Y1858657D01*
X10780345Y1857490D01*
X10779679Y1856657D01*
X10779346Y1856491D01*
X10776846Y1854658D01*
X10774014Y1853325D01*
X10771348Y1852492D01*
X10768682Y1851825D01*
X10766349Y1851325D01*
X10764516Y1851159D01*
X10763850Y1850992D01*
X10763350D01*
X10763017D01*
X10762850D01*
X10760517Y1851159D01*
X10758351Y1851492D01*
X10754519Y1852492D01*
X10751020Y1854158D01*
X10748020Y1855824D01*
X10745521Y1857490D01*
X10744688Y1858323D01*
X10743855Y1858990D01*
X10743188Y1859656D01*
X10742688Y1860156D01*
X10742522Y1860323D01*
X10742355Y1860490D01*
X10740856Y1862322D01*
X10739689Y1864322D01*
X10737523Y1868488D01*
X10736190Y1872653D01*
X10735190Y1876485D01*
X10734690Y1878318D01*
X10734524Y1880151D01*
X10734357Y1881651D01*
X10734191Y1882984D01*
X10734024Y1883984D01*
Y1888482D01*
X10734357Y1891482D01*
X10734857Y1894314D01*
X10735524Y1896647D01*
X10736023Y1898813D01*
X10736523Y1900479D01*
X10736690Y1900979D01*
X10736857Y1901479D01*
X10737023Y1901646D01*
Y1901812D01*
X10738356Y1904812D01*
X10739689Y1907478D01*
X10741355Y1909977D01*
X10742855Y1912143D01*
X10744188Y1913976D01*
X10745354Y1915309D01*
X10746021Y1916142D01*
X10746354Y1916475D01*
X10761850Y1904145D01*
X10759684Y1900813D01*
X10758851Y1899146D01*
X10758018Y1897813D01*
X10757518Y1896647D01*
X10757185Y1895814D01*
X10756851Y1895147D01*
Y1894981D01*
X10756185Y1893314D01*
X10755852Y1891648D01*
X10755518Y1890149D01*
X10755185Y1888649D01*
Y1887316D01*
X10755019Y1886316D01*
Y1883817D01*
X10755352Y1882484D01*
X10755518Y1881318D01*
X10755852Y1880151D01*
X10756185Y1879485D01*
X10756352Y1878818D01*
X10756685Y1878485D01*
Y1878318D01*
X10757351Y1877485D01*
X10758018Y1876819D01*
X10758851Y1876319D01*
X10759517Y1875986D01*
X10760184Y1875819D01*
X10760850Y1875652D01*
X10761184D01*
X10761350D01*
X10762517Y1875819D01*
X10763516Y1876319D01*
X10765183Y1877652D01*
X10765683Y1878318D01*
X10766182Y1878985D01*
X10766349Y1879318D01*
X10766516Y1879485D01*
X10767182Y1880984D01*
X10768015Y1882651D01*
X10768682Y1884317D01*
X10769348Y1885983D01*
X10769848Y1887483D01*
X10770348Y1888649D01*
X10770515Y1889316D01*
X10770681Y1889649D01*
X10775014Y1900979D01*
X10776513Y1903978D01*
X10778013Y1906644D01*
X10779679Y1908977D01*
X10781179Y1910977D01*
X10782678Y1912310D01*
X10783845Y1913476D01*
X10784511Y1914142D01*
X10784844Y1914309D01*
X10787344Y1915809D01*
X10789843Y1916975D01*
X10792509Y1917808D01*
X10795008Y1918475D01*
X10797174Y1918808D01*
X10798841Y1918975D01*
X10799507D01*
X10800007D01*
X10800340D01*
X10800507D01*
X10802673Y1918808D01*
D02*
G37*
G36*
X10828500Y1808170D02*
X10735690D01*
Y1832663D01*
X10828500D01*
Y1808170D01*
D02*
G37*
G36*
X10786177Y1791341D02*
X10790176Y1790841D01*
X10794009Y1790174D01*
X10797508Y1789341D01*
X10800840Y1788341D01*
X10803673Y1787175D01*
X10806339Y1786009D01*
X10808672Y1784842D01*
X10810671Y1783676D01*
X10812504Y1782510D01*
X10814004Y1781510D01*
X10815170Y1780510D01*
X10816170Y1779677D01*
X10816836Y1779010D01*
X10817169Y1778677D01*
X10817336Y1778511D01*
X10819335Y1776011D01*
X10821002Y1773512D01*
X10822501Y1770679D01*
X10823834Y1768013D01*
X10824834Y1765181D01*
X10825834Y1762348D01*
X10827167Y1757183D01*
X10827500Y1754683D01*
X10827833Y1752351D01*
X10828167Y1750351D01*
X10828333Y1748685D01*
X10828500Y1747185D01*
Y1716360D01*
X10735690D01*
Y1747852D01*
X10736023Y1751517D01*
X10736523Y1755017D01*
X10737190Y1758349D01*
X10738023Y1761348D01*
X10738856Y1764181D01*
X10739856Y1766680D01*
X10740856Y1769013D01*
X10741855Y1771179D01*
X10742855Y1773012D01*
X10743855Y1774512D01*
X10744688Y1775845D01*
X10745354Y1776844D01*
X10745854Y1777511D01*
X10746188Y1778011D01*
X10746354Y1778177D01*
X10748520Y1780510D01*
X10751020Y1782510D01*
X10753686Y1784176D01*
X10756518Y1785675D01*
X10759351Y1787008D01*
X10762350Y1788175D01*
X10765183Y1789008D01*
X10768015Y1789674D01*
X10770848Y1790341D01*
X10773347Y1790674D01*
X10775680Y1791007D01*
X10777679Y1791341D01*
X10779346D01*
X10780679Y1791507D01*
X10781345D01*
X10781678D01*
X10786177Y1791341D01*
D02*
G37*
G36*
X10801340Y1695698D02*
X10806006Y1694865D01*
X10810005Y1693699D01*
X10811837Y1693032D01*
X10813504Y1692199D01*
X10815003Y1691533D01*
X10816336Y1690866D01*
X10817503Y1690200D01*
X10818502Y1689533D01*
X10819169Y1689033D01*
X10819669Y1688700D01*
X10820002Y1688534D01*
X10820169Y1688367D01*
X10821835Y1686867D01*
X10823334Y1685201D01*
X10824667Y1683368D01*
X10825667Y1681369D01*
X10827500Y1677536D01*
X10828666Y1673537D01*
X10829333Y1670038D01*
X10829666Y1668539D01*
X10829833Y1667206D01*
Y1666039D01*
X10829999Y1665206D01*
Y1664540D01*
X10829833Y1660541D01*
X10829333Y1656875D01*
X10828666Y1653709D01*
X10828000Y1650877D01*
X10827167Y1648544D01*
X10826500Y1646878D01*
X10826167Y1646378D01*
X10826000Y1645878D01*
X10825834Y1645711D01*
Y1645545D01*
X10824001Y1642879D01*
X10822001Y1640379D01*
X10819835Y1638213D01*
X10817669Y1636380D01*
X10815670Y1634881D01*
X10814170Y1633714D01*
X10813504Y1633381D01*
X10813004Y1633048D01*
X10812837Y1632881D01*
X10812671D01*
X10800174Y1649377D01*
X10801673Y1650377D01*
X10803173Y1651376D01*
X10804339Y1652210D01*
X10805339Y1653043D01*
X10806006Y1653876D01*
X10806505Y1654376D01*
X10806839Y1654709D01*
X10807005Y1654876D01*
X10807672Y1656042D01*
X10808172Y1657208D01*
X10808838Y1659208D01*
X10809005Y1660041D01*
X10809171Y1660707D01*
Y1661207D01*
X10809005Y1663040D01*
X10808838Y1664540D01*
X10808338Y1665706D01*
X10807672Y1666872D01*
X10807172Y1667706D01*
X10806672Y1668205D01*
X10806339Y1668539D01*
X10806172Y1668705D01*
X10804673Y1669538D01*
X10802840Y1670205D01*
X10800840Y1670705D01*
X10798841Y1671205D01*
X10797008Y1671371D01*
X10795508Y1671538D01*
X10794509D01*
X10794342D01*
X10794175D01*
X10735690D01*
Y1696032D01*
X10796175D01*
X10798841D01*
X10801340Y1695698D01*
D02*
G37*
G36*
X7090000Y126908D02*
X6990118D01*
Y473092D01*
X7090000D01*
Y126908D01*
D02*
G37*
G36*
X6162358Y263825D02*
Y261159D01*
X6162025Y258659D01*
X6161192Y253994D01*
X6160026Y249995D01*
X6159359Y248162D01*
X6158526Y246496D01*
X6157859Y244996D01*
X6157193Y243663D01*
X6156526Y242497D01*
X6155860Y241497D01*
X6155360Y240831D01*
X6155027Y240331D01*
X6154860Y239997D01*
X6154694Y239831D01*
X6153194Y238165D01*
X6151528Y236665D01*
X6149695Y235332D01*
X6147695Y234332D01*
X6143863Y232499D01*
X6139864Y231333D01*
X6136365Y230667D01*
X6134865Y230333D01*
X6133532Y230167D01*
X6132366D01*
X6131533Y230000D01*
X6130866D01*
X6126867Y230167D01*
X6123202Y230667D01*
X6120036Y231333D01*
X6117203Y232000D01*
X6114870Y232833D01*
X6113204Y233499D01*
X6112704Y233832D01*
X6112204Y233999D01*
X6112038Y234166D01*
X6111871D01*
X6109205Y235999D01*
X6106706Y237998D01*
X6104540Y240164D01*
X6102707Y242330D01*
X6101207Y244330D01*
X6100041Y245829D01*
X6099708Y246496D01*
X6099374Y246996D01*
X6099208Y247162D01*
Y247329D01*
X6115704Y259826D01*
X6116703Y258326D01*
X6117703Y256827D01*
X6118536Y255660D01*
X6119369Y254660D01*
X6120202Y253994D01*
X6120702Y253494D01*
X6121036Y253161D01*
X6121202Y252994D01*
X6122369Y252328D01*
X6123535Y251828D01*
X6125534Y251161D01*
X6126367Y250995D01*
X6127034Y250828D01*
X6127534D01*
X6129367Y250995D01*
X6130866Y251161D01*
X6132033Y251661D01*
X6133199Y252328D01*
X6134032Y252828D01*
X6134532Y253327D01*
X6134865Y253661D01*
X6135032Y253827D01*
X6135865Y255327D01*
X6136532Y257160D01*
X6137031Y259159D01*
X6137531Y261159D01*
X6137698Y262992D01*
X6137865Y264491D01*
Y265491D01*
Y265658D01*
Y265824D01*
Y324309D01*
X6162358D01*
Y263825D01*
D02*
G37*
G36*
X6420792Y303814D02*
X6396132D01*
Y231500D01*
X6371638D01*
Y303814D01*
X6346978D01*
Y324309D01*
X6420792D01*
Y303814D01*
D02*
G37*
G36*
X6344812Y231500D02*
X6318818D01*
X6314319Y251328D01*
X6288159D01*
X6283661Y231500D01*
X6258667D01*
X6286826Y324309D01*
X6316485D01*
X6344812Y231500D01*
D02*
G37*
G36*
X6221510Y324143D02*
X6226342Y323809D01*
X6230507Y322976D01*
X6232340Y322476D01*
X6234007Y322143D01*
X6235673Y321643D01*
X6237006Y321143D01*
X6238172Y320810D01*
X6239005Y320477D01*
X6239838Y320144D01*
X6240338Y319810D01*
X6240672Y319644D01*
X6240838D01*
X6242671Y318644D01*
X6244171Y317478D01*
X6245504Y316145D01*
X6246670Y314645D01*
X6247670Y313145D01*
X6248503Y311646D01*
X6249836Y308647D01*
X6250502Y305814D01*
X6250836Y304648D01*
X6251002Y303481D01*
Y302648D01*
X6251169Y301982D01*
Y301482D01*
Y301315D01*
X6251002Y298982D01*
X6250669Y296816D01*
X6250169Y294650D01*
X6249503Y292817D01*
X6248836Y291318D01*
X6248170Y290151D01*
X6247836Y289485D01*
X6247670Y289152D01*
X6246170Y287152D01*
X6244337Y285486D01*
X6242338Y284153D01*
X6240338Y282986D01*
X6238672Y282153D01*
X6237172Y281653D01*
X6236173Y281320D01*
X6236006Y281154D01*
X6235839D01*
Y280654D01*
X6239339Y279821D01*
X6242338Y278654D01*
X6244837Y277488D01*
X6246837Y276322D01*
X6248503Y275155D01*
X6249669Y274155D01*
X6250336Y273489D01*
X6250502Y273322D01*
X6252169Y271156D01*
X6253335Y268823D01*
X6254335Y266324D01*
X6254835Y264158D01*
X6255168Y261992D01*
X6255501Y260326D01*
Y259659D01*
Y259159D01*
Y258993D01*
Y258826D01*
X6255334Y256160D01*
X6255001Y253827D01*
X6254335Y251661D01*
X6253668Y249495D01*
X6252835Y247662D01*
X6252002Y245996D01*
X6251002Y244330D01*
X6250002Y242997D01*
X6249003Y241830D01*
X6248003Y240831D01*
X6246337Y239164D01*
X6245670Y238664D01*
X6245170Y238331D01*
X6244837Y237998D01*
X6244671D01*
X6240672Y235832D01*
X6236339Y234166D01*
X6232007Y233166D01*
X6228008Y232333D01*
X6226175Y232000D01*
X6224342Y231833D01*
X6222843Y231666D01*
X6221510D01*
X6220510Y231500D01*
X6182686D01*
Y324309D01*
X6216178D01*
X6221510Y324143D01*
D02*
G37*
G36*
X5287194Y163153D02*
Y160487D01*
X5286861Y157988D01*
X5286028Y153322D01*
X5284862Y149323D01*
X5284195Y147490D01*
X5283362Y145824D01*
X5282696Y144325D01*
X5282029Y142992D01*
X5281363Y141825D01*
X5280696Y140825D01*
X5280196Y140159D01*
X5279863Y139659D01*
X5279696Y139326D01*
X5279530Y139159D01*
X5278030Y137493D01*
X5276364Y135993D01*
X5274531Y134660D01*
X5272531Y133661D01*
X5268699Y131828D01*
X5264700Y130661D01*
X5261201Y129995D01*
X5259701Y129662D01*
X5258368Y129495D01*
X5257202D01*
X5256369Y129328D01*
X5255702D01*
X5251703Y129495D01*
X5248038Y129995D01*
X5244872Y130661D01*
X5242039Y131328D01*
X5239707Y132161D01*
X5238040Y132828D01*
X5237540Y133161D01*
X5237041Y133327D01*
X5236874Y133494D01*
X5236707D01*
X5234041Y135327D01*
X5231542Y137326D01*
X5229376Y139492D01*
X5227543Y141659D01*
X5226043Y143658D01*
X5224877Y145158D01*
X5224544Y145824D01*
X5224211Y146324D01*
X5224044Y146491D01*
Y146657D01*
X5240540Y159154D01*
X5241539Y157654D01*
X5242539Y156155D01*
X5243372Y154989D01*
X5244205Y153989D01*
X5245039Y153322D01*
X5245538Y152822D01*
X5245872Y152489D01*
X5246038Y152323D01*
X5247205Y151656D01*
X5248371Y151156D01*
X5250370Y150490D01*
X5251204Y150323D01*
X5251870Y150156D01*
X5252370D01*
X5254203Y150323D01*
X5255702Y150490D01*
X5256869Y150990D01*
X5258035Y151656D01*
X5258868Y152156D01*
X5259368Y152656D01*
X5259701Y152989D01*
X5259868Y153156D01*
X5260701Y154655D01*
X5261368Y156488D01*
X5261868Y158488D01*
X5262367Y160487D01*
X5262534Y162320D01*
X5262701Y163820D01*
Y164819D01*
Y164986D01*
Y165153D01*
Y223638D01*
X5287194D01*
Y163153D01*
D02*
G37*
G36*
X5567956Y130828D02*
X5543462D01*
Y223638D01*
X5567956D01*
Y130828D01*
D02*
G37*
G36*
X5492142Y151323D02*
X5527466D01*
Y130828D01*
X5467648D01*
Y223638D01*
X5492142D01*
Y151323D01*
D02*
G37*
G36*
X5350678Y223304D02*
X5353844Y222804D01*
X5356510Y222305D01*
X5358843Y221805D01*
X5360509Y221305D01*
X5361175Y221138D01*
X5361675Y220972D01*
X5361842Y220805D01*
X5362009D01*
X5365008Y219639D01*
X5367674Y218139D01*
X5370007Y216473D01*
X5372006Y214973D01*
X5373506Y213474D01*
X5374672Y212307D01*
X5375338Y211474D01*
X5375505Y211141D01*
X5377171Y208475D01*
X5378504Y205476D01*
X5379337Y202476D01*
X5380004Y199477D01*
X5380337Y196811D01*
X5380504Y195645D01*
X5380670Y194812D01*
Y193979D01*
Y193312D01*
Y192979D01*
Y192812D01*
X5380504Y188813D01*
X5379837Y185147D01*
X5379004Y181982D01*
X5378171Y179316D01*
X5377171Y177150D01*
X5376338Y175650D01*
X5375672Y174650D01*
X5375505Y174484D01*
Y174317D01*
X5373506Y171818D01*
X5371173Y169651D01*
X5368840Y167819D01*
X5366674Y166319D01*
X5364841Y165153D01*
X5363175Y164319D01*
X5362175Y163820D01*
X5362009Y163653D01*
X5361842D01*
X5358676Y162487D01*
X5355510Y161653D01*
X5352344Y160987D01*
X5349512Y160654D01*
X5347179Y160487D01*
X5345180Y160320D01*
X5332016D01*
Y130828D01*
X5307523D01*
Y223638D01*
X5347179D01*
X5350678Y223304D01*
D02*
G37*
G36*
X5455318Y110000D02*
X5387335D01*
Y123330D01*
X5455318D01*
Y110000D01*
D02*
G37*
G36*
X8799142Y224971D02*
X8801975Y224471D01*
X8804308Y223804D01*
X8806474Y223304D01*
X8808140Y222804D01*
X8808640Y222638D01*
X8809140Y222471D01*
X8809306Y222305D01*
X8809473D01*
X8812472Y220972D01*
X8815138Y219639D01*
X8817638Y217972D01*
X8819804Y216473D01*
X8821637Y215140D01*
X8822970Y213973D01*
X8823803Y213307D01*
X8824136Y212974D01*
X8811806Y197478D01*
X8808473Y199644D01*
X8806807Y200477D01*
X8805474Y201310D01*
X8804308Y201810D01*
X8803475Y202143D01*
X8802808Y202476D01*
X8802642D01*
X8800975Y203143D01*
X8799309Y203476D01*
X8797809Y203809D01*
X8796310Y204143D01*
X8794977D01*
X8793977Y204309D01*
X8791478D01*
X8790145Y203976D01*
X8788978Y203809D01*
X8787812Y203476D01*
X8787145Y203143D01*
X8786479Y202976D01*
X8786146Y202643D01*
X8785979D01*
X8785146Y201976D01*
X8784480Y201310D01*
X8783980Y200477D01*
X8783646Y199810D01*
X8783480Y199144D01*
X8783313Y198477D01*
Y198144D01*
Y197978D01*
X8783480Y196811D01*
X8783980Y195811D01*
X8785313Y194145D01*
X8785979Y193645D01*
X8786646Y193145D01*
X8786979Y192979D01*
X8787145Y192812D01*
X8788645Y192146D01*
X8790311Y191313D01*
X8791978Y190646D01*
X8793644Y189980D01*
X8795143Y189480D01*
X8796310Y188980D01*
X8796976Y188813D01*
X8797310Y188647D01*
X8808640Y184314D01*
X8811639Y182815D01*
X8814305Y181315D01*
X8816638Y179649D01*
X8818637Y178149D01*
X8819970Y176650D01*
X8821137Y175483D01*
X8821803Y174817D01*
X8821970Y174484D01*
X8823470Y171984D01*
X8824636Y169485D01*
X8825469Y166819D01*
X8826136Y164319D01*
X8826469Y162153D01*
X8826635Y160487D01*
Y159821D01*
Y159321D01*
Y158987D01*
Y158821D01*
X8826469Y156655D01*
X8826302Y154489D01*
X8825802Y152323D01*
X8825136Y150490D01*
X8823636Y146991D01*
X8821970Y143991D01*
X8820137Y141492D01*
X8819304Y140492D01*
X8818637Y139659D01*
X8817971Y138993D01*
X8817471Y138493D01*
X8817304Y138326D01*
X8817138Y138159D01*
X8815305Y136660D01*
X8813305Y135327D01*
X8811139Y134161D01*
X8808973Y133161D01*
X8804474Y131661D01*
X8800309Y130495D01*
X8798143Y130162D01*
X8796310Y129828D01*
X8794644Y129662D01*
X8793144Y129495D01*
X8791978D01*
X8791144Y129328D01*
X8790311D01*
X8786979Y129495D01*
X8783646Y129662D01*
X8780481Y130162D01*
X8777815Y130828D01*
X8775482Y131328D01*
X8773649Y131828D01*
X8772982Y131994D01*
X8772483Y132161D01*
X8772149Y132328D01*
X8771983D01*
X8768650Y133661D01*
X8765484Y135327D01*
X8762652Y136993D01*
X8760152Y138659D01*
X8757986Y139992D01*
X8756487Y141159D01*
X8755487Y141992D01*
X8755320Y142325D01*
X8755154D01*
X8769150Y159154D01*
X8772982Y156488D01*
X8774649Y155322D01*
X8776315Y154489D01*
X8777815Y153656D01*
X8778814Y153156D01*
X8779647Y152822D01*
X8779814Y152656D01*
X8781980Y151823D01*
X8783980Y151323D01*
X8785813Y150823D01*
X8787479Y150490D01*
X8788812Y150323D01*
X8789978Y150156D01*
X8790811D01*
X8792811Y150323D01*
X8794477Y150490D01*
X8795810Y150823D01*
X8796976Y151156D01*
X8797809Y151489D01*
X8798476Y151656D01*
X8798809Y151989D01*
X8798976D01*
X8799809Y152656D01*
X8800475Y153489D01*
X8800975Y154322D01*
X8801309Y154989D01*
X8801475Y155655D01*
X8801642Y156322D01*
Y156655D01*
Y156821D01*
X8801475Y157988D01*
X8800975Y158987D01*
X8799809Y160487D01*
X8798643Y161487D01*
X8798309Y161820D01*
X8798143D01*
X8796810Y162487D01*
X8795310Y163153D01*
X8792311Y164486D01*
X8790811Y164986D01*
X8789811Y165486D01*
X8789145Y165652D01*
X8788812Y165819D01*
X8777315Y170651D01*
X8774482Y171984D01*
X8771983Y173317D01*
X8769650Y174983D01*
X8767817Y176483D01*
X8766317Y177816D01*
X8765151Y178982D01*
X8764318Y179649D01*
X8764151Y179982D01*
X8762319Y182481D01*
X8760986Y185314D01*
X8760152Y187980D01*
X8759486Y190646D01*
X8758986Y192979D01*
X8758819Y194812D01*
X8758653Y195478D01*
Y195978D01*
Y196311D01*
Y196478D01*
X8758819Y198811D01*
X8759153Y200977D01*
X8760152Y204809D01*
X8761819Y208308D01*
X8763485Y211307D01*
X8765151Y213807D01*
X8765984Y214640D01*
X8766651Y215473D01*
X8767317Y216140D01*
X8767817Y216639D01*
X8767984Y216806D01*
X8768150Y216973D01*
X8769983Y218472D01*
X8771983Y219639D01*
X8776148Y221805D01*
X8780314Y223138D01*
X8784146Y224137D01*
X8785979Y224637D01*
X8787812Y224804D01*
X8789312Y224971D01*
X8790645Y225137D01*
X8791644Y225304D01*
X8796143D01*
X8799142Y224971D01*
D02*
G37*
G36*
X9382493Y130828D02*
X9357333Y130828D01*
X9336671Y172317D01*
X9327840Y193145D01*
X9327341D01*
X9328007Y186980D01*
X9328340Y183981D01*
X9328507Y181315D01*
X9328840Y178982D01*
X9329007Y177316D01*
Y176650D01*
X9329173Y176150D01*
Y175817D01*
Y175650D01*
X9329507Y172151D01*
X9329840Y168985D01*
X9330006Y165819D01*
X9330173Y163153D01*
X9330340Y160820D01*
Y159154D01*
Y158488D01*
Y157988D01*
Y157821D01*
Y157654D01*
Y130828D01*
X9307012D01*
Y223638D01*
X9332173D01*
X9352834Y182315D01*
X9361665Y161320D01*
X9362165D01*
X9361498Y167319D01*
X9361165Y170151D01*
X9360832Y172817D01*
X9360665Y175150D01*
X9360332Y176983D01*
Y177649D01*
X9360165Y178149D01*
Y178316D01*
Y178482D01*
X9359832Y181982D01*
X9359666Y185314D01*
X9359332Y188480D01*
Y191146D01*
X9359166Y193479D01*
Y195312D01*
Y195978D01*
Y196478D01*
Y196645D01*
Y196811D01*
Y223638D01*
X9382493Y223638D01*
Y130828D01*
D02*
G37*
G36*
X8740657Y163153D02*
Y160487D01*
X8740324Y157988D01*
X8739491Y153322D01*
X8738325Y149323D01*
X8737658Y147490D01*
X8736825Y145824D01*
X8736159Y144325D01*
X8735492Y142992D01*
X8734826Y141825D01*
X8734159Y140825D01*
X8733659Y140159D01*
X8733326Y139659D01*
X8733159Y139326D01*
X8732993Y139159D01*
X8731493Y137493D01*
X8729827Y135993D01*
X8727994Y134660D01*
X8725994Y133661D01*
X8722162Y131828D01*
X8718163Y130661D01*
X8714664Y129995D01*
X8713164Y129662D01*
X8711831Y129495D01*
X8710665D01*
X8709832Y129328D01*
X8709165D01*
X8705166Y129495D01*
X8701501Y129995D01*
X8698335Y130661D01*
X8695502Y131328D01*
X8693170Y132161D01*
X8691503Y132828D01*
X8691003Y133161D01*
X8690504Y133327D01*
X8690337Y133494D01*
X8690170D01*
X8687504Y135327D01*
X8685005Y137326D01*
X8682839Y139492D01*
X8681006Y141659D01*
X8679506Y143658D01*
X8678340Y145158D01*
X8678007Y145824D01*
X8677674Y146324D01*
X8677507Y146491D01*
Y146657D01*
X8694003Y159154D01*
X8695002Y157654D01*
X8696002Y156155D01*
X8696835Y154989D01*
X8697668Y153989D01*
X8698502Y153322D01*
X8699001Y152822D01*
X8699335Y152489D01*
X8699501Y152323D01*
X8700668Y151656D01*
X8701834Y151156D01*
X8703833Y150490D01*
X8704667Y150323D01*
X8705333Y150156D01*
X8705833D01*
X8707666Y150323D01*
X8709165Y150490D01*
X8710332Y150990D01*
X8711498Y151656D01*
X8712331Y152156D01*
X8712831Y152656D01*
X8713164Y152989D01*
X8713331Y153156D01*
X8714164Y154655D01*
X8714831Y156488D01*
X8715331Y158488D01*
X8715830Y160487D01*
X8715997Y162320D01*
X8716164Y163820D01*
Y164819D01*
Y164986D01*
Y165153D01*
Y223638D01*
X8740657D01*
Y163153D01*
D02*
G37*
G36*
X9286351Y130828D02*
X9261857D01*
Y223638D01*
X9286351D01*
Y130828D01*
D02*
G37*
G36*
X9142388Y223304D02*
X9145554Y222804D01*
X9148220Y222305D01*
X9150552Y221805D01*
X9152219Y221471D01*
X9152885Y221305D01*
X9153385Y221138D01*
X9153552Y220972D01*
X9153718D01*
X9156718Y219805D01*
X9159384Y218472D01*
X9161550Y216806D01*
X9163549Y215306D01*
X9165049Y213973D01*
X9166215Y212807D01*
X9166882Y211974D01*
X9167048Y211641D01*
X9168714Y208975D01*
X9170047Y206142D01*
X9170881Y203143D01*
X9171547Y200144D01*
X9171880Y197644D01*
X9172047Y196478D01*
X9172214Y195478D01*
Y194812D01*
Y194145D01*
Y193812D01*
Y193645D01*
X9172047Y190146D01*
X9171547Y186814D01*
X9170881Y183981D01*
X9170214Y181648D01*
X9169548Y179649D01*
X9168881Y178149D01*
X9168381Y177316D01*
X9168215Y176983D01*
X9166548Y174650D01*
X9164882Y172651D01*
X9163049Y170984D01*
X9161383Y169485D01*
X9159717Y168318D01*
X9158550Y167485D01*
X9157717Y166985D01*
X9157384Y166819D01*
X9177379Y130828D01*
X9150053D01*
X9134057Y161987D01*
X9124559D01*
Y130828D01*
X9100065D01*
Y223638D01*
X9138889D01*
X9142388Y223304D01*
D02*
G37*
G36*
X9090901Y130828D02*
X9064908D01*
X9060409Y150656D01*
X9034249D01*
X9029750Y130828D01*
X9004756D01*
X9032916Y223638D01*
X9062575D01*
X9090901Y130828D01*
D02*
G37*
G36*
X8965100Y151323D02*
X9000424D01*
Y130828D01*
X8940606D01*
Y223638D01*
X8965100D01*
Y151323D01*
D02*
G37*
G36*
X8884454Y225137D02*
X8887786Y224804D01*
X8890952Y224137D01*
X8893951Y223304D01*
X8896784Y222471D01*
X8899283Y221471D01*
X8901783Y220305D01*
X8903782Y219139D01*
X8905782Y217972D01*
X8907448Y216806D01*
X8908781Y215806D01*
X8909947Y214973D01*
X8910947Y214140D01*
X8911614Y213474D01*
X8911947Y213140D01*
X8912113Y212974D01*
X8914113Y210474D01*
X8915946Y207975D01*
X8917612Y205142D01*
X8918945Y202310D01*
X8920111Y199310D01*
X8920945Y196311D01*
X8921778Y193479D01*
X8922444Y190646D01*
X8922944Y187980D01*
X8923277Y185647D01*
X8923611Y183315D01*
X8923777Y181482D01*
Y179815D01*
X8923944Y178649D01*
Y177983D01*
Y177649D01*
X8923777Y173484D01*
X8923444Y169485D01*
X8922777Y165819D01*
X8922111Y162320D01*
X8921111Y159154D01*
X8920111Y156155D01*
X8919112Y153489D01*
X8917945Y151156D01*
X8916946Y148990D01*
X8915779Y147157D01*
X8914779Y145658D01*
X8913946Y144325D01*
X8913113Y143325D01*
X8912613Y142658D01*
X8912280Y142158D01*
X8912113Y141992D01*
X8909781Y139826D01*
X8907448Y137826D01*
X8904949Y136160D01*
X8902283Y134827D01*
X8899617Y133494D01*
X8897117Y132494D01*
X8894451Y131661D01*
X8892119Y130995D01*
X8889786Y130495D01*
X8887620Y129995D01*
X8885787Y129828D01*
X8884121Y129495D01*
X8882621D01*
X8881621Y129328D01*
X8880788D01*
X8877122Y129495D01*
X8873790Y129995D01*
X8870624Y130495D01*
X8867625Y131328D01*
X8864792Y132328D01*
X8862293Y133494D01*
X8859960Y134494D01*
X8857794Y135660D01*
X8855795Y136826D01*
X8854128Y137993D01*
X8852795Y139159D01*
X8851629Y139992D01*
X8850629Y140825D01*
X8849963Y141492D01*
X8849629Y141825D01*
X8849463Y141992D01*
X8847463Y144491D01*
X8845631Y147157D01*
X8843964Y149990D01*
X8842631Y152822D01*
X8841632Y155822D01*
X8840632Y158821D01*
X8839799Y161653D01*
X8839132Y164486D01*
X8838632Y167152D01*
X8838299Y169651D01*
X8837966Y171984D01*
X8837799Y173817D01*
Y175483D01*
X8837633Y176650D01*
Y177316D01*
Y177649D01*
X8837799Y181815D01*
X8838132Y185814D01*
X8838799Y189480D01*
X8839632Y192812D01*
X8840465Y195978D01*
X8841465Y198977D01*
X8842465Y201643D01*
X8843631Y203976D01*
X8844631Y205975D01*
X8845797Y207808D01*
X8846797Y209475D01*
X8847630Y210641D01*
X8848463Y211641D01*
X8848963Y212474D01*
X8849296Y212807D01*
X8849463Y212974D01*
X8851796Y215140D01*
X8854128Y216973D01*
X8856628Y218639D01*
X8859294Y220138D01*
X8861960Y221305D01*
X8864459Y222305D01*
X8867125Y223138D01*
X8869458Y223804D01*
X8871790Y224304D01*
X8873957Y224637D01*
X8875956Y224971D01*
X8877622Y225137D01*
X8878955Y225304D01*
X8880788D01*
X8884454Y225137D01*
D02*
G37*
G36*
X9249527Y110000D02*
X9181545D01*
Y123330D01*
X9249527D01*
Y110000D01*
D02*
G37*
G36*
X9965473Y224971D02*
X9968305Y224471D01*
X9970638Y223804D01*
X9972804Y223304D01*
X9974471Y222804D01*
X9974970Y222638D01*
X9975470Y222471D01*
X9975637Y222305D01*
X9975804D01*
X9978803Y220972D01*
X9981469Y219639D01*
X9983968Y217972D01*
X9986134Y216473D01*
X9987967Y215140D01*
X9989300Y213973D01*
X9990133Y213307D01*
X9990466Y212974D01*
X9978136Y197478D01*
X9974804Y199644D01*
X9973138Y200477D01*
X9971805Y201310D01*
X9970638Y201810D01*
X9969805Y202143D01*
X9969139Y202476D01*
X9968972D01*
X9967306Y203143D01*
X9965639Y203476D01*
X9964140Y203809D01*
X9962640Y204143D01*
X9961307D01*
X9960307Y204309D01*
X9957808D01*
X9956475Y203976D01*
X9955309Y203809D01*
X9954142Y203476D01*
X9953476Y203143D01*
X9952809Y202976D01*
X9952476Y202643D01*
X9952310D01*
X9951476Y201976D01*
X9950810Y201310D01*
X9950310Y200477D01*
X9949977Y199810D01*
X9949810Y199144D01*
X9949644Y198477D01*
Y198144D01*
Y197978D01*
X9949810Y196811D01*
X9950310Y195811D01*
X9951643Y194145D01*
X9952310Y193645D01*
X9952976Y193145D01*
X9953309Y192979D01*
X9953476Y192812D01*
X9954976Y192146D01*
X9956642Y191313D01*
X9958308Y190646D01*
X9959974Y189980D01*
X9961474Y189480D01*
X9962640Y188980D01*
X9963307Y188813D01*
X9963640Y188647D01*
X9974970Y184314D01*
X9977970Y182815D01*
X9980636Y181315D01*
X9982968Y179649D01*
X9984968Y178149D01*
X9986301Y176650D01*
X9987467Y175483D01*
X9988134Y174817D01*
X9988300Y174484D01*
X9989800Y171984D01*
X9990966Y169485D01*
X9991799Y166819D01*
X9992466Y164319D01*
X9992799Y162153D01*
X9992966Y160487D01*
Y159821D01*
Y159321D01*
Y158987D01*
Y158821D01*
X9992799Y156655D01*
X9992633Y154489D01*
X9992133Y152323D01*
X9991466Y150490D01*
X9989967Y146991D01*
X9988300Y143991D01*
X9986467Y141492D01*
X9985634Y140492D01*
X9984968Y139659D01*
X9984301Y138993D01*
X9983801Y138493D01*
X9983635Y138326D01*
X9983468Y138159D01*
X9981635Y136660D01*
X9979636Y135327D01*
X9977470Y134161D01*
X9975304Y133161D01*
X9970805Y131661D01*
X9966639Y130495D01*
X9964473Y130162D01*
X9962640Y129828D01*
X9960974Y129662D01*
X9959474Y129495D01*
X9958308D01*
X9957475Y129328D01*
X9956642D01*
X9953309Y129495D01*
X9949977Y129662D01*
X9946811Y130162D01*
X9944145Y130828D01*
X9941812Y131328D01*
X9939979Y131828D01*
X9939313Y131994D01*
X9938813Y132161D01*
X9938480Y132328D01*
X9938313D01*
X9934981Y133661D01*
X9931815Y135327D01*
X9928982Y136993D01*
X9926483Y138659D01*
X9924317Y139992D01*
X9922817Y141159D01*
X9921817Y141992D01*
X9921651Y142325D01*
X9921484D01*
X9935481Y159154D01*
X9939313Y156488D01*
X9940979Y155322D01*
X9942645Y154489D01*
X9944145Y153656D01*
X9945145Y153156D01*
X9945978Y152822D01*
X9946144Y152656D01*
X9948311Y151823D01*
X9950310Y151323D01*
X9952143Y150823D01*
X9953809Y150490D01*
X9955142Y150323D01*
X9956309Y150156D01*
X9957142D01*
X9959141Y150323D01*
X9960807Y150490D01*
X9962140Y150823D01*
X9963307Y151156D01*
X9964140Y151489D01*
X9964806Y151656D01*
X9965140Y151989D01*
X9965306D01*
X9966139Y152656D01*
X9966806Y153489D01*
X9967306Y154322D01*
X9967639Y154989D01*
X9967806Y155655D01*
X9967972Y156322D01*
Y156655D01*
Y156821D01*
X9967806Y157988D01*
X9967306Y158987D01*
X9966139Y160487D01*
X9964973Y161487D01*
X9964640Y161820D01*
X9964473D01*
X9963140Y162487D01*
X9961640Y163153D01*
X9958641Y164486D01*
X9957142Y164986D01*
X9956142Y165486D01*
X9955475Y165652D01*
X9955142Y165819D01*
X9943645Y170651D01*
X9940812Y171984D01*
X9938313Y173317D01*
X9935980Y174983D01*
X9934148Y176483D01*
X9932648Y177816D01*
X9931482Y178982D01*
X9930648Y179649D01*
X9930482Y179982D01*
X9928649Y182481D01*
X9927316Y185314D01*
X9926483Y187980D01*
X9925816Y190646D01*
X9925316Y192979D01*
X9925150Y194812D01*
X9924983Y195478D01*
Y195978D01*
Y196311D01*
Y196478D01*
X9925150Y198811D01*
X9925483Y200977D01*
X9926483Y204809D01*
X9928149Y208308D01*
X9929815Y211307D01*
X9931482Y213807D01*
X9932315Y214640D01*
X9932981Y215473D01*
X9933648Y216140D01*
X9934148Y216639D01*
X9934314Y216806D01*
X9934481Y216973D01*
X9936314Y218472D01*
X9938313Y219639D01*
X9942479Y221805D01*
X9946644Y223138D01*
X9950477Y224137D01*
X9952310Y224637D01*
X9954142Y224804D01*
X9955642Y224971D01*
X9956975Y225137D01*
X9957975Y225304D01*
X9962474D01*
X9965473Y224971D01*
D02*
G37*
G36*
X9599067D02*
X9601899Y224471D01*
X9604232Y223804D01*
X9606398Y223304D01*
X9608064Y222804D01*
X9608564Y222638D01*
X9609064Y222471D01*
X9609231Y222305D01*
X9609397D01*
X9612397Y220972D01*
X9615063Y219639D01*
X9617562Y217972D01*
X9619728Y216473D01*
X9621561Y215140D01*
X9622894Y213973D01*
X9623727Y213307D01*
X9624060Y212974D01*
X9611730Y197478D01*
X9608398Y199644D01*
X9606731Y200477D01*
X9605398Y201310D01*
X9604232Y201810D01*
X9603399Y202143D01*
X9602732Y202476D01*
X9602566D01*
X9600900Y203143D01*
X9599233Y203476D01*
X9597734Y203809D01*
X9596234Y204143D01*
X9594901D01*
X9593901Y204309D01*
X9591402D01*
X9590069Y203976D01*
X9588903Y203809D01*
X9587736Y203476D01*
X9587070Y203143D01*
X9586403Y202976D01*
X9586070Y202643D01*
X9585903D01*
X9585070Y201976D01*
X9584404Y201310D01*
X9583904Y200477D01*
X9583571Y199810D01*
X9583404Y199144D01*
X9583237Y198477D01*
Y198144D01*
Y197978D01*
X9583404Y196811D01*
X9583904Y195811D01*
X9585237Y194145D01*
X9585903Y193645D01*
X9586570Y193145D01*
X9586903Y192979D01*
X9587070Y192812D01*
X9588569Y192146D01*
X9590236Y191313D01*
X9591902Y190646D01*
X9593568Y189980D01*
X9595068Y189480D01*
X9596234Y188980D01*
X9596901Y188813D01*
X9597234Y188647D01*
X9608564Y184314D01*
X9611563Y182815D01*
X9614229Y181315D01*
X9616562Y179649D01*
X9618562Y178149D01*
X9619895Y176650D01*
X9621061Y175483D01*
X9621728Y174817D01*
X9621894Y174484D01*
X9623394Y171984D01*
X9624560Y169485D01*
X9625393Y166819D01*
X9626060Y164319D01*
X9626393Y162153D01*
X9626560Y160487D01*
Y159821D01*
Y159321D01*
Y158987D01*
Y158821D01*
X9626393Y156655D01*
X9626226Y154489D01*
X9625726Y152323D01*
X9625060Y150490D01*
X9623560Y146991D01*
X9621894Y143991D01*
X9620061Y141492D01*
X9619228Y140492D01*
X9618562Y139659D01*
X9617895Y138993D01*
X9617395Y138493D01*
X9617229Y138326D01*
X9617062Y138159D01*
X9615229Y136660D01*
X9613230Y135327D01*
X9611064Y134161D01*
X9608897Y133161D01*
X9604399Y131661D01*
X9600233Y130495D01*
X9598067Y130162D01*
X9596234Y129828D01*
X9594568Y129662D01*
X9593068Y129495D01*
X9591902D01*
X9591069Y129328D01*
X9590236D01*
X9586903Y129495D01*
X9583571Y129662D01*
X9580405Y130162D01*
X9577739Y130828D01*
X9575406Y131328D01*
X9573573Y131828D01*
X9572907Y131994D01*
X9572407Y132161D01*
X9572074Y132328D01*
X9571907D01*
X9568574Y133661D01*
X9565409Y135327D01*
X9562576Y136993D01*
X9560077Y138659D01*
X9557911Y139992D01*
X9556411Y141159D01*
X9555411Y141992D01*
X9555245Y142325D01*
X9555078D01*
X9569074Y159154D01*
X9572907Y156488D01*
X9574573Y155322D01*
X9576239Y154489D01*
X9577739Y153656D01*
X9578739Y153156D01*
X9579572Y152822D01*
X9579738Y152656D01*
X9581904Y151823D01*
X9583904Y151323D01*
X9585737Y150823D01*
X9587403Y150490D01*
X9588736Y150323D01*
X9589902Y150156D01*
X9590735D01*
X9592735Y150323D01*
X9594401Y150490D01*
X9595734Y150823D01*
X9596901Y151156D01*
X9597734Y151489D01*
X9598400Y151656D01*
X9598733Y151989D01*
X9598900D01*
X9599733Y152656D01*
X9600400Y153489D01*
X9600900Y154322D01*
X9601233Y154989D01*
X9601399Y155655D01*
X9601566Y156322D01*
Y156655D01*
Y156821D01*
X9601399Y157988D01*
X9600900Y158987D01*
X9599733Y160487D01*
X9598567Y161487D01*
X9598234Y161820D01*
X9598067D01*
X9596734Y162487D01*
X9595234Y163153D01*
X9592235Y164486D01*
X9590735Y164986D01*
X9589736Y165486D01*
X9589069Y165652D01*
X9588736Y165819D01*
X9577239Y170651D01*
X9574406Y171984D01*
X9571907Y173317D01*
X9569574Y174983D01*
X9567741Y176483D01*
X9566242Y177816D01*
X9565075Y178982D01*
X9564242Y179649D01*
X9564076Y179982D01*
X9562243Y182481D01*
X9560910Y185314D01*
X9560077Y187980D01*
X9559410Y190646D01*
X9558910Y192979D01*
X9558744Y194812D01*
X9558577Y195478D01*
Y195978D01*
Y196311D01*
Y196478D01*
X9558744Y198811D01*
X9559077Y200977D01*
X9560077Y204809D01*
X9561743Y208308D01*
X9563409Y211307D01*
X9565075Y213807D01*
X9565908Y214640D01*
X9566575Y215473D01*
X9567241Y216140D01*
X9567741Y216639D01*
X9567908Y216806D01*
X9568075Y216973D01*
X9569907Y218472D01*
X9571907Y219639D01*
X9576073Y221805D01*
X9580238Y223138D01*
X9584070Y224137D01*
X9585903Y224637D01*
X9587736Y224804D01*
X9589236Y224971D01*
X9590569Y225137D01*
X9591569Y225304D01*
X9596067D01*
X9599067Y224971D01*
D02*
G37*
G36*
X9732199Y130828D02*
X9700874D01*
X9693709Y167652D01*
X9693043Y171651D01*
X9692709Y173484D01*
X9692376Y175150D01*
X9692209Y176483D01*
X9692043Y177483D01*
X9691876Y178316D01*
Y178482D01*
X9691376Y182648D01*
X9691043Y184481D01*
X9690876Y185981D01*
X9690710Y187314D01*
X9690543Y188480D01*
X9690377Y189146D01*
Y189313D01*
X9689710D01*
X9689210Y185481D01*
X9688877Y183648D01*
X9688710Y181982D01*
X9688544Y180482D01*
X9688377Y179482D01*
X9688210Y178816D01*
Y178482D01*
X9687544Y174484D01*
X9687211Y172651D01*
X9687044Y170984D01*
X9686711Y169651D01*
X9686544Y168652D01*
X9686378Y167819D01*
Y167652D01*
X9679379Y130828D01*
X9648887D01*
X9632558Y223638D01*
X9657718D01*
X9662884Y183148D01*
X9663217Y180482D01*
X9663384Y177816D01*
X9663717Y175317D01*
X9663883Y173151D01*
X9664050Y171151D01*
X9664217Y169818D01*
X9664383Y168818D01*
Y168652D01*
Y168485D01*
X9664717Y165819D01*
X9665050Y163153D01*
X9665216Y160654D01*
X9665550Y158488D01*
X9665716Y156488D01*
X9665883Y155155D01*
X9666050Y154155D01*
Y153989D01*
Y153822D01*
X9666549D01*
X9667049Y156488D01*
X9667549Y159154D01*
X9667882Y161653D01*
X9668382Y163986D01*
X9668549Y165819D01*
X9668882Y167152D01*
X9669049Y168152D01*
Y168485D01*
X9669549Y171151D01*
X9670048Y173817D01*
X9670548Y176316D01*
X9670882Y178649D01*
X9671215Y180482D01*
X9671548Y181815D01*
X9671715Y182815D01*
Y183148D01*
X9680546Y223638D01*
X9701207D01*
X9710038Y183148D01*
X9711038Y177983D01*
X9711371Y175483D01*
X9711871Y173317D01*
X9712038Y171318D01*
X9712371Y169985D01*
X9712538Y168985D01*
Y168818D01*
Y168652D01*
X9713537Y163320D01*
X9714037Y160820D01*
X9714370Y158488D01*
X9714704Y156655D01*
X9715037Y155155D01*
X9715204Y154155D01*
Y153989D01*
Y153822D01*
X9715870D01*
X9716203Y156655D01*
X9716370Y159321D01*
X9716703Y161820D01*
X9716870Y163986D01*
X9717036Y165986D01*
X9717203Y167319D01*
X9717370Y168318D01*
Y168652D01*
X9717703Y171318D01*
X9718036Y173984D01*
X9718203Y176483D01*
X9718536Y178649D01*
X9718703Y180482D01*
X9718869Y181982D01*
X9719036Y182815D01*
Y183148D01*
X9724035Y223638D01*
X9747529D01*
X9732199Y130828D01*
D02*
G37*
G36*
X9907154Y175650D02*
Y171318D01*
X9906821Y167319D01*
X9906321Y163653D01*
X9905821Y160154D01*
X9905155Y156988D01*
X9904322Y154155D01*
X9903489Y151489D01*
X9902656Y149157D01*
X9901822Y147157D01*
X9900989Y145324D01*
X9900156Y143825D01*
X9899490Y142658D01*
X9898823Y141659D01*
X9898323Y140992D01*
X9898157Y140659D01*
X9897990Y140492D01*
X9896157Y138493D01*
X9894158Y136826D01*
X9891825Y135327D01*
X9889492Y133994D01*
X9887160Y132828D01*
X9884827Y131994D01*
X9882327Y131328D01*
X9880161Y130661D01*
X9877829Y130162D01*
X9875829Y129828D01*
X9873996Y129662D01*
X9872330Y129495D01*
X9870997Y129328D01*
X9869164D01*
X9865665Y129495D01*
X9862333Y129828D01*
X9859167Y130328D01*
X9856334Y130995D01*
X9853668Y131828D01*
X9851169Y132828D01*
X9849003Y133827D01*
X9847170Y134827D01*
X9845504Y135827D01*
X9844004Y136993D01*
X9842671Y137826D01*
X9841671Y138659D01*
X9840838Y139492D01*
X9840338Y139992D01*
X9840005Y140326D01*
X9839838Y140492D01*
X9838172Y142825D01*
X9836672Y145324D01*
X9835506Y147990D01*
X9834340Y150823D01*
X9833507Y153822D01*
X9832674Y156655D01*
X9831674Y162320D01*
X9831174Y164986D01*
X9831007Y167485D01*
X9830841Y169818D01*
X9830674Y171818D01*
X9830507Y173317D01*
Y174650D01*
Y175317D01*
Y175650D01*
Y223638D01*
X9855001D01*
Y172817D01*
Y170651D01*
X9855168Y168485D01*
X9855501Y164819D01*
X9856001Y161820D01*
X9856667Y159487D01*
X9857334Y157654D01*
X9857834Y156322D01*
X9858167Y155655D01*
X9858334Y155322D01*
X9859833Y153656D01*
X9861499Y152323D01*
X9863332Y151489D01*
X9864999Y150823D01*
X9866665Y150490D01*
X9867998Y150323D01*
X9868831Y150156D01*
X9869164D01*
X9871664Y150323D01*
X9873830Y150990D01*
X9875662Y151823D01*
X9877162Y152822D01*
X9878328Y153656D01*
X9879162Y154489D01*
X9879661Y155155D01*
X9879828Y155322D01*
X9880495Y156322D01*
X9880994Y157488D01*
X9881994Y160320D01*
X9882661Y163153D01*
X9882994Y165986D01*
X9883327Y168652D01*
Y169818D01*
X9883494Y170818D01*
Y171651D01*
Y172317D01*
Y172651D01*
Y172817D01*
Y223638D01*
X9907154D01*
Y175650D01*
D02*
G37*
G36*
X10129931Y223304D02*
X10133097Y222804D01*
X10135763Y222305D01*
X10138095Y221805D01*
X10139762Y221471D01*
X10140428Y221305D01*
X10140928Y221138D01*
X10141095Y220972D01*
X10141261D01*
X10144260Y219805D01*
X10146926Y218472D01*
X10149092Y216806D01*
X10151092Y215306D01*
X10152592Y213973D01*
X10153758Y212807D01*
X10154424Y211974D01*
X10154591Y211641D01*
X10156257Y208975D01*
X10157590Y206142D01*
X10158423Y203143D01*
X10159090Y200144D01*
X10159423Y197644D01*
X10159590Y196478D01*
X10159756Y195478D01*
Y194812D01*
Y194145D01*
Y193812D01*
Y193645D01*
X10159590Y190146D01*
X10159090Y186814D01*
X10158423Y183981D01*
X10157757Y181648D01*
X10157090Y179649D01*
X10156424Y178149D01*
X10155924Y177316D01*
X10155757Y176983D01*
X10154091Y174650D01*
X10152425Y172651D01*
X10150592Y170984D01*
X10148926Y169485D01*
X10147260Y168318D01*
X10146093Y167485D01*
X10145260Y166985D01*
X10144927Y166819D01*
X10164922Y130828D01*
X10137595D01*
X10121600Y161987D01*
X10112102D01*
Y130828D01*
X10087608D01*
Y223638D01*
X10126432D01*
X10129931Y223304D01*
D02*
G37*
G36*
X10067947Y203143D02*
X10032456D01*
Y188480D01*
X10062948D01*
Y167985D01*
X10032456D01*
Y151323D01*
X10069446D01*
Y130828D01*
X10007962D01*
Y223638D01*
X10067947D01*
Y203143D01*
D02*
G37*
G36*
X9818844Y110000D02*
X9750861D01*
Y123330D01*
X9818844D01*
Y110000D01*
D02*
G37*
G36*
X8550000Y126491D02*
X8450118D01*
Y473508D01*
X8550000D01*
Y126491D01*
D02*
G37*
G36*
X8360000Y120944D02*
X8260118D01*
Y479056D01*
X8360000D01*
Y120944D01*
D02*
G37*
G36*
X6910000Y127393D02*
X6810118D01*
Y472607D01*
X6910000D01*
Y127393D01*
D02*
G37*
%LPC*%
G36*
X7321133Y3184647D02*
X7317967D01*
Y3131161D01*
X7319467D01*
X7323133Y3131328D01*
X7326465Y3131828D01*
X7329464Y3132661D01*
X7331797Y3133660D01*
X7333797Y3134660D01*
X7335296Y3135660D01*
X7336129Y3136326D01*
X7336463Y3136493D01*
X7337629Y3137659D01*
X7338795Y3139159D01*
X7340462Y3142325D01*
X7341795Y3145991D01*
X7342628Y3149656D01*
X7343128Y3152989D01*
X7343294Y3154488D01*
X7343461Y3155655D01*
X7343627Y3156821D01*
Y3157654D01*
Y3158154D01*
Y3158321D01*
X7343461Y3161153D01*
X7343294Y3163819D01*
X7342794Y3166152D01*
X7342294Y3168318D01*
X7341795Y3170318D01*
X7341295Y3171984D01*
X7340628Y3173484D01*
X7339962Y3174817D01*
X7339295Y3175983D01*
X7338629Y3176983D01*
X7338129Y3177816D01*
X7337462Y3178482D01*
X7336796Y3179149D01*
X7336463Y3179482D01*
X7333797Y3181315D01*
X7330964Y3182648D01*
X7328131Y3183481D01*
X7325465Y3184148D01*
X7323133Y3184481D01*
X7321133Y3184647D01*
D02*
G37*
G36*
X4207317Y204309D02*
X4195820D01*
Y179649D01*
X4206151D01*
X4208650Y179815D01*
X4210983Y180315D01*
X4212816Y180815D01*
X4214315Y181482D01*
X4215482Y182148D01*
X4216315Y182648D01*
X4216815Y182981D01*
X4216981Y183148D01*
X4218148Y184648D01*
X4219148Y186147D01*
X4219814Y187813D01*
X4220147Y189313D01*
X4220481Y190646D01*
X4220647Y191812D01*
Y192479D01*
Y192812D01*
X4220481Y194978D01*
X4219981Y196811D01*
X4219314Y198311D01*
X4218648Y199477D01*
X4217981Y200477D01*
X4217315Y201143D01*
X4216981Y201477D01*
X4216815Y201643D01*
X4215315Y202476D01*
X4213649Y203143D01*
X4211816Y203643D01*
X4210150Y203976D01*
X4208484Y204143D01*
X4207317Y204309D01*
D02*
G37*
G36*
X4572557D02*
X4572224D01*
X4569225Y203976D01*
X4566559Y203143D01*
X4564226Y201976D01*
X4562393Y200643D01*
X4560893Y199310D01*
X4559727Y198311D01*
X4559060Y197478D01*
X4558894Y197144D01*
X4557394Y194312D01*
X4556228Y191146D01*
X4555395Y187980D01*
X4554728Y184814D01*
X4554395Y181982D01*
X4554228Y180815D01*
Y179815D01*
X4554062Y178816D01*
Y178149D01*
Y177816D01*
Y177649D01*
X4554395Y173151D01*
X4554895Y169152D01*
X4555728Y165652D01*
X4556561Y162820D01*
X4557394Y160487D01*
X4558227Y158821D01*
X4558727Y157821D01*
X4558894Y157654D01*
Y157488D01*
X4560893Y155155D01*
X4563059Y153322D01*
X4565226Y151989D01*
X4567392Y151156D01*
X4569225Y150656D01*
X4570891Y150323D01*
X4571891Y150156D01*
X4572224D01*
X4575223Y150490D01*
X4577889Y151323D01*
X4580055Y152489D01*
X4582055Y153822D01*
X4583388Y155155D01*
X4584554Y156322D01*
X4585220Y157155D01*
X4585387Y157488D01*
X4587053Y160487D01*
X4588220Y163820D01*
X4589053Y167152D01*
X4589719Y170318D01*
X4590053Y173151D01*
X4590219Y174484D01*
Y175483D01*
X4590386Y176483D01*
Y177150D01*
Y177483D01*
Y177649D01*
X4590053Y182148D01*
X4589553Y185981D01*
X4588720Y189313D01*
X4587886Y192146D01*
X4586887Y194312D01*
X4586220Y195811D01*
X4585554Y196811D01*
X4585387Y197144D01*
X4583554Y199477D01*
X4581388Y201143D01*
X4579222Y202476D01*
X4577056Y203309D01*
X4575223Y203976D01*
X4573557Y204143D01*
X4572557Y204309D01*
D02*
G37*
G36*
X7192924Y3944981D02*
X7192590D01*
X7189591Y3944647D01*
X7186925Y3943814D01*
X7184592Y3942648D01*
X7182760Y3941315D01*
X7181260Y3939982D01*
X7180094Y3938982D01*
X7179427Y3938149D01*
X7179260Y3937816D01*
X7177761Y3934983D01*
X7176594Y3931817D01*
X7175761Y3928652D01*
X7175095Y3925486D01*
X7174762Y3922653D01*
X7174595Y3921487D01*
Y3920487D01*
X7174428Y3919487D01*
Y3918821D01*
Y3918487D01*
Y3918321D01*
X7174762Y3913822D01*
X7175261Y3909823D01*
X7176095Y3906324D01*
X7176928Y3903491D01*
X7177761Y3901159D01*
X7178594Y3899492D01*
X7179094Y3898493D01*
X7179260Y3898326D01*
Y3898159D01*
X7181260Y3895827D01*
X7183426Y3893994D01*
X7185592Y3892661D01*
X7187758Y3891828D01*
X7189591Y3891328D01*
X7191257Y3890995D01*
X7192257Y3890828D01*
X7192590D01*
X7195590Y3891161D01*
X7198256Y3891994D01*
X7200422Y3893161D01*
X7202421Y3894494D01*
X7203754Y3895827D01*
X7204921Y3896993D01*
X7205587Y3897826D01*
X7205754Y3898159D01*
X7207420Y3901159D01*
X7208586Y3904491D01*
X7209419Y3907824D01*
X7210086Y3910989D01*
X7210419Y3913822D01*
X7210586Y3915155D01*
Y3916155D01*
X7210752Y3917154D01*
Y3917821D01*
Y3918154D01*
Y3918321D01*
X7210419Y3922820D01*
X7209919Y3926652D01*
X7209086Y3929985D01*
X7208253Y3932817D01*
X7207253Y3934983D01*
X7206587Y3936483D01*
X7205920Y3937483D01*
X7205754Y3937816D01*
X7203921Y3940149D01*
X7201755Y3941815D01*
X7199589Y3943148D01*
X7197422Y3943981D01*
X7195590Y3944647D01*
X7193923Y3944814D01*
X7192924Y3944981D01*
D02*
G37*
G36*
X10767515Y1983291D02*
X10766849D01*
X10766516D01*
X10764350Y1983125D01*
X10762517Y1982625D01*
X10761017Y1981958D01*
X10759851Y1981292D01*
X10758851Y1980625D01*
X10758184Y1979959D01*
X10757851Y1979626D01*
X10757685Y1979459D01*
X10756851Y1977959D01*
X10756185Y1976293D01*
X10755685Y1974460D01*
X10755352Y1972794D01*
X10755185Y1971128D01*
X10755019Y1969962D01*
Y1958464D01*
X10779679D01*
Y1968795D01*
X10779512Y1971295D01*
X10779012Y1973627D01*
X10778513Y1975460D01*
X10777846Y1976960D01*
X10777180Y1978126D01*
X10776680Y1978959D01*
X10776346Y1979459D01*
X10776180Y1979626D01*
X10774680Y1980792D01*
X10773181Y1981792D01*
X10771514Y1982458D01*
X10770015Y1982792D01*
X10768682Y1983125D01*
X10767515Y1983291D01*
D02*
G37*
G36*
X10783178Y1766514D02*
X10782345D01*
X10781845D01*
X10781678D01*
X10778846Y1766347D01*
X10776180Y1766180D01*
X10773847Y1765680D01*
X10771681Y1765181D01*
X10769682Y1764681D01*
X10768015Y1764181D01*
X10766516Y1763514D01*
X10765183Y1762848D01*
X10764016Y1762181D01*
X10763017Y1761515D01*
X10762183Y1761015D01*
X10761517Y1760349D01*
X10760850Y1759682D01*
X10760517Y1759349D01*
X10758684Y1756683D01*
X10757351Y1753850D01*
X10756518Y1751018D01*
X10755852Y1748352D01*
X10755518Y1746019D01*
X10755352Y1744019D01*
Y1740854D01*
X10808838D01*
Y1742353D01*
X10808672Y1746019D01*
X10808172Y1749351D01*
X10807339Y1752351D01*
X10806339Y1754683D01*
X10805339Y1756683D01*
X10804339Y1758182D01*
X10803673Y1759016D01*
X10803506Y1759349D01*
X10802340Y1760515D01*
X10800840Y1761682D01*
X10797674Y1763348D01*
X10794009Y1764681D01*
X10790343Y1765514D01*
X10787010Y1766014D01*
X10785511Y1766180D01*
X10784344Y1766347D01*
X10783178Y1766514D01*
D02*
G37*
G36*
X7078752Y463093D02*
X7001921D01*
Y407342D01*
Y432166D01*
X7002059Y430640D01*
X7002198Y428699D01*
X7002614Y426480D01*
X7003030Y424122D01*
X7003862Y421626D01*
X7004833Y419268D01*
X7004972Y418991D01*
X7005388Y418298D01*
X7006081Y417049D01*
X7007052Y415524D01*
X7008300Y413721D01*
X7009964Y411641D01*
X7011767Y409561D01*
X7013986Y407342D01*
X7024942Y418298D01*
X7024804Y418436D01*
X7024526Y418714D01*
X7023971Y419268D01*
X7023278Y419962D01*
X7022585Y420794D01*
X7021753Y421765D01*
X7020088Y423984D01*
X7019950Y424122D01*
X7019672Y424538D01*
X7019395Y425093D01*
X7018979Y425925D01*
X7018563Y427035D01*
X7018147Y428144D01*
X7017869Y429392D01*
X7017731Y430779D01*
Y431473D01*
X7017869Y432166D01*
X7018008Y433137D01*
X7018285Y434246D01*
X7018840Y435356D01*
X7019395Y436465D01*
X7020227Y437436D01*
X7020366Y437575D01*
X7020643Y437852D01*
X7021336Y438268D01*
X7022169Y438684D01*
X7023139Y439239D01*
X7024526Y439655D01*
X7026052Y439932D01*
X7027855Y440071D01*
X7027993D01*
X7028132D01*
X7028687Y439932D01*
X7029241D01*
X7029935Y439655D01*
X7030767Y439516D01*
X7032847Y438823D01*
X7035482Y437575D01*
X7036869Y436881D01*
X7038395Y436049D01*
X7039920Y434940D01*
X7041584Y433692D01*
X7043387Y432305D01*
X7045190Y430779D01*
X7045329Y430640D01*
X7045606Y430363D01*
X7046161Y429947D01*
X7046854Y429254D01*
X7047825Y428283D01*
X7048935Y427312D01*
X7050183Y426064D01*
X7051570Y424677D01*
X7053095Y423152D01*
X7054759Y421487D01*
X7056562Y419546D01*
X7058504Y417604D01*
X7060584Y415524D01*
X7062664Y413166D01*
X7067102Y408312D01*
X7078752D01*
Y463093D01*
D02*
G37*
G36*
X7018563Y401239D02*
X7001505D01*
Y339802D01*
X7078752D01*
X7018563D01*
Y360328D01*
X7078752D01*
Y380714D01*
X7018563D01*
Y401239D01*
D02*
G37*
G36*
X7078752Y338000D02*
X7001505Y314423D01*
Y338000D01*
Y266300D01*
Y289738D01*
X7078752Y266300D01*
Y287103D01*
X7062248Y290847D01*
Y312620D01*
X7078752Y316365D01*
Y338000D01*
D02*
G37*
G36*
X7018563Y264497D02*
X7001505D01*
Y203060D01*
X7078752D01*
Y243972D01*
X7018563D01*
Y264497D01*
D02*
G37*
G36*
X7080000Y196403D02*
D01*
Y166864D01*
X7079861Y167557D01*
Y168528D01*
X7079722Y169776D01*
X7079584Y171163D01*
X7079306Y172688D01*
X7079029Y174491D01*
X7078058Y177958D01*
X7076810Y181703D01*
X7075978Y183506D01*
X7075007Y185308D01*
X7073898Y186973D01*
X7072650Y188498D01*
X7072511Y188637D01*
X7072372Y188776D01*
X7071956Y189192D01*
X7071401Y189746D01*
X7070708Y190301D01*
X7069876Y190995D01*
X7067796Y192520D01*
X7065299Y193907D01*
X7062387Y195155D01*
X7060861Y195710D01*
X7059059Y196126D01*
X7057256Y196265D01*
X7055453Y196403D01*
X7080000D01*
X7000118D01*
X7054066D01*
X7052679Y196265D01*
X7050876Y195987D01*
X7048796Y195432D01*
X7046577Y194739D01*
X7044497Y193768D01*
X7042416Y192520D01*
X7042139Y192381D01*
X7041584Y191827D01*
X7040614Y190856D01*
X7039365Y189746D01*
X7038117Y188082D01*
X7036730Y186141D01*
X7035482Y183922D01*
X7034234Y181425D01*
X7030628Y171995D01*
X7030490Y171717D01*
X7030351Y171163D01*
X7029935Y170192D01*
X7029519Y168944D01*
X7028964Y167557D01*
X7028409Y166170D01*
X7027716Y164783D01*
X7027161Y163535D01*
X7027023Y163396D01*
X7026884Y163119D01*
X7026468Y162564D01*
X7026052Y162010D01*
X7024665Y160900D01*
X7023833Y160484D01*
X7022862Y160345D01*
X7022723D01*
X7022446D01*
X7021891Y160484D01*
X7021336Y160623D01*
X7020782Y160900D01*
X7020088Y161316D01*
X7019534Y161871D01*
X7018979Y162564D01*
Y162703D01*
X7018701Y162980D01*
X7018563Y163535D01*
X7018285Y164090D01*
X7018008Y165061D01*
X7017869Y166031D01*
X7017592Y167141D01*
Y169221D01*
X7017731Y170053D01*
Y171163D01*
X7018008Y172411D01*
X7018285Y173659D01*
X7018563Y175046D01*
X7019118Y176433D01*
Y176571D01*
X7019395Y177126D01*
X7019672Y177820D01*
X7020088Y178790D01*
X7020782Y179900D01*
X7021475Y181287D01*
X7023278Y184060D01*
X7010380Y194323D01*
X7010103Y194046D01*
X7009548Y193352D01*
X7008578Y192243D01*
X7007468Y190717D01*
X7006220Y188914D01*
X7004833Y186834D01*
X7003724Y184615D01*
X7002614Y182119D01*
Y181980D01*
X7002475Y181841D01*
X7002337Y181425D01*
X7002198Y181009D01*
X7001782Y179622D01*
X7001366Y177820D01*
X7000811Y175878D01*
X7000395Y173520D01*
X7000118Y171024D01*
Y167280D01*
X7000257Y166447D01*
X7000395Y165338D01*
X7000534Y164090D01*
X7000673Y162564D01*
X7001089Y161039D01*
X7001921Y157849D01*
X7003030Y154382D01*
X7004833Y150915D01*
X7005804Y149251D01*
X7007052Y147725D01*
X7007191Y147586D01*
X7007329Y147448D01*
X7007745Y147032D01*
X7008300Y146477D01*
X7008994Y145922D01*
X7009687Y145229D01*
X7011767Y143842D01*
X7014264Y142455D01*
X7017176Y141068D01*
X7020366Y140236D01*
X7022169Y139959D01*
X7024110Y139820D01*
X7024249D01*
X7024526D01*
X7024942D01*
X7025497Y139959D01*
X7027023Y140098D01*
X7028964Y140514D01*
X7031183Y141068D01*
X7033402Y141762D01*
X7035760Y142871D01*
X7037840Y144397D01*
X7038117Y144535D01*
X7038672Y145229D01*
X7039643Y146200D01*
X7040752Y147448D01*
X7042000Y148973D01*
X7043387Y150915D01*
X7044497Y152995D01*
X7045606Y155353D01*
X7049628Y164922D01*
X7049767Y165199D01*
X7049905Y165754D01*
X7050321Y166586D01*
X7050737Y167834D01*
X7051847Y170331D01*
X7052402Y171579D01*
X7052956Y172688D01*
Y172827D01*
X7053234Y173104D01*
X7054066Y174075D01*
X7055314Y175046D01*
X7056146Y175462D01*
X7057117Y175601D01*
X7057256D01*
X7057533D01*
X7058088Y175462D01*
X7058642Y175323D01*
X7059197Y175046D01*
X7059891Y174630D01*
X7060584Y174075D01*
X7061139Y173382D01*
Y173243D01*
X7061416Y172966D01*
X7061555Y172411D01*
X7061832Y171717D01*
X7062110Y170747D01*
X7062387Y169637D01*
X7062526Y168250D01*
X7062664Y166586D01*
Y165893D01*
X7062526Y164922D01*
X7062387Y163812D01*
X7062110Y162426D01*
X7061694Y160900D01*
X7061277Y159236D01*
X7060584Y157433D01*
X7060445Y157294D01*
X7060168Y156601D01*
X7059752Y155769D01*
X7059059Y154521D01*
X7058365Y153134D01*
X7057394Y151747D01*
X7055175Y148557D01*
X7069182Y136908D01*
Y137046D01*
X7069460Y137185D01*
X7070153Y138017D01*
X7071124Y139265D01*
X7072234Y141068D01*
X7073620Y143149D01*
X7075007Y145506D01*
X7076394Y148141D01*
X7077503Y150915D01*
Y151054D01*
X7077642Y151331D01*
X7077781Y151747D01*
X7077920Y152302D01*
X7078336Y153827D01*
X7078752Y155769D01*
X7079306Y157988D01*
X7079722Y160623D01*
X7079861Y163396D01*
X7080000Y166170D01*
Y136908D01*
X7000118D01*
X7080000D01*
Y196403D01*
D02*
G37*
%LPD*%
G36*
X7061694Y447837D02*
X7061832Y446728D01*
X7061971Y444370D01*
Y443815D01*
X7062110Y443122D01*
Y442290D01*
X7062248Y441319D01*
X7062387Y440210D01*
X7062664Y437852D01*
X7062387Y438129D01*
X7061694Y438823D01*
X7060584Y439794D01*
X7059197Y441042D01*
X7057533Y442706D01*
X7055591Y444370D01*
X7053511Y446173D01*
X7051292Y447976D01*
X7051154D01*
X7051015Y448253D01*
X7050321Y448808D01*
X7049073Y449779D01*
X7047548Y450888D01*
X7045745Y452137D01*
X7043665Y453523D01*
X7041446Y454910D01*
X7039088Y456158D01*
X7038949D01*
X7038811Y456297D01*
X7037979Y456713D01*
X7036730Y457268D01*
X7035066Y457823D01*
X7033263Y458377D01*
X7031183Y458932D01*
X7028825Y459348D01*
X7026606Y459487D01*
X7026468D01*
X7026052D01*
X7025497D01*
X7024665Y459348D01*
X7023833Y459209D01*
X7022723Y459071D01*
X7020088Y458516D01*
X7017176Y457684D01*
X7014264Y456436D01*
X7012738Y455604D01*
X7011351Y454633D01*
X7009964Y453523D01*
X7008716Y452275D01*
X7008578Y452137D01*
X7008439Y451998D01*
X7008161Y451582D01*
X7007607Y451027D01*
X7007191Y450334D01*
X7006636Y449363D01*
X7005943Y448392D01*
X7005388Y447283D01*
X7004140Y444648D01*
X7003030Y441458D01*
X7002198Y437713D01*
X7002059Y435633D01*
X7001921Y433553D01*
Y463093D01*
X7061694D01*
Y447837D01*
D02*
G37*
G36*
X7046577Y294591D02*
X7041168Y295840D01*
X7040891Y295978D01*
X7040198Y296117D01*
X7039088Y296394D01*
X7037563Y296810D01*
X7035760Y297226D01*
X7033679Y297781D01*
X7031460Y298197D01*
X7029103Y298752D01*
X7028964D01*
X7028825D01*
X7027993Y299029D01*
X7026745Y299307D01*
X7025081Y299584D01*
X7023278Y300000D01*
X7021198Y300416D01*
X7016621Y301387D01*
Y301803D01*
X7016899Y301942D01*
X7017592Y302080D01*
X7018840Y302358D01*
X7020366Y302774D01*
X7022307Y303190D01*
X7024388Y303745D01*
X7026745Y304161D01*
X7029103Y304715D01*
X7029380D01*
X7030212Y304993D01*
X7031460Y305270D01*
X7032986Y305548D01*
X7034789Y306102D01*
X7036869Y306518D01*
X7041168Y307628D01*
X7046577Y308876D01*
Y294591D01*
D02*
G37*
G36*
X7078752Y203060D02*
X7018563D01*
Y223585D01*
X7078752D01*
Y203060D01*
D02*
G37*
%LPC*%
G36*
X6301323Y306147D02*
X6300823D01*
X6299656Y300649D01*
X6299157Y298149D01*
X6298657Y295983D01*
X6298323Y293984D01*
X6297990Y292484D01*
X6297657Y291484D01*
Y291318D01*
Y291151D01*
X6296990Y288318D01*
X6296491Y285652D01*
X6295824Y283153D01*
X6295324Y280987D01*
X6294824Y279154D01*
X6294491Y277821D01*
X6294324Y276988D01*
X6294158Y276655D01*
X6292658Y270156D01*
X6309821D01*
X6308321Y276655D01*
X6306988Y281820D01*
X6306488Y284319D01*
X6305822Y286486D01*
X6305488Y288318D01*
X6305155Y289818D01*
X6304822Y290818D01*
Y291151D01*
X6304155Y293984D01*
X6303655Y296816D01*
X6302989Y299316D01*
X6302489Y301648D01*
X6301989Y303481D01*
X6301656Y304981D01*
X6301489Y305814D01*
X6301323Y306147D01*
D02*
G37*
G36*
X6216511Y305647D02*
X6207180D01*
Y287652D01*
X6215511D01*
X6217677Y287819D01*
X6219510Y288152D01*
X6221010Y288652D01*
X6222176Y289152D01*
X6223176Y289651D01*
X6223843Y290151D01*
X6224176Y290318D01*
X6224342Y290485D01*
X6225342Y291484D01*
X6226009Y292651D01*
X6226675Y293817D01*
X6227008Y294983D01*
X6227175Y295983D01*
X6227342Y296816D01*
Y297316D01*
Y297483D01*
X6227175Y298982D01*
X6226842Y300315D01*
X6226342Y301315D01*
X6225842Y302148D01*
X6225342Y302815D01*
X6224842Y303315D01*
X6224509Y303648D01*
X6224342D01*
X6223176Y304314D01*
X6221843Y304814D01*
X6218844Y305481D01*
X6217511D01*
X6216511Y305647D01*
D02*
G37*
G36*
X6218511Y270656D02*
X6207180D01*
Y250162D01*
X6217344D01*
X6219844Y250328D01*
X6222010Y250661D01*
X6223843Y251161D01*
X6225342Y251661D01*
X6226509Y252161D01*
X6227342Y252661D01*
X6227841Y252828D01*
X6228008Y252994D01*
X6229174Y254161D01*
X6230174Y255327D01*
X6230841Y256660D01*
X6231174Y257993D01*
X6231507Y258993D01*
X6231674Y259992D01*
Y260659D01*
Y260825D01*
X6231507Y262658D01*
X6231174Y264158D01*
X6230507Y265491D01*
X6229841Y266491D01*
X6229174Y267324D01*
X6228508Y267824D01*
X6228175Y268157D01*
X6228008Y268324D01*
X6226509Y269157D01*
X6224842Y269657D01*
X6221343Y270323D01*
X6219844Y270490D01*
X6218511Y270656D01*
D02*
G37*
G36*
X5343513Y204309D02*
X5332016D01*
Y179649D01*
X5342347D01*
X5344846Y179815D01*
X5347179Y180315D01*
X5349012Y180815D01*
X5350512Y181482D01*
X5351678Y182148D01*
X5352511Y182648D01*
X5353011Y182981D01*
X5353178Y183148D01*
X5354344Y184648D01*
X5355344Y186147D01*
X5356010Y187813D01*
X5356343Y189313D01*
X5356677Y190646D01*
X5356843Y191812D01*
Y192479D01*
Y192812D01*
X5356677Y194978D01*
X5356177Y196811D01*
X5355510Y198311D01*
X5354844Y199477D01*
X5354177Y200477D01*
X5353511Y201143D01*
X5353178Y201477D01*
X5353011Y201643D01*
X5351511Y202476D01*
X5349845Y203143D01*
X5348012Y203643D01*
X5346346Y203976D01*
X5344680Y204143D01*
X5343513Y204309D01*
D02*
G37*
G36*
X9134557D02*
X9124559D01*
Y181315D01*
X9133390D01*
X9136056Y181482D01*
X9138222Y181815D01*
X9140055Y182315D01*
X9141721Y182981D01*
X9142888Y183481D01*
X9143721Y183981D01*
X9144221Y184314D01*
X9144387Y184481D01*
X9145720Y185814D01*
X9146553Y187314D01*
X9147387Y188813D01*
X9147886Y190313D01*
X9148220Y191646D01*
X9148386Y192646D01*
Y193312D01*
Y193645D01*
X9148220Y195811D01*
X9147720Y197478D01*
X9147053Y198977D01*
X9146387Y200144D01*
X9145554Y200977D01*
X9145054Y201477D01*
X9144554Y201810D01*
X9144387Y201976D01*
X9142888Y202810D01*
X9141055Y203309D01*
X9139222Y203809D01*
X9137556Y203976D01*
X9135890Y204143D01*
X9134557Y204309D01*
D02*
G37*
G36*
X9047412Y205476D02*
X9046912D01*
X9045746Y199977D01*
X9045246Y197478D01*
X9044746Y195312D01*
X9044413Y193312D01*
X9044080Y191812D01*
X9043746Y190813D01*
Y190646D01*
Y190479D01*
X9043080Y187647D01*
X9042580Y184981D01*
X9041914Y182481D01*
X9041414Y180315D01*
X9040914Y178482D01*
X9040581Y177150D01*
X9040414Y176316D01*
X9040247Y175983D01*
X9038748Y169485D01*
X9055910D01*
X9054410Y175983D01*
X9053077Y181148D01*
X9052578Y183648D01*
X9051911Y185814D01*
X9051578Y187647D01*
X9051245Y189146D01*
X9050911Y190146D01*
Y190479D01*
X9050245Y193312D01*
X9049745Y196145D01*
X9049078Y198644D01*
X9048579Y200977D01*
X9048079Y202810D01*
X9047745Y204309D01*
X9047579Y205142D01*
X9047412Y205476D01*
D02*
G37*
G36*
X8881121Y204309D02*
X8880788D01*
X8877789Y203976D01*
X8875123Y203143D01*
X8872790Y201976D01*
X8870957Y200643D01*
X8869458Y199310D01*
X8868291Y198311D01*
X8867625Y197478D01*
X8867458Y197144D01*
X8865959Y194312D01*
X8864792Y191146D01*
X8863959Y187980D01*
X8863293Y184814D01*
X8862959Y181982D01*
X8862793Y180815D01*
Y179815D01*
X8862626Y178816D01*
Y178149D01*
Y177816D01*
Y177649D01*
X8862959Y173151D01*
X8863459Y169152D01*
X8864292Y165652D01*
X8865126Y162820D01*
X8865959Y160487D01*
X8866792Y158821D01*
X8867292Y157821D01*
X8867458Y157654D01*
Y157488D01*
X8869458Y155155D01*
X8871624Y153322D01*
X8873790Y151989D01*
X8875956Y151156D01*
X8877789Y150656D01*
X8879455Y150323D01*
X8880455Y150156D01*
X8880788D01*
X8883787Y150490D01*
X8886453Y151323D01*
X8888620Y152489D01*
X8890619Y153822D01*
X8891952Y155155D01*
X8893118Y156322D01*
X8893785Y157155D01*
X8893951Y157488D01*
X8895618Y160487D01*
X8896784Y163820D01*
X8897617Y167152D01*
X8898284Y170318D01*
X8898617Y173151D01*
X8898784Y174484D01*
Y175483D01*
X8898950Y176483D01*
Y177150D01*
Y177483D01*
Y177649D01*
X8898617Y182148D01*
X8898117Y185981D01*
X8897284Y189313D01*
X8896451Y192146D01*
X8895451Y194312D01*
X8894785Y195811D01*
X8894118Y196811D01*
X8893951Y197144D01*
X8892119Y199477D01*
X8889953Y201143D01*
X8887786Y202476D01*
X8885620Y203309D01*
X8883787Y203976D01*
X8882121Y204143D01*
X8881121Y204309D01*
D02*
G37*
G36*
X10122099D02*
X10112102D01*
Y181315D01*
X10120933D01*
X10123599Y181482D01*
X10125765Y181815D01*
X10127598Y182315D01*
X10129264Y182981D01*
X10130431Y183481D01*
X10131264Y183981D01*
X10131764Y184314D01*
X10131930Y184481D01*
X10133263Y185814D01*
X10134096Y187314D01*
X10134929Y188813D01*
X10135429Y190313D01*
X10135763Y191646D01*
X10135929Y192646D01*
Y193312D01*
Y193645D01*
X10135763Y195811D01*
X10135263Y197478D01*
X10134596Y198977D01*
X10133930Y200144D01*
X10133097Y200977D01*
X10132597Y201477D01*
X10132097Y201810D01*
X10131930Y201976D01*
X10130431Y202810D01*
X10128598Y203309D01*
X10126765Y203809D01*
X10125099Y203976D01*
X10123432Y204143D01*
X10122099Y204309D01*
D02*
G37*
G36*
X8538751Y463508D02*
X8461504D01*
Y412334D01*
X8538751D01*
Y463508D01*
D02*
G37*
G36*
Y400823D02*
Y380298D01*
X8478562D01*
Y400823D01*
X8461504D01*
Y339386D01*
X8538751D01*
Y400823D01*
D02*
G37*
G36*
Y337583D02*
D01*
X8461504Y314007D01*
Y289321D01*
X8538751Y265884D01*
X8461504D01*
X8538751D01*
Y337583D01*
D02*
G37*
G36*
Y264081D02*
Y243556D01*
X8478562D01*
Y264081D01*
X8461504D01*
Y202644D01*
X8538751D01*
Y264081D01*
D02*
G37*
G36*
X8539999Y195987D02*
D01*
Y166447D01*
X8539861Y167141D01*
Y168111D01*
X8539722Y169360D01*
X8539583Y170746D01*
X8539306Y172272D01*
X8539029Y174075D01*
X8538058Y177542D01*
X8536810Y181286D01*
X8535978Y183089D01*
X8535007Y184892D01*
X8533897Y186556D01*
X8532649Y188082D01*
X8532510Y188221D01*
X8532372Y188359D01*
X8531956Y188775D01*
X8531401Y189330D01*
X8530708Y189885D01*
X8529875Y190578D01*
X8527795Y192104D01*
X8525299Y193491D01*
X8522387Y194739D01*
X8520861Y195293D01*
X8519058Y195710D01*
X8517255Y195848D01*
X8515452Y195987D01*
X8539999D01*
X8460117D01*
X8514066D01*
X8512679Y195848D01*
X8510876Y195571D01*
X8508796Y195016D01*
X8506577Y194323D01*
X8504496Y193352D01*
X8502416Y192104D01*
X8502139Y191965D01*
X8501584Y191410D01*
X8500613Y190440D01*
X8499365Y189330D01*
X8498117Y187666D01*
X8496730Y185724D01*
X8495482Y183505D01*
X8494234Y181009D01*
X8490628Y171579D01*
X8490489Y171301D01*
X8490351Y170746D01*
X8489935Y169776D01*
X8489518Y168527D01*
X8488964Y167141D01*
X8488409Y165754D01*
X8487716Y164367D01*
X8487161Y163119D01*
X8487022Y162980D01*
X8486883Y162703D01*
X8486467Y162148D01*
X8486051Y161593D01*
X8484665Y160484D01*
X8483832Y160068D01*
X8482862Y159929D01*
X8482723D01*
X8482446D01*
X8481891Y160068D01*
X8481336Y160206D01*
X8480781Y160484D01*
X8480088Y160900D01*
X8479533Y161455D01*
X8478978Y162148D01*
Y162287D01*
X8478701Y162564D01*
X8478562Y163119D01*
X8478285Y163674D01*
X8478008Y164644D01*
X8477869Y165615D01*
X8477592Y166725D01*
Y168805D01*
X8477730Y169637D01*
Y170746D01*
X8478008Y171995D01*
X8478285Y173243D01*
X8478562Y174630D01*
X8479117Y176016D01*
Y176155D01*
X8479395Y176710D01*
X8479672Y177403D01*
X8480088Y178374D01*
X8480781Y179484D01*
X8481475Y180870D01*
X8483278Y183644D01*
X8470380Y193907D01*
X8470103Y193629D01*
X8469548Y192936D01*
X8468577Y191826D01*
X8467468Y190301D01*
X8466220Y188498D01*
X8464833Y186418D01*
X8463723Y184199D01*
X8462614Y181702D01*
Y181564D01*
X8462475Y181425D01*
X8462336Y181009D01*
X8462198Y180593D01*
X8461782Y179206D01*
X8461366Y177403D01*
X8460811Y175462D01*
X8460395Y173104D01*
X8460117Y170608D01*
Y166863D01*
X8460256Y166031D01*
X8460395Y164922D01*
X8460533Y163674D01*
X8460672Y162148D01*
X8461088Y160622D01*
X8461920Y157433D01*
X8463030Y153966D01*
X8464833Y150499D01*
X8465803Y148834D01*
X8467052Y147309D01*
X8467190Y147170D01*
X8467329Y147031D01*
X8467745Y146615D01*
X8468300Y146061D01*
X8468993Y145506D01*
X8469687Y144813D01*
X8471767Y143426D01*
X8474263Y142039D01*
X8477176Y140652D01*
X8480365Y139820D01*
X8482168Y139543D01*
X8484110Y139404D01*
X8484248D01*
X8484526D01*
X8484942D01*
X8485497Y139543D01*
X8487022Y139681D01*
X8488964Y140097D01*
X8491183Y140652D01*
X8493402Y141345D01*
X8495759Y142455D01*
X8497839Y143980D01*
X8498117Y144119D01*
X8498672Y144813D01*
X8499642Y145783D01*
X8500752Y147031D01*
X8502000Y148557D01*
X8503387Y150499D01*
X8504496Y152579D01*
X8505606Y154936D01*
X8509628Y164506D01*
X8509766Y164783D01*
X8509905Y165338D01*
X8510321Y166170D01*
X8510737Y167418D01*
X8511847Y169914D01*
X8512401Y171162D01*
X8512956Y172272D01*
Y172411D01*
X8513233Y172688D01*
X8514066Y173659D01*
X8515314Y174630D01*
X8516146Y175046D01*
X8517117Y175184D01*
X8517255D01*
X8517533D01*
X8518087Y175046D01*
X8518642Y174907D01*
X8519197Y174630D01*
X8519890Y174214D01*
X8520584Y173659D01*
X8521138Y172965D01*
Y172827D01*
X8521416Y172549D01*
X8521554Y171995D01*
X8521832Y171301D01*
X8522109Y170330D01*
X8522387Y169221D01*
X8522525Y167834D01*
X8522664Y166170D01*
Y165476D01*
X8522525Y164506D01*
X8522387Y163396D01*
X8522109Y162009D01*
X8521693Y160484D01*
X8521277Y158820D01*
X8520584Y157017D01*
X8520445Y156878D01*
X8520168Y156185D01*
X8519752Y155352D01*
X8519058Y154104D01*
X8518365Y152717D01*
X8517394Y151331D01*
X8515175Y148141D01*
X8529182Y136491D01*
Y136630D01*
X8529459Y136769D01*
X8530153Y137601D01*
X8531124Y138849D01*
X8532233Y140652D01*
X8533620Y142732D01*
X8535007Y145090D01*
X8536394Y147725D01*
X8537503Y150499D01*
Y150637D01*
X8537642Y150915D01*
X8537780Y151331D01*
X8537919Y151885D01*
X8538335Y153411D01*
X8538751Y155352D01*
X8539306Y157571D01*
X8539722Y160206D01*
X8539861Y162980D01*
X8539999Y165754D01*
Y136491D01*
X8460117D01*
X8539999D01*
Y195987D01*
D02*
G37*
%LPD*%
G36*
X8521693Y432720D02*
X8507825D01*
Y458100D01*
X8490767D01*
Y432720D01*
X8478562D01*
Y462260D01*
X8461504D01*
Y463508D01*
X8521693D01*
Y432720D01*
D02*
G37*
G36*
X8538751Y339386D02*
X8478562D01*
Y359911D01*
X8538751D01*
Y339386D01*
D02*
G37*
G36*
X8506577Y294175D02*
X8501168Y295423D01*
X8500891Y295562D01*
X8500197Y295701D01*
X8499088Y295978D01*
X8497562Y296394D01*
X8495759Y296810D01*
X8493679Y297365D01*
X8491460Y297781D01*
X8489102Y298336D01*
X8488964D01*
X8488825D01*
X8487993Y298613D01*
X8486745Y298890D01*
X8485081Y299168D01*
X8483278Y299584D01*
X8481197Y300000D01*
X8476621Y300971D01*
Y301387D01*
X8476898Y301525D01*
X8477592Y301664D01*
X8478840Y301941D01*
X8480365Y302358D01*
X8482307Y302774D01*
X8484387Y303328D01*
X8486745Y303744D01*
X8489102Y304299D01*
X8489380D01*
X8490212Y304576D01*
X8491460Y304854D01*
X8492986Y305131D01*
X8494788Y305686D01*
X8496869Y306102D01*
X8501168Y307211D01*
X8506577Y308460D01*
Y294175D01*
D02*
G37*
G36*
X8538751Y286686D02*
X8522248Y290431D01*
Y312204D01*
X8538751Y315949D01*
Y286686D01*
D02*
G37*
G36*
Y202644D02*
X8478562D01*
Y223169D01*
X8538751D01*
Y202644D01*
D02*
G37*
%LPC*%
G36*
X8350000Y440210D02*
D01*
Y410670D01*
X8349861Y411363D01*
Y412334D01*
X8349722Y413582D01*
X8349584Y414969D01*
X8349306Y416495D01*
X8349029Y418298D01*
X8348058Y421765D01*
X8346810Y425509D01*
X8345978Y427312D01*
X8345007Y429115D01*
X8343898Y430779D01*
X8342650Y432305D01*
X8342511Y432443D01*
X8342372Y432582D01*
X8341956Y432998D01*
X8341401Y433553D01*
X8340708Y434108D01*
X8339876Y434801D01*
X8337796Y436327D01*
X8335299Y437713D01*
X8332387Y438962D01*
X8330861Y439516D01*
X8329059Y439932D01*
X8327256Y440071D01*
X8325453Y440210D01*
X8350000D01*
X8270118D01*
X8324066D01*
X8322679Y440071D01*
X8320876Y439794D01*
X8318796Y439239D01*
X8316577Y438545D01*
X8314497Y437575D01*
X8312416Y436327D01*
X8312139Y436188D01*
X8311584Y435633D01*
X8310614Y434662D01*
X8309365Y433553D01*
X8308117Y431889D01*
X8306730Y429947D01*
X8305482Y427728D01*
X8304234Y425232D01*
X8300628Y415801D01*
X8300490Y415524D01*
X8300351Y414969D01*
X8299935Y413998D01*
X8299519Y412750D01*
X8298964Y411363D01*
X8298409Y409977D01*
X8297716Y408590D01*
X8297161Y407342D01*
X8297023Y407203D01*
X8296884Y406926D01*
X8296468Y406371D01*
X8296052Y405816D01*
X8294665Y404707D01*
X8293833Y404291D01*
X8292862Y404152D01*
X8292723D01*
X8292446D01*
X8291891Y404291D01*
X8291336Y404429D01*
X8290782Y404707D01*
X8290088Y405123D01*
X8289534Y405677D01*
X8288979Y406371D01*
Y406509D01*
X8288701Y406787D01*
X8288563Y407342D01*
X8288285Y407896D01*
X8288008Y408867D01*
X8287869Y409838D01*
X8287592Y410947D01*
Y413028D01*
X8287731Y413860D01*
Y414969D01*
X8288008Y416217D01*
X8288285Y417466D01*
X8288563Y418852D01*
X8289118Y420239D01*
Y420378D01*
X8289395Y420933D01*
X8289672Y421626D01*
X8290088Y422597D01*
X8290782Y423706D01*
X8291475Y425093D01*
X8293278Y427867D01*
X8280380Y438129D01*
X8280103Y437852D01*
X8279548Y437159D01*
X8278578Y436049D01*
X8277468Y434524D01*
X8276220Y432721D01*
X8274833Y430640D01*
X8273724Y428422D01*
X8272614Y425925D01*
Y425787D01*
X8272475Y425648D01*
X8272337Y425232D01*
X8272198Y424816D01*
X8271782Y423429D01*
X8271366Y421626D01*
X8270811Y419684D01*
X8270395Y417327D01*
X8270118Y414831D01*
Y411086D01*
X8270257Y410254D01*
X8270395Y409144D01*
X8270534Y407896D01*
X8270673Y406371D01*
X8271089Y404845D01*
X8271921Y401656D01*
X8273030Y398188D01*
X8274833Y394721D01*
X8275804Y393057D01*
X8277052Y391532D01*
X8277191Y391393D01*
X8277329Y391254D01*
X8277745Y390838D01*
X8278300Y390283D01*
X8278994Y389729D01*
X8279687Y389035D01*
X8281767Y387648D01*
X8284264Y386262D01*
X8287176Y384875D01*
X8290366Y384043D01*
X8292169Y383765D01*
X8294110Y383627D01*
X8294249D01*
X8294526D01*
X8294942D01*
X8295497Y383765D01*
X8297023Y383904D01*
X8298964Y384320D01*
X8301183Y384875D01*
X8303402Y385568D01*
X8305760Y386678D01*
X8307840Y388203D01*
X8308117Y388342D01*
X8308672Y389035D01*
X8309643Y390006D01*
X8310752Y391254D01*
X8312000Y392780D01*
X8313387Y394721D01*
X8314497Y396802D01*
X8315606Y399159D01*
X8319628Y408728D01*
X8319767Y409006D01*
X8319905Y409561D01*
X8320321Y410393D01*
X8320737Y411641D01*
X8321847Y414137D01*
X8322402Y415385D01*
X8322956Y416495D01*
Y416633D01*
X8323234Y416911D01*
X8324066Y417882D01*
X8325314Y418852D01*
X8326146Y419268D01*
X8327117Y419407D01*
X8327256D01*
X8327533D01*
X8328088Y419268D01*
X8328642Y419130D01*
X8329197Y418852D01*
X8329891Y418436D01*
X8330584Y417882D01*
X8331139Y417188D01*
Y417049D01*
X8331416Y416772D01*
X8331555Y416217D01*
X8331832Y415524D01*
X8332110Y414553D01*
X8332387Y413444D01*
X8332526Y412057D01*
X8332664Y410393D01*
Y409699D01*
X8332526Y408728D01*
X8332387Y407619D01*
X8332110Y406232D01*
X8331694Y404707D01*
X8331277Y403042D01*
X8330584Y401239D01*
X8330445Y401101D01*
X8330168Y400407D01*
X8329752Y399575D01*
X8329059Y398327D01*
X8328365Y396940D01*
X8327394Y395553D01*
X8325175Y392364D01*
X8339182Y380714D01*
Y380853D01*
X8339460Y380992D01*
X8340153Y381824D01*
X8341124Y383072D01*
X8342234Y384875D01*
X8343620Y386955D01*
X8345007Y389313D01*
X8346394Y391948D01*
X8347503Y394721D01*
Y394860D01*
X8347642Y395137D01*
X8347781Y395553D01*
X8347920Y396108D01*
X8348336Y397634D01*
X8348752Y399575D01*
X8349306Y401794D01*
X8349722Y404429D01*
X8349861Y407203D01*
X8350000Y409977D01*
Y380714D01*
X8270118D01*
X8350000D01*
Y440210D01*
D02*
G37*
G36*
X8315051Y368787D02*
X8271505D01*
Y349094D01*
X8313803D01*
X8313942D01*
X8314219D01*
X8314774D01*
X8315467D01*
X8316300Y348956D01*
X8317270D01*
X8319489Y348678D01*
X8321847Y348401D01*
X8324205Y347846D01*
X8326562Y347014D01*
X8327533Y346598D01*
X8328365Y346043D01*
X8328504Y345905D01*
X8329059Y345489D01*
X8329752Y344795D01*
X8330445Y343824D01*
X8331277Y342576D01*
X8331971Y341051D01*
X8332526Y339248D01*
X8332664Y337167D01*
Y336890D01*
X8332526Y336197D01*
X8332387Y335087D01*
X8332110Y333700D01*
X8331555Y332314D01*
X8330861Y330788D01*
X8329752Y329401D01*
X8328365Y328153D01*
X8328088Y328014D01*
X8327533Y327737D01*
X8326424Y327321D01*
X8324898Y326766D01*
X8322956Y326211D01*
X8320460Y325795D01*
X8317409Y325518D01*
X8315606Y325379D01*
X8313803D01*
X8271505D01*
Y304993D01*
X8350000D01*
X8313387D01*
X8314635Y305131D01*
X8316300Y305270D01*
X8318241Y305409D01*
X8320321Y305548D01*
X8322540Y305964D01*
X8327256Y306796D01*
X8329613Y307489D01*
X8332110Y308183D01*
X8334467Y309153D01*
X8336686Y310124D01*
X8338766Y311372D01*
X8340708Y312759D01*
X8340847Y312898D01*
X8341124Y313175D01*
X8341540Y313591D01*
X8342234Y314285D01*
X8342927Y315117D01*
X8343620Y316226D01*
X8344591Y317474D01*
X8345423Y318861D01*
X8346255Y320387D01*
X8347087Y322190D01*
X8347920Y324270D01*
X8348613Y326489D01*
X8349168Y328846D01*
X8349584Y331481D01*
X8349861Y334255D01*
X8350000Y337167D01*
Y339248D01*
Y338693D01*
X8349861Y339802D01*
X8349722Y341189D01*
X8349584Y342715D01*
X8349306Y344379D01*
X8348890Y346321D01*
X8348336Y348124D01*
X8347781Y350204D01*
X8347087Y352145D01*
X8346117Y354087D01*
X8345007Y356028D01*
X8343759Y357970D01*
X8342372Y359634D01*
X8340708Y361160D01*
X8340569Y361298D01*
X8340292Y361437D01*
X8339737Y361853D01*
X8338905Y362408D01*
X8337934Y362963D01*
X8336686Y363656D01*
X8335161Y364350D01*
X8333496Y365043D01*
X8331555Y365736D01*
X8329336Y366430D01*
X8326978Y367123D01*
X8324343Y367678D01*
X8321431Y368094D01*
X8318380Y368510D01*
X8315051Y368787D01*
D02*
G37*
G36*
X8348752Y293205D02*
Y264081D01*
X8348613Y264913D01*
Y266023D01*
X8348474Y267271D01*
X8348336Y268796D01*
X8348058Y270322D01*
X8347365Y273650D01*
X8346533Y277256D01*
X8345146Y280862D01*
X8343343Y284190D01*
Y284329D01*
X8343066Y284606D01*
X8342788Y285022D01*
X8342372Y285577D01*
X8340985Y286964D01*
X8340153Y287796D01*
X8339182Y288628D01*
X8338073Y289460D01*
X8336686Y290292D01*
X8335299Y290986D01*
X8333774Y291679D01*
X8331971Y292234D01*
X8330168Y292789D01*
X8328226Y293066D01*
X8326007Y293205D01*
X8271505D01*
X8324759D01*
X8323372Y292927D01*
X8321570Y292650D01*
X8319767Y292234D01*
X8317686Y291402D01*
X8315745Y290431D01*
X8313942Y289044D01*
X8313803Y288905D01*
X8313249Y288351D01*
X8312416Y287380D01*
X8311446Y285993D01*
X8310475Y284329D01*
X8309504Y282249D01*
X8308533Y279752D01*
X8307840Y276840D01*
X8307424D01*
Y276979D01*
X8307285Y277117D01*
X8307008Y277949D01*
X8306592Y279198D01*
X8305898Y280584D01*
X8304928Y282249D01*
X8303818Y283913D01*
X8302431Y285438D01*
X8300767Y286686D01*
X8300490Y286825D01*
X8299935Y287103D01*
X8298964Y287657D01*
X8297716Y288212D01*
X8296190Y288767D01*
X8294388Y289183D01*
X8292585Y289460D01*
X8290643Y289599D01*
X8290504D01*
X8290088D01*
X8289534Y289460D01*
X8288840D01*
X8287869Y289321D01*
X8286899Y289044D01*
X8284541Y288489D01*
X8282045Y287380D01*
X8280796Y286686D01*
X8279548Y285854D01*
X8278300Y284884D01*
X8277191Y283774D01*
X8276220Y282526D01*
X8275388Y281000D01*
Y280862D01*
X8275249Y280584D01*
X8274972Y280168D01*
X8274694Y279475D01*
X8274417Y278782D01*
X8274140Y277811D01*
X8273724Y276701D01*
X8273308Y275314D01*
X8273030Y273928D01*
X8272614Y272402D01*
X8271921Y268935D01*
X8271643Y264913D01*
X8271505Y260475D01*
Y232600D01*
X8348752D01*
Y293205D01*
D02*
G37*
G36*
Y225111D02*
X8271505D01*
Y154798D01*
X8348752Y177542D01*
Y202228D01*
X8271505Y225111D01*
X8348752D01*
D02*
G37*
%LPD*%
G36*
X8325869Y273234D02*
X8326701Y272957D01*
X8327810Y272679D01*
X8328920Y272125D01*
X8329891Y271293D01*
X8330861Y270322D01*
X8331000Y270183D01*
X8331139Y269767D01*
X8331555Y269074D01*
X8331971Y268103D01*
X8332387Y266855D01*
X8332803Y265329D01*
X8333080Y263526D01*
X8333219Y261446D01*
Y252986D01*
X8316161D01*
Y262417D01*
X8316300Y263526D01*
X8316438Y264774D01*
X8316993Y267687D01*
X8317409Y269074D01*
X8318102Y270322D01*
X8318241Y270460D01*
X8318519Y270738D01*
X8318935Y271293D01*
X8319628Y271847D01*
X8320460Y272402D01*
X8321570Y272957D01*
X8322818Y273234D01*
X8324343Y273373D01*
X8324482D01*
X8325037D01*
X8325869Y273234D01*
D02*
G37*
G36*
X8295081Y269628D02*
X8295913Y269490D01*
X8296884Y269212D01*
X8297855Y268658D01*
X8298825Y268103D01*
X8299658Y267271D01*
X8299796Y267132D01*
X8299935Y266855D01*
X8300351Y266300D01*
X8300767Y265468D01*
X8301183Y264497D01*
X8301599Y263249D01*
X8301876Y261723D01*
X8302015Y259920D01*
Y252986D01*
X8287037D01*
Y260753D01*
X8287176Y261585D01*
Y262694D01*
X8287731Y265190D01*
X8288147Y266300D01*
X8288701Y267271D01*
Y267409D01*
X8288979Y267687D01*
X8289395Y268103D01*
X8289950Y268519D01*
X8290643Y268935D01*
X8291475Y269351D01*
X8292585Y269628D01*
X8293833Y269767D01*
X8293971D01*
X8294388D01*
X8295081Y269628D01*
D02*
G37*
G36*
X8305205Y196265D02*
X8305482D01*
X8306314Y195987D01*
X8307563Y195710D01*
X8309088Y195432D01*
X8310891Y195016D01*
X8312971Y194462D01*
X8317548Y193491D01*
X8317825D01*
X8318657Y193213D01*
X8319767Y193075D01*
X8321431Y192659D01*
X8323234Y192243D01*
X8325314Y191688D01*
X8327533Y191133D01*
X8329891Y190578D01*
Y190162D01*
X8329752D01*
X8329613Y190024D01*
X8328781Y189885D01*
X8327533Y189608D01*
X8326007Y189192D01*
X8324066Y188776D01*
X8321986Y188221D01*
X8317548Y187250D01*
X8317409D01*
X8317270D01*
X8316438Y186973D01*
X8315329Y186834D01*
X8313665Y186418D01*
X8311862Y186002D01*
X8309781Y185447D01*
X8307563Y184892D01*
X8305344Y184338D01*
X8271505Y176294D01*
Y204170D01*
X8305205Y196265D01*
D02*
G37*
%LPC*%
G36*
X6898752Y462607D02*
X6823308D01*
X6882387D01*
Y449016D01*
X6823308D01*
Y434038D01*
X6823446Y433899D01*
X6823724Y433345D01*
X6824278Y432512D01*
X6824833Y431403D01*
X6825527Y430016D01*
X6826220Y428491D01*
X6827746Y425162D01*
X6827884Y425024D01*
X6828023Y424330D01*
X6828300Y423359D01*
X6828716Y422111D01*
X6829132Y420447D01*
X6829687Y418644D01*
X6830103Y416564D01*
X6830658Y414345D01*
X6843139D01*
Y428629D01*
X6882387D01*
Y412403D01*
X6898752D01*
Y462607D01*
D02*
G37*
G36*
Y401725D02*
D01*
Y381199D01*
X6838563D01*
Y401725D01*
X6821505D01*
Y340288D01*
X6898752D01*
Y401725D01*
D02*
G37*
G36*
Y338485D02*
D01*
X6821505Y314908D01*
Y290223D01*
X6898752Y266785D01*
X6821505D01*
X6898752D01*
Y338485D01*
D02*
G37*
G36*
Y264982D02*
D01*
Y244457D01*
X6838563D01*
Y264982D01*
X6821505D01*
Y203545D01*
X6898752D01*
Y264982D01*
D02*
G37*
G36*
X6900000Y196888D02*
X6820118D01*
X6874066D01*
X6872679Y196750D01*
X6870876Y196472D01*
X6868796Y195918D01*
X6866577Y195224D01*
X6864497Y194253D01*
X6862417Y193005D01*
X6862139Y192867D01*
X6861584Y192312D01*
X6860614Y191341D01*
X6859366Y190232D01*
X6858117Y188567D01*
X6856731Y186626D01*
X6855482Y184407D01*
X6854234Y181910D01*
X6850628Y172480D01*
X6850490Y172203D01*
X6850351Y171648D01*
X6849935Y170677D01*
X6849519Y169429D01*
X6848964Y168042D01*
X6848409Y166655D01*
X6847716Y165268D01*
X6847161Y164020D01*
X6847023Y163882D01*
X6846884Y163604D01*
X6846468Y163049D01*
X6846052Y162495D01*
X6844665Y161385D01*
X6843833Y160969D01*
X6842862Y160831D01*
X6842723D01*
X6842446D01*
X6841891Y160969D01*
X6841337Y161108D01*
X6840782Y161385D01*
X6840088Y161801D01*
X6839534Y162356D01*
X6838979Y163049D01*
Y163188D01*
X6838702Y163466D01*
X6838563Y164020D01*
X6838286Y164575D01*
X6838008Y165546D01*
X6837869Y166517D01*
X6837592Y167626D01*
Y169706D01*
X6837731Y170538D01*
Y171648D01*
X6838008Y172896D01*
X6838286Y174144D01*
X6838563Y175531D01*
X6839118Y176918D01*
Y177057D01*
X6839395Y177611D01*
X6839672Y178305D01*
X6840088Y179275D01*
X6840782Y180385D01*
X6841475Y181772D01*
X6843278Y184545D01*
X6830381Y194808D01*
X6830103Y194531D01*
X6829548Y193837D01*
X6828578Y192728D01*
X6827468Y191202D01*
X6826220Y189399D01*
X6824833Y187319D01*
X6823724Y185100D01*
X6822614Y182604D01*
Y182465D01*
X6822476Y182327D01*
X6822337Y181910D01*
X6822198Y181494D01*
X6821782Y180108D01*
X6821366Y178305D01*
X6820811Y176363D01*
X6820395Y174005D01*
X6820118Y171509D01*
Y172064D01*
Y167765D01*
X6820257Y166933D01*
X6820395Y165823D01*
X6820534Y164575D01*
X6820673Y163049D01*
X6821089Y161524D01*
X6821921Y158334D01*
X6823030Y154867D01*
X6824833Y151400D01*
X6825804Y149736D01*
X6827052Y148210D01*
X6827191Y148072D01*
X6827329Y147933D01*
X6827746Y147517D01*
X6828300Y146962D01*
X6828994Y146407D01*
X6829687Y145714D01*
X6831767Y144327D01*
X6834264Y142940D01*
X6837176Y141553D01*
X6840366Y140721D01*
X6842169Y140444D01*
X6844110Y140305D01*
X6844249D01*
X6844526D01*
X6844942D01*
X6845497Y140444D01*
X6847023Y140583D01*
X6848964Y140999D01*
X6851183Y141553D01*
X6853402Y142247D01*
X6855760Y143356D01*
X6857840Y144882D01*
X6858117Y145021D01*
X6858672Y145714D01*
X6859643Y146685D01*
X6860752Y147933D01*
X6862000Y149458D01*
X6863387Y151400D01*
X6864497Y153480D01*
X6865606Y155838D01*
X6869628Y165407D01*
X6869767Y165684D01*
X6869905Y166239D01*
X6870322Y167071D01*
X6870738Y168319D01*
X6871847Y170816D01*
X6872402Y172064D01*
X6872957Y173173D01*
Y173312D01*
X6873234Y173589D01*
X6874066Y174560D01*
X6875314Y175531D01*
X6876146Y175947D01*
X6877117Y176086D01*
X6877256D01*
X6877533D01*
X6878088Y175947D01*
X6878643Y175808D01*
X6879197Y175531D01*
X6879891Y175115D01*
X6880584Y174560D01*
X6881139Y173867D01*
Y173728D01*
X6881416Y173451D01*
X6881555Y172896D01*
X6881832Y172203D01*
X6882110Y171232D01*
X6882387Y170122D01*
X6882526Y168736D01*
X6882664Y167071D01*
Y166378D01*
X6882526Y165407D01*
X6882387Y164298D01*
X6882110Y162911D01*
X6881694Y161385D01*
X6881278Y159721D01*
X6880584Y157918D01*
X6880445Y157779D01*
X6880168Y157086D01*
X6879752Y156254D01*
X6879059Y155006D01*
X6878365Y153619D01*
X6877394Y152232D01*
X6875175Y149042D01*
X6889183Y137393D01*
Y137532D01*
X6889460Y137670D01*
X6890153Y138502D01*
X6891124Y139751D01*
X6892234Y141553D01*
X6893620Y143634D01*
X6895007Y145991D01*
X6896394Y148626D01*
X6897504Y151400D01*
Y151539D01*
X6897642Y151816D01*
X6897781Y152232D01*
X6897920Y152787D01*
X6898336Y154312D01*
X6898752Y156254D01*
X6899306Y158473D01*
X6899723Y161108D01*
X6899861Y163882D01*
X6900000Y166655D01*
Y137393D01*
Y167349D01*
X6899861Y168042D01*
Y169013D01*
X6899723Y170261D01*
X6899584Y171648D01*
X6899306Y173173D01*
X6899029Y174976D01*
X6898058Y178443D01*
X6896810Y182188D01*
X6895978Y183991D01*
X6895007Y185794D01*
X6893898Y187458D01*
X6892650Y188983D01*
X6892511Y189122D01*
X6892372Y189261D01*
X6891956Y189677D01*
X6891402Y190232D01*
X6890708Y190786D01*
X6889876Y191480D01*
X6887796Y193005D01*
X6885299Y194392D01*
X6882387Y195640D01*
X6880862Y196195D01*
X6879059Y196611D01*
X6877256Y196750D01*
X6875453Y196888D01*
X6900000D01*
D02*
G37*
%LPD*%
G36*
X6898752Y340288D02*
X6838563D01*
Y360813D01*
X6898752D01*
Y340288D01*
D02*
G37*
G36*
X6866577Y295077D02*
X6861168Y296325D01*
X6860891Y296463D01*
X6860198Y296602D01*
X6859088Y296880D01*
X6857563Y297296D01*
X6855760Y297712D01*
X6853679Y298266D01*
X6851461Y298682D01*
X6849103Y299237D01*
X6848964D01*
X6848826D01*
X6847993Y299515D01*
X6846745Y299792D01*
X6845081Y300069D01*
X6843278Y300485D01*
X6841198Y300901D01*
X6836621Y301872D01*
Y302288D01*
X6836899Y302427D01*
X6837592Y302566D01*
X6838840Y302843D01*
X6840366Y303259D01*
X6842307Y303675D01*
X6844388Y304230D01*
X6846745Y304646D01*
X6849103Y305201D01*
X6849380D01*
X6850212Y305478D01*
X6851461Y305755D01*
X6852986Y306033D01*
X6854789Y306587D01*
X6856869Y307003D01*
X6861168Y308113D01*
X6866577Y309361D01*
Y295077D01*
D02*
G37*
G36*
X6898752Y287588D02*
X6882248Y291332D01*
Y313106D01*
X6898752Y316850D01*
Y287588D01*
D02*
G37*
G36*
Y203545D02*
X6838563D01*
Y224070D01*
X6898752D01*
Y203545D01*
D02*
G37*
D73*
X4630000Y2825000D02*
G03*
X4630000Y2825000I-10000J0D01*
G01*
X4632500Y2349999D02*
G03*
X4632500Y2349999I-10000J0D01*
G01*
X4630000Y6295000D02*
G03*
X4640000Y6295000I5000J0D01*
G01*
D02*
G03*
X4630000Y6295000I-5000J0D01*
G01*
D02*
G03*
X4640000Y6295000I5000J0D01*
G01*
X4675526Y2070000D02*
X4785525D01*
Y1780000D02*
Y2070000D01*
X4675526Y1780000D02*
X4785525D01*
X4675526D02*
Y2070000D01*
X4583025Y2076000D02*
X4640525D01*
X4955000Y4765000D02*
Y4875000D01*
X5245000D01*
Y4765000D02*
Y4875000D01*
X4955000Y4765000D02*
X5245000D01*
X4949000Y4672500D02*
Y4730000D01*
X7860000Y1480000D02*
X7920000D01*
X4340000Y4827500D02*
X4400000D01*
Y4537500D02*
Y4827500D01*
X4340000Y4537500D02*
X4400000D01*
X4340000D02*
Y4827500D01*
X4185000Y4842500D02*
X4305000D01*
X7230000Y1970000D02*
X7390000D01*
X7230000Y2130000D02*
X7390000D01*
X7230000Y1770000D02*
X7390000D01*
X7230000Y1930000D02*
X7390000D01*
X10367000Y1625000D02*
Y1695000D01*
Y1625000D02*
X10519500D01*
X10367000Y2955000D02*
Y3025000D01*
X10519500D01*
X10672000Y1730000D02*
Y2920000D01*
X9250000Y2420000D02*
Y2520000D01*
X8949000Y2385000D02*
X9241000D01*
X8949000Y2315000D02*
Y2385000D01*
Y2315000D02*
X9241000D01*
Y2385000D01*
X8917500Y1842500D02*
X9137500D01*
X8917500Y2097500D02*
X9137500D01*
X8695000Y2500000D02*
Y2560000D01*
X8405000Y2500000D02*
X8695000D01*
X8405000D02*
Y2560000D01*
X8695000D01*
X8710000Y2595000D02*
Y2715000D01*
X9510500Y1740000D02*
X9779500D01*
X9510500Y1580000D02*
X9877500D01*
X9510500Y2140000D02*
X9779500D01*
X9510500Y1980000D02*
X9877500D01*
X9510500Y1780000D02*
X9779500D01*
X9412500Y1940000D02*
X9779500D01*
X8217500Y560000D02*
Y792500D01*
X8382500D01*
Y560000D02*
Y792500D01*
X5251500Y3477499D02*
Y4407499D01*
Y3477499D02*
X6181500D01*
Y4407499D01*
X5251500D02*
X6181500D01*
X8350000Y4815000D02*
Y4855000D01*
X7970000Y4815000D02*
Y4855000D01*
X7280101Y5510800D02*
Y5630800D01*
X7295100Y5665800D02*
X7585100D01*
Y5725800D01*
X7295100D02*
X7585100D01*
X7295100Y5665800D02*
Y5725800D01*
X6995000Y6563000D02*
X8900000D01*
X6995000Y6309000D02*
Y6563000D01*
Y6309000D02*
X9027000D01*
Y6436000D01*
X6995000Y4277000D02*
X8900000D01*
X6995000Y4023000D02*
Y4277000D01*
Y4023000D02*
X9027000D01*
Y4150000D01*
X5015000Y1780000D02*
X5125000D01*
X5015000D02*
Y2070000D01*
X5125000D01*
Y1780000D02*
Y2070000D01*
X5160000Y1774000D02*
X5217500D01*
X4450000Y2843800D02*
X4530000D01*
X4450000D02*
Y3146200D01*
X4530000D01*
Y2843800D02*
Y3146200D01*
X4452500Y2368799D02*
X4532500D01*
X4452500D02*
Y2671199D01*
X4532500D01*
Y2368799D02*
Y2671199D01*
X8815000Y3485000D02*
X8875000D01*
Y3195000D02*
Y3485000D01*
X8815000Y3195000D02*
X8875000D01*
X8815000D02*
Y3485000D01*
X8660000Y3500000D02*
X8780000D01*
X7535000Y1160000D02*
Y1220000D01*
X7825000D01*
Y1160000D02*
Y1220000D01*
X7535000Y1160000D02*
X7825000D01*
X7520000Y1005000D02*
Y1125000D01*
X8159000Y1510000D02*
Y1580000D01*
X8451000D01*
Y1510000D02*
Y1580000D01*
X8159000Y1510000D02*
X8451000D01*
X8150000Y1375000D02*
Y1475000D01*
X9510000Y3400000D02*
X9880000D01*
X9510000D02*
Y3700000D01*
X9880000D01*
Y3400000D02*
Y3700000D01*
X9915000Y3395000D02*
X10062500D01*
X4890000Y3642500D02*
X4949999D01*
X8582500Y560000D02*
Y792500D01*
X8417500D02*
X8582500D01*
X8417500Y560000D02*
Y792500D01*
X6787500Y2217500D02*
Y2450000D01*
Y2217500D02*
X6952500D01*
Y2450000D01*
X6997500Y2217500D02*
Y2450000D01*
Y2217500D02*
X7162500D01*
Y2450000D01*
X7132500Y555000D02*
Y787500D01*
X6967500D02*
X7132500D01*
X6967500Y555000D02*
Y787500D01*
X6932500Y555000D02*
Y787500D01*
X6767500D02*
X6932500D01*
X6767500Y555000D02*
Y787500D01*
X9680000Y290000D02*
Y419000D01*
Y290000D02*
X10030000D01*
Y420000D01*
X9485000Y419000D02*
Y795000D01*
Y419000D02*
X10225000D01*
Y795000D01*
X9485000Y1035000D02*
Y1075000D01*
X10225000D01*
Y1035000D02*
Y1075000D01*
X6540000Y1945000D02*
X6700000D01*
X6540000Y1785000D02*
X6700000D01*
X4685000Y5540000D02*
X4840000D01*
X4685000D02*
X4840000D01*
X4685000D02*
Y5695000D01*
Y5540000D02*
Y5695000D01*
Y6395000D02*
Y6550000D01*
Y6395000D02*
Y6550000D01*
X4840000D01*
X4685000D02*
X4840000D01*
X5540000D02*
X5695000D01*
X5540000D02*
X5695000D01*
Y6420000D02*
Y6550000D01*
Y6420000D02*
Y6550000D01*
Y5540000D02*
Y5695000D01*
Y5540000D02*
Y5695000D01*
X5565000Y5540000D02*
X5695000D01*
X5565000D02*
X5695000D01*
X5800000Y2345000D02*
X5880000D01*
X5920000D02*
X6000000D01*
X5389618Y2328639D02*
X5469617D01*
X5420000Y3060000D02*
Y3140000D01*
X8047500Y2527500D02*
X8127500D01*
X7080000Y1545000D02*
Y1625000D01*
X5100000Y2365000D02*
Y2445000D01*
X6847500Y1545000D02*
Y1625000D01*
X6040000Y2345000D02*
X6120000D01*
X8335000Y5820000D02*
Y5860000D01*
X7955000Y5820000D02*
Y5860000D01*
X6055400Y385100D02*
X6494600D01*
X6465000Y1070000D02*
X6670000D01*
X5880000D02*
X6085000D01*
X6670000Y727500D02*
Y1070000D01*
X5880000Y727500D02*
Y1070000D01*
X5412500Y2490000D02*
Y2920000D01*
Y2490000D02*
X5842500D01*
Y2920000D01*
X5412500D02*
X5842500D01*
X4058000Y3921000D02*
X4322000D01*
Y4479000D01*
X4058000D02*
X4322000D01*
X4058000Y3921000D02*
Y4479000D01*
X7017500Y3753500D02*
X8282500D01*
Y3241000D02*
Y3753500D01*
X7017500Y3241000D02*
X8282500D01*
X7017500D02*
Y3753500D01*
X5834500Y300500D02*
Y523500D01*
Y938500D02*
Y1672500D01*
X4957500D02*
X5147000D01*
X5391000D02*
X5401000D01*
X5645000D02*
X5834500D01*
X4957500Y300500D02*
Y523500D01*
Y938500D02*
Y1672500D01*
Y300500D02*
X5834500D01*
X8680000Y383000D02*
Y907000D01*
Y957000D02*
Y1015000D01*
X8640000Y899500D02*
Y964500D01*
X8680000Y957000D01*
X8640000Y899500D02*
X8680000Y907000D01*
Y275000D02*
Y333000D01*
X8640000Y390500D02*
X8680000Y383000D01*
X8640000Y325500D02*
X8680000Y333000D01*
X8640000Y325500D02*
Y390500D01*
X9380000Y275000D02*
Y1015000D01*
X8680000Y275000D02*
X9380000D01*
X8680000Y1015000D02*
X9380000D01*
X4908500Y304000D02*
Y527000D01*
Y942000D02*
Y1676000D01*
X4031500D02*
X4221000D01*
X4465000D02*
X4475000D01*
X4719000D02*
X4908500D01*
X4031500Y304000D02*
Y527000D01*
Y942000D02*
Y1676000D01*
Y304000D02*
X4908500D01*
X7081000Y3315000D02*
X7114323D01*
X7097661D01*
Y3414968D01*
X7081000Y3398306D01*
D91*
X4745000Y4195000D02*
G03*
X4735000Y4195000I-5000J0D01*
G01*
D02*
G03*
X4745000Y4195000I5000J0D01*
G01*
X4735000D02*
G03*
X4745000Y4195000I5000J0D01*
G01*
D02*
G03*
X4735000Y4195000I-5000J0D01*
G01*
X7895000Y1100000D02*
G03*
X7885000Y1100000I-5000J0D01*
G01*
D02*
G03*
X7895000Y1100000I5000J0D01*
G01*
X8030000Y1305000D02*
G03*
X8030000Y1315000I0J5000D01*
G01*
D02*
G03*
X8030000Y1305000I0J-5000D01*
G01*
X7305000Y830000D02*
G03*
X7315000Y830000I5000J0D01*
G01*
D02*
G03*
X7305000Y830000I-5000J0D01*
G01*
X7070000Y1985000D02*
G03*
X7070000Y1995000I0J5000D01*
G01*
D02*
G03*
X7070000Y1985000I0J-5000D01*
G01*
Y1840000D02*
G03*
X7070000Y1850000I0J5000D01*
G01*
D02*
G03*
X7070000Y1840000I0J-5000D01*
G01*
X10295419Y2898349D02*
G03*
X10285419Y2898349I-5000J0D01*
G01*
D02*
G03*
X10295419Y2898349I5000J0D01*
G01*
X8343700Y4965000D02*
G03*
X8343700Y4975000I0J5000D01*
G01*
D02*
G03*
X8343700Y4965000I0J-5000D01*
G01*
X7505332Y2362501D02*
G03*
X7505332Y2372501I0J5000D01*
G01*
D02*
G03*
X7505332Y2362501I0J-5000D01*
G01*
X7980000Y5982500D02*
G03*
X7980000Y5992500I0J5000D01*
G01*
D02*
G03*
X7980000Y5982500I0J-5000D01*
G01*
X8330000Y4707500D02*
G03*
X8330000Y4697500I0J-5000D01*
G01*
D02*
G03*
X8330000Y4707500I0J5000D01*
G01*
X9385000Y925000D02*
G03*
X9375000Y925000I-5000J0D01*
G01*
D02*
G03*
X9385000Y925000I5000J0D01*
G01*
X6280000Y2465000D02*
G03*
X6280000Y2455000I0J-5000D01*
G01*
D02*
G03*
X6280000Y2465000I0J5000D01*
G01*
X4022500Y2810000D02*
G03*
X4032500Y2810000I5000J0D01*
G01*
D02*
G03*
X4022500Y2810000I-5000J0D01*
G01*
X4030000Y2320000D02*
G03*
X4040000Y2320000I5000J0D01*
G01*
D02*
G03*
X4030000Y2320000I-5000J0D01*
G01*
X6380000Y1865000D02*
G03*
X6380000Y1855000I0J-5000D01*
G01*
D02*
G03*
X6380000Y1865000I0J5000D01*
G01*
X8328700Y5970000D02*
G03*
X8328700Y5980000I0J5000D01*
G01*
D02*
G03*
X8328700Y5970000I0J-5000D01*
G01*
X4515000Y4170000D02*
Y4230000D01*
X4665000Y4170000D02*
Y4230000D01*
X4020000Y4090000D02*
X3943825D01*
Y4128088D01*
X3956521Y4140783D01*
X3981912D01*
X3994608Y4128088D01*
Y4090000D01*
Y4115392D02*
X4020000Y4140783D01*
X3956521Y4216959D02*
X3943825Y4204263D01*
Y4178871D01*
X3956521Y4166175D01*
X3969217D01*
X3981912Y4178871D01*
Y4204263D01*
X3994608Y4216959D01*
X4007304D01*
X4020000Y4204263D01*
Y4178871D01*
X4007304Y4166175D01*
X3943825Y4242351D02*
Y4293134D01*
Y4267743D01*
X4020000D01*
X7070000Y2050000D02*
X6993824D01*
Y2088088D01*
X7006520Y2100784D01*
X7031912D01*
X7044608Y2088088D01*
Y2050000D01*
Y2075392D02*
X7070000Y2100784D01*
X6993824Y2126176D02*
X7070000Y2176959D01*
X6993824D02*
X7070000Y2126176D01*
X6833825Y2050000D02*
Y2100783D01*
Y2075392D01*
X6910000D01*
X6833825Y2126175D02*
X6910000Y2176959D01*
X6833825D02*
X6910000Y2126175D01*
X8810783Y1366175D02*
X8760000D01*
Y1328088D01*
X8785392Y1340783D01*
X8798088D01*
X8810783Y1328088D01*
Y1302696D01*
X8798088Y1290000D01*
X8772696D01*
X8760000Y1302696D01*
X8836175Y1328088D02*
X8886959D01*
X8912351Y1290000D02*
X8937743D01*
X8925047D01*
Y1366175D01*
X8912351Y1353479D01*
X8975830D02*
X8988526Y1366175D01*
X9013918D01*
X9026614Y1353479D01*
Y1340783D01*
X9013918Y1328088D01*
X9026614Y1315392D01*
Y1302696D01*
X9013918Y1290000D01*
X8988526D01*
X8975830Y1302696D01*
Y1315392D01*
X8988526Y1328088D01*
X8975830Y1340783D01*
Y1353479D01*
X8988526Y1328088D02*
X9013918D01*
X9128181Y1366175D02*
Y1315392D01*
X9153573Y1290000D01*
X9178964Y1315392D01*
Y1366175D01*
X9204356D02*
Y1290000D01*
X9242444D01*
X9255140Y1302696D01*
Y1353479D01*
X9242444Y1366175D01*
X9204356D01*
X9331315Y1353479D02*
X9318619Y1366175D01*
X9293228D01*
X9280532Y1353479D01*
Y1302696D01*
X9293228Y1290000D01*
X9318619D01*
X9331315Y1302696D01*
X10100000Y4970000D02*
Y5069968D01*
X10149984D01*
X10166645Y5053307D01*
Y5019984D01*
X10149984Y5003323D01*
X10100000D01*
X10133323D02*
X10166645Y4970000D01*
X10249952D02*
X10216629D01*
X10199968Y4986662D01*
Y5019984D01*
X10216629Y5036645D01*
X10249952D01*
X10266613Y5019984D01*
Y5003323D01*
X10199968D01*
X10299936Y5036645D02*
X10333258Y4970000D01*
X10366581Y5036645D01*
X10499871Y4970000D02*
X10533194D01*
X10516533D01*
Y5069968D01*
X10499871Y5053307D01*
X10583178Y4970000D02*
Y4986662D01*
X10599839D01*
Y4970000D01*
X10583178D01*
X10666484Y5053307D02*
X10683146Y5069968D01*
X10716468D01*
X10733129Y5053307D01*
Y4986662D01*
X10716468Y4970000D01*
X10683146D01*
X10666484Y4986662D01*
Y5053307D01*
D92*
X5106500Y4392499D02*
G03*
X5106500Y4392499I-12500J0D01*
G01*
X5481401Y2107200D02*
G03*
X5481401Y2107200I-12500J0D01*
G01*
X6772500Y1480000D02*
G03*
X6772500Y1480000I-12500J0D01*
G01*
X6030000Y6347500D02*
G03*
X6030000Y6347500I-12500J0D01*
G01*
X5961200Y5911600D02*
G03*
X5961200Y5911600I-12500J0D01*
G01*
X5375000Y2705000D02*
G03*
X5375000Y2705000I-12500J0D01*
G01*
X5536000Y1766500D02*
G03*
X5536000Y1766500I-12500J0D01*
G01*
X4609500Y1738500D02*
G03*
X4609500Y1738500I-12500J0D01*
G01*
D93*
X6170700Y1328200D02*
G03*
X6165500Y1328200I-2600J0D01*
G01*
D02*
G03*
X6170700Y1328200I2600J0D01*
G01*
D94*
X9863206Y2477444D02*
Y2627444D01*
X9283206Y2277444D02*
Y2427444D01*
X9863206Y2277444D02*
Y2427444D01*
X9283206Y2477444D02*
Y2627444D01*
D95*
X8146000Y120000D02*
Y157500D01*
X7226000Y821000D02*
X7366000D01*
X7226000Y695741D02*
Y821000D01*
Y357500D02*
Y500222D01*
Y120000D02*
Y157500D01*
X8146000Y357500D02*
Y500222D01*
Y695741D02*
Y821000D01*
X7998500D02*
X8145996D01*
D96*
X10705000Y3448500D02*
Y3708500D01*
D97*
X9100000Y1160000D02*
X9233290D01*
X8790000Y1166645D02*
X8923290D01*
X8856645Y1233290D02*
Y1100000D01*
X2310000Y6440000D02*
X2443290D01*
X2330000Y256645D02*
X2463290D01*
X2396645Y323290D02*
Y190000D01*
D98*
X9405000Y5317351D02*
Y5165000D01*
X9506567D01*
X9582743D02*
X9633526D01*
X9658918Y5190392D01*
Y5241175D01*
X9633526Y5266567D01*
X9582743D01*
X9557351Y5241175D01*
Y5190392D01*
X9582743Y5165000D01*
X9811269Y5266567D02*
X9735093D01*
X9709701Y5241175D01*
Y5190392D01*
X9735093Y5165000D01*
X9811269D01*
X9862052Y5266567D02*
Y5190392D01*
X9887444Y5165000D01*
X9963619D01*
Y5266567D01*
X10115970Y5291959D02*
X10090578Y5317351D01*
X10039795D01*
X10014403Y5291959D01*
Y5266567D01*
X10039795Y5241175D01*
X10090578D01*
X10115970Y5215783D01*
Y5190392D01*
X10090578Y5165000D01*
X10039795D01*
X10014403Y5190392D01*
X10242929Y5165000D02*
X10192145D01*
X10166754Y5190392D01*
Y5241175D01*
X10192145Y5266567D01*
X10242929D01*
X10268321Y5241175D01*
Y5215783D01*
X10166754D01*
X10319104Y5165000D02*
Y5266567D01*
X10395280D01*
X10420672Y5241175D01*
Y5165000D01*
X10471455D02*
X10547630D01*
X10573022Y5190392D01*
X10547630Y5215783D01*
X10496847D01*
X10471455Y5241175D01*
X10496847Y5266567D01*
X10573022D01*
X10699981Y5165000D02*
X10649198D01*
X10623806Y5190392D01*
Y5241175D01*
X10649198Y5266567D01*
X10699981D01*
X10725373Y5241175D01*
Y5215783D01*
X10623806D01*
%TF.MD5,d6f600bfd765c3de956b8c10026a10ec*%
M02*
